<svg xmlns="http://www.w3.org/2000/svg" width="56" height="49" viewBox="0 0 56 49">
  <g id="Grupo_947591" data-name="Grupo 947591" transform="translate(-390 -2882)">
    <path id="Trazado_628954" data-name="Trazado 628954" d="M0,0H56V49H0Z" transform="translate(390 2882)" fill="#6aceae"/>
    <path id="Trazado_628955" data-name="Trazado 628955" d="M26.968,0H20.815V-12.8h-12V0H2.666V-29.859H8.818v12.1h12v-12.1h6.152Zm5.271-2.912a2.984,2.984,0,0,1,.954-2.3,3.384,3.384,0,0,1,2.389-.882,3.411,3.411,0,0,1,2.41.882,2.984,2.984,0,0,1,.954,2.3A2.943,2.943,0,0,1,38-.646a3.426,3.426,0,0,1-2.42.872,3.4,3.4,0,0,1-2.4-.872A2.943,2.943,0,0,1,32.238-2.912Zm0-16.8a2.984,2.984,0,0,1,.954-2.3,3.384,3.384,0,0,1,2.389-.882,3.411,3.411,0,0,1,2.41.882,2.984,2.984,0,0,1,.954,2.3A2.943,2.943,0,0,1,38-17.442a3.426,3.426,0,0,1-2.42.872,3.4,3.4,0,0,1-2.4-.872A2.943,2.943,0,0,1,32.238-19.708Z" transform="translate(399 2918)" fill="#12263f"/>
  </g>
</svg>
