<svg xmlns="http://www.w3.org/2000/svg" width="56" height="49" viewBox="0 0 56 49">
  <g id="Grupo_947593" data-name="Grupo 947593" transform="translate(-390 -2998)">
    <path id="Trazado_628958" data-name="Trazado 628958" d="M0,0H56V49H0Z" transform="translate(390 2998)" fill="#6aceae"/>
    <path id="Trazado_628959" data-name="Trazado 628959" d="M19.523-6.152H8.736L6.686,0H.144L11.259-29.859h5.7L28.137,0H21.595ZM10.4-11.136h7.465L14.109-22.312ZM30.823-2.912a2.984,2.984,0,0,1,.954-2.3,3.384,3.384,0,0,1,2.389-.882,3.411,3.411,0,0,1,2.41.882,2.984,2.984,0,0,1,.954,2.3,2.943,2.943,0,0,1-.943,2.266,3.426,3.426,0,0,1-2.42.872,3.4,3.4,0,0,1-2.4-.872A2.943,2.943,0,0,1,30.823-2.912Zm0-16.8a2.984,2.984,0,0,1,.954-2.3,3.384,3.384,0,0,1,2.389-.882,3.411,3.411,0,0,1,2.41.882,2.984,2.984,0,0,1,.954,2.3,2.943,2.943,0,0,1-.943,2.266,3.426,3.426,0,0,1-2.42.872,3.4,3.4,0,0,1-2.4-.872A2.943,2.943,0,0,1,30.823-19.708Z" transform="translate(399 3028)" fill="#12263f"/>
  </g>
</svg>
