<svg xmlns="http://www.w3.org/2000/svg" width="56" height="49" viewBox="0 0 56 49">
  <g id="Grupo_947590" data-name="Grupo 947590" transform="translate(-390 -2824)">
    <path id="Trazado_628953" data-name="Trazado 628953" d="M0,0H56V49H0Z" transform="translate(390 2824)" fill="#6aceae"/>
    <path id="Trazado_628952" data-name="Trazado 628952" d="M8.818-10.521V0H2.666V-29.859H14.314a13.477,13.477,0,0,1,5.917,1.23,9.067,9.067,0,0,1,3.927,3.5,9.75,9.75,0,0,1,1.374,5.158,8.574,8.574,0,0,1-3,6.921q-3,2.533-8.316,2.533Zm0-4.983h5.5a5.4,5.4,0,0,0,3.722-1.148,4.177,4.177,0,0,0,1.282-3.281,4.925,4.925,0,0,0-1.292-3.548,4.826,4.826,0,0,0-3.568-1.395H8.818ZM29.654-2.912a2.984,2.984,0,0,1,.954-2.3A3.384,3.384,0,0,1,33-6.091a3.411,3.411,0,0,1,2.41.882,2.984,2.984,0,0,1,.954,2.3,2.943,2.943,0,0,1-.943,2.266A3.426,3.426,0,0,1,33,.226a3.4,3.4,0,0,1-2.4-.872A2.943,2.943,0,0,1,29.654-2.912Zm0-16.8a2.984,2.984,0,0,1,.954-2.3A3.384,3.384,0,0,1,33-22.887a3.411,3.411,0,0,1,2.41.882,2.984,2.984,0,0,1,.954,2.3,2.943,2.943,0,0,1-.943,2.266A3.426,3.426,0,0,1,33-16.57a3.4,3.4,0,0,1-2.4-.872A2.943,2.943,0,0,1,29.654-19.708Z" transform="translate(399 2863)" fill="#12263f"/>
  </g>
</svg>
