<svg xmlns="http://www.w3.org/2000/svg" xmlns:xlink="http://www.w3.org/1999/xlink" width="619" height="619.49" viewBox="0 0 619 619.49">
  <defs>
    <linearGradient id="linear-gradient" x1="-0.194" y1="0.787" x2="1.092" y2="0.389" gradientUnits="objectBoundingBox">
      <stop offset="0" stop-color="#0049b2"/>
      <stop offset="1" stop-color="#006ae8"/>
    </linearGradient>
    <filter id="Trazado_628610" x="472.967" y="168.999" width="146.033" height="281.507" filterUnits="userSpaceOnUse">
      <feOffset dy="2" input="SourceAlpha"/>
      <feGaussianBlur result="blur"/>
      <feFlood flood-opacity="0.102"/>
      <feComposite operator="in" in2="blur"/>
      <feComposite in="SourceGraphic"/>
    </filter>
    <linearGradient id="linear-gradient-2" x1="0.007" y1="0.695" x2="2.895" y2="-0.11" xlink:href="#linear-gradient"/>
    <filter id="Trazado_628611" x="411.244" y="240.466" width="64.321" height="138.574" filterUnits="userSpaceOnUse">
      <feOffset dy="2" input="SourceAlpha"/>
      <feGaussianBlur result="blur-2"/>
      <feFlood flood-opacity="0.102"/>
      <feComposite operator="in" in2="blur-2"/>
      <feComposite in="SourceGraphic"/>
    </filter>
    <filter id="Trazado_628612" x="323.398" y="0" width="243.926" height="207.249" filterUnits="userSpaceOnUse">
      <feOffset dy="2" input="SourceAlpha"/>
      <feGaussianBlur result="blur-3"/>
      <feFlood flood-opacity="0.102"/>
      <feComposite operator="in" in2="blur-3"/>
      <feComposite in="SourceGraphic"/>
    </filter>
    <linearGradient id="linear-gradient-3" x1="0.308" y1="0.521" x2="1.715" y2="-0.445" gradientUnits="objectBoundingBox">
      <stop offset="0" stop-color="#3d0a9e"/>
      <stop offset="1" stop-color="#5e28e0"/>
    </linearGradient>
    <filter id="Trazado_628613" x="323.398" y="144.016" width="119.333" height="98.817" filterUnits="userSpaceOnUse">
      <feOffset dy="2" input="SourceAlpha"/>
      <feGaussianBlur result="blur-4"/>
      <feFlood flood-opacity="0.102"/>
      <feComposite operator="in" in2="blur-4"/>
      <feComposite in="SourceGraphic"/>
    </filter>
    <linearGradient id="linear-gradient-4" x1="0.142" y1="0.724" x2="0.642" y2="0.29" gradientUnits="objectBoundingBox">
      <stop offset="0" stop-color="#006cce"/>
      <stop offset="1" stop-color="#0690f7"/>
    </linearGradient>
    <filter id="Trazado_628614" x="323.398" y="412.682" width="243.347" height="206.726" filterUnits="userSpaceOnUse">
      <feOffset dy="2" input="SourceAlpha"/>
      <feGaussianBlur result="blur-5"/>
      <feFlood flood-opacity="0.102"/>
      <feComposite operator="in" in2="blur-5"/>
      <feComposite in="SourceGraphic"/>
    </filter>
    <linearGradient id="linear-gradient-5" x1="-0.189" y1="1.052" x2="0.809" y2="0.152" xlink:href="#linear-gradient-4"/>
    <filter id="Trazado_628615" x="323.398" y="377.063" width="118.643" height="98.219" filterUnits="userSpaceOnUse">
      <feOffset dy="2" input="SourceAlpha"/>
      <feGaussianBlur result="blur-6"/>
      <feFlood flood-opacity="0.102"/>
      <feComposite operator="in" in2="blur-6"/>
      <feComposite in="SourceGraphic"/>
    </filter>
    <filter id="Trazado_628616" x="0" y="169.111" width="145.955" height="281.284" filterUnits="userSpaceOnUse">
      <feOffset dy="2" input="SourceAlpha"/>
      <feGaussianBlur result="blur-7"/>
      <feFlood flood-opacity="0.102"/>
      <feComposite operator="in" in2="blur-7"/>
      <feComposite in="SourceGraphic"/>
    </filter>
    <filter id="Trazado_628617" x="143.433" y="240.761" width="64.161" height="137.982" filterUnits="userSpaceOnUse">
      <feOffset dy="2" input="SourceAlpha"/>
      <feGaussianBlur result="blur-8"/>
      <feFlood flood-opacity="0.102"/>
      <feComposite operator="in" in2="blur-8"/>
      <feComposite in="SourceGraphic"/>
    </filter>
    <filter id="Trazado_628618" x="51.859" y="0.031" width="243.741" height="207.084" filterUnits="userSpaceOnUse">
      <feOffset dy="2" input="SourceAlpha"/>
      <feGaussianBlur result="blur-9"/>
      <feFlood flood-opacity="0.102"/>
      <feComposite operator="in" in2="blur-9"/>
      <feComposite in="SourceGraphic"/>
    </filter>
    <filter id="Trazado_628619" x="175.939" y="143.927" width="119.661" height="99.105" filterUnits="userSpaceOnUse">
      <feOffset dy="2" input="SourceAlpha"/>
      <feGaussianBlur result="blur-10"/>
      <feFlood flood-opacity="0.102"/>
      <feComposite operator="in" in2="blur-10"/>
      <feComposite in="SourceGraphic"/>
    </filter>
    <filter id="Trazado_628620" x="51.77" y="412.325" width="243.83" height="207.165" filterUnits="userSpaceOnUse">
      <feOffset dy="2" input="SourceAlpha"/>
      <feGaussianBlur result="blur-11"/>
      <feFlood flood-opacity="0.102"/>
      <feComposite operator="in" in2="blur-11"/>
      <feComposite in="SourceGraphic"/>
    </filter>
    <filter id="Trazado_628621" x="176.475" y="376.798" width="119.125" height="98.632" filterUnits="userSpaceOnUse">
      <feOffset dy="2" input="SourceAlpha"/>
      <feGaussianBlur result="blur-12"/>
      <feFlood flood-opacity="0.102"/>
      <feComposite operator="in" in2="blur-12"/>
      <feComposite in="SourceGraphic"/>
    </filter>
  </defs>
  <g id="Grupo_947590" data-name="Grupo 947590" transform="translate(-491 -1056)">
    <g transform="matrix(1, 0, 0, 1, 491, 1056)" filter="url(#Trazado_628610)">
      <path id="Trazado_628610-2" data-name="Trazado 628610" d="M472.557,356.958a178.246,178.246,0,0,1-14.806,71.358,7.132,7.132,0,0,0,2.967,9.03l101.167,58.408a7.165,7.165,0,0,0,10.015-3.073,310.022,310.022,0,0,0,0-271.445,7.162,7.162,0,0,0-10.015-3.071L460.719,276.572a7.131,7.131,0,0,0-2.967,9.03A178.237,178.237,0,0,1,472.557,356.958Z" transform="translate(15.81 -48.21)" fill="url(#linear-gradient)"/>
    </g>
    <g transform="matrix(1, 0, 0, 1, 491, 1056)" filter="url(#Trazado_628611)">
      <path id="Trazado_628611-2" data-name="Trazado 628611" d="M433.147,321.351a108.438,108.438,0,0,1-6.611,37.392,5.752,5.752,0,0,0,2.531,6.965l40.1,23.152a5.79,5.79,0,0,0,8.225-2.746,166.471,166.471,0,0,0,0-129.525,5.791,5.791,0,0,0-8.223-2.748l-40.1,23.152a5.754,5.754,0,0,0-2.531,6.965A108.446,108.446,0,0,1,433.147,321.351Z" transform="translate(-14.94 -12.6)" fill="url(#linear-gradient-2)"/>
    </g>
    <g transform="matrix(1, 0, 0, 1, 491, 1056)" filter="url(#Trazado_628612)">
      <path id="Trazado_628612-2" data-name="Trazado 628612" d="M521.352,336.692l101.075-58.356a7.228,7.228,0,0,0,2.36-10.312,309.27,309.27,0,0,0-234.928-135.6,7.229,7.229,0,0,0-7.753,7.195V256.284a7.189,7.189,0,0,0,6.383,7.145A178.7,178.7,0,0,1,511.975,334.74,7.193,7.193,0,0,0,521.352,336.692Z" transform="translate(-58.71 -132.41)" fill="#3d0a9e"/>
    </g>
    <g transform="matrix(1, 0, 0, 1, 491, 1056)" filter="url(#Trazado_628613)">
      <path id="Trazado_628613-2" data-name="Trazado 628613" d="M459.61,300.584l38.436-22.19a6.756,6.756,0,0,0,2.015-9.941,165.905,165.905,0,0,0-110.382-63.729,6.751,6.751,0,0,0-7.573,6.716v44.4a6.749,6.749,0,0,0,5.564,6.635,108.558,108.558,0,0,1,63.412,36.613A6.749,6.749,0,0,0,459.61,300.584Z" transform="translate(-58.71 -60.65)" fill="url(#linear-gradient-3)"/>
    </g>
    <g transform="matrix(1, 0, 0, 1, 491, 1056)" filter="url(#Trazado_628614)">
      <path id="Trazado_628614-2" data-name="Trazado 628614" d="M382.106,421.631V535.623a8.585,8.585,0,0,0,9.212,8.556A309.261,309.261,0,0,0,623.964,409.891a8.576,8.576,0,0,0-2.8-12.253L522.4,340.619a8.576,8.576,0,0,0-11.149,2.316,178.7,178.7,0,0,1-121.563,70.2A8.571,8.571,0,0,0,382.106,421.631Z" transform="translate(-58.71 73.21)" fill="url(#linear-gradient-4)"/>
    </g>
    <g transform="matrix(1, 0, 0, 1, 491, 1056)" filter="url(#Trazado_628615)">
      <path id="Trazado_628615-2" data-name="Trazado 628615" d="M382.106,368v41.711a8.137,8.137,0,0,0,9.3,8.036,165.907,165.907,0,0,0,107.584-62.107,8.143,8.143,0,0,0-2.278-12.1l-36.114-20.85a8.157,8.157,0,0,0-10.25,1.794,108.557,108.557,0,0,1-61.559,35.547A8.148,8.148,0,0,0,382.106,368Z" transform="translate(-58.71 55.46)" fill="url(#linear-gradient-5)"/>
    </g>
    <g transform="matrix(1, 0, 0, 1, 491, 1056)" filter="url(#Trazado_628616)">
      <path id="Trazado_628616-2" data-name="Trazado 628616" d="M350.467,356.9a178.26,178.26,0,0,1,14.706-71.129,7.41,7.41,0,0,0-3.083-9.381L261.4,218.258a7.439,7.439,0,0,0-10.4,3.189,310.036,310.036,0,0,0,0,270.911,7.44,7.44,0,0,0,10.4,3.191L362.09,437.414a7.411,7.411,0,0,0,3.083-9.381A178.276,178.276,0,0,1,350.467,356.9Z" transform="translate(-219.84 -48.15)" fill="#029da8"/>
    </g>
    <g transform="matrix(1, 0, 0, 1, 491, 1056)" filter="url(#Trazado_628617)">
      <path id="Trazado_628617-2" data-name="Trazado 628617" d="M349.163,321.2a108.47,108.47,0,0,1,6.415-36.85,6.456,6.456,0,0,0-2.834-7.8l-38.926-22.473a6.467,6.467,0,0,0-9.2,3.073,166.477,166.477,0,0,0,0,128.092,6.469,6.469,0,0,0,9.2,3.075l38.926-22.475a6.454,6.454,0,0,0,2.834-7.795A108.473,108.473,0,0,1,349.163,321.2Z" transform="translate(-148.37 -12.45)" fill="#029da8"/>
    </g>
    <g transform="matrix(1, 0, 0, 1, 491, 1056)" filter="url(#Trazado_628618)">
      <path id="Trazado_628618-2" data-name="Trazado 628618" d="M489.6,255.886V140.071a7.662,7.662,0,0,0-8.215-7.629,309.26,309.26,0,0,0-234.2,135.183,7.658,7.658,0,0,0,2.5,10.929l100.342,57.931a7.629,7.629,0,0,0,9.939-2.069,178.694,178.694,0,0,1,122.876-70.959A7.624,7.624,0,0,0,489.6,255.886Z" transform="translate(-194 -132.39)" fill="#007b66"/>
    </g>
    <g transform="matrix(1, 0, 0, 1, 491, 1056)" filter="url(#Trazado_628619)">
      <path id="Trazado_628619-2" data-name="Trazado 628619" d="M427.777,256.458V210.7a6.07,6.07,0,0,0-6.8-6.031,165.893,165.893,0,0,0-111.634,64.45,6.075,6.075,0,0,0,1.81,8.924l39.618,22.873a6.043,6.043,0,0,0,7.653-1.349,108.552,108.552,0,0,1,64.357-37.157A6.041,6.041,0,0,0,427.777,256.458Z" transform="translate(-132.18 -60.7)" fill="#007b66"/>
    </g>
    <g transform="matrix(1, 0, 0, 1, 491, 1056)" filter="url(#Trazado_628620)">
      <path id="Trazado_628620-2" data-name="Trazado 628620" d="M350.227,340.291l-100.7,58.139a7.447,7.447,0,0,0-2.431,10.626A309.265,309.265,0,0,0,481.655,544.444a7.453,7.453,0,0,0,7.988-7.42V420.8a7.412,7.412,0,0,0-6.577-7.364A178.7,178.7,0,0,1,359.893,342.3,7.417,7.417,0,0,0,350.227,340.291Z" transform="translate(-194.04 73.03)" fill="#018cd1"/>
    </g>
    <g transform="matrix(1, 0, 0, 1, 491, 1056)" filter="url(#Trazado_628621)">
      <path id="Trazado_628621-2" data-name="Trazado 628621" d="M349.691,322.429,312,344.191a7.183,7.183,0,0,0-2.142,10.581,165.9,165.9,0,0,0,109.593,63.271,7.173,7.173,0,0,0,8.059-7.143V367.361a7.2,7.2,0,0,0-5.923-7.065,108.556,108.556,0,0,1-62.814-36.27A7.2,7.2,0,0,0,349.691,322.429Z" transform="translate(-131.91 55.33)" fill="#018cd1"/>
    </g>
    <path id="Trazado_628756" data-name="Trazado 628756" d="M36.139,12.834a4.621,4.621,0,0,1-1.512,3.195,5.154,5.154,0,0,1-3.507,1.147,4.99,4.99,0,0,1-2.694-.725,4.759,4.759,0,0,1-1.8-2.061,7.438,7.438,0,0,1-.659-3.1v-1.2a7.491,7.491,0,0,1,.642-3.19,4.835,4.835,0,0,1,1.841-2.127,5.136,5.136,0,0,1,2.773-.747,4.934,4.934,0,0,1,3.41,1.151,4.81,4.81,0,0,1,1.5,3.252H33.924a3.161,3.161,0,0,0-.8-1.991,2.658,2.658,0,0,0-1.894-.611A2.6,2.6,0,0,0,29,6.888,5.289,5.289,0,0,0,28.2,10v1.134a5.611,5.611,0,0,0,.743,3.164,2.465,2.465,0,0,0,2.175,1.09,2.875,2.875,0,0,0,1.969-.589,3.071,3.071,0,0,0,.835-1.96ZM40.191,17H38.055V7.49h2.136ZM37.923,5.021a1.133,1.133,0,0,1,.312-.817,1.179,1.179,0,0,1,.892-.325,1.193,1.193,0,0,1,.9.325,1.125,1.125,0,0,1,.316.817,1.1,1.1,0,0,1-.316.8,1.2,1.2,0,0,1-.9.321,1.188,1.188,0,0,1-.892-.321A1.107,1.107,0,0,1,37.923,5.021Zm8.5,10.45A1.931,1.931,0,0,0,47.75,15a1.591,1.591,0,0,0,.563-1.151h2.013a3.137,3.137,0,0,1-.554,1.657,3.632,3.632,0,0,1-1.406,1.217,4.191,4.191,0,0,1-1.916.448,4.055,4.055,0,0,1-3.164-1.292,5.124,5.124,0,0,1-1.169-3.568V12.1a5.039,5.039,0,0,1,1.16-3.476A4.018,4.018,0,0,1,46.44,7.314,3.907,3.907,0,0,1,49.2,8.3a3.542,3.542,0,0,1,1.121,2.6H48.312a1.956,1.956,0,0,0-.558-1.345,1.8,1.8,0,0,0-1.332-.527,1.879,1.879,0,0,0-1.6.751,3.834,3.834,0,0,0-.571,2.281V12.4a3.9,3.9,0,0,0,.558,2.307A1.878,1.878,0,0,0,46.422,15.471ZM54.209,17H52.074V3.5h2.136Zm1.925-4.843a5.607,5.607,0,0,1,.554-2.518,4.044,4.044,0,0,1,1.556-1.723,4.383,4.383,0,0,1,2.3-.6,4.154,4.154,0,0,1,3.125,1.239,4.874,4.874,0,0,1,1.3,3.287l.009.5a5.658,5.658,0,0,1-.541,2.514,4,4,0,0,1-1.547,1.714,4.415,4.415,0,0,1-2.325.606,4.125,4.125,0,0,1-3.221-1.34,5.133,5.133,0,0,1-1.208-3.573Zm2.136.185a3.832,3.832,0,0,0,.606,2.3,1.971,1.971,0,0,0,1.688.831,1.95,1.95,0,0,0,1.683-.844,4.232,4.232,0,0,0,.6-2.47,3.782,3.782,0,0,0-.62-2.285,2.089,2.089,0,0,0-3.344-.013A4.152,4.152,0,0,0,58.27,12.342Zm12.595-.167a5.654,5.654,0,0,1,1.02-3.529,3.267,3.267,0,0,1,2.733-1.332,3.1,3.1,0,0,1,2.443,1.055V3.5H79.2V17H77.263l-.105-.984a3.148,3.148,0,0,1-2.558,1.16,3.248,3.248,0,0,1-2.7-1.345A5.861,5.861,0,0,1,70.865,12.175ZM73,12.359a3.958,3.958,0,0,0,.558,2.263,1.811,1.811,0,0,0,1.586.813,2.017,2.017,0,0,0,1.916-1.169V10.206a1.986,1.986,0,0,0-1.9-1.143,1.824,1.824,0,0,0-1.6.822A4.408,4.408,0,0,0,73,12.359Zm12.612,4.816A4.419,4.419,0,0,1,82.321,15.9a4.639,4.639,0,0,1-1.261-3.406v-.264a5.706,5.706,0,0,1,.549-2.544,4.181,4.181,0,0,1,1.542-1.745,4.078,4.078,0,0,1,2.215-.624,3.733,3.733,0,0,1,3,1.239,5.24,5.24,0,0,1,1.059,3.507v.861H83.213A2.856,2.856,0,0,0,84,14.785a2.362,2.362,0,0,0,1.736.686,2.892,2.892,0,0,0,2.391-1.187l1.151,1.1a3.845,3.845,0,0,1-1.525,1.323A4.774,4.774,0,0,1,85.613,17.176Zm-.255-8.147a1.8,1.8,0,0,0-1.419.615,3.189,3.189,0,0,0-.69,1.714h4.069V11.2a2.6,2.6,0,0,0-.571-1.622A1.785,1.785,0,0,0,85.358,9.028Zm8,7.972H91.22V3.5h2.136Zm12.489,0a3.3,3.3,0,0,1-.246-.888,3.593,3.593,0,0,1-4.834.246,2.615,2.615,0,0,1-.905-2.021A2.7,2.7,0,0,1,100.989,12a5.473,5.473,0,0,1,3.23-.813h1.31v-.624a1.666,1.666,0,0,0-.413-1.182,1.638,1.638,0,0,0-1.257-.444,1.881,1.881,0,0,0-1.2.365,1.129,1.129,0,0,0-.466.927h-2.136a2.37,2.37,0,0,1,.519-1.463A3.455,3.455,0,0,1,101.991,7.7a4.955,4.955,0,0,1,1.991-.387,3.99,3.99,0,0,1,2.663.839,2.993,2.993,0,0,1,1.02,2.36V14.8a4.861,4.861,0,0,0,.36,2.048V17ZM103.5,15.462a2.429,2.429,0,0,0,1.191-.308,2.055,2.055,0,0,0,.839-.826V12.535h-1.151a3.148,3.148,0,0,0-1.784.413,1.338,1.338,0,0,0-.6,1.169,1.248,1.248,0,0,0,.409.98A1.583,1.583,0,0,0,103.5,15.462Zm8.385-7.972.062,1.1a3.419,3.419,0,0,1,2.769-1.274q2.971,0,3.023,3.4V17H115.6V10.839a1.958,1.958,0,0,0-.391-1.34,1.645,1.645,0,0,0-1.279-.435,2.058,2.058,0,0,0-1.925,1.169V17h-2.136V7.49ZM125.594,17a3.3,3.3,0,0,1-.246-.888,3.593,3.593,0,0,1-4.834.246,2.615,2.615,0,0,1-.905-2.021A2.7,2.7,0,0,1,120.738,12a5.473,5.473,0,0,1,3.23-.813h1.31v-.624a1.666,1.666,0,0,0-.413-1.182,1.638,1.638,0,0,0-1.257-.444,1.881,1.881,0,0,0-1.2.365,1.129,1.129,0,0,0-.466.927h-2.136a2.37,2.37,0,0,1,.519-1.463A3.455,3.455,0,0,1,121.74,7.7a4.955,4.955,0,0,1,1.991-.387,3.99,3.99,0,0,1,2.663.839,2.993,2.993,0,0,1,1.02,2.36V14.8a4.861,4.861,0,0,0,.36,2.048V17Zm-2.347-1.538a2.429,2.429,0,0,0,1.191-.308,2.055,2.055,0,0,0,.839-.826V12.535h-1.151a3.148,3.148,0,0,0-1.784.413,1.338,1.338,0,0,0-.6,1.169,1.248,1.248,0,0,0,.409.98A1.583,1.583,0,0,0,123.248,15.462ZM124.434,3.5h2.435l-2.435,2.663H122.72ZM131.922,17h-2.136V3.5h2.136Zm4.6,0h-2.136V7.49h2.136ZM134.251,5.021a1.133,1.133,0,0,1,.312-.817,1.179,1.179,0,0,1,.892-.325,1.193,1.193,0,0,1,.9.325,1.125,1.125,0,0,1,.316.817,1.1,1.1,0,0,1-.316.8,1.2,1.2,0,0,1-.9.321,1.188,1.188,0,0,1-.892-.321A1.107,1.107,0,0,1,134.251,5.021Zm9.923,9.4a.968.968,0,0,0-.47-.87,5,5,0,0,0-1.56-.527,8.02,8.02,0,0,1-1.819-.58,2.428,2.428,0,0,1-1.6-2.241,2.531,2.531,0,0,1,1.037-2.057,4.1,4.1,0,0,1,2.637-.826,4.266,4.266,0,0,1,2.755.844,2.677,2.677,0,0,1,1.05,2.188h-2.136a1.316,1.316,0,0,0-.457-1.024,1.752,1.752,0,0,0-1.213-.409,1.893,1.893,0,0,0-1.147.325,1.025,1.025,0,0,0-.444.87.866.866,0,0,0,.413.765,5.68,5.68,0,0,0,1.67.549,7.9,7.9,0,0,1,1.973.659,2.794,2.794,0,0,1,1.063.918,2.342,2.342,0,0,1,.347,1.3,2.478,2.478,0,0,1-1.063,2.079,4.535,4.535,0,0,1-2.786.8,4.917,4.917,0,0,1-2.083-.422,3.428,3.428,0,0,1-1.424-1.16,2.746,2.746,0,0,1-.51-1.591h2.074a1.5,1.5,0,0,0,.571,1.165,2.22,2.22,0,0,0,1.4.409,2.16,2.16,0,0,0,1.283-.321A.993.993,0,0,0,144.174,14.416ZM150.406,17H148.27V7.49h2.136ZM148.138,5.021a1.133,1.133,0,0,1,.312-.817,1.179,1.179,0,0,1,.892-.325,1.193,1.193,0,0,1,.9.325,1.125,1.125,0,0,1,.316.817,1.1,1.1,0,0,1-.316.8,1.2,1.2,0,0,1-.9.321,1.188,1.188,0,0,1-.892-.321A1.107,1.107,0,0,1,148.138,5.021Zm9.923,9.4a.968.968,0,0,0-.47-.87,5,5,0,0,0-1.56-.527,8.02,8.02,0,0,1-1.819-.58,2.428,2.428,0,0,1-1.6-2.241,2.531,2.531,0,0,1,1.037-2.057,4.1,4.1,0,0,1,2.637-.826,4.266,4.266,0,0,1,2.755.844,2.677,2.677,0,0,1,1.05,2.188h-2.136a1.316,1.316,0,0,0-.457-1.024,1.752,1.752,0,0,0-1.213-.409,1.893,1.893,0,0,0-1.147.325,1.025,1.025,0,0,0-.444.87.866.866,0,0,0,.413.765,5.68,5.68,0,0,0,1.67.549,7.9,7.9,0,0,1,1.973.659,2.794,2.794,0,0,1,1.063.918,2.342,2.342,0,0,1,.347,1.3A2.478,2.478,0,0,1,159.1,16.38a4.535,4.535,0,0,1-2.786.8,4.917,4.917,0,0,1-2.083-.422,3.428,3.428,0,0,1-1.424-1.16A2.746,2.746,0,0,1,152.3,14h2.074a1.5,1.5,0,0,0,.571,1.165,2.22,2.22,0,0,0,1.4.409,2.16,2.16,0,0,0,1.283-.321A.993.993,0,0,0,158.061,14.416ZM34.654,41V33.072H33.2V31.49h1.45v-.87a3.266,3.266,0,0,1,.879-2.443,3.367,3.367,0,0,1,2.461-.861,4.936,4.936,0,0,1,1.2.158l-.053,1.67a4.207,4.207,0,0,0-.817-.07,1.371,1.371,0,0,0-1.529,1.573v.844h1.934v1.582H36.79V41Zm5.229-4.843a5.607,5.607,0,0,1,.554-2.518,4.044,4.044,0,0,1,1.556-1.723,4.383,4.383,0,0,1,2.3-.6,4.154,4.154,0,0,1,3.125,1.239,4.874,4.874,0,0,1,1.3,3.287l.009.5a5.658,5.658,0,0,1-.541,2.514,4,4,0,0,1-1.547,1.714,4.415,4.415,0,0,1-2.325.606,4.125,4.125,0,0,1-3.221-1.34,5.133,5.133,0,0,1-1.208-3.573Zm2.136.185a3.832,3.832,0,0,0,.606,2.3,1.971,1.971,0,0,0,1.688.831A1.95,1.95,0,0,0,46,38.627a4.232,4.232,0,0,0,.6-2.47,3.782,3.782,0,0,0-.62-2.285,2.089,2.089,0,0,0-3.344-.013A4.152,4.152,0,0,0,42.019,36.342Zm13.491-2.9a5.285,5.285,0,0,0-.87-.07A1.959,1.959,0,0,0,52.663,34.5V41H50.527V31.49h2.039l.053,1.063a2.406,2.406,0,0,1,2.145-1.239,2,2,0,0,1,.756.123Zm5.37,7.734A4.419,4.419,0,0,1,57.589,39.9a4.639,4.639,0,0,1-1.261-3.406v-.264a5.706,5.706,0,0,1,.549-2.544,4.181,4.181,0,0,1,1.542-1.745,4.078,4.078,0,0,1,2.215-.624,3.733,3.733,0,0,1,3,1.239,5.24,5.24,0,0,1,1.059,3.507v.861H58.481a2.856,2.856,0,0,0,.787,1.863A2.362,2.362,0,0,0,61,39.471a2.892,2.892,0,0,0,2.391-1.187l1.151,1.1a3.845,3.845,0,0,1-1.525,1.323A4.774,4.774,0,0,1,60.88,41.176Zm-.255-8.147a1.8,1.8,0,0,0-1.419.615,3.189,3.189,0,0,0-.69,1.714h4.069V35.2a2.6,2.6,0,0,0-.571-1.622A1.785,1.785,0,0,0,60.625,33.028Zm7.708-1.538.062,1.1a3.419,3.419,0,0,1,2.769-1.274q2.971,0,3.023,3.4V41H72.051V34.839a1.958,1.958,0,0,0-.391-1.34,1.645,1.645,0,0,0-1.279-.435,2.058,2.058,0,0,0-1.925,1.169V41H66.321V31.49Zm13.359,6.926a.968.968,0,0,0-.47-.87,5,5,0,0,0-1.56-.527,8.02,8.02,0,0,1-1.819-.58,2.428,2.428,0,0,1-1.6-2.241,2.531,2.531,0,0,1,1.037-2.057,4.1,4.1,0,0,1,2.637-.826,4.266,4.266,0,0,1,2.755.844,2.677,2.677,0,0,1,1.05,2.188H81.587a1.316,1.316,0,0,0-.457-1.024,1.752,1.752,0,0,0-1.213-.409,1.893,1.893,0,0,0-1.147.325,1.025,1.025,0,0,0-.444.87.866.866,0,0,0,.413.765,5.68,5.68,0,0,0,1.67.549,7.9,7.9,0,0,1,1.973.659A2.794,2.794,0,0,1,83.446,37a2.342,2.342,0,0,1,.347,1.3A2.478,2.478,0,0,1,82.73,40.38a4.535,4.535,0,0,1-2.786.8,4.917,4.917,0,0,1-2.083-.422,3.428,3.428,0,0,1-1.424-1.16A2.746,2.746,0,0,1,75.927,38H78a1.5,1.5,0,0,0,.571,1.165,2.22,2.22,0,0,0,1.4.409,2.16,2.16,0,0,0,1.283-.321A.993.993,0,0,0,81.693,38.416Zm8.147,2.76A4.419,4.419,0,0,1,86.549,39.9a4.639,4.639,0,0,1-1.261-3.406v-.264a5.706,5.706,0,0,1,.549-2.544,4.181,4.181,0,0,1,1.542-1.745,4.078,4.078,0,0,1,2.215-.624,3.733,3.733,0,0,1,3,1.239,5.24,5.24,0,0,1,1.059,3.507v.861H87.441a2.856,2.856,0,0,0,.787,1.863,2.362,2.362,0,0,0,1.736.686,2.892,2.892,0,0,0,2.391-1.187l1.151,1.1a3.845,3.845,0,0,1-1.525,1.323A4.774,4.774,0,0,1,89.84,41.176Zm-.255-8.147a1.8,1.8,0,0,0-1.419.615,3.189,3.189,0,0,0-.69,1.714h4.069V35.2a2.6,2.6,0,0,0-.571-1.622A1.785,1.785,0,0,0,89.585,33.028Zm18.536,3.313a5.662,5.662,0,0,1-1,3.52,3.481,3.481,0,0,1-5.194.286v4.509H99.79V31.49h1.969l.088.967a3.137,3.137,0,0,1,2.558-1.143,3.242,3.242,0,0,1,2.729,1.3,5.813,5.813,0,0,1,.989,3.6Zm-2.127-.185a3.966,3.966,0,0,0-.567-2.259,1.843,1.843,0,0,0-1.622-.835,1.965,1.965,0,0,0-1.881,1.081v4.219a1.983,1.983,0,0,0,1.9,1.107,1.841,1.841,0,0,0,1.6-.822A4.366,4.366,0,0,0,105.995,36.157ZM115.61,41a3.3,3.3,0,0,1-.246-.888,3.593,3.593,0,0,1-4.834.246,2.615,2.615,0,0,1-.905-2.021A2.7,2.7,0,0,1,110.754,36a5.473,5.473,0,0,1,3.23-.813h1.31v-.624a1.666,1.666,0,0,0-.413-1.182,1.638,1.638,0,0,0-1.257-.444,1.881,1.881,0,0,0-1.2.365,1.129,1.129,0,0,0-.466.927h-2.136a2.37,2.37,0,0,1,.519-1.463,3.455,3.455,0,0,1,1.411-1.068,4.955,4.955,0,0,1,1.991-.387,3.99,3.99,0,0,1,2.663.839,2.993,2.993,0,0,1,1.02,2.36V38.8a4.861,4.861,0,0,0,.36,2.048V41Zm-2.347-1.538a2.429,2.429,0,0,0,1.191-.308,2.055,2.055,0,0,0,.839-.826V36.535h-1.151a3.148,3.148,0,0,0-1.784.413,1.338,1.338,0,0,0-.6,1.169,1.248,1.248,0,0,0,.409.98A1.583,1.583,0,0,0,113.263,39.462Zm11.382-6.021a5.285,5.285,0,0,0-.87-.07A1.959,1.959,0,0,0,121.8,34.5V41h-2.136V31.49H121.7l.053,1.063a2.406,2.406,0,0,1,2.145-1.239,2,2,0,0,1,.756.123ZM131.413,41a3.3,3.3,0,0,1-.246-.888,3.593,3.593,0,0,1-4.834.246,2.615,2.615,0,0,1-.905-2.021A2.7,2.7,0,0,1,126.557,36a5.473,5.473,0,0,1,3.23-.813h1.31v-.624a1.666,1.666,0,0,0-.413-1.182,1.638,1.638,0,0,0-1.257-.444,1.881,1.881,0,0,0-1.2.365,1.129,1.129,0,0,0-.466.927h-2.136a2.37,2.37,0,0,1,.519-1.463,3.455,3.455,0,0,1,1.411-1.068,4.955,4.955,0,0,1,1.991-.387,3.99,3.99,0,0,1,2.663.839,2.993,2.993,0,0,1,1.02,2.36V38.8a4.861,4.861,0,0,0,.36,2.048V41Zm-2.347-1.538a2.429,2.429,0,0,0,1.191-.308,2.055,2.055,0,0,0,.839-.826V36.535h-1.151a3.148,3.148,0,0,0-1.784.413,1.338,1.338,0,0,0-.6,1.169,1.248,1.248,0,0,0,.409.98A1.583,1.583,0,0,0,129.066,39.462ZM142.223,41h-2.136V27.5h2.136Zm8.007,0a3.3,3.3,0,0,1-.246-.888,3.593,3.593,0,0,1-4.834.246,2.615,2.615,0,0,1-.905-2.021A2.7,2.7,0,0,1,145.374,36a5.473,5.473,0,0,1,3.23-.813h1.31v-.624a1.666,1.666,0,0,0-.413-1.182,1.638,1.638,0,0,0-1.257-.444,1.881,1.881,0,0,0-1.2.365,1.129,1.129,0,0,0-.466.927h-2.136a2.37,2.37,0,0,1,.519-1.463,3.455,3.455,0,0,1,1.411-1.068,4.955,4.955,0,0,1,1.991-.387,3.99,3.99,0,0,1,2.663.839,2.993,2.993,0,0,1,1.02,2.36V38.8a4.861,4.861,0,0,0,.36,2.048V41Zm-2.347-1.538a2.429,2.429,0,0,0,1.191-.308,2.055,2.055,0,0,0,.839-.826V36.535h-1.151a3.148,3.148,0,0,0-1.784.413,1.338,1.338,0,0,0-.6,1.169,1.248,1.248,0,0,0,.409.98A1.583,1.583,0,0,0,147.883,39.462ZM40.2,57.441a5.285,5.285,0,0,0-.87-.07A1.959,1.959,0,0,0,37.352,58.5V65H35.216V55.49h2.039l.053,1.063a2.406,2.406,0,0,1,2.145-1.239,2,2,0,0,1,.756.123Zm5.37,7.734A4.419,4.419,0,0,1,42.278,63.9a4.639,4.639,0,0,1-1.261-3.406v-.264a5.706,5.706,0,0,1,.549-2.544,4.181,4.181,0,0,1,1.542-1.745,4.078,4.078,0,0,1,2.215-.624,3.733,3.733,0,0,1,3,1.239,5.24,5.24,0,0,1,1.059,3.507v.861H43.17a2.856,2.856,0,0,0,.787,1.863,2.362,2.362,0,0,0,1.736.686,2.892,2.892,0,0,0,2.391-1.187l1.151,1.1a3.845,3.845,0,0,1-1.525,1.323A4.774,4.774,0,0,1,45.57,65.176Zm-.255-8.147a1.8,1.8,0,0,0-1.419.615,3.189,3.189,0,0,0-.69,1.714h4.069V59.2a2.6,2.6,0,0,0-.571-1.622A1.785,1.785,0,0,0,45.315,57.028Zm9.633,6.442A1.931,1.931,0,0,0,56.275,63a1.591,1.591,0,0,0,.563-1.151H58.85A3.137,3.137,0,0,1,58.3,63.51a3.632,3.632,0,0,1-1.406,1.217,4.191,4.191,0,0,1-1.916.448,4.055,4.055,0,0,1-3.164-1.292,5.124,5.124,0,0,1-1.169-3.568V60.1A5.039,5.039,0,0,1,51.8,56.62a4.018,4.018,0,0,1,3.164-1.305,3.907,3.907,0,0,1,2.764.989,3.542,3.542,0,0,1,1.121,2.6H56.837a1.956,1.956,0,0,0-.558-1.345,1.8,1.8,0,0,0-1.332-.527,1.879,1.879,0,0,0-1.6.751,3.834,3.834,0,0,0-.571,2.281V60.4a3.9,3.9,0,0,0,.558,2.307A1.878,1.878,0,0,0,54.948,63.471Zm5.115-3.313a5.607,5.607,0,0,1,.554-2.518,4.044,4.044,0,0,1,1.556-1.723,4.383,4.383,0,0,1,2.3-.6A4.154,4.154,0,0,1,67.6,56.554a4.874,4.874,0,0,1,1.3,3.287l.009.5a5.658,5.658,0,0,1-.541,2.514,4,4,0,0,1-1.547,1.714,4.415,4.415,0,0,1-2.325.606,4.125,4.125,0,0,1-3.221-1.34,5.133,5.133,0,0,1-1.208-3.573Zm2.136.185a3.832,3.832,0,0,0,.606,2.3,1.971,1.971,0,0,0,1.688.831,1.95,1.95,0,0,0,1.683-.844,4.232,4.232,0,0,0,.6-2.47,3.782,3.782,0,0,0-.62-2.285,2.089,2.089,0,0,0-3.344-.013A4.152,4.152,0,0,0,62.2,60.342ZM72.983,65H70.847V51.5h2.136Zm6.513.176A4.419,4.419,0,0,1,76.2,63.9a4.639,4.639,0,0,1-1.261-3.406v-.264a5.706,5.706,0,0,1,.549-2.544,4.181,4.181,0,0,1,1.542-1.745,4.078,4.078,0,0,1,2.215-.624,3.733,3.733,0,0,1,3,1.239,5.24,5.24,0,0,1,1.059,3.507v.861H77.1a2.856,2.856,0,0,0,.787,1.863,2.362,2.362,0,0,0,1.736.686,2.892,2.892,0,0,0,2.391-1.187l1.151,1.1a3.845,3.845,0,0,1-1.525,1.323A4.774,4.774,0,0,1,79.5,65.176Zm-.255-8.147a1.8,1.8,0,0,0-1.419.615,3.189,3.189,0,0,0-.69,1.714H81.2V59.2a2.6,2.6,0,0,0-.571-1.622A1.785,1.785,0,0,0,79.241,57.028Zm9.633,6.442A1.931,1.931,0,0,0,90.2,63a1.591,1.591,0,0,0,.563-1.151h2.013a3.137,3.137,0,0,1-.554,1.657,3.632,3.632,0,0,1-1.406,1.217,4.191,4.191,0,0,1-1.916.448,4.055,4.055,0,0,1-3.164-1.292,5.124,5.124,0,0,1-1.169-3.568V60.1a5.039,5.039,0,0,1,1.16-3.476,4.018,4.018,0,0,1,3.164-1.305,3.907,3.907,0,0,1,2.764.989,3.542,3.542,0,0,1,1.121,2.6H90.763a1.956,1.956,0,0,0-.558-1.345,1.8,1.8,0,0,0-1.332-.527,1.879,1.879,0,0,0-1.6.751,3.834,3.834,0,0,0-.571,2.281V60.4a3.9,3.9,0,0,0,.558,2.307A1.878,1.878,0,0,0,88.874,63.471Zm9.422,0A1.931,1.931,0,0,0,99.623,63a1.591,1.591,0,0,0,.563-1.151H102.2a3.137,3.137,0,0,1-.554,1.657,3.632,3.632,0,0,1-1.406,1.217,4.191,4.191,0,0,1-1.916.448,4.055,4.055,0,0,1-3.164-1.292,5.124,5.124,0,0,1-1.169-3.568V60.1a5.039,5.039,0,0,1,1.16-3.476,4.018,4.018,0,0,1,3.164-1.305,3.907,3.907,0,0,1,2.764.989,3.542,3.542,0,0,1,1.121,2.6h-2.013a1.956,1.956,0,0,0-.558-1.345,1.8,1.8,0,0,0-1.332-.527,1.879,1.879,0,0,0-1.6.751,3.834,3.834,0,0,0-.571,2.281V60.4a3.9,3.9,0,0,0,.558,2.307A1.878,1.878,0,0,0,98.3,63.471ZM106.083,65h-2.136V55.49h2.136Zm-2.268-11.979a1.133,1.133,0,0,1,.312-.817,1.179,1.179,0,0,1,.892-.325,1.193,1.193,0,0,1,.9.325,1.125,1.125,0,0,1,.316.817,1.1,1.1,0,0,1-.316.8,1.2,1.2,0,0,1-.9.321,1.188,1.188,0,0,1-.892-.321A1.107,1.107,0,0,1,103.815,53.021Zm4.192,7.137a5.607,5.607,0,0,1,.554-2.518,4.044,4.044,0,0,1,1.556-1.723,4.383,4.383,0,0,1,2.3-.6,4.154,4.154,0,0,1,3.125,1.239,4.874,4.874,0,0,1,1.3,3.287l.009.5a5.658,5.658,0,0,1-.541,2.514,4,4,0,0,1-1.547,1.714,4.415,4.415,0,0,1-2.325.606,4.125,4.125,0,0,1-3.221-1.34,5.133,5.133,0,0,1-1.208-3.573Zm2.136.185a3.832,3.832,0,0,0,.606,2.3,1.971,1.971,0,0,0,1.688.831,1.95,1.95,0,0,0,1.683-.844,4.232,4.232,0,0,0,.6-2.47,3.782,3.782,0,0,0-.62-2.285,2.089,2.089,0,0,0-3.344-.013A4.152,4.152,0,0,0,110.143,60.342Zm2.865-8.842h2.435l-2.435,2.663h-1.714Zm7.629,3.99.062,1.1a3.419,3.419,0,0,1,2.769-1.274q2.971,0,3.023,3.4V65h-2.136V58.839a1.958,1.958,0,0,0-.391-1.34,1.645,1.645,0,0,0-1.279-.435,2.058,2.058,0,0,0-1.925,1.169V65h-2.136V55.49Zm12.111,4.685a5.654,5.654,0,0,1,1.02-3.529,3.267,3.267,0,0,1,2.733-1.332,3.1,3.1,0,0,1,2.443,1.055V51.5h2.136V65h-1.934l-.105-.984a3.148,3.148,0,0,1-2.558,1.16,3.248,3.248,0,0,1-2.7-1.345A5.861,5.861,0,0,1,132.749,60.175Zm2.136.185a3.958,3.958,0,0,0,.558,2.263,1.811,1.811,0,0,0,1.586.813,2.017,2.017,0,0,0,1.916-1.169V58.206a1.986,1.986,0,0,0-1.9-1.143,1.824,1.824,0,0,0-1.6.822A4.408,4.408,0,0,0,134.884,60.359ZM147.5,65.176a4.419,4.419,0,0,1-3.292-1.279,4.639,4.639,0,0,1-1.261-3.406v-.264a5.706,5.706,0,0,1,.549-2.544,4.181,4.181,0,0,1,1.542-1.745,4.078,4.078,0,0,1,2.215-.624,3.733,3.733,0,0,1,3,1.239,5.24,5.24,0,0,1,1.059,3.507v.861H145.1a2.856,2.856,0,0,0,.787,1.863,2.362,2.362,0,0,0,1.736.686,2.892,2.892,0,0,0,2.391-1.187l1.151,1.1a3.845,3.845,0,0,1-1.525,1.323A4.774,4.774,0,0,1,147.5,65.176Zm-.255-8.147a1.8,1.8,0,0,0-1.419.615,3.189,3.189,0,0,0-.69,1.714H149.2V59.2a2.6,2.6,0,0,0-.571-1.622A1.785,1.785,0,0,0,147.242,57.028ZM30.272,89.176A4.419,4.419,0,0,1,26.981,87.9a4.639,4.639,0,0,1-1.261-3.406v-.264a5.706,5.706,0,0,1,.549-2.544,4.181,4.181,0,0,1,1.542-1.745,4.078,4.078,0,0,1,2.215-.624,3.733,3.733,0,0,1,3,1.239,5.24,5.24,0,0,1,1.059,3.507v.861H27.873a2.856,2.856,0,0,0,.787,1.863,2.362,2.362,0,0,0,1.736.686,2.892,2.892,0,0,0,2.391-1.187l1.151,1.1a3.845,3.845,0,0,1-1.525,1.323A4.774,4.774,0,0,1,30.272,89.176Zm-.255-8.147a1.8,1.8,0,0,0-1.419.615,3.189,3.189,0,0,0-.69,1.714h4.069V83.2a2.6,2.6,0,0,0-.571-1.622A1.785,1.785,0,0,0,30.018,81.028Zm8.965,5.265L41,79.49H43.2L39.905,89H38.051l-3.322-9.51h2.215ZM46.8,89H44.669V79.49H46.8ZM44.537,77.021a1.133,1.133,0,0,1,.312-.817,1.179,1.179,0,0,1,.892-.325,1.193,1.193,0,0,1,.9.325,1.125,1.125,0,0,1,.316.817,1.1,1.1,0,0,1-.316.8,1.2,1.2,0,0,1-.9.321,1.188,1.188,0,0,1-.892-.321A1.107,1.107,0,0,1,44.537,77.021Zm4.192,7.154a5.654,5.654,0,0,1,1.02-3.529,3.267,3.267,0,0,1,2.733-1.332,3.1,3.1,0,0,1,2.443,1.055V75.5h2.136V89H55.128l-.105-.984a3.148,3.148,0,0,1-2.558,1.16,3.248,3.248,0,0,1-2.7-1.345A5.861,5.861,0,0,1,48.729,84.175Zm2.136.185a3.958,3.958,0,0,0,.558,2.263,1.811,1.811,0,0,0,1.586.813,2.017,2.017,0,0,0,1.916-1.169V82.206a1.986,1.986,0,0,0-1.9-1.143,1.824,1.824,0,0,0-1.6.822A4.408,4.408,0,0,0,50.865,84.359Zm12.612,4.816A4.419,4.419,0,0,1,60.186,87.9a4.639,4.639,0,0,1-1.261-3.406v-.264a5.706,5.706,0,0,1,.549-2.544,4.181,4.181,0,0,1,1.542-1.745,4.078,4.078,0,0,1,2.215-.624,3.733,3.733,0,0,1,3,1.239,5.24,5.24,0,0,1,1.059,3.507v.861H61.078a2.856,2.856,0,0,0,.787,1.863,2.362,2.362,0,0,0,1.736.686,2.892,2.892,0,0,0,2.391-1.187l1.151,1.1a3.845,3.845,0,0,1-1.525,1.323A4.774,4.774,0,0,1,63.478,89.176Zm-.255-8.147a1.8,1.8,0,0,0-1.419.615,3.189,3.189,0,0,0-.69,1.714h4.069V83.2a2.6,2.6,0,0,0-.571-1.622A1.785,1.785,0,0,0,63.223,81.028Zm7.708-1.538.062,1.1a3.419,3.419,0,0,1,2.769-1.274q2.971,0,3.023,3.4V89H74.648V82.839a1.958,1.958,0,0,0-.391-1.34,1.645,1.645,0,0,0-1.279-.435,2.058,2.058,0,0,0-1.925,1.169V89H68.918V79.49Zm11.936,7.98A1.931,1.931,0,0,0,84.193,87a1.591,1.591,0,0,0,.563-1.151h2.013a3.137,3.137,0,0,1-.554,1.657,3.632,3.632,0,0,1-1.406,1.217,4.191,4.191,0,0,1-1.916.448,4.055,4.055,0,0,1-3.164-1.292,5.124,5.124,0,0,1-1.169-3.568V84.1a5.039,5.039,0,0,1,1.16-3.476,4.018,4.018,0,0,1,3.164-1.305,3.907,3.907,0,0,1,2.764.989,3.542,3.542,0,0,1,1.121,2.6H84.756a1.956,1.956,0,0,0-.558-1.345,1.8,1.8,0,0,0-1.332-.527,1.879,1.879,0,0,0-1.6.751,3.834,3.834,0,0,0-.571,2.281V84.4a3.9,3.9,0,0,0,.558,2.307A1.878,1.878,0,0,0,82.866,87.471ZM90.653,89H88.518V79.49h2.136ZM88.386,77.021A1.133,1.133,0,0,1,88.7,76.2a1.179,1.179,0,0,1,.892-.325,1.193,1.193,0,0,1,.9.325,1.125,1.125,0,0,1,.316.817,1.1,1.1,0,0,1-.316.8,1.2,1.2,0,0,1-.9.321,1.188,1.188,0,0,1-.892-.321A1.107,1.107,0,0,1,88.386,77.021ZM98.66,89a3.3,3.3,0,0,1-.246-.888,3.593,3.593,0,0,1-4.834.246,2.615,2.615,0,0,1-.905-2.021A2.7,2.7,0,0,1,93.8,84a5.473,5.473,0,0,1,3.23-.813h1.31v-.624a1.666,1.666,0,0,0-.413-1.182,1.638,1.638,0,0,0-1.257-.444,1.881,1.881,0,0,0-1.2.365,1.129,1.129,0,0,0-.466.927H92.877a2.37,2.37,0,0,1,.519-1.463A3.455,3.455,0,0,1,94.806,79.7a4.955,4.955,0,0,1,1.991-.387,3.99,3.99,0,0,1,2.663.839,2.993,2.993,0,0,1,1.02,2.36V86.8a4.861,4.861,0,0,0,.36,2.048V89Zm-2.347-1.538a2.429,2.429,0,0,0,1.191-.308,2.055,2.055,0,0,0,.839-.826V84.535H97.192a3.148,3.148,0,0,0-1.784.413,1.338,1.338,0,0,0-.6,1.169,1.248,1.248,0,0,0,.409.98A1.583,1.583,0,0,0,96.313,87.462ZM106.8,84.175a5.654,5.654,0,0,1,1.02-3.529,3.267,3.267,0,0,1,2.733-1.332A3.1,3.1,0,0,1,113,80.369V75.5h2.136V89H113.2l-.105-.984a3.148,3.148,0,0,1-2.558,1.16,3.248,3.248,0,0,1-2.7-1.345A5.861,5.861,0,0,1,106.8,84.175Zm2.136.185a3.958,3.958,0,0,0,.558,2.263,1.811,1.811,0,0,0,1.586.813A2.017,2.017,0,0,0,113,86.267V82.206a1.986,1.986,0,0,0-1.9-1.143,1.824,1.824,0,0,0-1.6.822A4.408,4.408,0,0,0,108.935,84.359ZM119.631,89H117.5V79.49h2.136Zm-2.268-11.979a1.133,1.133,0,0,1,.312-.817,1.179,1.179,0,0,1,.892-.325,1.193,1.193,0,0,1,.9.325,1.125,1.125,0,0,1,.316.817,1.1,1.1,0,0,1-.316.8,1.2,1.2,0,0,1-.9.321,1.188,1.188,0,0,1-.892-.321A1.107,1.107,0,0,1,117.363,77.021Zm4.219,7.154a5.562,5.562,0,0,1,1.042-3.538,3.343,3.343,0,0,1,2.764-1.323,3.132,3.132,0,0,1,2.558,1.134l.1-.958h1.925v9.22a3.832,3.832,0,0,1-1.165,2.953,4.436,4.436,0,0,1-3.142,1.081,5.064,5.064,0,0,1-2.043-.435,3.631,3.631,0,0,1-1.516-1.138l1.011-1.283a3.053,3.053,0,0,0,2.426,1.169,2.359,2.359,0,0,0,1.679-.576,2.206,2.206,0,0,0,.615-1.692v-.642a3.144,3.144,0,0,1-2.461,1.028,3.335,3.335,0,0,1-2.729-1.327A5.742,5.742,0,0,1,121.582,84.175Zm2.127.185a3.829,3.829,0,0,0,.584,2.254,1.879,1.879,0,0,0,1.622.822,2.055,2.055,0,0,0,1.916-1.107V82.145a2.026,2.026,0,0,0-1.9-1.081,1.887,1.887,0,0,0-1.639.835A4.287,4.287,0,0,0,123.709,84.359ZM134.432,89H132.3V79.49h2.136Zm-2.268-11.979a1.133,1.133,0,0,1,.312-.817,1.179,1.179,0,0,1,.892-.325,1.193,1.193,0,0,1,.9.325,1.125,1.125,0,0,1,.316.817,1.1,1.1,0,0,1-.316.8,1.2,1.2,0,0,1-.9.321,1.188,1.188,0,0,1-.892-.321A1.107,1.107,0,0,1,132.164,77.021Zm7.269.158V79.49h1.679v1.582h-1.679v5.309a1.169,1.169,0,0,0,.215.787,1,1,0,0,0,.769.242,3.29,3.29,0,0,0,.747-.088v1.652a5.26,5.26,0,0,1-1.406.2q-2.461,0-2.461-2.716V81.072h-1.564V79.49H137.3V77.179ZM148.424,89a3.3,3.3,0,0,1-.246-.888,3.593,3.593,0,0,1-4.834.246,2.615,2.615,0,0,1-.905-2.021A2.7,2.7,0,0,1,143.568,84a5.473,5.473,0,0,1,3.23-.813h1.31v-.624a1.666,1.666,0,0,0-.413-1.182,1.638,1.638,0,0,0-1.257-.444,1.881,1.881,0,0,0-1.2.365,1.129,1.129,0,0,0-.466.927h-2.136a2.37,2.37,0,0,1,.519-1.463A3.455,3.455,0,0,1,144.57,79.7a4.955,4.955,0,0,1,1.991-.387,3.99,3.99,0,0,1,2.663.839,2.993,2.993,0,0,1,1.02,2.36V86.8a4.861,4.861,0,0,0,.36,2.048V89Zm-2.347-1.538a2.429,2.429,0,0,0,1.191-.308,2.055,2.055,0,0,0,.839-.826V84.535h-1.151a3.148,3.148,0,0,0-1.784.413,1.338,1.338,0,0,0-.6,1.169,1.248,1.248,0,0,0,.409.98A1.583,1.583,0,0,0,146.077,87.462ZM154.752,89h-2.136V75.5h2.136Zm3.656-2.25a1.22,1.22,0,0,1,.923.338,1.175,1.175,0,0,1,.325.848,1.134,1.134,0,0,1-.325.831,1.44,1.44,0,0,1-1.828,0,1.115,1.115,0,0,1-.334-.835,1.175,1.175,0,0,1,.325-.848A1.208,1.208,0,0,1,158.408,86.75Z" transform="translate(713 1309.117)" fill="#12263f"/>
    <path id="Trazado_628757" data-name="Trazado 628757" d="M3.649,0H-1.29V-19.038l-5.9,1.829v-4.016L3.119-24.917h.53Z" transform="translate(873 1259.117)" fill="#fff"/>
    <path id="Trazado_628761" data-name="Trazado 628761" d="M8.707,0H-8.348V-3.384L-.3-11.963a19.858,19.858,0,0,0,2.452-3.162,5.079,5.079,0,0,0,.795-2.563,3.8,3.8,0,0,0-.837-2.606,3.023,3.023,0,0,0-2.393-.948,3.26,3.26,0,0,0-2.64,1.154,4.569,4.569,0,0,0-.966,3.033H-8.844a8.157,8.157,0,0,1,1.085-4.153,7.649,7.649,0,0,1,3.068-2.948A9.324,9.324,0,0,1-.2-25.225a8.828,8.828,0,0,1,5.973,1.846A6.53,6.53,0,0,1,7.9-18.167a8.366,8.366,0,0,1-.957,3.76,20.894,20.894,0,0,1-3.281,4.46L-1.991-3.982h10.7Z" transform="translate(939 1374.117)" fill="#fff"/>
    <path id="Trazado_628763" data-name="Trazado 628763" d="M-3.324-14.629H-.692a3.708,3.708,0,0,0,2.786-.94A3.444,3.444,0,0,0,3-18.064a3.045,3.045,0,0,0-.9-2.341,3.477,3.477,0,0,0-2.469-.837,3.645,3.645,0,0,0-2.375.778A2.486,2.486,0,0,0-3.7-18.44H-8.639a6.074,6.074,0,0,1,1.051-3.495,7,7,0,0,1,2.939-2.418,9.81,9.81,0,0,1,4.161-.872A9.3,9.3,0,0,1,5.7-23.336a6.443,6.443,0,0,1,2.239,5.2A5.236,5.236,0,0,1,6.9-14.988a6.773,6.773,0,0,1-2.734,2.2A6.183,6.183,0,0,1,7.3-10.527,6.119,6.119,0,0,1,8.331-6.973,6.55,6.55,0,0,1,5.913-1.658a9.723,9.723,0,0,1-6.4,2A9.219,9.219,0,0,1-6.58-1.624a6.418,6.418,0,0,1-2.367-5.2h4.939a2.861,2.861,0,0,0,1.051,2.29A3.873,3.873,0,0,0-.367-3.64a3.891,3.891,0,0,0,2.76-.931,3.215,3.215,0,0,0,1-2.469q0-3.726-4.1-3.726H-3.324Z" transform="translate(873 1493.117)" fill="#fff"/>
    <path id="Trazado_628764" data-name="Trazado 628764" d="M6.263-9.365h2.82v3.982H6.263V0H1.324V-5.383h-10.2L-9.1-8.494,1.273-24.883h4.99Zm-10.442,0h5.5v-8.784L1-17.585Z" transform="translate(728 1494.117)" fill="#fff"/>
    <path id="Trazado_628759" data-name="Trazado 628759" d="M-7.614-12.236l1.436-12.646H7.767v4.119h-9.9l-.615,5.349A7.83,7.83,0,0,1,1-16.355a7.172,7.172,0,0,1,5.571,2.2A8.806,8.806,0,0,1,8.588-7.981,9.021,9.021,0,0,1,7.571-3.666,7.177,7.177,0,0,1,4.657-.709,9.1,9.1,0,0,1,.179.342,9.659,9.659,0,0,1-4.008-.573,7.427,7.427,0,0,1-7.058-3.145,7.01,7.01,0,0,1-8.246-6.921h4.888A3.651,3.651,0,0,0-2.273-4.5,3.44,3.44,0,0,0,.162-3.64a3.036,3.036,0,0,0,2.581-1.2,5.581,5.581,0,0,0,.906-3.409A4.615,4.615,0,0,0,2.606-11.5,3.826,3.826,0,0,0-.35-12.629a4.275,4.275,0,0,0-2.854.923l-.479.444Z" transform="translate(663 1376.117)" fill="#fff"/>
    <path id="Trazado_628755" data-name="Trazado 628755" d="M5.05-25.139v4.067H4.572A8.391,8.391,0,0,0-.82-19.329a7.082,7.082,0,0,0-2.452,4.7,6.727,6.727,0,0,1,5.007-2.017A6.338,6.338,0,0,1,6.9-14.321,9.317,9.317,0,0,1,8.81-8.2,9.165,9.165,0,0,1,7.759-3.811,7.538,7.538,0,0,1,4.785-.752,8.639,8.639,0,0,1,.436.342,8.069,8.069,0,0,1-5.913-2.393a10.614,10.614,0,0,1-2.418-7.3v-1.777A15.973,15.973,0,0,1-6.8-18.619a11.215,11.215,0,0,1,4.392-4.8A12.87,12.87,0,0,1,4.23-25.139ZM.231-12.681a3.941,3.941,0,0,0-2.17.624,3.756,3.756,0,0,0-1.436,1.649v1.5A6.672,6.672,0,0,0-2.4-5.033,3.146,3.146,0,0,0,.333-3.64,3.111,3.111,0,0,0,2.905-4.9a5.13,5.13,0,0,0,.983-3.256A5.12,5.12,0,0,0,2.9-11.433,3.228,3.228,0,0,0,.231-12.681Z" transform="translate(728 1261.117)" fill="#fff"/>
    <path id="Trazado_628758" data-name="Trazado 628758" d="M-39.489-2.637h-4.623L-44.991,0h-2.8l4.764-12.8h2.443L-35.8,0h-2.8ZM-43.4-4.772h3.2l-1.608-4.79Zm8.235-.053a5.731,5.731,0,0,1,1-3.542,3.237,3.237,0,0,1,2.729-1.318,2.913,2.913,0,0,1,2.294,1.037V-13.5H-26.6V0H-28.89l-.123-1.011A2.989,2.989,0,0,1-31.456.176,3.228,3.228,0,0,1-34.15-1.147,5.916,5.916,0,0,1-35.165-4.825Zm2.54.185a3.744,3.744,0,0,0,.466,2.048,1.518,1.518,0,0,0,1.354.712,1.7,1.7,0,0,0,1.661-.993V-6.627a1.676,1.676,0,0,0-1.644-.993Q-32.625-7.62-32.625-4.641Zm7.6-.2a5.684,5.684,0,0,1,1-3.542,3.261,3.261,0,0,1,2.738-1.3,2.92,2.92,0,0,1,2.435,1.169l.167-.993h2.232V3.656H-19V-.817a2.928,2.928,0,0,1-2.3.993,3.237,3.237,0,0,1-2.707-1.318A5.963,5.963,0,0,1-25.022-4.843Zm2.54.185A3.719,3.719,0,0,0-22-2.584a1.534,1.534,0,0,0,1.349.712A1.709,1.709,0,0,0-19-2.8V-6.732a1.7,1.7,0,0,0-1.635-.9A1.553,1.553,0,0,0-22-6.917,4.107,4.107,0,0,0-22.482-4.658ZM-8.763-.967a3.185,3.185,0,0,1-2.6,1.143A3,3,0,0,1-13.7-.7a3.752,3.752,0,0,1-.822-2.575V-9.51h2.54v6.144q0,1.485,1.354,1.485a1.835,1.835,0,0,0,1.775-.9V-9.51H-6.3V0H-8.692ZM-1.705,0H-4.254V-9.51h2.549ZM-4.4-11.971a1.251,1.251,0,0,1,.382-.94,1.436,1.436,0,0,1,1.042-.369,1.44,1.44,0,0,1,1.037.369,1.244,1.244,0,0,1,.387.94,1.247,1.247,0,0,1-.391.949,1.443,1.443,0,0,1-1.033.369,1.443,1.443,0,0,1-1.033-.369A1.247,1.247,0,0,1-4.4-11.971Zm9.94,9.343a.818.818,0,0,0-.461-.734,5.241,5.241,0,0,0-1.481-.479Q.2-4.553.2-6.724a2.613,2.613,0,0,1,1.05-2.114A4.237,4.237,0,0,1,4-9.686a4.56,4.56,0,0,1,2.9.853A2.687,2.687,0,0,1,7.98-6.618H5.44a1.229,1.229,0,0,0-.352-.9,1.488,1.488,0,0,0-1.1-.356A1.52,1.52,0,0,0,3-7.585a.916.916,0,0,0-.352.738.783.783,0,0,0,.4.681,4.114,4.114,0,0,0,1.349.448,11.019,11.019,0,0,1,1.6.426A2.628,2.628,0,0,1,8.007-2.733a2.481,2.481,0,0,1-1.116,2.1,4.815,4.815,0,0,1-2.883.8A5.029,5.029,0,0,1,1.885-.25,3.561,3.561,0,0,1,.431-1.419,2.716,2.716,0,0,1-.1-3.023H2.312a1.326,1.326,0,0,0,.5,1.037,1.987,1.987,0,0,0,1.248.36,1.839,1.839,0,0,0,1.1-.277A.861.861,0,0,0,5.537-2.628ZM12.322,0H9.773V-9.51h2.549Zm-2.7-11.971a1.251,1.251,0,0,1,.382-.94,1.436,1.436,0,0,1,1.042-.369,1.44,1.44,0,0,1,1.037.369,1.244,1.244,0,0,1,.387.94,1.247,1.247,0,0,1-.391.949,1.443,1.443,0,0,1-1.033.369,1.443,1.443,0,0,1-1.033-.369A1.247,1.247,0,0,1,9.624-11.971Zm8.745,10.1a1.666,1.666,0,0,0,1.143-.387,1.355,1.355,0,0,0,.457-1.028h2.382a3.258,3.258,0,0,1-.527,1.771A3.48,3.48,0,0,1,20.4-.268a4.442,4.442,0,0,1-1.991.444,4.129,4.129,0,0,1-3.217-1.3A5.13,5.13,0,0,1,14.019-4.7v-.167a5.071,5.071,0,0,1,1.169-3.507A4.08,4.08,0,0,1,18.4-9.686,4,4,0,0,1,21.256-8.67a3.594,3.594,0,0,1,1.094,2.7H19.969a1.731,1.731,0,0,0-.457-1.2,1.528,1.528,0,0,0-1.16-.461,1.531,1.531,0,0,0-1.34.646,3.739,3.739,0,0,0-.453,2.1v.264a3.786,3.786,0,0,0,.448,2.109A1.55,1.55,0,0,0,18.369-1.872ZM26.481,0H23.933V-9.51h2.549Zm-2.7-11.971a1.251,1.251,0,0,1,.382-.94,1.436,1.436,0,0,1,1.042-.369,1.44,1.44,0,0,1,1.037.369,1.244,1.244,0,0,1,.387.94,1.247,1.247,0,0,1-.391.949,1.443,1.443,0,0,1-1.033.369,1.443,1.443,0,0,1-1.033-.369A1.247,1.247,0,0,1,23.783-11.971Zm4.395,7.128a5.64,5.64,0,0,1,.545-2.522,3.989,3.989,0,0,1,1.569-1.714,4.577,4.577,0,0,1,2.377-.606,4.33,4.33,0,0,1,3.142,1.178,4.727,4.727,0,0,1,1.358,3.2l.018.65a4.97,4.97,0,0,1-1.222,3.511A4.247,4.247,0,0,1,32.687.176,4.268,4.268,0,0,1,29.4-1.143a5.058,5.058,0,0,1-1.226-3.586Zm2.54.185a3.545,3.545,0,0,0,.51,2.07,1.682,1.682,0,0,0,1.459.716,1.686,1.686,0,0,0,1.441-.708,3.879,3.879,0,0,0,.519-2.263A3.51,3.51,0,0,0,34.128-6.9a1.686,1.686,0,0,0-1.459-.729,1.659,1.659,0,0,0-1.441.725A3.944,3.944,0,0,0,30.718-4.658ZM33.17-13.5h2.769L33.5-10.775H31.438Zm7.919,3.99.079,1.1A3.32,3.32,0,0,1,43.9-9.686a2.759,2.759,0,0,1,2.25.888,4.142,4.142,0,0,1,.756,2.654V0h-2.54V-6.082a1.648,1.648,0,0,0-.352-1.173,1.574,1.574,0,0,0-1.169-.365,1.747,1.747,0,0,0-1.608.914V0H38.7V-9.51Z" transform="translate(920 1148.117)" fill="#fff"/>
    <path id="Trazado_628762" data-name="Trazado 628762" d="M-49.46-4.509V0H-52.1V-12.8H-47.1a5.776,5.776,0,0,1,2.536.527,3.886,3.886,0,0,1,1.683,1.5,4.178,4.178,0,0,1,.589,2.21,3.674,3.674,0,0,1-1.288,2.966,5.363,5.363,0,0,1-3.564,1.085Zm0-2.136H-47.1a2.316,2.316,0,0,0,1.6-.492,1.79,1.79,0,0,0,.549-1.406,2.111,2.111,0,0,0-.554-1.521,2.068,2.068,0,0,0-1.529-.6H-49.46Zm14.15-.483a6.9,6.9,0,0,0-.914-.07,1.86,1.86,0,0,0-1.89.976V0h-2.54V-9.51h2.4l.07,1.134a2.354,2.354,0,0,1,2.118-1.31,2.662,2.662,0,0,1,.791.114Zm5.432,7.3a4.668,4.668,0,0,1-3.406-1.283A4.561,4.561,0,0,1-34.6-4.526v-.246a5.745,5.745,0,0,1,.554-2.562,4.064,4.064,0,0,1,1.569-1.74,4.4,4.4,0,0,1,2.316-.611,3.947,3.947,0,0,1,3.072,1.23,5,5,0,0,1,1.121,3.489v1.037h-6.056a2.36,2.36,0,0,0,.743,1.494,2.245,2.245,0,0,0,1.569.563,2.742,2.742,0,0,0,2.294-1.063l1.248,1.4A3.813,3.813,0,0,1-27.716-.277,5.075,5.075,0,0,1-29.878.176Zm-.29-7.8a1.591,1.591,0,0,0-1.226.51A2.634,2.634,0,0,0-32-5.66h3.533v-.2a1.878,1.878,0,0,0-.457-1.305A1.642,1.642,0,0,0-30.168-7.629Zm10.793,5a.818.818,0,0,0-.461-.734,5.241,5.241,0,0,0-1.481-.479q-3.393-.712-3.393-2.883a2.613,2.613,0,0,1,1.05-2.114,4.237,4.237,0,0,1,2.747-.848,4.56,4.56,0,0,1,2.9.853,2.687,2.687,0,0,1,1.085,2.215h-2.54a1.229,1.229,0,0,0-.352-.9,1.488,1.488,0,0,0-1.1-.356,1.52,1.52,0,0,0-.993.29.916.916,0,0,0-.352.738.783.783,0,0,0,.4.681,4.114,4.114,0,0,0,1.349.448,11.019,11.019,0,0,1,1.6.426,2.628,2.628,0,0,1,2.013,2.558,2.481,2.481,0,0,1-1.116,2.1,4.815,4.815,0,0,1-2.883.8A5.029,5.029,0,0,1-23.027-.25a3.561,3.561,0,0,1-1.455-1.169,2.716,2.716,0,0,1-.527-1.6H-22.6a1.326,1.326,0,0,0,.5,1.037,1.987,1.987,0,0,0,1.248.36,1.839,1.839,0,0,0,1.1-.277A.861.861,0,0,0-19.375-2.628Zm8.481,2.8A4.668,4.668,0,0,1-14.3-1.107a4.561,4.561,0,0,1-1.314-3.419v-.246a5.745,5.745,0,0,1,.554-2.562,4.064,4.064,0,0,1,1.569-1.74,4.4,4.4,0,0,1,2.316-.611A3.947,3.947,0,0,1-8.1-8.455,5,5,0,0,1-6.983-4.966v1.037h-6.056A2.36,2.36,0,0,0-12.3-2.435a2.245,2.245,0,0,0,1.569.563A2.742,2.742,0,0,0-8.433-2.936l1.248,1.4A3.813,3.813,0,0,1-8.732-.277,5.075,5.075,0,0,1-10.894.176Zm-.29-7.8a1.591,1.591,0,0,0-1.226.51,2.634,2.634,0,0,0-.6,1.459h3.533v-.2a1.878,1.878,0,0,0-.457-1.305A1.642,1.642,0,0,0-11.184-7.629Zm10.986.5a6.9,6.9,0,0,0-.914-.07A1.86,1.86,0,0,0-3-6.223V0h-2.54V-9.51h2.4l.07,1.134A2.354,2.354,0,0,1-.954-9.686a2.662,2.662,0,0,1,.791.114ZM4.742-3.1,6.508-9.51H9.163L5.955,0H3.529L.321-9.51H2.975ZM15.658,0A2.821,2.821,0,0,1,15.4-.853,3.073,3.073,0,0,1,13,.176a3.376,3.376,0,0,1-2.316-.809,2.6,2.6,0,0,1-.918-2.039,2.687,2.687,0,0,1,1.121-2.32,5.529,5.529,0,0,1,3.239-.817H15.3v-.545a1.567,1.567,0,0,0-.338-1.055,1.331,1.331,0,0,0-1.068-.4,1.513,1.513,0,0,0-1.006.308,1.045,1.045,0,0,0-.365.844H9.98a2.551,2.551,0,0,1,.51-1.529,3.37,3.37,0,0,1,1.441-1.1,5.253,5.253,0,0,1,2.092-.4,4.15,4.15,0,0,1,2.791.883,3.09,3.09,0,0,1,1.033,2.483V-2.2a4.546,4.546,0,0,0,.378,2.048V0Zm-2.1-1.767a2.188,2.188,0,0,0,1.037-.25,1.645,1.645,0,0,0,.7-.672V-4.324h-.949q-1.907,0-2.03,1.318l-.009.149a1.017,1.017,0,0,0,.334.782A1.3,1.3,0,0,0,13.557-1.767Zm10.2-.105A1.666,1.666,0,0,0,24.9-2.259a1.355,1.355,0,0,0,.457-1.028h2.382a3.258,3.258,0,0,1-.527,1.771A3.48,3.48,0,0,1,25.787-.268,4.442,4.442,0,0,1,23.8.176a4.129,4.129,0,0,1-3.217-1.3A5.13,5.13,0,0,1,19.4-4.7v-.167a5.071,5.071,0,0,1,1.169-3.507,4.08,4.08,0,0,1,3.208-1.31A4,4,0,0,1,26.64-8.67a3.594,3.594,0,0,1,1.094,2.7H25.352a1.731,1.731,0,0,0-.457-1.2,1.528,1.528,0,0,0-1.16-.461,1.531,1.531,0,0,0-1.34.646,3.739,3.739,0,0,0-.453,2.1v.264a3.786,3.786,0,0,0,.448,2.109A1.55,1.55,0,0,0,23.752-1.872ZM31.865,0H29.316V-9.51h2.549Zm-2.7-11.971a1.251,1.251,0,0,1,.382-.94,1.436,1.436,0,0,1,1.042-.369,1.44,1.44,0,0,1,1.037.369,1.244,1.244,0,0,1,.387.94,1.247,1.247,0,0,1-.391.949,1.443,1.443,0,0,1-1.033.369,1.443,1.443,0,0,1-1.033-.369A1.247,1.247,0,0,1,29.167-11.971Zm4.395,7.128a5.64,5.64,0,0,1,.545-2.522,3.989,3.989,0,0,1,1.569-1.714,4.577,4.577,0,0,1,2.377-.606,4.33,4.33,0,0,1,3.142,1.178,4.727,4.727,0,0,1,1.358,3.2l.018.65a4.97,4.97,0,0,1-1.222,3.511A4.247,4.247,0,0,1,38.07.176a4.268,4.268,0,0,1-3.283-1.318,5.058,5.058,0,0,1-1.226-3.586Zm2.54.185a3.545,3.545,0,0,0,.51,2.07,1.682,1.682,0,0,0,1.459.716,1.686,1.686,0,0,0,1.441-.708,3.879,3.879,0,0,0,.519-2.263A3.51,3.51,0,0,0,39.511-6.9a1.686,1.686,0,0,0-1.459-.729,1.659,1.659,0,0,0-1.441.725A3.944,3.944,0,0,0,36.1-4.658ZM38.553-13.5h2.769l-2.435,2.725H36.822Zm7.919,3.99.079,1.1a3.32,3.32,0,0,1,2.733-1.274,2.759,2.759,0,0,1,2.25.888,4.142,4.142,0,0,1,.756,2.654V0H49.75V-6.082A1.648,1.648,0,0,0,49.4-7.255,1.574,1.574,0,0,0,48.23-7.62a1.747,1.747,0,0,0-1.608.914V0h-2.54V-9.51Z" transform="translate(1048 1369.117)" fill="#fff"/>
    <path id="Trazado_628765" data-name="Trazado 628765" d="M-23.757-2.637H-28.38L-29.259,0h-2.8L-27.3-12.8h2.443L-20.065,0h-2.8Zm-3.911-2.136h3.2l-1.608-4.79ZM-17.121-9.51l.079,1.1a3.32,3.32,0,0,1,2.733-1.274,2.759,2.759,0,0,1,2.25.888A4.142,4.142,0,0,1-11.3-6.144V0h-2.54V-6.082a1.648,1.648,0,0,0-.352-1.173,1.574,1.574,0,0,0-1.169-.365,1.747,1.747,0,0,0-1.608.914V0h-2.54V-9.51ZM-3.867,0a2.821,2.821,0,0,1-.255-.853A3.073,3.073,0,0,1-6.521.176,3.376,3.376,0,0,1-8.837-.633a2.6,2.6,0,0,1-.918-2.039,2.687,2.687,0,0,1,1.121-2.32A5.529,5.529,0,0,1-5.4-5.81h1.169v-.545a1.567,1.567,0,0,0-.338-1.055,1.331,1.331,0,0,0-1.068-.4A1.513,1.513,0,0,0-6.64-7.5,1.045,1.045,0,0,0-7-6.653h-2.54a2.551,2.551,0,0,1,.51-1.529,3.37,3.37,0,0,1,1.441-1.1,5.253,5.253,0,0,1,2.092-.4A4.15,4.15,0,0,1-2.711-8.8,3.09,3.09,0,0,1-1.679-6.319V-2.2A4.546,4.546,0,0,0-1.3-.149V0Zm-2.1-1.767a2.188,2.188,0,0,0,1.037-.25,1.645,1.645,0,0,0,.7-.672V-4.324h-.949q-1.907,0-2.03,1.318l-.009.149a1.017,1.017,0,0,0,.334.782A1.3,1.3,0,0,0-5.968-1.767ZM-5-13.5h2.769l-2.435,2.725H-6.732ZM2.953,0H.4V-13.5H2.953ZM7.726,0H5.177V-9.51H7.726Zm-2.7-11.971a1.251,1.251,0,0,1,.382-.94,1.436,1.436,0,0,1,1.042-.369,1.44,1.44,0,0,1,1.037.369,1.244,1.244,0,0,1,.387.94,1.247,1.247,0,0,1-.391.949,1.443,1.443,0,0,1-1.033.369,1.443,1.443,0,0,1-1.033-.369A1.247,1.247,0,0,1,5.027-11.971Zm9.94,9.343a.818.818,0,0,0-.461-.734,5.241,5.241,0,0,0-1.481-.479Q9.633-4.553,9.633-6.724a2.613,2.613,0,0,1,1.05-2.114,4.237,4.237,0,0,1,2.747-.848,4.56,4.56,0,0,1,2.9.853,2.687,2.687,0,0,1,1.085,2.215h-2.54a1.229,1.229,0,0,0-.352-.9,1.488,1.488,0,0,0-1.1-.356,1.52,1.52,0,0,0-.993.29.916.916,0,0,0-.352.738.783.783,0,0,0,.4.681,4.114,4.114,0,0,0,1.349.448,11.019,11.019,0,0,1,1.6.426,2.628,2.628,0,0,1,2.013,2.558,2.481,2.481,0,0,1-1.116,2.1,4.815,4.815,0,0,1-2.883.8A5.029,5.029,0,0,1,11.316-.25,3.561,3.561,0,0,1,9.861-1.419a2.716,2.716,0,0,1-.527-1.6h2.408a1.326,1.326,0,0,0,.5,1.037,1.987,1.987,0,0,0,1.248.36,1.839,1.839,0,0,0,1.1-.277A.861.861,0,0,0,14.968-2.628ZM21.753,0H19.2V-9.51h2.549Zm-2.7-11.971a1.251,1.251,0,0,1,.382-.94,1.436,1.436,0,0,1,1.042-.369,1.44,1.44,0,0,1,1.037.369,1.244,1.244,0,0,1,.387.94,1.247,1.247,0,0,1-.391.949,1.443,1.443,0,0,1-1.033.369,1.443,1.443,0,0,1-1.033-.369A1.247,1.247,0,0,1,19.055-11.971ZM29-2.628a.818.818,0,0,0-.461-.734,5.241,5.241,0,0,0-1.481-.479Q23.66-4.553,23.66-6.724a2.613,2.613,0,0,1,1.05-2.114,4.237,4.237,0,0,1,2.747-.848,4.56,4.56,0,0,1,2.9.853,2.687,2.687,0,0,1,1.085,2.215H28.9a1.229,1.229,0,0,0-.352-.9,1.488,1.488,0,0,0-1.1-.356,1.52,1.52,0,0,0-.993.29.916.916,0,0,0-.352.738.783.783,0,0,0,.4.681,4.114,4.114,0,0,0,1.349.448,11.019,11.019,0,0,1,1.6.426,2.628,2.628,0,0,1,2.013,2.558,2.481,2.481,0,0,1-1.116,2.1,4.815,4.815,0,0,1-2.883.8A5.029,5.029,0,0,1,25.343-.25a3.561,3.561,0,0,1-1.455-1.169,2.716,2.716,0,0,1-.527-1.6H25.77a1.326,1.326,0,0,0,.5,1.037,1.987,1.987,0,0,0,1.248.36,1.839,1.839,0,0,0,1.1-.277A.861.861,0,0,0,29-2.628Z" transform="translate(916 1581.117)" fill="#fff"/>
    <path id="Trazado_628766" data-name="Trazado 628766" d="M-62.3,0V-12.8h3.938a5.98,5.98,0,0,1,3.019.76,5.3,5.3,0,0,1,2.079,2.162,6.669,6.669,0,0,1,.747,3.186V-6.1a6.688,6.688,0,0,1-.734,3.173,5.256,5.256,0,0,1-2.07,2.153A6.025,6.025,0,0,1-58.333,0Zm2.637-10.661v8.543h1.274a2.863,2.863,0,0,0,2.364-1.011,4.567,4.567,0,0,0,.835-2.892V-6.7A4.64,4.64,0,0,0-56-9.655a2.854,2.854,0,0,0-2.364-1.006Zm8.5,5.818a5.64,5.64,0,0,1,.545-2.522,3.989,3.989,0,0,1,1.569-1.714,4.577,4.577,0,0,1,2.377-.606,4.33,4.33,0,0,1,3.142,1.178,4.727,4.727,0,0,1,1.358,3.2l.018.65a4.97,4.97,0,0,1-1.222,3.511A4.247,4.247,0,0,1-46.652.176a4.268,4.268,0,0,1-3.283-1.318,5.058,5.058,0,0,1-1.226-3.586Zm2.54.185a3.545,3.545,0,0,0,.51,2.07,1.682,1.682,0,0,0,1.459.716,1.686,1.686,0,0,0,1.441-.708,3.879,3.879,0,0,0,.519-2.263A3.51,3.51,0,0,0-45.211-6.9a1.686,1.686,0,0,0-1.459-.729,1.659,1.659,0,0,0-1.441.725A3.944,3.944,0,0,0-48.621-4.658Zm11.988,2.786a1.666,1.666,0,0,0,1.143-.387,1.355,1.355,0,0,0,.457-1.028h2.382a3.258,3.258,0,0,1-.527,1.771A3.48,3.48,0,0,1-34.6-.268a4.442,4.442,0,0,1-1.991.444,4.129,4.129,0,0,1-3.217-1.3A5.13,5.13,0,0,1-40.983-4.7v-.167a5.071,5.071,0,0,1,1.169-3.507,4.08,4.08,0,0,1,3.208-1.31A4,4,0,0,1-33.746-8.67a3.594,3.594,0,0,1,1.094,2.7h-2.382a1.731,1.731,0,0,0-.457-1.2,1.528,1.528,0,0,0-1.16-.461,1.531,1.531,0,0,0-1.34.646,3.739,3.739,0,0,0-.453,2.1v.264A3.786,3.786,0,0,0-38-2.514,1.55,1.55,0,0,0-36.633-1.872Zm11.127.905a3.185,3.185,0,0,1-2.6,1.143A3,3,0,0,1-30.441-.7a3.752,3.752,0,0,1-.822-2.575V-9.51h2.54v6.144q0,1.485,1.354,1.485a1.835,1.835,0,0,0,1.775-.9V-9.51h2.549V0h-2.391Zm6.759-8.543.079,1.063a3.342,3.342,0,0,1,2.733-1.239,2.536,2.536,0,0,1,2.522,1.45,3.265,3.265,0,0,1,2.856-1.45,2.836,2.836,0,0,1,2.3.9A4.141,4.141,0,0,1-7.5-6.073V0h-2.549V-6.064a1.811,1.811,0,0,0-.316-1.182,1.4,1.4,0,0,0-1.116-.374,1.585,1.585,0,0,0-1.582,1.09L-13.052,0h-2.54V-6.056a1.789,1.789,0,0,0-.325-1.2,1.416,1.416,0,0,0-1.107-.369,1.646,1.646,0,0,0-1.564.9V0h-2.54V-9.51ZM-1.169.176A4.668,4.668,0,0,1-4.575-1.107,4.561,4.561,0,0,1-5.889-4.526v-.246a5.745,5.745,0,0,1,.554-2.562,4.064,4.064,0,0,1,1.569-1.74A4.4,4.4,0,0,1-1.45-9.686a3.947,3.947,0,0,1,3.072,1.23A5,5,0,0,1,2.742-4.966v1.037H-3.313a2.36,2.36,0,0,0,.743,1.494A2.245,2.245,0,0,0-1-1.872,2.742,2.742,0,0,0,1.292-2.936l1.248,1.4A3.813,3.813,0,0,1,.993-.277,5.075,5.075,0,0,1-1.169.176Zm-.29-7.8a1.591,1.591,0,0,0-1.226.51,2.634,2.634,0,0,0-.6,1.459H.246v-.2A1.878,1.878,0,0,0-.211-7.167,1.642,1.642,0,0,0-1.459-7.629ZM6.521-9.51l.079,1.1A3.32,3.32,0,0,1,9.334-9.686a2.759,2.759,0,0,1,2.25.888,4.142,4.142,0,0,1,.756,2.654V0H9.8V-6.082a1.648,1.648,0,0,0-.352-1.173A1.574,1.574,0,0,0,8.279-7.62a1.747,1.747,0,0,0-1.608.914V0H4.131V-9.51Zm10.784-2.338V-9.51h1.626v1.863H17.306V-2.9a1.133,1.133,0,0,0,.2.756,1.015,1.015,0,0,0,.773.229,4.051,4.051,0,0,0,.747-.062V-.053A5.229,5.229,0,0,1,17.49.176a2.425,2.425,0,0,1-2.725-2.7V-7.646H13.377V-9.51h1.389v-2.338ZM25.857,0A2.821,2.821,0,0,1,25.6-.853,3.073,3.073,0,0,1,23.2.176a3.376,3.376,0,0,1-2.316-.809,2.6,2.6,0,0,1-.918-2.039,2.687,2.687,0,0,1,1.121-2.32,5.529,5.529,0,0,1,3.239-.817H25.5v-.545a1.567,1.567,0,0,0-.338-1.055,1.331,1.331,0,0,0-1.068-.4,1.513,1.513,0,0,0-1.006.308,1.045,1.045,0,0,0-.365.844H20.18a2.551,2.551,0,0,1,.51-1.529,3.37,3.37,0,0,1,1.441-1.1,5.253,5.253,0,0,1,2.092-.4,4.15,4.15,0,0,1,2.791.883,3.09,3.09,0,0,1,1.033,2.483V-2.2a4.546,4.546,0,0,0,.378,2.048V0Zm-2.1-1.767a2.188,2.188,0,0,0,1.037-.25,1.645,1.645,0,0,0,.7-.672V-4.324h-.949q-1.907,0-2.03,1.318l-.009.149a1.017,1.017,0,0,0,.334.782A1.3,1.3,0,0,0,23.757-1.767Zm10.2-.105a1.666,1.666,0,0,0,1.143-.387,1.355,1.355,0,0,0,.457-1.028h2.382a3.258,3.258,0,0,1-.527,1.771A3.48,3.48,0,0,1,35.987-.268,4.442,4.442,0,0,1,34,.176a4.129,4.129,0,0,1-3.217-1.3A5.13,5.13,0,0,1,29.6-4.7v-.167a5.071,5.071,0,0,1,1.169-3.507,4.08,4.08,0,0,1,3.208-1.31A4,4,0,0,1,36.839-8.67a3.594,3.594,0,0,1,1.094,2.7H35.552a1.731,1.731,0,0,0-.457-1.2,1.528,1.528,0,0,0-1.16-.461,1.531,1.531,0,0,0-1.34.646,3.739,3.739,0,0,0-.453,2.1v.264a3.786,3.786,0,0,0,.448,2.109A1.55,1.55,0,0,0,33.952-1.872ZM42.064,0H39.516V-9.51h2.549Zm-2.7-11.971a1.251,1.251,0,0,1,.382-.94,1.436,1.436,0,0,1,1.042-.369,1.44,1.44,0,0,1,1.037.369,1.244,1.244,0,0,1,.387.94,1.247,1.247,0,0,1-.391.949,1.443,1.443,0,0,1-1.033.369,1.443,1.443,0,0,1-1.033-.369A1.247,1.247,0,0,1,39.366-11.971Zm4.395,7.128a5.64,5.64,0,0,1,.545-2.522,3.989,3.989,0,0,1,1.569-1.714,4.577,4.577,0,0,1,2.377-.606,4.33,4.33,0,0,1,3.142,1.178,4.727,4.727,0,0,1,1.358,3.2l.018.65a4.97,4.97,0,0,1-1.222,3.511A4.247,4.247,0,0,1,48.27.176a4.268,4.268,0,0,1-3.283-1.318,5.058,5.058,0,0,1-1.226-3.586Zm2.54.185a3.545,3.545,0,0,0,.51,2.07,1.682,1.682,0,0,0,1.459.716,1.686,1.686,0,0,0,1.441-.708,3.879,3.879,0,0,0,.519-2.263A3.51,3.51,0,0,0,49.711-6.9a1.686,1.686,0,0,0-1.459-.729,1.659,1.659,0,0,0-1.441.725A3.944,3.944,0,0,0,46.3-4.658ZM48.753-13.5h2.769l-2.435,2.725H47.021Zm7.919,3.99.079,1.1a3.32,3.32,0,0,1,2.733-1.274,2.759,2.759,0,0,1,2.25.888,4.142,4.142,0,0,1,.756,2.654V0H59.95V-6.082A1.648,1.648,0,0,0,59.6-7.255,1.574,1.574,0,0,0,58.43-7.62a1.747,1.747,0,0,0-1.608.914V0h-2.54V-9.51Z" transform="translate(685 1581.117)" fill="#fff"/>
    <path id="Trazado_628760" data-name="Trazado 628760" d="M-49.7-4.509V0h-2.637V-12.8h4.992a5.776,5.776,0,0,1,2.536.527,3.886,3.886,0,0,1,1.683,1.5,4.178,4.178,0,0,1,.589,2.21,3.674,3.674,0,0,1-1.288,2.966,5.363,5.363,0,0,1-3.564,1.085Zm0-2.136h2.355a2.316,2.316,0,0,0,1.6-.492A1.79,1.79,0,0,0-45.2-8.543a2.111,2.111,0,0,0-.554-1.521,2.068,2.068,0,0,0-1.529-.6H-49.7Zm14.15-.483a6.9,6.9,0,0,0-.914-.07,1.86,1.86,0,0,0-1.89.976V0h-2.54V-9.51h2.4l.07,1.134A2.354,2.354,0,0,1-36.3-9.686a2.662,2.662,0,0,1,.791.114Zm5.432,7.3a4.668,4.668,0,0,1-3.406-1.283,4.561,4.561,0,0,1-1.314-3.419v-.246a5.745,5.745,0,0,1,.554-2.562,4.064,4.064,0,0,1,1.569-1.74A4.4,4.4,0,0,1-30.4-9.686a3.947,3.947,0,0,1,3.072,1.23A5,5,0,0,1-26.2-4.966v1.037H-32.26a2.36,2.36,0,0,0,.743,1.494,2.245,2.245,0,0,0,1.569.563,2.742,2.742,0,0,0,2.294-1.063l1.248,1.4A3.813,3.813,0,0,1-27.954-.277,5.075,5.075,0,0,1-30.116.176Zm-.29-7.8a1.591,1.591,0,0,0-1.226.51,2.634,2.634,0,0,0-.6,1.459H-28.7v-.2a1.878,1.878,0,0,0-.457-1.305A1.642,1.642,0,0,0-30.406-7.629Zm10.793,5a.818.818,0,0,0-.461-.734,5.241,5.241,0,0,0-1.481-.479q-3.393-.712-3.393-2.883A2.613,2.613,0,0,1-23.9-8.837a4.237,4.237,0,0,1,2.747-.848,4.56,4.56,0,0,1,2.9.853,2.687,2.687,0,0,1,1.085,2.215h-2.54a1.229,1.229,0,0,0-.352-.9,1.488,1.488,0,0,0-1.1-.356,1.52,1.52,0,0,0-.993.29.916.916,0,0,0-.352.738.783.783,0,0,0,.4.681,4.114,4.114,0,0,0,1.349.448,11.019,11.019,0,0,1,1.6.426,2.628,2.628,0,0,1,2.013,2.558,2.481,2.481,0,0,1-1.116,2.1,4.815,4.815,0,0,1-2.883.8A5.029,5.029,0,0,1-23.265-.25a3.561,3.561,0,0,1-1.455-1.169,2.716,2.716,0,0,1-.527-1.6h2.408a1.326,1.326,0,0,0,.5,1.037,1.987,1.987,0,0,0,1.248.36,1.839,1.839,0,0,0,1.1-.277A.861.861,0,0,0-19.613-2.628Zm8.481,2.8a4.668,4.668,0,0,1-3.406-1.283,4.561,4.561,0,0,1-1.314-3.419v-.246A5.745,5.745,0,0,1-15.3-7.334a4.064,4.064,0,0,1,1.569-1.74,4.4,4.4,0,0,1,2.316-.611,3.947,3.947,0,0,1,3.072,1.23A5,5,0,0,1-7.22-4.966v1.037h-6.056a2.36,2.36,0,0,0,.743,1.494,2.245,2.245,0,0,0,1.569.563A2.742,2.742,0,0,0-8.67-2.936l1.248,1.4A3.813,3.813,0,0,1-8.969-.277,5.075,5.075,0,0,1-11.131.176Zm-.29-7.8a1.591,1.591,0,0,0-1.226.51,2.634,2.634,0,0,0-.6,1.459h3.533v-.2a1.878,1.878,0,0,0-.457-1.305A1.642,1.642,0,0,0-11.421-7.629Zm7.98-1.881.079,1.1A3.32,3.32,0,0,1-.628-9.686a2.759,2.759,0,0,1,2.25.888,4.142,4.142,0,0,1,.756,2.654V0H-.163V-6.082A1.648,1.648,0,0,0-.514-7.255,1.574,1.574,0,0,0-1.683-7.62a1.747,1.747,0,0,0-1.608.914V0h-2.54V-9.51ZM7.343-11.848V-9.51H8.969v1.863H7.343V-2.9a1.133,1.133,0,0,0,.2.756,1.015,1.015,0,0,0,.773.229,4.051,4.051,0,0,0,.747-.062V-.053A5.229,5.229,0,0,1,7.528.176,2.425,2.425,0,0,1,4.8-2.522V-7.646H3.415V-9.51H4.8v-2.338ZM15.9,0a2.821,2.821,0,0,1-.255-.853,3.073,3.073,0,0,1-2.4,1.028,3.376,3.376,0,0,1-2.316-.809,2.6,2.6,0,0,1-.918-2.039,2.687,2.687,0,0,1,1.121-2.32,5.529,5.529,0,0,1,3.239-.817h1.169v-.545A1.567,1.567,0,0,0,15.2-7.409a1.331,1.331,0,0,0-1.068-.4,1.513,1.513,0,0,0-1.006.308,1.045,1.045,0,0,0-.365.844h-2.54a2.551,2.551,0,0,1,.51-1.529,3.37,3.37,0,0,1,1.441-1.1,5.253,5.253,0,0,1,2.092-.4,4.15,4.15,0,0,1,2.791.883,3.09,3.09,0,0,1,1.033,2.483V-2.2a4.546,4.546,0,0,0,.378,2.048V0Zm-2.1-1.767a2.188,2.188,0,0,0,1.037-.25,1.645,1.645,0,0,0,.7-.672V-4.324h-.949q-1.907,0-2.03,1.318l-.009.149a1.017,1.017,0,0,0,.334.782A1.3,1.3,0,0,0,13.794-1.767Zm10.2-.105a1.666,1.666,0,0,0,1.143-.387,1.355,1.355,0,0,0,.457-1.028h2.382a3.258,3.258,0,0,1-.527,1.771A3.48,3.48,0,0,1,26.024-.268a4.442,4.442,0,0,1-1.991.444,4.129,4.129,0,0,1-3.217-1.3A5.13,5.13,0,0,1,19.639-4.7v-.167a5.071,5.071,0,0,1,1.169-3.507,4.08,4.08,0,0,1,3.208-1.31A4,4,0,0,1,26.877-8.67a3.594,3.594,0,0,1,1.094,2.7H25.589a1.731,1.731,0,0,0-.457-1.2,1.528,1.528,0,0,0-1.16-.461,1.531,1.531,0,0,0-1.34.646,3.739,3.739,0,0,0-.453,2.1v.264a3.786,3.786,0,0,0,.448,2.109A1.55,1.55,0,0,0,23.99-1.872ZM32.1,0H29.553V-9.51H32.1ZM29.4-11.971a1.251,1.251,0,0,1,.382-.94,1.436,1.436,0,0,1,1.042-.369,1.44,1.44,0,0,1,1.037.369,1.244,1.244,0,0,1,.387.94,1.247,1.247,0,0,1-.391.949,1.443,1.443,0,0,1-1.033.369,1.443,1.443,0,0,1-1.033-.369A1.247,1.247,0,0,1,29.4-11.971ZM33.8-4.843a5.64,5.64,0,0,1,.545-2.522,3.989,3.989,0,0,1,1.569-1.714,4.577,4.577,0,0,1,2.377-.606,4.33,4.33,0,0,1,3.142,1.178,4.727,4.727,0,0,1,1.358,3.2l.018.65a4.97,4.97,0,0,1-1.222,3.511A4.247,4.247,0,0,1,38.307.176a4.268,4.268,0,0,1-3.283-1.318A5.058,5.058,0,0,1,33.8-4.729Zm2.54.185a3.545,3.545,0,0,0,.51,2.07,1.682,1.682,0,0,0,1.459.716,1.686,1.686,0,0,0,1.441-.708,3.879,3.879,0,0,0,.519-2.263A3.51,3.51,0,0,0,39.749-6.9a1.686,1.686,0,0,0-1.459-.729,1.659,1.659,0,0,0-1.441.725A3.944,3.944,0,0,0,36.338-4.658ZM38.791-13.5h2.769l-2.435,2.725H37.059Zm7.919,3.99.079,1.1a3.32,3.32,0,0,1,2.733-1.274,2.759,2.759,0,0,1,2.25.888,4.142,4.142,0,0,1,.756,2.654V0h-2.54V-6.082a1.648,1.648,0,0,0-.352-1.173,1.574,1.574,0,0,0-1.169-.365,1.747,1.747,0,0,0-1.608.914V0h-2.54V-9.51Z" transform="translate(554 1371.117)" fill="#fff"/>
    <path id="Trazado_628754" data-name="Trazado 628754" d="M-43.581-4.263a4.528,4.528,0,0,1-1.525,3.252A5.355,5.355,0,0,1-48.731.176,4.816,4.816,0,0,1-52.6-1.481a6.793,6.793,0,0,1-1.411-4.548v-.782a7.671,7.671,0,0,1,.65-3.252A4.874,4.874,0,0,1-51.5-12.221a5.207,5.207,0,0,1,2.808-.751,5.217,5.217,0,0,1,3.568,1.187,4.866,4.866,0,0,1,1.564,3.331H-46.2a2.673,2.673,0,0,0-.69-1.8,2.555,2.555,0,0,0-1.806-.558,2.24,2.24,0,0,0-1.973.945,5.3,5.3,0,0,0-.672,2.931v.967a5.667,5.667,0,0,0,.628,3.032,2.2,2.2,0,0,0,1.982.958,2.6,2.6,0,0,0,1.824-.558,2.521,2.521,0,0,0,.69-1.727Zm1.169-.58a5.64,5.64,0,0,1,.545-2.522A3.989,3.989,0,0,1-40.3-9.079a4.577,4.577,0,0,1,2.377-.606,4.33,4.33,0,0,1,3.142,1.178,4.727,4.727,0,0,1,1.358,3.2l.018.65a4.97,4.97,0,0,1-1.222,3.511A4.247,4.247,0,0,1-37.9.176a4.268,4.268,0,0,1-3.283-1.318,5.058,5.058,0,0,1-1.226-3.586Zm2.54.185a3.545,3.545,0,0,0,.51,2.07,1.682,1.682,0,0,0,1.459.716,1.686,1.686,0,0,0,1.441-.708,3.879,3.879,0,0,0,.519-2.263A3.51,3.51,0,0,0-36.461-6.9a1.686,1.686,0,0,0-1.459-.729,1.659,1.659,0,0,0-1.441.725A3.944,3.944,0,0,0-39.872-4.658ZM-29.5-9.51l.079,1.1a3.32,3.32,0,0,1,2.733-1.274,2.759,2.759,0,0,1,2.25.888,4.142,4.142,0,0,1,.756,2.654V0h-2.54V-6.082a1.648,1.648,0,0,0-.352-1.173,1.574,1.574,0,0,0-1.169-.365,1.747,1.747,0,0,0-1.608.914V0h-2.54V-9.51Zm11.7,7.638a1.666,1.666,0,0,0,1.143-.387A1.355,1.355,0,0,0-16.2-3.287h2.382a3.258,3.258,0,0,1-.527,1.771A3.48,3.48,0,0,1-15.768-.268a4.442,4.442,0,0,1-1.991.444,4.129,4.129,0,0,1-3.217-1.3A5.13,5.13,0,0,1-22.153-4.7v-.167a5.071,5.071,0,0,1,1.169-3.507,4.08,4.08,0,0,1,3.208-1.31A4,4,0,0,1-14.915-8.67a3.594,3.594,0,0,1,1.094,2.7H-16.2a1.731,1.731,0,0,0-.457-1.2,1.528,1.528,0,0,0-1.16-.461,1.531,1.531,0,0,0-1.34.646,3.739,3.739,0,0,0-.453,2.1v.264a3.786,3.786,0,0,0,.448,2.109A1.55,1.55,0,0,0-17.8-1.872ZM-9.69,0h-2.549V-13.5H-9.69ZM-1.9-.967A3.185,3.185,0,0,1-4.5.176,3,3,0,0,1-6.838-.7,3.752,3.752,0,0,1-7.66-3.278V-9.51h2.54v6.144q0,1.485,1.354,1.485a1.835,1.835,0,0,0,1.775-.9V-9.51H.558V0H-1.833ZM7.625-2.628a.818.818,0,0,0-.461-.734,5.241,5.241,0,0,0-1.481-.479Q2.29-4.553,2.29-6.724A2.613,2.613,0,0,1,3.34-8.837a4.237,4.237,0,0,1,2.747-.848,4.56,4.56,0,0,1,2.9.853,2.687,2.687,0,0,1,1.085,2.215H7.528a1.229,1.229,0,0,0-.352-.9,1.488,1.488,0,0,0-1.1-.356,1.52,1.52,0,0,0-.993.29.916.916,0,0,0-.352.738.783.783,0,0,0,.4.681,4.114,4.114,0,0,0,1.349.448,11.019,11.019,0,0,1,1.6.426,2.628,2.628,0,0,1,2.013,2.558,2.481,2.481,0,0,1-1.116,2.1A4.815,4.815,0,0,1,6.1.176,5.029,5.029,0,0,1,3.973-.25,3.561,3.561,0,0,1,2.518-1.419a2.716,2.716,0,0,1-.527-1.6H4.4a1.326,1.326,0,0,0,.5,1.037,1.987,1.987,0,0,0,1.248.36,1.839,1.839,0,0,0,1.1-.277A.861.861,0,0,0,7.625-2.628ZM14.41,0H11.861V-9.51H14.41Zm-2.7-11.971a1.251,1.251,0,0,1,.382-.94,1.436,1.436,0,0,1,1.042-.369,1.44,1.44,0,0,1,1.037.369,1.244,1.244,0,0,1,.387.94,1.247,1.247,0,0,1-.391.949,1.443,1.443,0,0,1-1.033.369,1.443,1.443,0,0,1-1.033-.369A1.247,1.247,0,0,1,11.711-11.971Zm4.395,7.128a5.64,5.64,0,0,1,.545-2.522A3.989,3.989,0,0,1,18.22-9.079,4.577,4.577,0,0,1,20.6-9.686a4.33,4.33,0,0,1,3.142,1.178,4.727,4.727,0,0,1,1.358,3.2l.018.65a4.97,4.97,0,0,1-1.222,3.511A4.247,4.247,0,0,1,20.615.176a4.268,4.268,0,0,1-3.283-1.318,5.058,5.058,0,0,1-1.226-3.586Zm2.54.185a3.545,3.545,0,0,0,.51,2.07,1.682,1.682,0,0,0,1.459.716,1.686,1.686,0,0,0,1.441-.708,3.879,3.879,0,0,0,.519-2.263A3.51,3.51,0,0,0,22.056-6.9,1.686,1.686,0,0,0,20.6-7.629a1.659,1.659,0,0,0-1.441.725A3.944,3.944,0,0,0,18.646-4.658ZM29.017-9.51l.079,1.1A3.32,3.32,0,0,1,31.83-9.686a2.759,2.759,0,0,1,2.25.888,4.142,4.142,0,0,1,.756,2.654V0H32.3V-6.082a1.648,1.648,0,0,0-.352-1.173,1.574,1.574,0,0,0-1.169-.365,1.747,1.747,0,0,0-1.608.914V0h-2.54V-9.51ZM41.137.176a4.668,4.668,0,0,1-3.406-1.283,4.561,4.561,0,0,1-1.314-3.419v-.246a5.745,5.745,0,0,1,.554-2.562,4.064,4.064,0,0,1,1.569-1.74,4.4,4.4,0,0,1,2.316-.611,3.947,3.947,0,0,1,3.072,1.23,5,5,0,0,1,1.121,3.489v1.037H38.993a2.36,2.36,0,0,0,.743,1.494,2.245,2.245,0,0,0,1.569.563A2.742,2.742,0,0,0,43.6-2.936l1.248,1.4A3.813,3.813,0,0,1,43.3-.277,5.075,5.075,0,0,1,41.137.176Zm-.29-7.8a1.591,1.591,0,0,0-1.226.51,2.634,2.634,0,0,0-.6,1.459h3.533v-.2A1.878,1.878,0,0,0,42.1-7.167,1.642,1.642,0,0,0,40.847-7.629Zm10.793,5a.818.818,0,0,0-.461-.734A5.241,5.241,0,0,0,49.7-3.841q-3.393-.712-3.393-2.883a2.613,2.613,0,0,1,1.05-2.114A4.237,4.237,0,0,1,50.1-9.686a4.56,4.56,0,0,1,2.9.853,2.687,2.687,0,0,1,1.085,2.215h-2.54a1.229,1.229,0,0,0-.352-.9,1.488,1.488,0,0,0-1.1-.356,1.52,1.52,0,0,0-.993.29.916.916,0,0,0-.352.738.783.783,0,0,0,.4.681,4.114,4.114,0,0,0,1.349.448,11.019,11.019,0,0,1,1.6.426A2.628,2.628,0,0,1,54.11-2.733a2.481,2.481,0,0,1-1.116,2.1,4.815,4.815,0,0,1-2.883.8A5.029,5.029,0,0,1,47.988-.25a3.561,3.561,0,0,1-1.455-1.169,2.716,2.716,0,0,1-.527-1.6h2.408a1.326,1.326,0,0,0,.5,1.037,1.987,1.987,0,0,0,1.248.36,1.839,1.839,0,0,0,1.1-.277A.861.861,0,0,0,51.64-2.628Z" transform="translate(685 1148.117)" fill="#fff"/>
  </g>
</svg>
