<svg xmlns="http://www.w3.org/2000/svg" width="143" height="143" viewBox="0 0 143 143">
  <g id="Grupo_947399" data-name="Grupo 947399" transform="translate(-408 -486.354)">
    <rect id="Rectángulo_298570" data-name="Rectángulo 298570" width="143" height="143" transform="translate(408 486.354)" fill="none"/>
    <g id="Grupo_947383" data-name="Grupo 947383" transform="translate(-1170.423 -1097.887)">
      <g id="Grupo_947368" data-name="Grupo 947368" transform="translate(1597.498 1603.037)">
        <g id="Grupo_947362" data-name="Grupo 947362" transform="translate(11.796 6.741)">
          <rect id="Rectángulo_299089" data-name="Rectángulo 299089" width="80.889" height="80.888" transform="translate(1.685 1.685)" fill="#6aceae"/>
          <path id="Trazado_628551" data-name="Trazado 628551" d="M1754.2,1728.7h-84.26v-84.259h84.26Zm-80.889-3.37h77.518V1647.81h-77.518Z" transform="translate(-1669.945 -1644.439)"/>
        </g>
        <g id="Grupo_947363" data-name="Grupo 947363" transform="translate(5.056)">
          <path id="Trazado_628552" data-name="Trazado 628552" d="M1631.92,1619.889h-3.371v-16.852H1645.4v3.371h-13.48Z" transform="translate(-1628.549 -1603.037)"/>
        </g>
        <g id="Grupo_947364" data-name="Grupo 947364" transform="translate(85.944)">
          <path id="Trazado_628553" data-name="Trazado 628553" d="M2142.183,1619.889h-3.371v-13.481h-13.481v-3.371h16.852Z" transform="translate(-2125.332 -1603.037)"/>
        </g>
        <g id="Grupo_947365" data-name="Grupo 947365" transform="translate(85.944 80.889)">
          <path id="Trazado_628554" data-name="Trazado 628554" d="M2142.183,2116.677h-16.852v-3.371h13.481v-13.481h3.371Z" transform="translate(-2125.332 -2099.825)"/>
        </g>
        <g id="Grupo_947366" data-name="Grupo 947366" transform="translate(5.056 80.889)">
          <path id="Trazado_628555" data-name="Trazado 628555" d="M1645.4,2116.677h-16.851v-16.852h3.371v13.481h13.48Z" transform="translate(-1628.549 -2099.825)"/>
        </g>
        <g id="Grupo_947367" data-name="Grupo 947367" transform="translate(0 47.186)">
          <rect id="Rectángulo_299090" data-name="Rectángulo 299090" width="104.481" height="16.852" transform="translate(106.166 18.536) rotate(180)" fill="#f38e1e"/>
          <rect id="Rectángulo_299091" data-name="Rectángulo 299091" width="107.852" height="3.37"/>
        </g>
      </g>
      <g id="Grupo_947381" data-name="Grupo 947381" transform="translate(1626.146 1618.204)">
        <g id="Grupo_947380" data-name="Grupo 947380" transform="translate(0 0)">
          <g id="Grupo_947376" data-name="Grupo 947376" transform="translate(6.741 6.741)">
            <g id="Grupo_947369" data-name="Grupo 947369" transform="translate(26.963 16.851)">
              <rect id="Rectángulo_299092" data-name="Rectángulo 299092" width="3.371" height="20.223"/>
            </g>
            <g id="Grupo_947370" data-name="Grupo 947370" transform="translate(6.741 6.74)">
              <path id="Trazado_628556" data-name="Trazado 628556" d="M1859.613,1802.575h-3.37v-11.8a11.8,11.8,0,0,1,20.54-7.917l1.13,1.249-2.5,2.261-1.13-1.249a8.426,8.426,0,0,0-14.671,5.656Z" transform="translate(-1856.242 -1778.982)"/>
            </g>
            <g id="Grupo_947371" data-name="Grupo 947371" transform="translate(6.741 33.703)">
              <path id="Trazado_628557" data-name="Trazado 628557" d="M1868.038,1958.061a11.81,11.81,0,0,1-11.8-11.8v-1.685h3.37v1.685a8.425,8.425,0,0,0,13.993,6.324l1.265-1.114L1877.1,1954l-1.264,1.113A11.784,11.784,0,0,1,1868.038,1958.061Z" transform="translate(-1856.242 -1944.579)"/>
            </g>
            <g id="Grupo_947372" data-name="Grupo 947372" transform="translate(13.481 13.481)">
              <path id="Trazado_628558" data-name="Trazado 628558" d="M1902.694,1847.346a5.061,5.061,0,0,1-5.056-5.055v-11.8h3.37v11.8a1.685,1.685,0,1,0,3.371,0v-16.852a1.685,1.685,0,1,0-3.371,0v1.686h-3.37v-1.686a5.056,5.056,0,0,1,10.112,0v16.852A5.061,5.061,0,0,1,1902.694,1847.346Z" transform="translate(-1897.638 -1820.384)"/>
            </g>
            <g id="Grupo_947373" data-name="Grupo 947373" transform="translate(1.638)">
              <path id="Trazado_628559" data-name="Trazado 628559" d="M1860.339,1767.92h-3.37v-11.8a15.169,15.169,0,0,0-28.3-7.583l-.844,1.458-2.917-1.688.844-1.458a18.539,18.539,0,0,1,34.592,9.272Z" transform="translate(-1824.903 -1737.587)"/>
            </g>
            <g id="Grupo_947374" data-name="Grupo 947374" transform="translate(0 16.851)">
              <path id="Trazado_628560" data-name="Trazado 628560" d="M1825.832,1876.638l-1.472-.821a18.567,18.567,0,0,1-9.519-16.2v-18.537h3.37v18.537a15.192,15.192,0,0,0,7.791,13.255l1.471.821Z" transform="translate(-1814.841 -1841.081)"/>
            </g>
            <g id="Grupo_947375" data-name="Grupo 947375" transform="translate(16.852 33.703)">
              <path id="Trazado_628561" data-name="Trazado 628561" d="M1920.024,1964.8h-1.685v-3.37h1.685a15.184,15.184,0,0,0,15.167-15.167v-1.685h3.37v1.685A18.557,18.557,0,0,1,1920.024,1964.8Z" transform="translate(-1918.338 -1944.579)"/>
            </g>
          </g>
          <g id="Grupo_947377" data-name="Grupo 947377">
            <path id="Trazado_628562" data-name="Trazado 628562" d="M1776.814,1731.574h-3.37v-10.111a25.282,25.282,0,0,1,37.926-21.889l1.458.844-1.689,2.916-1.458-.844a21.914,21.914,0,0,0-32.867,18.973Z" transform="translate(-1773.443 -1696.185)"/>
          </g>
          <g id="Grupo_947378" data-name="Grupo 947378" transform="translate(41.455 8.324)">
            <path id="Trazado_628563" data-name="Trazado 628563" d="M2037.144,1772.686h-3.371v-8.425a21.676,21.676,0,0,0-4.687-13.544l-1.043-1.323,2.646-2.087,1.043,1.323a25.016,25.016,0,0,1,5.411,15.631Z" transform="translate(-2028.043 -1747.306)"/>
          </g>
          <g id="Grupo_947379" data-name="Grupo 947379" transform="translate(0 40.444)">
            <path id="Trazado_628564" data-name="Trazado 628564" d="M1798.721,1971.542a25.306,25.306,0,0,1-25.278-25.278v-1.685h3.37v1.685a21.909,21.909,0,0,0,34.99,17.574l1.352-1.007,2.014,2.7-1.351,1.007A25.083,25.083,0,0,1,1798.721,1971.542Z" transform="translate(-1773.443 -1944.579)"/>
          </g>
        </g>
      </g>
      <g id="Grupo_947382" data-name="Grupo 947382" transform="translate(1631.202 1697.408)">
        <path id="Trazado_628565" data-name="Trazado 628565" d="M1849.448,2192.973h-32.141a2.464,2.464,0,0,0-2.466,2.466v5.178a2.467,2.467,0,0,0,2.466,2.466h32.141a2.467,2.467,0,0,0,2.466-2.466v-5.178a2.464,2.464,0,0,0-2.466-2.466Z" transform="translate(-1813.156 -2191.288)" fill="#fff"/>
        <path id="Trazado_628566" data-name="Trazado 628566" d="M1838.2,2196.1h-26.963a6.741,6.741,0,0,1,0-13.481H1838.2a6.741,6.741,0,0,1,0,13.481Zm-26.963-10.111a3.37,3.37,0,1,0,0,6.74H1838.2a3.37,3.37,0,1,0,0-6.74Z" transform="translate(-1804.494 -2182.623)"/>
      </g>
    </g>
  </g>
</svg>
