<svg xmlns="http://www.w3.org/2000/svg" width="456.273" height="253.458" viewBox="0 0 456.273 253.458">
  <g id="Grupo_947594" data-name="Grupo 947594" transform="translate(85.844 8111.531)">
    <g id="Grupo_947438" data-name="Grupo 947438" transform="translate(-55.141 -8080.69)">
      <g id="Grupo_947415" data-name="Grupo 947415" transform="translate(0)">
        <path id="Trazado_628687" data-name="Trazado 628687" d="M609.36,1165.766a120.384,120.384,0,0,0-14.543,55.807,1.755,1.755,0,0,1-1.75,1.739H523.694a1.764,1.764,0,0,1-1.764-1.774,192.868,192.868,0,0,1,24.2-92.276Z" transform="translate(-521.93 -1029.226)" fill="#5ebf4a"/>
        <path id="Trazado_628688" data-name="Trazado 628688" d="M758.132,830.485a122.05,122.05,0,0,0-40.1,41.29l-63.22-36.5a196.606,196.606,0,0,1,66.815-68.016Z" transform="translate(-628.448 -739.049)" fill="#b2c42d"/>
        <path id="Trazado_628689" data-name="Trazado 628689" d="M1102.9,625.406l-.009,72.917a120.4,120.4,0,0,0-55.854,16.186l-36.485-63.2A192.648,192.648,0,0,1,1102.9,625.406Z" transform="translate(-913.595 -625.344)" fill="#f2e141"/>
        <path id="Trazado_628690" data-name="Trazado 628690" d="M1591.639,648.849l-36.52,63.237a120.436,120.436,0,0,0-56.714-14.108h-.395l.009-72.882h.386A193.1,193.1,0,0,1,1591.639,648.849Z" transform="translate(-1304.335 -625.096)" fill="#f9943a"/>
        <path id="Trazado_628691" data-name="Trazado 628691" d="M1910.976,823.826l-63.237,36.494a122.051,122.051,0,0,0-42.605-41.4l36.5-63.2a196.537,196.537,0,0,1,69.34,68.1Z" transform="translate(-1550.519 -729.804)" fill="#f9553a"/>
        <path id="Trazado_628692" data-name="Trazado 628692" d="M2118.042,1214.28h-69.373a1.754,1.754,0,0,1-1.749-1.739,120.419,120.419,0,0,0-15.8-58.061l63.22-36.485a192.826,192.826,0,0,1,25.464,94.511A1.765,1.765,0,0,1,2118.042,1214.28Z" transform="translate(-1731.667 -1020.193)" fill="#ea2440"/>
      </g>
      <g id="Grupo_947416" data-name="Grupo 947416" transform="translate(24.202 96.224)">
        <path id="Trazado_628693" data-name="Trazado 628693" d="M709.286,1146.543q-1.118,1.881-2.157,3.814l-63.228-36.5q1.065-1.92,2.166-3.814Z" transform="translate(-643.9 -1110.041)" fill="#fff"/>
      </g>
      <g id="Grupo_947417" data-name="Grupo 947417" transform="translate(93.182 25.963)">
        <path id="Trazado_628694" data-name="Trazado 628694" d="M1031.8,819.146q-1.894,1.105-3.753,2.271l-36.5-63.228c1.245-.772,2.508-1.517,3.77-2.245Z" transform="translate(-991.546 -755.944)" fill="#fff"/>
      </g>
      <g id="Grupo_947418" data-name="Grupo 947418" transform="translate(189.292)">
        <path id="Trazado_628695" data-name="Trazado 628695" d="M1480.309,625.1l-.009,72.882c-1.464.009-2.929.035-4.384.1l.009-72.917C1477.38,625.122,1478.845,625.1,1480.309,625.1Z" transform="translate(-1475.916 -625.096)" fill="#fff"/>
      </g>
      <g id="Grupo_947419" data-name="Grupo 947419" transform="translate(250.784 23.753)">
        <path id="Trazado_628696" data-name="Trazado 628696" d="M1826.157,746.974l-36.5,63.2q-1.894-1.1-3.832-2.131l36.52-63.237Q1824.263,745.873,1826.157,746.974Z" transform="translate(-1785.823 -744.808)" fill="#fff"/>
      </g>
      <g id="Grupo_947420" data-name="Grupo 947420" transform="translate(297.221 94.023)">
        <path id="Trazado_628697" data-name="Trazado 628697" d="M2085.311,1102.728l-63.22,36.485q-1.078-1.907-2.236-3.77l63.237-36.494C2083.846,1100.2,2084.592,1101.466,2085.311,1102.728Z" transform="translate(-2019.855 -1098.949)" fill="#fff"/>
      </g>
    </g>
    <g id="Grupo_947439" data-name="Grupo 947439" transform="matrix(-0.731, -0.682, 0.682, -0.731, 117.734, -7858.074)">
      <path id="Trazado_628698" data-name="Trazado 628698" d="M1446.531,1454.464l135.442-25.672a2.616,2.616,0,0,1,1.211,5.083l-132.466,38.16a9.041,9.041,0,1,1-5.005-17.376C1445.979,1454.582,1446.262,1454.516,1446.531,1454.464Z" transform="translate(-1439.171 -1428.746)" fill="#1d325b"/>
    </g>
    <g id="Grupo_947440" data-name="Grupo 947440" transform="translate(111.898 -7911.14)">
      <circle id="Elipse_7619" data-name="Elipse 7619" cx="17.264" cy="17.264" r="17.264" transform="translate(0 24.415) rotate(-45)" fill="#345384"/>
    </g>
    <path id="Trazado_628874" data-name="Trazado 628874" d="M7.523-2.648H3.117L2.2,0H.141l4.3-11.375H6.211L10.516,0H8.453ZM3.672-4.242h3.3L5.32-8.961ZM13.781-1.578h5.164V0H11.8V-11.375h1.977Zm13.3-8.2H23.531V0H21.57V-9.781H18.055v-1.594h9.023ZM37.43-5.391a6.979,6.979,0,0,1-.578,2.934A4.371,4.371,0,0,1,35.2-.52a4.545,4.545,0,0,1-2.473.676A4.556,4.556,0,0,1,30.262-.52,4.438,4.438,0,0,1,28.59-2.445a6.761,6.761,0,0,1-.6-2.883v-.641a6.919,6.919,0,0,1,.59-2.937,4.433,4.433,0,0,1,1.664-1.949,4.531,4.531,0,0,1,2.465-.676,4.57,4.57,0,0,1,2.465.668,4.377,4.377,0,0,1,1.66,1.922,6.9,6.9,0,0,1,.594,2.918Zm-1.977-.594a4.973,4.973,0,0,0-.715-2.9,2.339,2.339,0,0,0-2.027-1.008,2.332,2.332,0,0,0-2,1,4.876,4.876,0,0,0-.738,2.84v.656a4.935,4.935,0,0,0,.73,2.9,2.352,2.352,0,0,0,2.027,1.023,2.325,2.325,0,0,0,2.02-1,5.041,5.041,0,0,0,.707-2.922Z" transform="translate(333 -7984)" fill="#12263f"/>
    <path id="Trazado_628873" data-name="Trazado 628873" d="M3.719-11.375,7-2.656l3.273-8.719h2.555V0H10.859V-3.75l.2-5.016L7.7,0H6.281L2.93-8.758l.2,5.008V0H1.156V-11.375Zm18.094,6.3H17.141v3.5H22.6V0H15.164V-11.375h7.383v1.594H17.141v3.141h4.672ZM24.211,0V-11.375H27.57a5.269,5.269,0,0,1,2.676.672A4.581,4.581,0,0,1,32.055-8.8,6.051,6.051,0,0,1,32.7-5.969v.57a6.026,6.026,0,0,1-.645,2.844A4.526,4.526,0,0,1,30.215-.664,5.513,5.513,0,0,1,27.484,0Zm1.977-9.781v8.2h1.289a2.968,2.968,0,0,0,2.387-.973,4.237,4.237,0,0,0,.848-2.793v-.633a4.347,4.347,0,0,0-.8-2.828,2.853,2.853,0,0,0-2.336-.977ZM36.75,0H34.781V-11.375H36.75ZM48.258-5.391a6.979,6.979,0,0,1-.578,2.934A4.371,4.371,0,0,1,46.027-.52a4.545,4.545,0,0,1-2.473.676A4.556,4.556,0,0,1,41.09-.52a4.438,4.438,0,0,1-1.672-1.926,6.761,6.761,0,0,1-.6-2.883v-.641a6.919,6.919,0,0,1,.59-2.937,4.433,4.433,0,0,1,1.664-1.949,4.531,4.531,0,0,1,2.465-.676A4.57,4.57,0,0,1,46-10.863a4.377,4.377,0,0,1,1.66,1.922,6.9,6.9,0,0,1,.594,2.918Zm-1.977-.594a4.973,4.973,0,0,0-.715-2.9,2.339,2.339,0,0,0-2.027-1.008,2.332,2.332,0,0,0-2,1,4.876,4.876,0,0,0-.738,2.84v.656a4.935,4.935,0,0,0,.73,2.9,2.352,2.352,0,0,0,2.027,1.023,2.325,2.325,0,0,0,2.02-1,5.041,5.041,0,0,0,.707-2.922Z" transform="translate(123 -8100)" fill="#12263f"/>
    <path id="Trazado_628875" data-name="Trazado 628875" d="M1.156,0V-11.375h3.9a4.76,4.76,0,0,1,2.938.773A2.724,2.724,0,0,1,9-8.3a2.456,2.456,0,0,1-.422,1.406,2.715,2.715,0,0,1-1.234.969A2.511,2.511,0,0,1,8.77-4.98a2.742,2.742,0,0,1,.5,1.66A3.028,3.028,0,0,1,8.246-.859,4.467,4.467,0,0,1,5.3,0ZM3.133-5.133v3.555h2.2a2.124,2.124,0,0,0,1.453-.461A1.618,1.618,0,0,0,7.3-3.32,1.623,1.623,0,0,0,5.492-5.133Zm0-1.453H5.07A2.241,2.241,0,0,0,6.512-7a1.432,1.432,0,0,0,.52-1.184,1.452,1.452,0,0,0-.48-1.219,2.426,2.426,0,0,0-1.5-.375H3.133ZM17.617-2.648H13.211L12.289,0H10.234l4.3-11.375H16.3L20.609,0H18.547ZM13.766-4.242h3.3L15.414-8.961Zm12.789-7.133h1.969V-3.4A3.394,3.394,0,0,1,27.5-.8a3.764,3.764,0,0,1-2.691.961,3.9,3.9,0,0,1-2.75-.9,3.241,3.241,0,0,1-.969-2.5h1.969a1.87,1.87,0,0,0,.449,1.363,1.744,1.744,0,0,0,1.3.457,1.62,1.62,0,0,0,1.27-.527,2.105,2.105,0,0,0,.473-1.457Zm13.3,5.984a6.979,6.979,0,0,1-.578,2.934A4.371,4.371,0,0,1,37.629-.52a4.545,4.545,0,0,1-2.473.676A4.556,4.556,0,0,1,32.691-.52,4.438,4.438,0,0,1,31.02-2.445a6.761,6.761,0,0,1-.6-2.883v-.641a6.919,6.919,0,0,1,.59-2.937,4.433,4.433,0,0,1,1.664-1.949,4.531,4.531,0,0,1,2.465-.676,4.57,4.57,0,0,1,2.465.668,4.377,4.377,0,0,1,1.66,1.922,6.9,6.9,0,0,1,.594,2.918Zm-1.977-.594a4.973,4.973,0,0,0-.715-2.9,2.339,2.339,0,0,0-2.027-1.008,2.332,2.332,0,0,0-2,1,4.876,4.876,0,0,0-.738,2.84v.656a4.935,4.935,0,0,0,.73,2.9,2.352,2.352,0,0,0,2.027,1.023,2.325,2.325,0,0,0,2.02-1,5.041,5.041,0,0,0,.707-2.922Z" transform="translate(-87 -7984)" fill="#12263f"/>
  </g>
</svg>
