<svg xmlns="http://www.w3.org/2000/svg" width="125" height="142" viewBox="0 0 125 142">
  <g id="Grupo_947596" data-name="Grupo 947596" transform="translate(-406 -3293)">
    <g id="Trazado_628952" data-name="Trazado 628952" transform="translate(406 3293)" fill="#ffd6dc">
      <path d="M 62.5 122.5 C 54.39894485473633 122.5 46.54154586791992 120.9139633178711 39.14605331420898 117.7859268188477 C 35.59134674072266 116.2824172973633 32.16263580322266 114.4213485717773 28.95516395568848 112.2544174194336 C 25.77752685546875 110.1076507568359 22.78932762145996 107.6421432495117 20.07360076904297 104.926399230957 C 17.35785484313965 102.2106704711914 14.8923454284668 99.22247314453125 12.74558162689209 96.04483795166016 C 10.57865428924561 92.83736419677734 8.717581748962402 89.40865325927734 7.214072704315186 85.85394287109375 C 4.086036205291748 78.45845794677734 2.5 70.60105133056641 2.5 62.5 C 2.5 54.39894485473633 4.086036205291748 46.54154586791992 7.214072704315186 39.14605331420898 C 8.717581748962402 35.59134674072266 10.57865428924561 32.16263580322266 12.74558162689209 28.95516395568848 C 14.8923454284668 25.77752685546875 17.35785484313965 22.78932762145996 20.07360076904297 20.07360076904297 C 22.78932762145996 17.35785484313965 25.77752685546875 14.8923454284668 28.95516395568848 12.74558162689209 C 32.16263580322266 10.57865428924561 35.59134674072266 8.717581748962402 39.14605331420898 7.214072704315186 C 46.54154586791992 4.086036205291748 54.39894485473633 2.5 62.5 2.5 C 70.60105133056641 2.5 78.45845794677734 4.086036205291748 85.85394287109375 7.214072704315186 C 89.40865325927734 8.717581748962402 92.83736419677734 10.57865428924561 96.04483795166016 12.74558162689209 C 99.22247314453125 14.8923454284668 102.2106704711914 17.35785484313965 104.926399230957 20.07360076904297 C 107.6421432495117 22.78932762145996 110.1076507568359 25.77752685546875 112.2544174194336 28.95516395568848 C 114.4213485717773 32.16263580322266 116.2824172973633 35.59134674072266 117.7859268188477 39.14605331420898 C 120.9139633178711 46.54154586791992 122.5 54.39894485473633 122.5 62.5 C 122.5 70.60105133056641 120.9139633178711 78.45845794677734 117.7859268188477 85.85394287109375 C 116.2824172973633 89.40865325927734 114.4213485717773 92.83736419677734 112.2544174194336 96.04483795166016 C 110.1076507568359 99.22247314453125 107.6421432495117 102.2106704711914 104.926399230957 104.926399230957 C 102.2106704711914 107.6421432495117 99.22247314453125 110.1076507568359 96.04483795166016 112.2544174194336 C 92.83736419677734 114.4213485717773 89.40865325927734 116.2824172973633 85.85394287109375 117.7859268188477 C 78.45845794677734 120.9139633178711 70.60105133056641 122.5 62.5 122.5 Z" stroke="none"/>
      <path d="M 62.5 5 C 54.73533630371094 5 47.20559692382812 6.519599914550781 40.11994171142578 9.516578674316406 C 36.71389770507812 10.95722198486328 33.42839813232422 12.74057769775391 30.35468292236328 14.817138671875 C 27.30889892578125 16.87483978271484 24.44460296630859 19.23812103271484 21.84136199951172 21.84136199951172 C 19.23812103271484 24.44460296630859 16.87483978271484 27.30889892578125 14.817138671875 30.35468292236328 C 12.74057769775391 33.42839813232422 10.95722198486328 36.71389770507812 9.516578674316406 40.11994171142578 C 6.519599914550781 47.20559692382812 5 54.73533630371094 5 62.5 C 5 70.26466369628906 6.519599914550781 77.79440307617188 9.516578674316406 84.88005828857422 C 10.95722198486328 88.28610229492188 12.74057769775391 91.57160186767578 14.817138671875 94.64532470703125 C 16.87483978271484 97.69110107421875 19.23812103271484 100.5554046630859 21.84136199951172 103.1586380004883 C 24.44460296630859 105.7618789672852 27.30889892578125 108.1251602172852 30.35468292236328 110.182861328125 C 33.42839813232422 112.2594223022461 36.71389770507812 114.0427780151367 40.11994171142578 115.4834213256836 C 47.20559692382812 118.4804000854492 54.73533630371094 120 62.5 120 C 70.26466369628906 120 77.79440307617188 118.4804000854492 84.88005828857422 115.4834213256836 C 88.28610229492188 114.0427780151367 91.57160186767578 112.2594223022461 94.64532470703125 110.182861328125 C 97.69110107421875 108.1251602172852 100.5554046630859 105.7618789672852 103.1586380004883 103.1586380004883 C 105.7618789672852 100.5554046630859 108.1251602172852 97.69110107421875 110.182861328125 94.64532470703125 C 112.2594223022461 91.57160186767578 114.0427780151367 88.28610229492188 115.4834213256836 84.88005828857422 C 118.4804000854492 77.79440307617188 120 70.26466369628906 120 62.5 C 120 54.73533630371094 118.4804000854492 47.20559692382812 115.4834213256836 40.11994171142578 C 114.0427780151367 36.71389770507812 112.2594223022461 33.42839813232422 110.182861328125 30.35468292236328 C 108.1251602172852 27.30889892578125 105.7618789672852 24.44460296630859 103.1586380004883 21.84136199951172 C 100.5554046630859 19.23812103271484 97.69110107421875 16.87483978271484 94.64532470703125 14.817138671875 C 91.57160186767578 12.74057769775391 88.28610229492188 10.95722198486328 84.88005828857422 9.516578674316406 C 77.79440307617188 6.519599914550781 70.26466369628906 5 62.5 5 M 62.5 0 C 97.01779937744141 0 125 27.98220062255859 125 62.5 C 125 97.01779937744141 97.01779937744141 125 62.5 125 C 27.98220062255859 125 0 97.01779937744141 0 62.5 C 0 27.98220062255859 27.98220062255859 0 62.5 0 Z" stroke="none" fill="#ea2440"/>
    </g>
    <path id="Trazado_628949" data-name="Trazado 628949" d="M7.523-2.648H3.117L2.2,0H.141l4.3-11.375H6.211L10.516,0H8.453ZM3.672-4.242h3.3L5.32-8.961ZM13.781-1.578h5.164V0H11.8V-11.375h1.977Zm13.3-8.2H23.531V0H21.57V-9.781H18.055v-1.594h9.023ZM37.43-5.391a6.979,6.979,0,0,1-.578,2.934A4.371,4.371,0,0,1,35.2-.52a4.545,4.545,0,0,1-2.473.676A4.556,4.556,0,0,1,30.262-.52,4.438,4.438,0,0,1,28.59-2.445a6.761,6.761,0,0,1-.6-2.883v-.641a6.919,6.919,0,0,1,.59-2.937,4.433,4.433,0,0,1,1.664-1.949,4.531,4.531,0,0,1,2.465-.676,4.57,4.57,0,0,1,2.465.668,4.377,4.377,0,0,1,1.66,1.922,6.9,6.9,0,0,1,.594,2.918Zm-1.977-.594a4.973,4.973,0,0,0-.715-2.9,2.339,2.339,0,0,0-2.027-1.008,2.332,2.332,0,0,0-2,1,4.876,4.876,0,0,0-.738,2.84v.656a4.935,4.935,0,0,0,.73,2.9,2.352,2.352,0,0,0,2.027,1.023,2.325,2.325,0,0,0,2.02-1,5.041,5.041,0,0,0,.707-2.922Z" transform="translate(450 3361)" fill="#12263f"/>
    <g id="Trazado_628953" data-name="Trazado 628953" transform="translate(449 3396)" fill="#ffa5b2">
      <path d="M 19.5 38 C 17.0020809173584 38 14.57940006256104 37.51100158691406 12.2992696762085 36.54658889770508 C 10.0964298248291 35.61486053466797 8.117859840393066 34.28081130981445 6.418529987335205 32.58147048950195 C 4.719190120697021 30.88213920593262 3.385139942169189 28.9035701751709 2.453409910202026 26.70072937011719 C 1.488999962806702 24.42060089111328 1 21.9979190826416 1 19.5 C 1 17.0020809173584 1.488999962806702 14.57940006256104 2.453409910202026 12.2992696762085 C 3.385139942169189 10.0964298248291 4.719190120697021 8.117859840393066 6.418529987335205 6.418529987335205 C 8.117859840393066 4.719190120697021 10.0964298248291 3.385139942169189 12.2992696762085 2.453409910202026 C 14.57940006256104 1.488999962806702 17.0020809173584 1 19.5 1 C 21.9979190826416 1 24.42060089111328 1.488999962806702 26.70072937011719 2.453409910202026 C 28.9035701751709 3.385139942169189 30.88213920593262 4.719190120697021 32.58147048950195 6.418529987335205 C 34.28081130981445 8.117859840393066 35.61486053466797 10.0964298248291 36.54658889770508 12.2992696762085 C 37.51100158691406 14.57940006256104 38 17.0020809173584 38 19.5 C 38 21.9979190826416 37.51100158691406 24.42060089111328 36.54658889770508 26.70072937011719 C 35.61486053466797 28.9035701751709 34.28081130981445 30.88213920593262 32.58147048950195 32.58147048950195 C 30.88213920593262 34.28081130981445 28.9035701751709 35.61486053466797 26.70072937011719 36.54658889770508 C 24.42060089111328 37.51100158691406 21.9979190826416 38 19.5 38 Z" stroke="none"/>
      <path d="M 19.5 2 C 14.82558059692383 2 10.43095016479492 3.820320129394531 7.125629425048828 7.125629425048828 C 3.820320129394531 10.43095016479492 2 14.82558059692383 2 19.5 C 2 24.17441940307617 3.820320129394531 28.56904983520508 7.125629425048828 31.87437057495117 C 10.43095016479492 35.17967987060547 14.82558059692383 37 19.5 37 C 24.17441940307617 37 28.56904983520508 35.17967987060547 31.87437057495117 31.87437057495117 C 35.17967987060547 28.56904983520508 37 24.17441940307617 37 19.5 C 37 14.82558059692383 35.17967987060547 10.43095016479492 31.87437057495117 7.125629425048828 C 28.56904983520508 3.820320129394531 24.17441940307617 2 19.5 2 M 19.5 0 C 30.26955032348633 0 39 8.730449676513672 39 19.5 C 39 30.26955032348633 30.26955032348633 39 19.5 39 C 8.730449676513672 39 0 30.26955032348633 0 19.5 C 0 8.730449676513672 8.730449676513672 0 19.5 0 Z" stroke="none" fill="#ea2440"/>
    </g>
    <path id="Trazado_628954" data-name="Trazado 628954" d="M10.5,0A10.5,10.5,0,1,1,0,10.5,10.5,10.5,0,0,1,10.5,0Z" transform="translate(458 3405)" fill="#ea2440"/>
  </g>
</svg>
