<svg xmlns="http://www.w3.org/2000/svg" width="610" height="412" viewBox="0 0 610 412">
  <g id="Grupo_947591" data-name="Grupo 947591" transform="translate(-495 -1438)">
    <path id="Trazado_628785" data-name="Trazado 628785" d="M90.5,0A90.5,90.5,0,1,1,0,90.5,90.5,90.5,0,0,1,90.5,0Z" transform="translate(710 1571)" fill="#bce6d9"/>
    <path id="Trazado_628787" data-name="Trazado 628787" d="M0,0H190V80H0Z" transform="translate(495 1475)" fill="#f3c035"/>
    <path id="Trazado_628788" data-name="Trazado 628788" d="M4.734-11.375,6.4-2.672l4.68-8.7h2.531L11.641,0H9.719l.664-3.852,1.008-4.742L6.7,0H5.313L3.57-8.852l-.711,5.2L2.227,0H.3L2.281-11.375ZM18.813,0a2.507,2.507,0,0,1-.078-.789,3.134,3.134,0,0,1-2.258.945,2.589,2.589,0,0,1-1.824-.707A2.18,2.18,0,0,1,13.977-2.3a2.588,2.588,0,0,1,1.156-2.1,5.034,5.034,0,0,1,2.938-.766l1.2.016.109-.578a1.744,1.744,0,0,0,0-.57,1.017,1.017,0,0,0-1.117-.867,1.685,1.685,0,0,0-1.043.3,1.3,1.3,0,0,0-.551.848l-1.852.016a2.318,2.318,0,0,1,.555-1.371A3.289,3.289,0,0,1,16.7-8.3a4.5,4.5,0,0,1,1.75-.312,2.956,2.956,0,0,1,2.156.832A2.466,2.466,0,0,1,21.25-5.7L20.6-1.742l-.062.7a2.5,2.5,0,0,0,.117.9L20.648,0ZM16.906-1.359a2.041,2.041,0,0,0,1.086-.27,2.861,2.861,0,0,0,.852-.738l.289-1.6-.883-.008a3.1,3.1,0,0,0-1.672.395A1.447,1.447,0,0,0,15.867-2.5a.957.957,0,0,0,.23.824A1.127,1.127,0,0,0,16.906-1.359ZM24.234,0H22.383l2.086-12H26.32Zm9.7-2.633,2.32-5.82h1.859L34.414,0H32.891l-.742-5.781L29.414,0H27.883l-.773-8.453h1.75l.32,5.734,2.672-5.734h1.4Zm9,2.633a2.507,2.507,0,0,1-.078-.789A3.134,3.134,0,0,1,40.6.156a2.589,2.589,0,0,1-1.824-.707A2.18,2.18,0,0,1,38.1-2.3a2.588,2.588,0,0,1,1.156-2.1A5.034,5.034,0,0,1,42.2-5.172l1.2.016.109-.578a1.744,1.744,0,0,0,0-.57,1.017,1.017,0,0,0-1.117-.867,1.685,1.685,0,0,0-1.043.3,1.3,1.3,0,0,0-.551.848l-1.852.016A2.318,2.318,0,0,1,39.5-7.379,3.289,3.289,0,0,1,40.828-8.3a4.5,4.5,0,0,1,1.75-.312,2.956,2.956,0,0,1,2.156.832A2.466,2.466,0,0,1,45.375-5.7l-.648,3.961-.062.7a2.5,2.5,0,0,0,.117.9L44.773,0ZM41.031-1.359a2.041,2.041,0,0,0,1.086-.27,2.861,2.861,0,0,0,.852-.738l.289-1.6-.883-.008a3.1,3.1,0,0,0-1.672.395A1.447,1.447,0,0,0,39.992-2.5a.957.957,0,0,0,.23.824A1.127,1.127,0,0,0,41.031-1.359ZM51.922-6.719A3.41,3.41,0,0,0,51.2-6.8a2.168,2.168,0,0,0-1.937,1.008L48.242,0H46.391l1.461-8.453,1.758-.008-.187.961a2.419,2.419,0,0,1,2-1.125,3.039,3.039,0,0,1,.711.117ZM55.6.156A3.541,3.541,0,0,1,53.691-.4a3.156,3.156,0,0,1-1.2-1.453A4.32,4.32,0,0,1,52.2-3.906l.023-.32a5.657,5.657,0,0,1,.754-2.316A4.3,4.3,0,0,1,54.508-8.1a3.713,3.713,0,0,1,1.984-.508,2.771,2.771,0,0,1,2.379,1.18,4.325,4.325,0,0,1,.6,2.992l-.109.813h-5.32A2.31,2.31,0,0,0,54.445-2a1.608,1.608,0,0,0,1.313.633,2.847,2.847,0,0,0,2.2-1.039l.938.984A3.563,3.563,0,0,1,57.5-.246,4.166,4.166,0,0,1,55.6.156Zm.789-7.25q-1.469-.047-2.2,2.078l3.508.008.031-.164a2.451,2.451,0,0,0,.008-.7A1.438,1.438,0,0,0,57.3-6.75,1.385,1.385,0,0,0,56.391-7.094Z" transform="translate(560 1525)" fill="#12263f"/>
    <path id="Trazado_628792" data-name="Trazado 628792" d="M0,0H190V80H0Z" transform="translate(915 1475)" fill="#f3c035"/>
    <path id="Trazado_628796" data-name="Trazado 628796" d="M3.242,0H1.273V-11.375H3.242ZM7.25-8.453l.055.977A3.039,3.039,0,0,1,9.766-8.609q2.641,0,2.688,3.023V0h-1.9V-5.477a1.741,1.741,0,0,0-.348-1.191A1.462,1.462,0,0,0,9.07-7.055,1.829,1.829,0,0,0,7.359-6.016V0h-1.9V-8.453Zm6.8,4.164a4.944,4.944,0,0,1,.926-3.145,2.971,2.971,0,0,1,2.457-1.176A2.784,2.784,0,0,1,19.711-7.6l.086-.852h1.711v8.2a3.406,3.406,0,0,1-1.035,2.625,3.943,3.943,0,0,1-2.793.961,4.5,4.5,0,0,1-1.816-.387A3.227,3.227,0,0,1,14.516,1.93l.9-1.141A2.713,2.713,0,0,0,17.57,1.828a2.1,2.1,0,0,0,1.492-.512,1.961,1.961,0,0,0,.547-1.5v-.57a2.8,2.8,0,0,1-2.187.914A2.964,2.964,0,0,1,15-1.023,5.1,5.1,0,0,1,14.055-4.289Zm1.891.164a3.4,3.4,0,0,0,.52,2,1.671,1.671,0,0,0,1.441.73,1.827,1.827,0,0,0,1.7-.984V-6.094a1.8,1.8,0,0,0-1.687-.961,1.677,1.677,0,0,0-1.457.742A3.811,3.811,0,0,0,15.945-4.125ZM27.18.156A3.928,3.928,0,0,1,24.254-.98a4.124,4.124,0,0,1-1.121-3.027v-.234A5.072,5.072,0,0,1,23.621-6.5a3.716,3.716,0,0,1,1.371-1.551,3.625,3.625,0,0,1,1.969-.555,3.318,3.318,0,0,1,2.668,1.1,4.658,4.658,0,0,1,.941,3.117v.766H25.047a2.539,2.539,0,0,0,.7,1.656,2.1,2.1,0,0,0,1.543.609,2.571,2.571,0,0,0,2.125-1.055l1.023.977A3.418,3.418,0,0,1,29.082-.262,4.244,4.244,0,0,1,27.18.156Zm-.227-7.242a1.6,1.6,0,0,0-1.262.547,2.835,2.835,0,0,0-.613,1.523H28.7v-.141A2.307,2.307,0,0,0,28.188-6.6,1.586,1.586,0,0,0,26.953-7.086ZM33.8-8.453l.055.977A3.039,3.039,0,0,1,36.32-8.609q2.641,0,2.688,3.023V0h-1.9V-5.477a1.741,1.741,0,0,0-.348-1.191,1.462,1.462,0,0,0-1.137-.387,1.829,1.829,0,0,0-1.711,1.039V0h-1.9V-8.453ZM42.961,0h-1.9V-8.453h1.9ZM40.945-10.648a1.008,1.008,0,0,1,.277-.727,1.048,1.048,0,0,1,.793-.289,1.061,1.061,0,0,1,.8.289,1,1,0,0,1,.281.727.977.977,0,0,1-.281.715,1.069,1.069,0,0,1-.8.285,1.056,1.056,0,0,1-.793-.285A.984.984,0,0,1,40.945-10.648Zm7.8,10.8A3.928,3.928,0,0,1,45.824-.98,4.124,4.124,0,0,1,44.7-4.008v-.234A5.072,5.072,0,0,1,45.191-6.5a3.716,3.716,0,0,1,1.371-1.551,3.625,3.625,0,0,1,1.969-.555,3.318,3.318,0,0,1,2.668,1.1,4.658,4.658,0,0,1,.941,3.117v.766H46.617a2.539,2.539,0,0,0,.7,1.656,2.1,2.1,0,0,0,1.543.609,2.571,2.571,0,0,0,2.125-1.055l1.023.977A3.418,3.418,0,0,1,50.652-.262,4.244,4.244,0,0,1,48.75.156Zm-.227-7.242a1.6,1.6,0,0,0-1.262.547,2.835,2.835,0,0,0-.613,1.523h3.617v-.141A2.307,2.307,0,0,0,49.758-6.6,1.586,1.586,0,0,0,48.523-7.086Zm9.516.367a4.7,4.7,0,0,0-.773-.062,1.741,1.741,0,0,0-1.758,1V0h-1.9V-8.453h1.813l.047.945a2.139,2.139,0,0,1,1.906-1.1,1.777,1.777,0,0,1,.672.109ZM61.281,0h-1.9V-8.453h1.9Zm-.359-11.945h2.164L60.922-9.578H59.4ZM68.492,0a2.93,2.93,0,0,1-.219-.789,2.955,2.955,0,0,1-2.219.945A2.982,2.982,0,0,1,63.977-.57a2.325,2.325,0,0,1-.8-1.8,2.4,2.4,0,0,1,1-2.074,4.865,4.865,0,0,1,2.871-.723h1.164v-.555a1.481,1.481,0,0,0-.367-1.051,1.456,1.456,0,0,0-1.117-.395,1.672,1.672,0,0,0-1.062.324,1,1,0,0,0-.414.824h-1.9a2.107,2.107,0,0,1,.461-1.3,3.071,3.071,0,0,1,1.254-.949,4.4,4.4,0,0,1,1.77-.344,3.547,3.547,0,0,1,2.367.746,2.661,2.661,0,0,1,.906,2.1v3.813a4.321,4.321,0,0,0,.32,1.82V0ZM66.406-1.367a2.159,2.159,0,0,0,1.059-.273,1.827,1.827,0,0,0,.746-.734V-3.969H67.188A2.8,2.8,0,0,0,65.6-3.6a1.189,1.189,0,0,0-.531,1.039,1.109,1.109,0,0,0,.363.871A1.407,1.407,0,0,0,66.406-1.367Zm15.8-1.562a1.374,1.374,0,0,0-.527-1.156,6.345,6.345,0,0,0-1.9-.82,9.186,9.186,0,0,1-2.187-.922,2.919,2.919,0,0,1-1.555-2.547,2.772,2.772,0,0,1,1.121-2.266,4.538,4.538,0,0,1,2.91-.891,4.916,4.916,0,0,1,2.117.438,3.475,3.475,0,0,1,1.461,1.246,3.2,3.2,0,0,1,.531,1.793H82.211a1.782,1.782,0,0,0-.559-1.395,2.305,2.305,0,0,0-1.6-.5,2.408,2.408,0,0,0-1.5.414,1.379,1.379,0,0,0-.535,1.156,1.247,1.247,0,0,0,.578,1.043,6.66,6.66,0,0,0,1.906.813,8.769,8.769,0,0,1,2.133.9,3.392,3.392,0,0,1,1.18,1.156,3.011,3.011,0,0,1,.375,1.527A2.707,2.707,0,0,1,83.1-.684a4.727,4.727,0,0,1-2.957.84A5.557,5.557,0,0,1,77.871-.3a3.812,3.812,0,0,1-1.609-1.262,3.144,3.144,0,0,1-.574-1.875h1.977a1.84,1.84,0,0,0,.641,1.5,2.805,2.805,0,0,0,1.836.531,2.437,2.437,0,0,0,1.551-.418A1.349,1.349,0,0,0,82.211-2.93ZM85.383-4.3a4.984,4.984,0,0,1,.492-2.238,3.6,3.6,0,0,1,1.383-1.531A3.9,3.9,0,0,1,89.3-8.609a3.692,3.692,0,0,1,2.777,1.1,4.333,4.333,0,0,1,1.152,2.922l.008.445a5.029,5.029,0,0,1-.48,2.234A3.551,3.551,0,0,1,91.387-.383,3.925,3.925,0,0,1,89.32.156a3.667,3.667,0,0,1-2.863-1.191,4.563,4.563,0,0,1-1.074-3.176Zm1.9.164A3.406,3.406,0,0,0,87.82-2.1a1.752,1.752,0,0,0,1.5.738,1.733,1.733,0,0,0,1.5-.75,3.762,3.762,0,0,0,.535-2.2A3.362,3.362,0,0,0,90.8-6.336a1.759,1.759,0,0,0-1.5-.75,1.743,1.743,0,0,0-1.477.738A3.691,3.691,0,0,0,87.281-4.141ZM98.32-1.359a1.716,1.716,0,0,0,1.18-.414A1.415,1.415,0,0,0,100-2.8h1.789a2.789,2.789,0,0,1-.492,1.473,3.228,3.228,0,0,1-1.25,1.082,3.725,3.725,0,0,1-1.7.4A3.6,3.6,0,0,1,95.531-.992a4.555,4.555,0,0,1-1.039-3.172v-.2a4.479,4.479,0,0,1,1.031-3.09,3.571,3.571,0,0,1,2.813-1.16,3.473,3.473,0,0,1,2.457.879,3.148,3.148,0,0,1,1,2.309H100a1.738,1.738,0,0,0-.5-1.2,1.6,1.6,0,0,0-1.184-.469,1.671,1.671,0,0,0-1.422.668,3.408,3.408,0,0,0-.508,2.027v.3a3.465,3.465,0,0,0,.5,2.051A1.669,1.669,0,0,0,98.32-1.359ZM105.242,0h-1.9V-8.453h1.9Zm-2.016-10.648a1.008,1.008,0,0,1,.277-.727,1.048,1.048,0,0,1,.793-.289,1.061,1.061,0,0,1,.8.289,1,1,0,0,1,.281.727.977.977,0,0,1-.281.715,1.069,1.069,0,0,1-.8.285,1.056,1.056,0,0,1-.793-.285A.984.984,0,0,1,103.227-10.648ZM112.359,0a2.93,2.93,0,0,1-.219-.789,2.955,2.955,0,0,1-2.219.945,2.982,2.982,0,0,1-2.078-.727,2.325,2.325,0,0,1-.8-1.8,2.4,2.4,0,0,1,1-2.074,4.865,4.865,0,0,1,2.871-.723h1.164v-.555a1.481,1.481,0,0,0-.367-1.051,1.456,1.456,0,0,0-1.117-.395,1.672,1.672,0,0,0-1.062.324,1,1,0,0,0-.414.824h-1.9a2.107,2.107,0,0,1,.461-1.3,3.071,3.071,0,0,1,1.254-.949,4.4,4.4,0,0,1,1.77-.344,3.547,3.547,0,0,1,2.367.746,2.661,2.661,0,0,1,.906,2.1v3.813a4.321,4.321,0,0,0,.32,1.82V0Zm-2.086-1.367a2.159,2.159,0,0,0,1.059-.273,1.827,1.827,0,0,0,.746-.734V-3.969h-1.023a2.8,2.8,0,0,0-1.586.367,1.189,1.189,0,0,0-.531,1.039,1.109,1.109,0,0,0,.363.871A1.407,1.407,0,0,0,110.273-1.367ZM117.984,0h-1.9V-12h1.9Z" transform="translate(951 1521)" fill="#12263f"/>
    <path id="Trazado_628797" data-name="Trazado 628797" d="M0,0H190V80H0Z" transform="translate(495 1770)" fill="#f3c035"/>
    <path id="Trazado_628798" data-name="Trazado 628798" d="M0,0H190V80H0Z" transform="translate(915 1770)" fill="#f3c035"/>
    <path id="Trazado_628802" data-name="Trazado 628802" d="M6.594-2.984q.172-1.125-1.227-1.672l-.633-.234A5.912,5.912,0,0,1,2.227-6.352a2.613,2.613,0,0,1-.672-1.961,2.949,2.949,0,0,1,.66-1.707,3.85,3.85,0,0,1,1.574-1.137,5.152,5.152,0,0,1,2.078-.375,4.157,4.157,0,0,1,1.891.465A3.059,3.059,0,0,1,9.023-9.84,3.4,3.4,0,0,1,9.43-8.047L7.508-8.055a1.8,1.8,0,0,0-.395-1.383,1.813,1.813,0,0,0-1.355-.516,2.524,2.524,0,0,0-1.543.43,1.719,1.719,0,0,0-.738,1.2Q3.32-7.328,4.8-6.758l.586.211a5.688,5.688,0,0,1,2.5,1.5A2.777,2.777,0,0,1,8.516-3a3.077,3.077,0,0,1-.633,1.676A3.554,3.554,0,0,1,6.348-.219a5.583,5.583,0,0,1-2.16.375A4.494,4.494,0,0,1,2.16-.312,3.32,3.32,0,0,1,.766-1.59,3.314,3.314,0,0,1,.32-3.445l1.93.008a1.811,1.811,0,0,0,.477,1.492,2.182,2.182,0,0,0,1.547.539A2.7,2.7,0,0,0,5.84-1.8,1.673,1.673,0,0,0,6.594-2.984ZM9.977-4.242a6.6,6.6,0,0,1,.711-2.371,3.9,3.9,0,0,1,1.359-1.531,3.206,3.206,0,0,1,1.8-.473,2.483,2.483,0,0,1,2.063,1.008l.3-.852,1.672.008L15.852,3.25H14l.766-3.977A2.912,2.912,0,0,1,12.6.156a2.354,2.354,0,0,1-1.914-.9A3.954,3.954,0,0,1,9.93-3.117a6.527,6.527,0,0,1,.023-.961Zm1.836.164-.039.563a2.816,2.816,0,0,0,.332,1.6,1.2,1.2,0,0,0,1.043.559,1.754,1.754,0,0,0,1.02-.246,3.127,3.127,0,0,0,.785-.707l.688-3.859a1.5,1.5,0,0,0-1.422-.922,1.881,1.881,0,0,0-1.512.672,3.893,3.893,0,0,0-.84,1.977ZM20.43,0H18.578l2.086-12h1.852Zm8.227,0H26.734l1.977-11.375h1.922Zm5.43-8.461-.187.992a3.226,3.226,0,0,1,2.508-1.141,2.044,2.044,0,0,1,1.758.848,3.383,3.383,0,0,1,.422,2.3L37.672,0H35.82l.922-5.484a2.806,2.806,0,0,0,.008-.625,1,1,0,0,0-1.109-.953,2.25,2.25,0,0,0-1.852,1.039L32.734,0H30.883l1.461-8.453Zm8.93.008L41.461.742a3.262,3.262,0,0,1-.906,2.012,2.608,2.608,0,0,1-1.914.684,5.239,5.239,0,0,1-1.055-.148l.156-1.5a2.842,2.842,0,0,0,.656.086q.992,0,1.2-1.164l1.57-9.164Zm-1.625-2.164a1.033,1.033,0,0,1,.281-.746,1.043,1.043,0,0,1,.75-.309,1,1,0,0,1,.754.27.953.953,0,0,1,.3.723.988.988,0,0,1-.293.734,1.074,1.074,0,0,1-.746.3,1.049,1.049,0,0,1-.758-.277A.928.928,0,0,1,41.391-10.617ZM47.414.156A3.541,3.541,0,0,1,45.5-.4a3.156,3.156,0,0,1-1.2-1.453,4.32,4.32,0,0,1-.293-2.055l.023-.32a5.657,5.657,0,0,1,.754-2.316A4.3,4.3,0,0,1,46.32-8.1,3.713,3.713,0,0,1,48.3-8.609a2.771,2.771,0,0,1,2.379,1.18,4.325,4.325,0,0,1,.6,2.992l-.109.813h-5.32A2.31,2.31,0,0,0,46.258-2a1.608,1.608,0,0,0,1.313.633,2.847,2.847,0,0,0,2.2-1.039l.938.984a3.563,3.563,0,0,1-1.4,1.176A4.166,4.166,0,0,1,47.414.156Zm.789-7.25Q46.734-7.141,46-5.016l3.508.008.031-.164a2.451,2.451,0,0,0,.008-.7,1.438,1.438,0,0,0-.437-.875A1.385,1.385,0,0,0,48.2-7.094ZM55.68-1.352a1.778,1.778,0,0,0,1.176-.387,1.774,1.774,0,0,0,.652-1.051l1.75-.008a2.993,2.993,0,0,1-.605,1.523A3.52,3.52,0,0,1,57.32-.2a3.7,3.7,0,0,1-1.7.359,3.184,3.184,0,0,1-1.852-.562,3.11,3.11,0,0,1-1.117-1.512,4.836,4.836,0,0,1-.234-2.152l.023-.273a5.531,5.531,0,0,1,.715-2.223,4.173,4.173,0,0,1,1.5-1.535,3.766,3.766,0,0,1,2.047-.508,2.957,2.957,0,0,1,2.2.91,3.215,3.215,0,0,1,.82,2.285H57.992A1.889,1.889,0,0,0,57.637-6.6a1.3,1.3,0,0,0-1.027-.492,1.876,1.876,0,0,0-1.711.922,5.146,5.146,0,0,0-.672,2.688Q54.172-1.383,55.68-1.352Zm8.664-9.156-.359,2.055H65.43l-.242,1.406H63.734l-.8,4.734a1.619,1.619,0,0,0-.008.352q.047.508.625.531a3.529,3.529,0,0,0,.656-.07L64.086-.016a4.245,4.245,0,0,1-1.164.164,1.729,1.729,0,0,1-1.449-.66,2.389,2.389,0,0,1-.379-1.707l.789-4.828H60.531l.25-1.406h1.344l.359-2.055ZM67.406,0H65.555l1.469-8.453h1.852Zm-.117-10.617a1.044,1.044,0,0,1,.281-.734,1.03,1.03,0,0,1,.758-.32.985.985,0,0,1,.754.277.96.96,0,0,1,.3.715.988.988,0,0,1-.293.734,1.074,1.074,0,0,1-.746.3,1,1,0,0,1-.75-.27A.929.929,0,0,1,67.289-10.617Zm2.633,6.359a5.562,5.562,0,0,1,.73-2.258,4.335,4.335,0,0,1,1.535-1.57,3.794,3.794,0,0,1,2.078-.523,3.229,3.229,0,0,1,1.875.578,3.21,3.21,0,0,1,1.152,1.539,4.887,4.887,0,0,1,.254,2.172,5.665,5.665,0,0,1-.73,2.375A4.319,4.319,0,0,1,75.27-.363a3.848,3.848,0,0,1-2.09.52,3.214,3.214,0,0,1-1.863-.574,3.222,3.222,0,0,1-1.152-1.531A4.824,4.824,0,0,1,69.9-4.094Zm1.82,1.07a2.232,2.232,0,0,0,.434,1.316,1.387,1.387,0,0,0,1.1.52,1.948,1.948,0,0,0,1.6-.734,3.863,3.863,0,0,0,.809-2.07l.047-.766a2.7,2.7,0,0,0-.4-1.57,1.4,1.4,0,0,0-1.156-.6A2.024,2.024,0,0,0,72.3-5.93a4.349,4.349,0,0,0-.523,1.672A6.541,6.541,0,0,0,71.742-3.187ZM81.57-8.461l-.187.992a3.226,3.226,0,0,1,2.508-1.141,2.044,2.044,0,0,1,1.758.848,3.383,3.383,0,0,1,.422,2.3L85.156,0H83.3l.922-5.484a2.806,2.806,0,0,0,.008-.625,1,1,0,0,0-1.109-.953,2.25,2.25,0,0,0-1.852,1.039L80.219,0H78.367l1.461-8.453Z" transform="translate(966 1825)" fill="#12263f"/>
    <path id="Trazado_603931" data-name="Trazado 603931" d="M1742.005,3118.794v-16.8s-.423-5.943-4.351-5.943h-65.577s-2.714.906-2.714,5.842v47.945l49.859,3.936,21.958-6.656.826-5.279Z" transform="translate(-902.673 -1488.97)" fill="#fff4d6"/>
    <path id="Trazado_603932" data-name="Trazado 603932" d="M1723.1,3100.465a1.446,1.446,0,0,1,.083,2.04,1.475,1.475,0,0,1-1.062.479,1.453,1.453,0,0,1-1-.4c-3.372-3.123-6.661-4.6-9.721-4.393a9.078,9.078,0,0,0-4.975,2.041l1.978,2.019a1.47,1.47,0,0,1-.021,2.061l-2.914,2.831.4.4a1.47,1.47,0,0,1-.021,2.061l-1.894,1.832a.429.429,0,0,0-.062.417,17.212,17.212,0,0,1-16.507,22.128,11.137,11.137,0,0,1-1.166-.042,17.151,17.151,0,0,1-12.427-6.62,17.369,17.369,0,0,1-2.207-17.382,16.78,16.78,0,0,1,2.165-3.664,17.1,17.1,0,0,1,18.984-5.85.391.391,0,0,0,.4-.062l1.894-1.853a1.47,1.47,0,0,1,2.061.021l.4.417,2.893-2.831a1.45,1.45,0,0,1,2.061.021l1.978,2.019a12.071,12.071,0,0,1,5.5-2.644v-3.123a3.074,3.074,0,0,0-3.081-3.081H1643.19a3.092,3.092,0,0,0-3.1,3.081v41.966a3.109,3.109,0,0,0,3.1,3.1H1656.3a1.448,1.448,0,0,1,1.457,1.458v.479h34.493v-.479a1.444,1.444,0,0,1,1.436-1.458h13.135a3.092,3.092,0,0,0,3.081-3.1v-22.107a1.457,1.457,0,0,1,2.914,0v22.107a6.024,6.024,0,0,1-.937,3.206,4.756,4.756,0,0,1,3.83,4.663v1.687a5.094,5.094,0,0,1-.375,1.874h.833a1.447,1.447,0,1,1,0,2.893h-82.35a1.447,1.447,0,1,1,0-2.893h.853a4.724,4.724,0,0,1-.4-1.874v-1.687a4.775,4.775,0,0,1,3.851-4.663,6.024,6.024,0,0,1-.937-3.206v-41.966a6,6,0,0,1,6-6h63.636a6.01,6.01,0,0,1,6,6v2.936C1716.193,3095.552,1719.648,3097.28,1723.1,3100.465Zm-10.283,43.444v-1.687a1.893,1.893,0,0,0-1.874-1.874h-15.8v.5a1.444,1.444,0,0,1-1.457,1.437H1656.3a1.457,1.457,0,0,1-1.457-1.437v-.5h-15.779a1.879,1.879,0,0,0-1.874,1.874v1.687a1.879,1.879,0,0,0,1.874,1.874h71.879A1.893,1.893,0,0,0,1712.821,3143.909Zm-7.515-40.655-3.934-4.059-1.874,1.832,3.955,4.038Zm-2.54,5.288-6.745-6.932-.854.812a3.259,3.259,0,0,1-3.331.749,14.8,14.8,0,0,0-4.5-.708,14.313,14.313,0,1,0,13.76,10.221,3.315,3.315,0,0,1,.833-3.331Z" transform="translate(-872.029 -1480.971)"/>
    <path id="Trazado_603933" data-name="Trazado 603933" d="M1736.11,3402.417v1.686a1.893,1.893,0,0,1-1.874,1.873h-71.879a1.879,1.879,0,0,1-1.874-1.873v-1.686a1.879,1.879,0,0,1,1.874-1.874h15.779v.5a1.457,1.457,0,0,0,1.457,1.437h37.386a1.444,1.444,0,0,0,1.457-1.437v-.5h15.8A1.893,1.893,0,0,1,1736.11,3402.417Z" transform="translate(-895.318 -1741.165)" fill="#6aceae"/>
    <path id="Trazado_603934" data-name="Trazado 603934" d="M2025.109,3160.931l3.934,4.059-1.853,1.811-3.955-4.038Z" transform="translate(-1195.767 -1542.707)" fill="#fdc367"/>
    <path id="Trazado_603935" data-name="Trazado 603935" d="M1892.459,3174.99l6.745,6.932-.833.812a3.314,3.314,0,0,0-.833,3.331,14.3,14.3,0,0,1-14.676,18.36,14.121,14.121,0,0,1-10.346-5.516,14.305,14.305,0,0,1,11.262-23.064,14.794,14.794,0,0,1,4.5.708,3.26,3.26,0,0,0,3.331-.75Zm-9.6,6.079a1.452,1.452,0,0,0-.417-2.873,11.788,11.788,0,0,0-7.66,4.476,11.439,11.439,0,0,0-2.352,5.745,1.435,1.435,0,0,0,1.27,1.6.463.463,0,0,0,.166.021,1.44,1.44,0,0,0,1.436-1.27,8.853,8.853,0,0,1,7.557-7.7Z" transform="translate(-1068.467 -1554.351)" fill="#f38e1e"/>
    <path id="Trazado_603936" data-name="Trazado 603936" d="M1898,3194.8a1.468,1.468,0,0,1-1.228,1.645,8.853,8.853,0,0,0-7.556,7.7,1.441,1.441,0,0,1-1.436,1.27.455.455,0,0,1-.167-.021,1.435,1.435,0,0,1-1.27-1.6,11.44,11.44,0,0,1,2.352-5.745,11.789,11.789,0,0,1,7.66-4.476A1.463,1.463,0,0,1,1898,3194.8Z" transform="translate(-1082.375 -1569.727)"/>
    <path id="Trazado_603937" data-name="Trazado 603937" d="M1732.4,3121.056a1.447,1.447,0,1,1,0,2.894h-25.25v12.656h18.214a1.444,1.444,0,0,1,1.457,1.437,1.593,1.593,0,0,1-.1.562,1.456,1.456,0,0,1-1.353.9h-19.672a1.461,1.461,0,0,1-1.457-1.457v-15.529a1.461,1.461,0,0,1,1.457-1.457Z" transform="translate(-931.557 -1509.681)"/>
    <path id="Trazado_603938" data-name="Trazado 603938" d="M1722.222,3246.741a1.447,1.447,0,1,1,0,2.893h-16.528a1.447,1.447,0,1,1,0-2.893Z" transform="translate(-931.557 -1613.778)"/>
    <path id="Trazado_603939" data-name="Trazado 603939" d="M1722.222,3279.95a1.447,1.447,0,1,1,0,2.894h-16.528a1.447,1.447,0,1,1,0-2.894Z" transform="translate(-931.557 -1641.283)"/>
    <path id="Trazado_603940" data-name="Trazado 603940" d="M1715.374,3313.158a1.447,1.447,0,1,1,0,2.894h-9.68a1.447,1.447,0,1,1,0-2.894Z" transform="translate(-931.557 -1668.788)"/>
    <path id="Trazado_603941" data-name="Trazado 603941" d="M1715.374,3346.367a1.447,1.447,0,1,1,0,2.894h-9.68a1.447,1.447,0,1,1,0-2.894Z" transform="translate(-931.557 -1696.293)"/>
    <path id="Trazado_628790" data-name="Trazado 628790" d="M32,0A32,32,0,1,1,0,32,32,32,0,0,1,32,0Z" transform="translate(558 1438)" fill="#bce6d9"/>
    <path id="Trazado_628791" data-name="Trazado 628791" d="M32,0A32,32,0,1,1,0,32,32,32,0,0,1,32,0Z" transform="translate(558 1733)" fill="#bce6d9"/>
    <path id="Trazado_603942" data-name="Trazado 603942" d="M3194.616,225.242a.818.818,0,0,1,.818.806,4.375,4.375,0,0,1-4.383,4.371h-12.3a4.355,4.355,0,0,1-3.507-1.777h-10.905a4.332,4.332,0,0,1-3.495,1.777h-12.308a4.365,4.365,0,0,1-4.371-4.371.808.808,0,0,1,.807-.806h.865v-6.674a2.664,2.664,0,0,1,2.665-2.665h12.366a2.674,2.674,0,0,1,2.677,2.665v6.674h.853a.81.81,0,0,1,.818.806,4.411,4.411,0,0,1-.117.97h3.881V211.181a10.011,10.011,0,1,1,1.625,0v15.838h3.88a4.382,4.382,0,0,1-.117-.97.818.818,0,0,1,.818-.806h.865v-6.674a2.664,2.664,0,0,1,2.665-2.665h12.366a2.664,2.664,0,0,1,2.665,2.665v6.674Zm-.935,1.625h-17.556a2.747,2.747,0,0,0,2.63,1.928h12.3A2.747,2.747,0,0,0,3193.681,226.867Zm-1.555-1.625v-6.674a1.042,1.042,0,0,0-1.04-1.04H3178.72a1.043,1.043,0,0,0-1.04,1.04v6.674Zm-13.956-24.019a8.375,8.375,0,1,0-8.369,8.369A8.378,8.378,0,0,0,3178.171,201.223Zm-14.7,25.644h-17.556a2.747,2.747,0,0,0,2.63,1.928h12.308A2.743,2.743,0,0,0,3163.467,226.867Zm-1.555-1.625v-6.674a1.043,1.043,0,0,0-1.04-1.04h-12.366a1.043,1.043,0,0,0-1.04,1.04v6.674Z" transform="translate(-2579.813 1555.273)"/>
    <path id="Trazado_603943" data-name="Trazado 603943" d="M3492.35,560.988h.736a2.747,2.747,0,0,1-2.63,1.928h-12.3a2.746,2.746,0,0,1-2.63-1.928h16.82Z" transform="translate(-2879.218 1221.152)" fill="#50b1c2"/>
    <path id="Trazado_603944" data-name="Trazado 603944" d="M3506.1,465.189v6.674h-14.447v-6.674a1.043,1.043,0,0,1,1.04-1.04h12.366A1.043,1.043,0,0,1,3506.1,465.189Zm-1.683,2.034a.818.818,0,0,0-1.157-1.157l-2.794,2.793a.826.826,0,0,0,0,1.157.819.819,0,0,0,1.146,0Zm-6.814.14a.818.818,0,0,0-1.157-1.157l-3.027,3.039a.791.791,0,0,0,0,1.145.791.791,0,0,0,1.146,0Z" transform="translate(-2893.783 1308.652)" fill="#a1f1ff"/>
    <path id="Trazado_603945" data-name="Trazado 603945" d="M3584.768,481.808a.825.825,0,0,1,0,1.157l-2.805,2.794a.818.818,0,0,1-1.145,0,.826.826,0,0,1,0-1.157l2.793-2.793A.826.826,0,0,1,3584.768,481.808Z" transform="translate(-2974.138 1292.91)"/>
    <path id="Trazado_603946" data-name="Trazado 603946" d="M3590.786,314.374c0,.164-.012.327-.012.479a.812.812,0,0,1-1.625-.035v-.444a17.794,17.794,0,0,0-.117-2.081.805.805,0,0,1,.713-.9.814.814,0,0,1,.9.713A18.358,18.358,0,0,1,3590.786,314.374Z" transform="translate(-2981.768 1446.68)"/>
    <path id="Trazado_603947" data-name="Trazado 603947" d="M3577.9,392.5a.82.82,0,0,1,.514,1.029c-.14.432-.292.865-.467,1.286a.807.807,0,0,1-.748.5,1,1,0,0,1-.315-.059.828.828,0,0,1-.444-1.064c.152-.386.3-.771.433-1.169A.812.812,0,0,1,3577.9,392.5Z" transform="translate(-2970.342 1373.427)"/>
    <path id="Trazado_603948" data-name="Trazado 603948" d="M3564.82,237.257a.811.811,0,0,1-.421,1.075.783.783,0,0,1-.327.07.84.84,0,0,1-.748-.491,16.245,16.245,0,0,0-1.169-2.232.815.815,0,0,1,.269-1.122.828.828,0,0,1,1.122.257A20.361,20.361,0,0,1,3564.82,237.257Z" transform="translate(-2957.379 1516.212)"/>
    <path id="Trazado_603949" data-name="Trazado 603949" d="M3511.837,483.263a.826.826,0,0,1,0,1.157l-3.039,3.027a.791.791,0,0,1-1.146,0,.791.791,0,0,1,0-1.145l3.027-3.039A.826.826,0,0,1,3511.837,483.263Z" transform="translate(-2908.02 1291.596)"/>
    <path id="Trazado_603950" data-name="Trazado 603950" d="M3508.635,177.83a.812.812,0,0,1-.549,1.414.787.787,0,0,1-.537-.2,18.291,18.291,0,0,0-2-1.543.81.81,0,1,1,.888-1.356A17.921,17.921,0,0,1,3508.635,177.83Z" transform="translate(-2906.01 1569)"/>
    <path id="Trazado_603951" data-name="Trazado 603951" d="M3351.618,233.257a.808.808,0,0,1,.2,1.134l-.678.97a.841.841,0,0,1-.491.327l-1.554.339a7.868,7.868,0,0,1-.176,1.04l.9.713a.787.787,0,0,1,.14.14c.947,1.216.947,1.216.947,1.531a.808.808,0,0,1-.807.807.821.821,0,0,1-.713-.409c-.082-.117-.386-.5-.655-.853l-.467-.374a4.733,4.733,0,0,1-.666.83,2.8,2.8,0,0,1,.2,1.005,2.753,2.753,0,0,1-5.505,0,2.808,2.808,0,0,1,.2-1.005,4.2,4.2,0,0,1-.654-.83l-.479.374c-.269.351-.573.736-.654.853a.821.821,0,0,1-.713.409.808.808,0,0,1-.807-.807c0-.316,0-.316.947-1.531a.787.787,0,0,1,.14-.14l.911-.713a6.294,6.294,0,0,1-.187-1.04l-1.554-.339a.839.839,0,0,1-.491-.327l-.678-.97a.814.814,0,0,1,1.333-.935l.5.7.982.222a5.522,5.522,0,0,1,.292-1.005l-1.052-1.391a.82.82,0,0,1,.163-1.146.8.8,0,0,1,1.134.164l.644.853a3.483,3.483,0,0,1,5.552,0l.643-.853a.805.805,0,0,1,1.134-.164.821.821,0,0,1,.164,1.146l-1.052,1.391a5.522,5.522,0,0,1,.292,1.005l.994-.222.491-.7A.81.81,0,0,1,3351.618,233.257Zm-5.05,4.909a4.025,4.025,0,0,0,.923-2.642,3.613,3.613,0,0,0-1.636-3.2v3.6a.812.812,0,1,1-1.625,0v-3.6a3.6,3.6,0,0,0-1.625,3.2,4.017,4.017,0,0,0,.912,2.642,2.381,2.381,0,0,1,.7-.316c.012-.012.035-.012.047-.023a2.414,2.414,0,0,1,1.554,0,.2.2,0,0,1,.058.023A2.461,2.461,0,0,1,3346.569,238.166Zm-.409,2.291a1.1,1.1,0,0,0-.268-.713,1.124,1.124,0,0,0-1.7,0,1.1,1.1,0,0,0-.269.713,1.116,1.116,0,0,0,2.232,0Z" transform="translate(-2755.06 1519.791)"/>
    <path id="Trazado_603952" data-name="Trazado 603952" d="M3331.442,208.174a8.375,8.375,0,1,1-8.381,8.381A8.378,8.378,0,0,1,3331.442,208.174Zm6.767,6.066a.814.814,0,1,0-1.332-.935l-.491.7-.994.222a5.56,5.56,0,0,0-.292-1.005l1.052-1.391a.82.82,0,0,0-.164-1.145.806.806,0,0,0-1.134.164l-.643.853a3.483,3.483,0,0,0-5.552,0l-.643-.853a.805.805,0,0,0-1.134-.164.821.821,0,0,0-.164,1.145l1.052,1.391a5.541,5.541,0,0,0-.292,1.005l-.981-.222-.5-.7a.814.814,0,0,0-1.332.935l.678.97a.84.84,0,0,0,.491.327l1.554.339a6.271,6.271,0,0,0,.187,1.04l-.912.713a.8.8,0,0,0-.14.14c-.947,1.216-.947,1.216-.947,1.531a.808.808,0,0,0,.806.806.82.82,0,0,0,.713-.409c.082-.117.386-.5.655-.853l.479-.374a4.2,4.2,0,0,0,.655.83,2.8,2.8,0,0,0-.2,1.005,2.753,2.753,0,0,0,5.505,0,2.8,2.8,0,0,0-.2-1.005,4.722,4.722,0,0,0,.666-.83l.467.374c.269.351.573.736.655.853a.82.82,0,0,0,.713.409.808.808,0,0,0,.806-.806c0-.316,0-.316-.947-1.531a.8.8,0,0,0-.14-.14l-.9-.713a7.713,7.713,0,0,0,.175-1.04l1.555-.339a.839.839,0,0,0,.491-.327Z" transform="translate(-2741.452 1539.941)" fill="#ffeb92"/>
    <path id="Trazado_603953" data-name="Trazado 603953" d="M3432.629,147.594a.811.811,0,0,1-.234,1.59.8.8,0,0,1-.234-.023,16.315,16.315,0,0,0-2.466-.549.816.816,0,0,1,.245-1.613A19.358,19.358,0,0,1,3432.629,147.594Z" transform="translate(-2837.181 1595.227)"/>
    <path id="Trazado_603954" data-name="Trazado 603954" d="M3389.516,252.827a4.025,4.025,0,0,1-.923,2.642,2.46,2.46,0,0,0-.689-.316.194.194,0,0,0-.059-.023,2.413,2.413,0,0,0-1.554,0c-.012.012-.035.012-.047.023a2.38,2.38,0,0,0-.7.316,4.017,4.017,0,0,1-.912-2.642,3.6,3.6,0,0,1,1.625-3.2v3.6a.812.812,0,1,0,1.625,0v-3.6A3.613,3.613,0,0,1,3389.516,252.827Z" transform="translate(-2797.084 1502.488)" fill="#fdc367"/>
    <path id="Trazado_603955" data-name="Trazado 603955" d="M3400.29,322.973a1.1,1.1,0,0,1,.269.713,1.116,1.116,0,0,1-2.232,0,1.1,1.1,0,0,1,.269-.713A1.124,1.124,0,0,1,3400.29,322.973Z" transform="translate(-2809.459 1436.563)" fill="#e09d31"/>
    <path id="Trazado_603956" data-name="Trazado 603956" d="M3351.87,147.688a.815.815,0,0,1-.69.923,16.288,16.288,0,0,0-2.466.538.751.751,0,0,1-.234.035.818.818,0,0,1-.222-1.6,18.968,18.968,0,0,1,2.688-.584A.809.809,0,0,1,3351.87,147.688Z" transform="translate(-2763.692 1595.227)"/>
    <path id="Trazado_603957" data-name="Trazado 603957" d="M3179.048,560.988h.737a2.743,2.743,0,0,1-2.618,1.928h-12.307a2.747,2.747,0,0,1-2.63-1.928h16.819Z" transform="translate(-2596.13 1221.152)" fill="#50b1c2"/>
    <path id="Trazado_603958" data-name="Trazado 603958" d="M3192.8,465.189v6.674h-14.447v-6.674a1.042,1.042,0,0,1,1.04-1.04h12.366A1.043,1.043,0,0,1,3192.8,465.189Zm-1.683,2.034a.818.818,0,0,0-1.157-1.157l-2.794,2.793a.826.826,0,0,0,0,1.157.835.835,0,0,0,.573.234.814.814,0,0,0,.573-.234Zm-6.814.14a.818.818,0,0,0-1.157-1.157l-3.027,3.039a.811.811,0,0,0,0,1.145.79.79,0,0,0,1.145,0Z" transform="translate(-2610.695 1308.652)" fill="#a1f1ff"/>
    <path id="Trazado_603959" data-name="Trazado 603959" d="M3279.948,176.139a.824.824,0,0,1-.234,1.134,15.9,15.9,0,0,0-2,1.531.88.88,0,0,1-.549.2.813.813,0,0,1-.538-1.426,19.094,19.094,0,0,1,2.2-1.671A.811.811,0,0,1,3279.948,176.139Z" transform="translate(-2699.25 1569.219)"/>
    <path id="Trazado_603960" data-name="Trazado 603960" d="M3271.466,481.808a.825.825,0,0,1,0,1.157l-2.805,2.794a.813.813,0,0,1-.573.234.835.835,0,0,1-.573-.234.825.825,0,0,1,0-1.157l2.793-2.793A.826.826,0,0,1,3271.466,481.808Z" transform="translate(-2691.049 1292.91)"/>
    <path id="Trazado_603961" data-name="Trazado 603961" d="M3230.8,234.193a.82.82,0,0,1,.269,1.122,17.585,17.585,0,0,0-1.18,2.233.815.815,0,0,1-.748.491.82.82,0,0,1-.749-1.146,21.256,21.256,0,0,1,1.286-2.443A.828.828,0,0,1,3230.8,234.193Z" transform="translate(-2655.854 1516.541)"/>
    <path id="Trazado_603962" data-name="Trazado 603962" d="M3223.937,394.238a.817.817,0,0,1-.444,1.064,1,1,0,0,1-.3.058.812.812,0,0,1-.76-.5c-.175-.421-.327-.853-.467-1.286a.811.811,0,1,1,1.542-.5C3223.633,393.467,3223.785,393.852,3223.937,394.238Z" transform="translate(-2650.065 1373.386)"/>
    <path id="Trazado_603963" data-name="Trazado 603963" d="M3198.617,483.263a.826.826,0,0,1,0,1.157l-3.039,3.027a.791.791,0,0,1-1.146,0,.812.812,0,0,1,0-1.145l3.027-3.039A.826.826,0,0,1,3198.617,483.263Z" transform="translate(-2625.014 1291.596)"/>
    <path id="Trazado_603964" data-name="Trazado 603964" d="M3213.688,310.889a.832.832,0,0,1,.713.912,18.151,18.151,0,0,0-.128,2.116v.4a.814.814,0,0,1-.794.842h-.012a.815.815,0,0,1-.818-.795v-.444a21.644,21.644,0,0,1,.129-2.314A.823.823,0,0,1,3213.688,310.889Z" transform="translate(-2641.688 1447.139)"/>
    <path id="Trazado_603965" data-name="Trazado 603965" d="M2417.419,3017.181a10.569,10.569,0,0,1,1.044.8,9.275,9.275,0,0,1,.847.875c.057.066.113.132.169.207.188.245.376.489.546.753a2.7,2.7,0,0,1,.179.273,8.538,8.538,0,0,1,.555,1.044l2.267-2.268a.653.653,0,0,1,.969.057c.085.1.179.207.273.311a4.092,4.092,0,0,0,5.786-5.787,4.053,4.053,0,0,0-3.368-1.167.656.656,0,0,1-.724-.724,4.088,4.088,0,1,0-6.953,2.418c.1.094.207.188.311.273a.651.651,0,0,1,.245.48.667.667,0,0,1-.188.49Zm13.568-4.667a5.4,5.4,0,0,1-7.518,7.762l-2.23,2.23a9.321,9.321,0,0,1,.348,2.456,9.193,9.193,0,0,1-.913,4l2.794,2.794a14.566,14.566,0,1,1-5.5,5.5l-.95-.95a1.437,1.437,0,0,1-.6.122h-8.374a1.407,1.407,0,0,1-.6-.122l-.95.95a5.388,5.388,0,0,1,1.458,3.7,5.4,5.4,0,0,1-9.221,3.82,5.41,5.41,0,0,1-1.581-3.688,5.4,5.4,0,1,1,3.839-9.334l2.795-2.794a9.276,9.276,0,0,1-.866-4.9,8.729,8.729,0,0,1,.282-1.571l-2.211-2.211a14.484,14.484,0,1,1,5.5-5.5l1.722,1.731a8.989,8.989,0,0,1,2.955-.847,9.3,9.3,0,0,1,5.071.847l1.731-1.731a5.4,5.4,0,0,1,.113-7.518,5.417,5.417,0,0,1,7.649,0,5.368,5.368,0,0,0,5.26,5.26Zm-.932,26.072a4.092,4.092,0,0,0-5.786-5.786c-.094.1-.188.207-.273.32a.675.675,0,0,1-.48.235.644.644,0,0,1-.49-.188l-3.02-3.02a9.995,9.995,0,0,1-.6.809h-.01a8.575,8.575,0,0,1-.687.743,2.4,2.4,0,0,0-.734,1.731v1.449a1.355,1.355,0,0,1-.075.433v.028l1.477,1.477a.688.688,0,0,1,.188.5.632.632,0,0,1-.245.47q-.155.127-.311.282a4.1,4.1,0,0,0,0,5.786,4.089,4.089,0,0,0,6.953-3.378.656.656,0,0,1,.724-.725A4.033,4.033,0,0,0,2430.055,3038.586Zm-9.785-13.624a8.039,8.039,0,0,0-.386-2.465c-.038-.122-.094-.244-.141-.367s-.094-.263-.15-.4c-.047-.113-.1-.216-.16-.329-.066-.132-.123-.263-.2-.4-.066-.1-.132-.217-.2-.32s-.151-.235-.226-.348l-.254-.339c-.075-.094-.15-.188-.226-.273-.1-.122-.216-.245-.329-.367-.066-.066-.132-.122-.2-.188-.15-.141-.292-.282-.452-.414-.009-.01-.028-.019-.038-.028a8.293,8.293,0,0,0-1.27-.847c-.01-.01-.01-.019-.019-.019a7.99,7.99,0,0,0-3.792-.959,7.74,7.74,0,0,0-.931.056,7.915,7.915,0,0,0-2.879.894c-.01.009-.01.019-.019.028a8.1,8.1,0,0,0-3.839,4.62l-.01.01a8.188,8.188,0,0,0-.348,1.665,8.074,8.074,0,0,0,.96,4.629,8.581,8.581,0,0,0,.6.922c.038.056.075.1.113.16a8.264,8.264,0,0,0,.762.856,3.745,3.745,0,0,1,1.063,1.929,3.341,3.341,0,0,1,.085.743v1.458a.215.215,0,0,0,.066.151c0,.009.009.019.009.028a.271.271,0,0,0,.169.066h1.11v-1.854a.659.659,0,0,1,1.317,0v1.854h1.1v-1.854a.659.659,0,0,1,1.317,0v1.854h1.1v-1.854a.654.654,0,0,1,1.308,0v1.854h1.12a.228.228,0,0,0,.16-.066c.009-.009.009-.019.019-.028a.216.216,0,0,0,.066-.151v-1.449a3.736,3.736,0,0,1,1.138-2.681,7.394,7.394,0,0,0,.771-.856,1.493,1.493,0,0,1,.094-.122,8.414,8.414,0,0,0,.64-.988.032.032,0,0,1,.009-.019A7.919,7.919,0,0,0,2420.27,3024.962Zm-13.239-7.791-1.957-1.957a.645.645,0,0,1-.188-.49.675.675,0,0,1,.235-.48,3,3,0,0,0,.32-.282,4.088,4.088,0,1,0-6.953-2.409.666.666,0,0,1-.188.536.687.687,0,0,1-.546.188,4.088,4.088,0,1,0,2.418,6.953,4.166,4.166,0,0,0,.282-.311.631.631,0,0,1,.47-.245h.038a.656.656,0,0,1,.461.188l2.258,2.268A9.4,9.4,0,0,1,2407.031,3017.172Zm-.48,18.169a.034.034,0,0,0-.01-.028,1.663,1.663,0,0,1-.066-.433v-1.458a2.273,2.273,0,0,0-.122-.706,2.328,2.328,0,0,0-.621-1.016c-.113-.113-.207-.235-.311-.348-.122-.132-.254-.254-.376-.4a10.052,10.052,0,0,1-.6-.809l-3.02,3.02a.661.661,0,0,1-.969-.047,2.974,2.974,0,0,0-.282-.32,4.092,4.092,0,1,0-2.418,6.953h.084a.656.656,0,0,1,.461.188.676.676,0,0,1,.188.546,4.091,4.091,0,0,0,6.953,3.368,4.1,4.1,0,0,0,0-5.786,3,3,0,0,0-.32-.282.661.661,0,0,1-.047-.969Z" transform="translate(-1822.234 -1556.017)"/>
    <path id="Trazado_603966" data-name="Trazado 603966" d="M2733.456,3029.04a4.092,4.092,0,0,1-5.786,5.787c-.094-.1-.188-.207-.273-.311a.651.651,0,0,0-.48-.245.644.644,0,0,0-.49.188l-2.267,2.268a8.505,8.505,0,0,0-.555-1.044,2.7,2.7,0,0,0-.179-.273c-.169-.263-.357-.508-.546-.753-.056-.075-.113-.141-.169-.207a9.308,9.308,0,0,0-.847-.875,10.569,10.569,0,0,0-1.044-.8l1.957-1.966a.667.667,0,0,0,.188-.49.65.65,0,0,0-.245-.48c-.1-.085-.207-.179-.311-.273a4.092,4.092,0,1,1,6.953-2.418.656.656,0,0,0,.724.724A4.053,4.053,0,0,1,2733.456,3029.04Zm-2.032.555a.655.655,0,0,0-.6-.706,2.323,2.323,0,0,0-.254-.009,3.225,3.225,0,0,0-3.208,2.9.658.658,0,0,0,.593.725h.066a.66.66,0,0,0,.649-.593,1.894,1.894,0,0,1,1.9-1.712h.15A.661.661,0,0,0,2731.424,3029.6Zm-5.589-5.636a.661.661,0,0,0-.659-.659,3.218,3.218,0,0,0-3.058,2.2.653.653,0,0,0,.414.828.785.785,0,0,0,.207.028.655.655,0,0,0,.621-.442,1.913,1.913,0,0,1,1.816-1.308A.659.659,0,0,0,2725.835,3023.959Z" transform="translate(-2125.636 -1571.611)" fill="#50b1c2"/>
    <path id="Trazado_603967" data-name="Trazado 603967" d="M2738.151,3323.568a4.088,4.088,0,0,1,0,5.786,4.033,4.033,0,0,1-3.368,1.167.656.656,0,0,0-.724.725,4.089,4.089,0,1,1-8.148.48,4.056,4.056,0,0,1,1.195-2.889,4.166,4.166,0,0,1,.311-.282.632.632,0,0,0,.245-.47.688.688,0,0,0-.188-.5l-1.477-1.477v-.028a1.355,1.355,0,0,0,.075-.433V3324.2a2.4,2.4,0,0,1,.734-1.731,8.5,8.5,0,0,0,.687-.743h.01a9.995,9.995,0,0,0,.6-.809l3.02,3.02a.645.645,0,0,0,.49.188.675.675,0,0,0,.48-.235c.085-.113.179-.216.273-.32a4.1,4.1,0,0,1,5.786,0Zm-3.82,1.044a.653.653,0,1,0-.64-1.139,3.229,3.229,0,0,0-1.656,2.813c0,.113.009.216.019.329a.652.652,0,0,0,.649.583h.075a.654.654,0,0,0,.583-.715,1.372,1.372,0,0,1-.01-.2A1.922,1.922,0,0,1,2734.331,3324.613Zm-5.024,5.429a.66.66,0,0,0,.433-.819.653.653,0,0,0-.819-.433,3.231,3.231,0,0,0-2.173,2.277.658.658,0,0,0,.47.8,1.06,1.06,0,0,0,.16.019.664.664,0,0,0,.64-.489A1.926,1.926,0,0,1,2729.306,3330.042Z" transform="translate(-2130.33 -1846.785)" fill="#50b1c2"/>
    <path id="Trazado_603968" data-name="Trazado 603968" d="M2808.474,3103.734a.656.656,0,1,1-.1,1.308h-.15a1.894,1.894,0,0,0-1.9,1.712.66.66,0,0,1-.649.593h-.066a.658.658,0,0,1-.593-.725,3.225,3.225,0,0,1,3.208-2.9A2.323,2.323,0,0,1,2808.474,3103.734Z" transform="translate(-2203.287 -1646.456)"/>
    <path id="Trazado_603969" data-name="Trazado 603969" d="M2807.362,3353.115a.652.652,0,0,1-.254.894,1.922,1.922,0,0,0-.979,1.675,1.372,1.372,0,0,0,.01.2.654.654,0,0,1-.583.715h-.075a.652.652,0,0,1-.649-.583c-.01-.113-.019-.217-.019-.329a3.229,3.229,0,0,1,1.656-2.813A.658.658,0,0,1,2807.362,3353.115Z" transform="translate(-2203.107 -1876.181)"/>
    <path id="Trazado_603971" data-name="Trazado 603971" d="M2739.427,3422.414a.66.66,0,0,1-.433.819,1.926,1.926,0,0,0-1.289,1.355.664.664,0,0,1-.64.489,1.031,1.031,0,0,1-.16-.019.658.658,0,0,1-.47-.8,3.231,3.231,0,0,1,2.173-2.277A.653.653,0,0,1,2739.427,3422.414Z" transform="translate(-2140.018 -1939.977)"/>
    <path id="Trazado_603972" data-name="Trazado 603972" d="M2565.922,3155.976a8.039,8.039,0,0,1,.386,2.465,7.919,7.919,0,0,1-.96,3.8.032.032,0,0,0-.01.019,8.414,8.414,0,0,1-.64.988,1.493,1.493,0,0,0-.094.122,7.394,7.394,0,0,1-.771.856,3.736,3.736,0,0,0-1.138,2.681v1.449a.216.216,0,0,1-.066.151c-.01.009-.01.019-.019.028a.228.228,0,0,1-.16.066h-1.12v-1.854a.654.654,0,0,0-1.308,0v1.854h-1.1v-1.854a.659.659,0,0,0-1.317,0v1.854h-1.1v-1.854a.659.659,0,0,0-1.317,0v1.854h-1.11a.271.271,0,0,1-.169-.066c0-.009-.009-.019-.009-.028a.215.215,0,0,1-.066-.151V3166.9a3.341,3.341,0,0,0-.085-.743,3.745,3.745,0,0,0-1.063-1.929,8.264,8.264,0,0,1-.762-.856c-.038-.056-.075-.1-.113-.16a8.579,8.579,0,0,1-.6-.922,8.074,8.074,0,0,1-.96-4.629,8.2,8.2,0,0,1,.348-1.665l.01-.01a8.1,8.1,0,0,1,3.839-4.62c.009-.01.009-.019.019-.028a7.915,7.915,0,0,1,2.879-.894,7.74,7.74,0,0,1,.931-.056,7.99,7.99,0,0,1,3.792.959c.01,0,.01.01.019.019a8.3,8.3,0,0,1,1.27.847c.01.01.028.019.038.028.16.132.3.273.452.414.066.066.132.123.2.188.113.122.226.245.329.367.075.085.151.179.226.273l.254.339c.075.113.151.235.226.348s.132.217.2.32c.075.132.132.263.2.4.056.113.113.217.16.329.056.132.1.263.15.4S2565.884,3155.854,2565.922,3155.976Zm-1.7,3.049a2.216,2.216,0,1,0-2.211,2.211A2.217,2.217,0,0,0,2564.219,3159.024Zm-4.535,4.488a.637.637,0,0,0,0-.659l-.856-1.449a.66.66,0,0,0-.565-.32.648.648,0,0,0-.564.32l-.856,1.449a.651.651,0,0,0,.564.988h1.713A.638.638,0,0,0,2559.684,3163.512Zm-2.954-4.488a2.216,2.216,0,1,0-2.211,2.211A2.217,2.217,0,0,0,2556.729,3159.024Z" transform="translate(-1968.272 -1689.495)" fill="#fff4d6"/>
    <path id="Trazado_603973" data-name="Trazado 603973" d="M2675.772,3233.045a2.216,2.216,0,1,1-2.22,2.22A2.217,2.217,0,0,1,2675.772,3233.045Zm.9,2.22a.9.9,0,1,0-.9.9A.9.9,0,0,0,2676.676,3235.265Z" transform="translate(-2082.037 -1765.736)"/>
    <path id="Trazado_628961" data-name="Trazado 628961" d="M.9,0A.9.9,0,1,1,0,.9.9.9,0,0,1,.9,0Z" transform="translate(592.832 1468.626)" fill="#e09d31"/>
    <path id="Trazado_603974" data-name="Trazado 603974" d="M2637.354,3289.96a.658.658,0,0,1-.564.988h-1.713a.651.651,0,0,1-.564-.988l.856-1.449a.648.648,0,0,1,.564-.32.66.66,0,0,1,.565.32Z" transform="translate(-2045.941 -1816.602)"/>
    <path id="Trazado_603975" data-name="Trazado 603975" d="M2579.3,3233.045a2.216,2.216,0,1,1-2.22,2.22A2.217,2.217,0,0,1,2579.3,3233.045Zm.9,2.22a.9.9,0,1,0-.9.9A.9.9,0,0,0,2580.2,3235.265Z" transform="translate(-1993.051 -1765.736)"/>
    <path id="Trazado_628960" data-name="Trazado 628960" d="M.9,0A.9.9,0,1,1,0,.9.9.9,0,0,1,.9,0Z" transform="translate(585.343 1468.626)" fill="#e09d31"/>
    <path id="Trazado_603976" data-name="Trazado 603976" d="M2420.614,3030.754l1.957,1.957a9.4,9.4,0,0,0-3.35,3.961l-2.258-2.268a.656.656,0,0,0-.461-.188h-.038a.631.631,0,0,0-.47.245,4.166,4.166,0,0,1-.282.311,4.092,4.092,0,1,1-2.418-6.953.687.687,0,0,0,.546-.188.666.666,0,0,0,.188-.536,4.088,4.088,0,1,1,6.953,2.409,3,3,0,0,1-.32.282.675.675,0,0,0-.235.48A.645.645,0,0,0,2420.614,3030.754Zm-1.75-6.85a.653.653,0,0,0-.649-.659,3.233,3.233,0,0,0-3.011,2.07.656.656,0,0,0,.376.847.647.647,0,0,0,.235.038.662.662,0,0,0,.612-.414,1.928,1.928,0,0,1,1.788-1.233A.65.65,0,0,0,2418.864,3023.9Zm-6.2,6.229a.655.655,0,0,0,.6-.706.662.662,0,0,0-.706-.6,3.257,3.257,0,0,0-2.973,3.218,2.693,2.693,0,0,0,.019.273.649.649,0,0,0,.649.6h.047a.648.648,0,0,0,.6-.706v-.169A1.93,1.93,0,0,1,2412.663,3030.133Z" transform="translate(-1837.773 -1571.556)" fill="#50b1c2"/>
    <path id="Trazado_603977" data-name="Trazado 603977" d="M2422.081,3326.081a.034.034,0,0,1,.01.028l-1.477,1.477a.661.661,0,0,0,.047.969,2.974,2.974,0,0,1,.32.282,4.092,4.092,0,1,1-6.953,2.418.676.676,0,0,0-.188-.546.656.656,0,0,0-.461-.188h-.084a4.088,4.088,0,1,1,2.418-6.953,2.974,2.974,0,0,1,.282.32.661.661,0,0,0,.969.047l3.02-3.02a10.052,10.052,0,0,0,.6.809c.122.141.254.264.376.4.1.113.2.235.311.348a2.328,2.328,0,0,1,.621,1.016,2.273,2.273,0,0,1,.122.706v1.458A1.663,1.663,0,0,0,2422.081,3326.081Zm-2.625,3.453a.655.655,0,0,0-.48-.8,3.452,3.452,0,0,0-.762-.094,3.232,3.232,0,0,0-2.813,1.647.66.66,0,0,0,.245.894.688.688,0,0,0,.329.085.639.639,0,0,0,.565-.339,1.959,1.959,0,0,1,2.126-.913A.658.658,0,0,0,2419.456,3329.534Zm-5.8-5.758a.662.662,0,0,0-.612-.706,1.871,1.871,0,0,0-.235-.01,3.2,3.2,0,0,0-2.9,1.816.651.651,0,0,0,.3.875.63.63,0,0,0,.292.066.648.648,0,0,0,.583-.367,1.931,1.931,0,0,1,1.863-1.073A.655.655,0,0,0,2413.66,3323.775Z" transform="translate(-1837.773 -1846.785)" fill="#50b1c2"/>
    <path id="Trazado_603978" data-name="Trazado 603978" d="M2497.225,3420.514a.658.658,0,0,1-.311,1.28,1.959,1.959,0,0,0-2.126.913.639.639,0,0,1-.565.339.688.688,0,0,1-.329-.085.66.66,0,0,1-.245-.894,3.232,3.232,0,0,1,2.813-1.647A3.452,3.452,0,0,1,2497.225,3420.514Z" transform="translate(-1916.021 -1938.565)"/>
    <path id="Trazado_603980" data-name="Trazado 603980" d="M2426.328,3348.559a.662.662,0,0,1,.612.706.655.655,0,0,1-.706.6,1.931,1.931,0,0,0-1.863,1.073.648.648,0,0,1-.583.367.63.63,0,0,1-.292-.066.651.651,0,0,1-.3-.875,3.2,3.2,0,0,1,2.9-1.816A1.871,1.871,0,0,1,2426.328,3348.559Z" transform="translate(-1851.053 -1872.273)"/>
    <path id="Trazado_603981" data-name="Trazado 603981" d="M2423.438,3104.316a.655.655,0,0,1-.6.706,1.93,1.93,0,0,0-1.759,1.91v.169a.648.648,0,0,1-.6.706h-.047a.649.649,0,0,1-.649-.6,2.693,2.693,0,0,1-.019-.273,3.257,3.257,0,0,1,2.973-3.218A.662.662,0,0,1,2423.438,3104.316Z" transform="translate(-1847.946 -1646.444)"/>
    <path id="Trazado_628799" data-name="Trazado 628799" d="M32,0A32,32,0,1,1,0,32,32,32,0,0,1,32,0Z" transform="translate(979 1438)" fill="#bce6d9"/>
    <path id="Trazado_628800" data-name="Trazado 628800" d="M32,0A32,32,0,1,1,0,32,32,32,0,0,1,32,0Z" transform="translate(979 1734)" fill="#bce6d9"/>
    <path id="Trazado_603982" data-name="Trazado 603982" d="M4720.223,2330.592s15.445.051,15.445,0v-7.041s6.938.715,8.788-1.981a10.5,10.5,0,0,0,2-4.255s-.617-4.381-2.775-5.5a15.61,15.61,0,0,0-5.807-1.115s.887-5.859-1.921-8.223a26.049,26.049,0,0,0-6.816-3.815s-6.319.732-7.759,2.839a52.527,52.527,0,0,0-3.238,6.064s-6.013.946-7.812,4.25-1.336,5.171-1.336,5.171-.309,5.359,8.068,6.32c0,0,3.388-.684,3.159,1.937A35.936,35.936,0,0,0,4720.223,2330.592Z" transform="translate(-3715.608 -554.153)" fill="#a1f1ff"/>
    <path id="Trazado_603983" data-name="Trazado 603983" d="M4732.977,2302.645a7.206,7.206,0,0,1,0,14.413h-3.6v5.629h3.4a2.06,2.06,0,0,1,2.06,2.05v8.284a2.06,2.06,0,0,1-2.06,2.05H4724.5a2.051,2.051,0,0,1-2.05-2.05v-8.284a2.058,2.058,0,0,1,1.837-2.039,1.407,1.407,0,0,1,.212-.011h3.4v-6.373a.739.739,0,0,1,.743-.743h4.333a5.725,5.725,0,1,0-1.774-11.162.742.742,0,0,1-.732-.159.76.76,0,0,1-.212-.722,8.855,8.855,0,0,0,.276-2.2,9.137,9.137,0,0,0-18.257-.552.745.745,0,0,1-.287.542.719.719,0,0,1-.584.138,7.8,7.8,0,0,0-1.285-.117,7.116,7.116,0,1,0,0,14.232h2.953a.737.737,0,0,1,.733.743v6.373h3.452a2.063,2.063,0,0,1,2.007,2.05v8.284a2.06,2.06,0,0,1-2.061,2.05h-8.273a2.051,2.051,0,0,1-2.05-2.05v-8.284a2.051,2.051,0,0,1,2.05-2.05h3.4v-5.629h-2.209a8.6,8.6,0,0,1,0-17.206c.255,0,.5.021.754.042a10.621,10.621,0,0,1,21.146,1.434,10.287,10.287,0,0,1-.1,1.391A6.892,6.892,0,0,1,4732.977,2302.645Zm.372,30.376v-8.284a.578.578,0,0,0-.573-.573H4724.5a.578.578,0,0,0-.573.573v8.284a.578.578,0,0,0,.573.573h8.274A.578.578,0,0,0,4733.349,2333.021Zm-15.57,0v-8.284a.578.578,0,0,0-.574-.573h-8.273a.578.578,0,0,0-.574.573v8.284a.578.578,0,0,0,.574.573h8.273A.578.578,0,0,0,4717.779,2333.021Z" transform="translate(-3708.845 -546.884)"/>
    <path id="Trazado_603984" data-name="Trazado 603984" d="M4966.56,2673.171v8.284a.578.578,0,0,1-.573.574h-8.274a.578.578,0,0,1-.573-.574v-8.284a.578.578,0,0,1,.573-.573h8.274A.578.578,0,0,1,4966.56,2673.171Zm-2.878,4.641a.777.777,0,0,0,.159-.807.755.755,0,0,0-.69-.457h-.765l1.3-1.3a.737.737,0,0,0,0-1.041.75.75,0,0,0-1.052,0l-2.56,2.56a.741.741,0,0,0,.521,1.264h.775l-1.338,1.338a.737.737,0,0,0,0,1.041.719.719,0,0,0,1.041,0Z" transform="translate(-3942.056 -895.318)" fill="#ffeb92"/>
    <path id="Trazado_603985" data-name="Trazado 603985" d="M5019.769,2501.19a.743.743,0,0,1-.436.956l-1.1.414a.731.731,0,0,1-.266.043.742.742,0,0,1-.69-.478.752.752,0,0,1,.436-.956l1.1-.414A.744.744,0,0,1,5019.769,2501.19Z" transform="translate(-3996.879 -738.493)"/>
    <path id="Trazado_603986" data-name="Trazado 603986" d="M4991.679,2691.575a.777.777,0,0,1-.159.807l-2.613,2.6a.719.719,0,0,1-1.041,0,.737.737,0,0,1,0-1.041l1.338-1.338h-.775a.741.741,0,0,1-.521-1.264l2.56-2.56a.75.75,0,0,1,1.052,0,.737.737,0,0,1,0,1.041l-1.3,1.3h.765A.754.754,0,0,1,4991.679,2691.575Z" transform="translate(-3969.895 -909.888)"/>
    <path id="Trazado_603987" data-name="Trazado 603987" d="M4955.083,2525.386a.736.736,0,0,1-.435.945l-.627.244v.669a.743.743,0,0,1-1.487,0v-1.19a.736.736,0,0,1,.478-.69l1.115-.414A.742.742,0,0,1,4955.083,2525.386Z" transform="translate(-3937.854 -760.564)"/>
    <path id="Trazado_603988" data-name="Trazado 603988" d="M4954.021,2609.348v1.179a.743.743,0,1,1-1.487,0v-1.179a.743.743,0,1,1,1.487,0Z" transform="translate(-3937.854 -836.934)"/>
    <path id="Trazado_603989" data-name="Trazado 603989" d="M4915.1,2609.348v1.179a.738.738,0,1,1-1.476,0v-1.179a.738.738,0,1,1,1.476,0Z" transform="translate(-3902.358 -836.934)"/>
    <path id="Trazado_603990" data-name="Trazado 603990" d="M4915.1,2540.981v2a.738.738,0,1,1-1.476,0v-2a.738.738,0,0,1,1.476,0Z" transform="translate(-3902.358 -774.566)"/>
    <path id="Trazado_603991" data-name="Trazado 603991" d="M4915.1,2472.513v2a.738.738,0,1,1-1.476,0v-2a.738.738,0,1,1,1.476,0Z" transform="translate(-3902.358 -712.089)"/>
    <path id="Trazado_603992" data-name="Trazado 603992" d="M4915.1,2413.368v1.179a.738.738,0,1,1-1.476,0v-1.179a.738.738,0,1,1,1.476,0Z" transform="translate(-3902.358 -658.126)"/>
    <path id="Trazado_603993" data-name="Trazado 603993" d="M4876.684,2606.682v1.179a.737.737,0,0,1-.733.744.645.645,0,0,1-.148-.011.751.751,0,0,1-.595-.733v-1.179a.738.738,0,1,1,1.476,0Z" transform="translate(-3867.305 -834.5)"/>
    <path id="Trazado_603994" data-name="Trazado 603994" d="M4876.684,2538.567v1.986a.738.738,0,1,1-1.476,0v-1.986a.738.738,0,1,1,1.476,0Z" transform="translate(-3867.305 -772.354)"/>
    <path id="Trazado_603995" data-name="Trazado 603995" d="M4788.881,2673.171v8.284a.578.578,0,0,1-.574.574h-8.273a.578.578,0,0,1-.574-.574v-8.284a.578.578,0,0,1,.574-.573h8.273A.578.578,0,0,1,4788.881,2673.171Zm-2.889,4.641a.735.735,0,0,0-.521-1.264h-.765l1.285-1.3a.719.719,0,0,0,0-1.041.737.737,0,0,0-1.041,0l-2.56,2.56a.741.741,0,0,0,.521,1.264h.775l-1.338,1.338a.719.719,0,0,0,0,1.041.719.719,0,0,0,1.041,0Z" transform="translate(-3779.947 -895.318)" fill="#ffeb92"/>
    <path id="Trazado_603996" data-name="Trazado 603996" d="M4839.739,2495.579a.75.75,0,0,1,0,1.052.759.759,0,0,1-.521.212.739.739,0,0,1-.521-.212l-.839-.839a.74.74,0,0,1,1.041-1.052Z" transform="translate(-3833.025 -732.851)"/>
    <path id="Trazado_603997" data-name="Trazado 603997" d="M4813.917,2691.575a.758.758,0,0,1-.17.807l-2.6,2.6a.719.719,0,0,1-1.041,0,.719.719,0,0,1,0-1.041l1.338-1.338h-.775a.741.741,0,0,1-.521-1.264l2.56-2.56a.737.737,0,0,1,1.041,0,.719.719,0,0,1,0,1.041l-1.285,1.3h.765A.754.754,0,0,1,4813.917,2691.575Z" transform="translate(-3807.703 -909.888)"/>
    <path id="Trazado_603998" data-name="Trazado 603998" d="M921.948,172.735a10.419,10.419,0,0,1,0,12.98v5.756a2.6,2.6,0,0,1-2.6,2.6h-35.5a2.6,2.6,0,0,1-2.6-2.6V161.454a2.606,2.606,0,0,1,2.6-2.6h35.5a2.606,2.606,0,0,1,2.6,2.6Zm.879,6.5a9.019,9.019,0,0,0-2.318-6.035,5.63,5.63,0,0,0-.41-.44c-.1-.1-.21-.19-.32-.29s-.25-.22-.37-.32-.25-.19-.37-.28l-.39-.27-.39-.24c-.15-.08-.29-.15-.44-.23-.13-.06-.26-.13-.39-.19-.16-.07-.33-.13-.49-.19-.13-.05-.25-.1-.38-.14-.18-.06-.37-.11-.56-.16-.12-.03-.23-.06-.34-.09-.22-.05-.44-.08-.67-.11-.09-.01-.18-.03-.28-.04a7.767,7.767,0,0,0-.969-.06,9.089,9.089,0,0,0-9.073,9.083,9.089,9.089,0,0,0,9.073,9.073c.33,0,.649-.02.969-.05.1-.01.19-.03.28-.04.23-.04.45-.07.67-.12.11-.02.22-.05.34-.08.19-.05.38-.1.56-.16.13-.04.25-.09.38-.14.16-.06.33-.13.49-.2.13-.06.26-.12.39-.19.15-.07.29-.15.44-.23.13-.08.26-.15.39-.24a4.559,4.559,0,0,0,.39-.27c.12-.09.25-.18.37-.27s.25-.21.37-.32.22-.2.32-.3a5.629,5.629,0,0,0,.41-.44A8.974,8.974,0,0,0,922.828,179.231Zm-2.268,12.241v-4.287c-.04.03-.08.05-.12.08a1.153,1.153,0,0,1-.17.14c-.2.16-.4.31-.609.45-.07.05-.15.1-.22.15q-.3.195-.6.36c-.09.06-.19.1-.28.15-.19.1-.39.2-.58.28-.11.05-.22.1-.34.15-.18.07-.37.14-.56.2-.13.04-.25.09-.38.12a5.475,5.475,0,0,1-.58.15l-.38.09c-.22.04-.43.07-.64.1-.12.01-.23.03-.35.04a8.374,8.374,0,0,1-1,.06h-.01a10.472,10.472,0,0,1,0-20.944h.01c.33,0,.67.02,1,.05.12.01.23.03.35.05.21.03.42.05.64.09l.38.09c.2.05.39.1.58.15.13.04.25.08.37.12.2.07.38.13.57.21.12.05.23.09.34.14.19.09.39.18.58.28.09.05.19.1.28.15l.6.36c.07.05.15.1.22.15.21.14.41.3.609.45.05.05.12.09.17.14l.12.09v-9.823a1.2,1.2,0,0,0-1.209-1.2h-35.5a1.2,1.2,0,0,0-1.2,1.2v3.587h25.491l1.609-1.609a.7.7,0,0,1,.49-.2h4.427a.694.694,0,1,1,0,1.389h-4.137l-1.609,1.609a.7.7,0,0,1-.49.2H882.648v25.041a1.2,1.2,0,0,0,1.2,1.209h35.5A1.207,1.207,0,0,0,920.559,191.471Z" transform="translate(109.275 1293.537)"/>
    <path id="Trazado_603999" data-name="Trazado 603999" d="M1181.18,298.86a9,9,0,0,1,0,12.061,5.645,5.645,0,0,1-.41.44c-.1.1-.21.2-.32.3s-.25.22-.37.32-.25.18-.37.27a4.546,4.546,0,0,1-.39.27c-.13.09-.26.16-.39.24-.15.08-.29.16-.44.23-.13.07-.26.13-.39.19-.16.07-.33.14-.49.2-.13.05-.25.1-.38.14-.18.06-.37.11-.56.16-.12.03-.23.06-.34.08-.22.05-.44.08-.67.12-.09.01-.18.03-.28.04-.32.03-.64.05-.969.05a9.078,9.078,0,0,1,0-18.156,7.763,7.763,0,0,1,.969.06c.1.01.19.03.28.04.23.03.45.06.67.11.11.03.22.06.34.09.19.05.38.1.56.16.13.04.25.09.38.14.16.06.33.12.49.19.13.06.26.13.39.19.15.08.29.15.44.23l.39.24.39.27c.12.09.25.18.37.28s.25.21.37.32.22.19.32.29A5.64,5.64,0,0,1,1181.18,298.86Zm-6.065,11.621v-.809a.695.695,0,0,0-1.389,0v.809a.695.695,0,1,0,1.389,0Zm0-3.8V299.2a.695.695,0,1,0-1.389,0v7.484a.695.695,0,0,0,1.389,0Z" transform="translate(-151.396 1167.873)" fill="#fff4d6"/>
    <path id="Trazado_604000" data-name="Trazado 604000" d="M936.128,202.754v4.287a1.207,1.207,0,0,1-1.209,1.209h-35.5a1.2,1.2,0,0,1-1.2-1.209V182H924a.7.7,0,0,0,.49-.2l1.609-1.609h4.137a.694.694,0,1,0,0-1.389h-4.427a.7.7,0,0,0-.49.2l-1.609,1.609H898.217v-3.587a1.2,1.2,0,0,1,1.2-1.2h35.5a1.2,1.2,0,0,1,1.209,1.2v9.823l-.12-.09c-.05-.05-.12-.09-.17-.14-.2-.15-.4-.31-.609-.45-.07-.05-.15-.1-.22-.15l-.6-.36c-.09-.05-.19-.1-.28-.15-.19-.1-.39-.19-.58-.28-.11-.05-.22-.09-.34-.14-.19-.08-.37-.14-.57-.21-.12-.04-.24-.08-.37-.12-.19-.05-.38-.1-.58-.15l-.38-.09c-.22-.04-.43-.06-.64-.09-.12-.02-.23-.04-.35-.05-.33-.03-.669-.05-1-.05h-.01a10.472,10.472,0,0,0,0,20.944h.01a8.374,8.374,0,0,0,1-.06c.12-.01.23-.03.35-.04.21-.03.42-.06.64-.1l.38-.09a5.475,5.475,0,0,0,.58-.15c.13-.03.25-.08.38-.12.19-.06.38-.13.56-.2.12-.05.23-.1.34-.15.19-.08.39-.18.58-.28.09-.05.19-.09.28-.15q.3-.165.6-.36c.07-.05.15-.1.22-.15.21-.14.41-.29.609-.45a1.153,1.153,0,0,0,.17-.14C936.048,202.8,936.088,202.784,936.128,202.754Zm-16.1-24.552a.7.7,0,0,0-.7-.7h-6.025a.7.7,0,0,0,0,1.4h6.025A.7.7,0,0,0,920.031,178.2Zm-1.259,25.89a.693.693,0,0,0-.69-.7h-6.215a.695.695,0,1,0,0,1.389h6.215A.691.691,0,0,0,918.771,204.093Zm-1.879-9.6a.7.7,0,0,0-.69-.7h-13.58v-7.354h12.95a.7.7,0,0,0,0-1.4h-13.65a.7.7,0,0,0-.7.7v8.753a.7.7,0,0,0,.7.7H916.2A.693.693,0,0,0,916.893,194.49Zm-.62,5.216a.693.693,0,0,0-.7-.689h-4.207a.694.694,0,0,0,0,1.389h4.207A.7.7,0,0,0,916.273,199.706Zm-5.866-21.5a.7.7,0,0,0-.7-.7H907.38a.7.7,0,0,0,0,1.4h2.328A.7.7,0,0,0,910.408,178.2Zm-2.1,19.765a.693.693,0,0,0-.69-.7h-4.746a.695.695,0,1,0,0,1.389h4.746A.691.691,0,0,0,908.309,197.967Zm-.709,4.866a.691.691,0,0,0-.69-.689h-2.468a.695.695,0,0,0,0,1.389h2.468A.693.693,0,0,0,907.6,202.834ZM904.742,178.2a.7.7,0,0,0-.7-.7h-2.818a.7.7,0,0,0,0,1.4h2.818A.7.7,0,0,0,904.742,178.2Z" transform="translate(93.706 1277.968)" fill="#a1f1ff"/>
    <path id="Trazado_604001" data-name="Trazado 604001" d="M1268.417,456.243v.809a.694.694,0,1,1-1.389,0v-.809a.694.694,0,0,1,1.389,0Z" transform="translate(-244.697 1021.302)"/>
    <path id="Trazado_604002" data-name="Trazado 604002" d="M1268.417,329.113V336.6a.694.694,0,0,1-1.389,0v-7.484a.694.694,0,1,1,1.389,0Z" transform="translate(-244.697 1137.959)"/>
    <path id="Trazado_604003" data-name="Trazado 604003" d="M1079.47,196.185a.7.7,0,0,1,0,1.4h-6.025a.7.7,0,0,1,0-1.4Z" transform="translate(-66.433 1259.286)"/>
    <path id="Trazado_604004" data-name="Trazado 604004" d="M1062.207,510.214a.695.695,0,0,1,0,1.389h-6.215a.695.695,0,1,1,0-1.389Z" transform="translate(-50.418 971.147)"/>
    <path id="Trazado_604005" data-name="Trazado 604005" d="M949.677,296.323a.7.7,0,0,1,0,1.4H935.4a.7.7,0,0,1-.7-.7v-8.753a.7.7,0,0,1,.7-.7h13.65a.7.7,0,0,1,0,1.4H936.1v7.354Z" transform="translate(60.233 1175.436)"/>
    <path id="Trazado_604006" data-name="Trazado 604006" d="M1054.249,457.129a.695.695,0,1,1,0,1.389h-4.207a.695.695,0,0,1,0-1.389Z" transform="translate(-44.969 1019.855)"/>
    <path id="Trazado_604007" data-name="Trazado 604007" d="M1004.012,196.185a.7.7,0,0,1,0,1.4h-2.328a.7.7,0,0,1,0-1.4Z" transform="translate(-0.597 1259.286)"/>
    <path id="Trazado_604008" data-name="Trazado 604008" d="M951.658,435.919a.695.695,0,0,1,0,1.389h-4.746a.695.695,0,1,1,0-1.389Z" transform="translate(49.668 1039.316)"/>
    <path id="Trazado_604009" data-name="Trazado 604009" d="M968.52,495.064a.695.695,0,0,1,0,1.389h-2.468a.695.695,0,0,1,0-1.389Z" transform="translate(32.098 985.048)"/>
    <path id="Trazado_604010" data-name="Trazado 604010" d="M929.842,196.185a.7.7,0,0,1,0,1.4h-2.818a.7.7,0,0,1,0-1.4Z" transform="translate(67.906 1259.286)"/>
    <g id="Trazado_628912" data-name="Trazado 628912" transform="translate(705 1566)" fill="none">
      <path d="M95.5,0A95.5,95.5,0,1,1,0,95.5,95.5,95.5,0,0,1,95.5,0Z" stroke="none"/>
      <path d="M 95.50000762939453 2.000015258789062 C 89.15483093261719 2.000015258789062 82.81425476074219 2.639129638671875 76.65438079833984 3.899627685546875 C 70.65205383300781 5.127883911132812 64.74800872802734 6.960601806640625 59.106201171875 9.346878051757812 C 53.56637573242188 11.69003295898438 48.22305297851562 14.59030151367188 43.22465515136719 17.9671630859375 C 38.27323913574219 21.312255859375 33.61708068847656 25.15396118164062 29.38552856445312 29.38552856445312 C 25.15396118164062 33.61708068847656 21.312255859375 38.27323913574219 17.9671630859375 43.22465515136719 C 14.59030151367188 48.22305297851562 11.69003295898438 53.56637573242188 9.346878051757812 59.106201171875 C 6.960601806640625 64.74800872802734 5.127883911132812 70.65205383300781 3.899627685546875 76.65438079833984 C 2.639129638671875 82.81425476074219 2.000015258789062 89.15483093261719 2.000015258789062 95.50000762939453 C 2.000015258789062 101.8451614379883 2.639129638671875 108.1857604980469 3.899627685546875 114.3456344604492 C 5.127883911132812 120.3479309082031 6.960601806640625 126.2520065307617 9.346878051757812 131.893798828125 C 11.69003295898438 137.4336242675781 14.59030151367188 142.7769622802734 17.9671630859375 147.7753295898438 C 21.312255859375 152.7267608642578 25.15396118164062 157.3829345703125 29.38552856445312 161.6144866943359 C 33.61708068847656 165.8460540771484 38.27323913574219 169.6877288818359 43.22465515136719 173.0328521728516 C 48.22305297851562 176.4097137451172 53.56637573242188 179.3099822998047 59.106201171875 181.6531372070312 C 64.74800872802734 184.0394134521484 70.65205383300781 185.8721313476562 76.65438079833984 187.1003875732422 C 82.81425476074219 188.3608856201172 89.15483093261719 189 95.50000762939453 189 C 101.8451614379883 189 108.1857604980469 188.3608856201172 114.3456344604492 187.1003875732422 C 120.3479309082031 185.8721313476562 126.2520065307617 184.0394134521484 131.893798828125 181.6531372070312 C 137.4336242675781 179.3099822998047 142.7769622802734 176.4097137451172 147.7753295898438 173.0328521728516 C 152.7267608642578 169.6877288818359 157.3829345703125 165.8460540771484 161.6144866943359 161.6144866943359 C 165.8460540771484 157.3829345703125 169.6877288818359 152.7267608642578 173.0328521728516 147.7753295898438 C 176.4097137451172 142.7769622802734 179.3099822998047 137.4336242675781 181.6531372070312 131.893798828125 C 184.0394134521484 126.2520065307617 185.8721313476562 120.3479309082031 187.1003875732422 114.3456344604492 C 188.3608856201172 108.1857604980469 189 101.8451614379883 189 95.50000762939453 C 189 89.15483093261719 188.3608856201172 82.81425476074219 187.1003875732422 76.65438079833984 C 185.8721313476562 70.65205383300781 184.0394134521484 64.74800872802734 181.6531372070312 59.106201171875 C 179.3099822998047 53.56637573242188 176.4097137451172 48.22305297851562 173.0328521728516 43.22465515136719 C 169.6877288818359 38.27323913574219 165.8460540771484 33.61708068847656 161.6144866943359 29.38552856445312 C 157.3829345703125 25.15396118164062 152.7267608642578 21.312255859375 147.7753295898438 17.9671630859375 C 142.7769622802734 14.59030151367188 137.4336242675781 11.69003295898438 131.893798828125 9.346878051757812 C 126.2520065307617 6.960601806640625 120.3479309082031 5.127883911132812 114.3456344604492 3.899627685546875 C 108.1857604980469 2.639129638671875 101.8451614379883 2.000015258789062 95.50000762939453 2.000015258789062 M 95.50000762939453 1.52587890625e-05 C 148.2431793212891 1.52587890625e-05 191 42.75680541992188 191 95.50000762939453 C 191 148.2431793212891 148.2431793212891 191 95.50000762939453 191 C 42.75680541992188 191 1.52587890625e-05 148.2431793212891 1.52587890625e-05 95.50000762939453 C 1.52587890625e-05 42.75680541992188 42.75680541992188 1.52587890625e-05 95.50000762939453 1.52587890625e-05 Z" stroke="none" fill="#f38e1e"/>
    </g>
    <path id="Trazado_628913" data-name="Trazado 628913" d="M-7675-10053.429h-112.8v-45.889" transform="translate(8381 11706.397)" fill="none" stroke="#f38e1e" stroke-linecap="round" stroke-width="2"/>
    <path id="Trazado_628914" data-name="Trazado 628914" d="M-7675-10125.254h-112.8v49.347" transform="translate(8381 11790.066)" fill="none" stroke="#f38e1e" stroke-width="2"/>
    <path id="Trazado_628915" data-name="Trazado 628915" d="M-7787.8-10099.316H-7675v52.286" transform="translate(8682.797 11761.189)" fill="none" stroke="#f38e1e" stroke-width="2"/>
    <path id="Trazado_628916" data-name="Trazado 628916" d="M-7787.8-10075.906H-7675v-49.347" transform="translate(8682.797 11725.936)" fill="none" stroke="#f38e1e" stroke-width="2"/>
    <path id="Trazado_628962" data-name="Trazado 628962" d="M9.138,1.465a1,1,0,0,1,1.724,0l8.252,14.028A1,1,0,0,1,18.252,17H1.748a1,1,0,0,1-.862-1.507Z" transform="translate(583 1597)" fill="#f38e1e"/>
    <path id="Trazado_628964" data-name="Trazado 628964" d="M9.138,1.465a1,1,0,0,1,1.724,0l8.252,14.028A1,1,0,0,1,18.252,17H1.748a1,1,0,0,1-.862-1.507Z" transform="translate(603 1717) rotate(180)" fill="#f38e1e"/>
    <path id="Trazado_628966" data-name="Trazado 628966" d="M9.138,1.465a1,1,0,0,1,1.724,0l8.252,14.028A1,1,0,0,1,18.252,17H1.748a1,1,0,0,1-.862-1.507Z" transform="translate(998 1597)" fill="#f38e1e"/>
    <path id="Trazado_628967" data-name="Trazado 628967" d="M9.138,1.465a1,1,0,0,1,1.724,0l8.252,14.028A1,1,0,0,1,18.252,17H1.748a1,1,0,0,1-.862-1.507Z" transform="translate(1018 1719) rotate(180)" fill="#f38e1e"/>
    <path id="Trazado_628965" data-name="Trazado 628965" d="M2.969-4.219,2.234,0H.3L2.281-11.375l3.938.008a3.874,3.874,0,0,1,2.8.974A3.032,3.032,0,0,1,9.9-7.816,3.617,3.617,0,0,1,8.547-5.185a4.907,4.907,0,0,1-3.172.974Zm.273-1.594L5.453-5.8a2.67,2.67,0,0,0,1.715-.531,2.2,2.2,0,0,0,.8-1.484,1.759,1.759,0,0,0-.324-1.395,1.7,1.7,0,0,0-1.309-.566L3.93-9.781ZM13.18-7.523a3.124,3.124,0,0,1,2.4-1.078,2.062,2.062,0,0,1,1.785.852A3.381,3.381,0,0,1,17.8-5.437L16.891,0H15.039l.922-5.461a3.191,3.191,0,0,0,.016-.625,1.012,1.012,0,0,0-1.125-.977,2.284,2.284,0,0,0-1.844,1.016L11.953,0H10.1L12.18-12h1.859ZM20.789,0H18.938l1.469-8.453h1.852Zm-.117-10.617a1.044,1.044,0,0,1,.281-.734,1.03,1.03,0,0,1,.758-.32.985.985,0,0,1,.754.277.96.96,0,0,1,.3.715.988.988,0,0,1-.293.734,1.074,1.074,0,0,1-.746.3,1,1,0,0,1-.75-.27A.929.929,0,0,1,20.672-10.617Zm7.242,8.273q.133-.773-1-1.074a12.763,12.763,0,0,1-1.551-.48A2.138,2.138,0,0,1,23.8-5.992,2.378,2.378,0,0,1,24.84-7.879a3.794,3.794,0,0,1,2.387-.73,3.266,3.266,0,0,1,2.191.758,2.417,2.417,0,0,1,.832,1.945l-1.836-.008a1.185,1.185,0,0,0-.32-.918,1.307,1.307,0,0,0-.922-.348,1.817,1.817,0,0,0-1.059.3,1.135,1.135,0,0,0-.512.8q-.109.711,1,.988a10.976,10.976,0,0,1,1.641.512,2.14,2.14,0,0,1,1.492,2.125,2.336,2.336,0,0,1-.527,1.4A3.077,3.077,0,0,1,27.9-.137a4.477,4.477,0,0,1-1.742.293,3.437,3.437,0,0,1-2.293-.8,2.512,2.512,0,0,1-.895-2.023l1.789.008a1.361,1.361,0,0,0,.406,1.031,1.57,1.57,0,0,0,1.07.359,2.126,2.126,0,0,0,1.145-.285A1.094,1.094,0,0,0,27.914-2.344ZM34-7.523A3.124,3.124,0,0,1,36.4-8.6a2.062,2.062,0,0,1,1.785.852,3.381,3.381,0,0,1,.434,2.313L37.711,0H35.859l.922-5.461a3.191,3.191,0,0,0,.016-.625,1.012,1.012,0,0,0-1.125-.977,2.284,2.284,0,0,0-1.844,1.016L32.773,0H30.922L33-12h1.859ZM41.609,0H39.758l1.469-8.453h1.852Zm-.117-10.617a1.044,1.044,0,0,1,.281-.734,1.03,1.03,0,0,1,.758-.32.985.985,0,0,1,.754.277.96.96,0,0,1,.3.715.988.988,0,0,1-.293.734,1.074,1.074,0,0,1-.746.3,1,1,0,0,1-.75-.27A.929.929,0,0,1,41.492-10.617Zm5.367,2.156-.187.992A3.226,3.226,0,0,1,49.18-8.609a2.044,2.044,0,0,1,1.758.848,3.383,3.383,0,0,1,.422,2.3L50.445,0H48.594l.922-5.484a2.806,2.806,0,0,0,.008-.625,1,1,0,0,0-1.109-.953,2.25,2.25,0,0,0-1.852,1.039L45.508,0H43.656l1.461-8.453Zm5.953,4.227A6.538,6.538,0,0,1,53.5-6.523,4.135,4.135,0,0,1,54.844-8.09,3.18,3.18,0,0,1,56.7-8.617a2.494,2.494,0,0,1,2.1,1.023l.289-.867,1.688.008-1.4,8.219A4.061,4.061,0,0,1,57.988,2.4a4.042,4.042,0,0,1-2.824.934,3.945,3.945,0,0,1-1.687-.406A3.508,3.508,0,0,1,52.2,1.9L53.18.781a2.372,2.372,0,0,0,1.938,1.055,2.271,2.271,0,0,0,1.559-.5,2.585,2.585,0,0,0,.871-1.5l.133-.594a2.991,2.991,0,0,1-2.219.914,2.367,2.367,0,0,1-1.9-.9,3.974,3.974,0,0,1-.785-2.375A7.806,7.806,0,0,1,52.813-4.234Zm1.836.164a5.713,5.713,0,0,0-.031.859A2.23,2.23,0,0,0,54.992-1.9a1.258,1.258,0,0,0,1.023.508,2.186,2.186,0,0,0,1.844-.977L58.523-6.1a1.508,1.508,0,0,0-1.445-.961,1.928,1.928,0,0,0-1.578.727,4.071,4.071,0,0,0-.836,2.1Z" transform="translate(562 1829)" fill="#12263f"/>
    <path id="Trazado_628963" data-name="Trazado 628963" d="M-34.035,0H-36V-11.375h1.969Zm4.008-8.453.055.977a3.039,3.039,0,0,1,2.461-1.133q2.641,0,2.688,3.023V0h-1.9V-5.477a1.741,1.741,0,0,0-.348-1.191,1.462,1.462,0,0,0-1.137-.387,1.829,1.829,0,0,0-1.711,1.039V0h-1.9V-8.453Zm10.609,7.094a1.716,1.716,0,0,0,1.18-.414,1.415,1.415,0,0,0,.5-1.023h1.789a2.789,2.789,0,0,1-.492,1.473,3.228,3.228,0,0,1-1.25,1.082,3.725,3.725,0,0,1-1.7.4A3.6,3.6,0,0,1-22.207-.992a4.555,4.555,0,0,1-1.039-3.172v-.2a4.479,4.479,0,0,1,1.031-3.09A3.571,3.571,0,0,1-19.4-8.609a3.473,3.473,0,0,1,2.457.879,3.148,3.148,0,0,1,1,2.309h-1.789a1.738,1.738,0,0,0-.5-1.2,1.6,1.6,0,0,0-1.184-.469,1.671,1.671,0,0,0-1.422.668,3.408,3.408,0,0,0-.508,2.027v.3a3.465,3.465,0,0,0,.5,2.051A1.669,1.669,0,0,0-19.418-1.359ZM-12.5,0h-1.9V-8.453h1.9Zm-2.016-10.648a1.008,1.008,0,0,1,.277-.727,1.048,1.048,0,0,1,.793-.289,1.061,1.061,0,0,1,.8.289,1,1,0,0,1,.281.727.977.977,0,0,1-.281.715,1.069,1.069,0,0,1-.8.285,1.056,1.056,0,0,1-.793-.285A.984.984,0,0,1-14.512-10.648Zm3.727,6.359a5.026,5.026,0,0,1,.906-3.137,2.9,2.9,0,0,1,2.43-1.184,2.759,2.759,0,0,1,2.172.938V-12h1.9V0H-5.1l-.094-.875A2.8,2.8,0,0,1-7.465.156a2.887,2.887,0,0,1-2.4-1.2A5.21,5.21,0,0,1-10.785-4.289Zm1.9.164a3.519,3.519,0,0,0,.5,2.012,1.61,1.61,0,0,0,1.41.723,1.793,1.793,0,0,0,1.7-1.039V-6.039A1.766,1.766,0,0,0-6.965-7.055a1.622,1.622,0,0,0-1.422.73A3.919,3.919,0,0,0-8.887-4.125ZM2.324.156A3.928,3.928,0,0,1-.6-.98,4.124,4.124,0,0,1-1.723-4.008v-.234A5.072,5.072,0,0,1-1.234-6.5,3.716,3.716,0,0,1,.137-8.055a3.625,3.625,0,0,1,1.969-.555,3.318,3.318,0,0,1,2.668,1.1,4.658,4.658,0,0,1,.941,3.117v.766H.191a2.539,2.539,0,0,0,.7,1.656,2.1,2.1,0,0,0,1.543.609A2.571,2.571,0,0,0,4.559-2.414l1.023.977A3.418,3.418,0,0,1,4.227-.262,4.244,4.244,0,0,1,2.324.156ZM2.1-7.086a1.6,1.6,0,0,0-1.262.547A2.835,2.835,0,0,0,.223-5.016H3.84v-.141A2.307,2.307,0,0,0,3.332-6.6,1.586,1.586,0,0,0,2.1-7.086ZM8.949-8.453,9-7.477a3.039,3.039,0,0,1,2.461-1.133q2.641,0,2.688,3.023V0h-1.9V-5.477a1.741,1.741,0,0,0-.348-1.191,1.462,1.462,0,0,0-1.137-.387A1.829,1.829,0,0,0,9.059-6.016V0H7.16V-8.453Zm9.516-2.055v2.055h1.492v1.406H18.465v4.719a1.039,1.039,0,0,0,.191.7.888.888,0,0,0,.684.215A2.924,2.924,0,0,0,20-1.492V-.023a4.676,4.676,0,0,1-1.25.18q-2.188,0-2.187-2.414V-7.047H15.176V-8.453h1.391v-2.055ZM25.129.156A3.928,3.928,0,0,1,22.2-.98a4.124,4.124,0,0,1-1.121-3.027v-.234A5.072,5.072,0,0,1,21.57-6.5a3.716,3.716,0,0,1,1.371-1.551,3.625,3.625,0,0,1,1.969-.555,3.318,3.318,0,0,1,2.668,1.1,4.658,4.658,0,0,1,.941,3.117v.766H23a2.539,2.539,0,0,0,.7,1.656,2.1,2.1,0,0,0,1.543.609,2.571,2.571,0,0,0,2.125-1.055l1.023.977A3.418,3.418,0,0,1,27.031-.262,4.244,4.244,0,0,1,25.129.156ZM24.9-7.086a1.6,1.6,0,0,0-1.262.547,2.835,2.835,0,0,0-.613,1.523h3.617v-.141A2.307,2.307,0,0,0,26.137-6.6,1.586,1.586,0,0,0,24.9-7.086ZM34.73-2.3a.861.861,0,0,0-.418-.773,4.445,4.445,0,0,0-1.387-.469,7.129,7.129,0,0,1-1.617-.516,2.158,2.158,0,0,1-1.422-1.992,2.25,2.25,0,0,1,.922-1.828,3.644,3.644,0,0,1,2.344-.734,3.792,3.792,0,0,1,2.449.75,2.38,2.38,0,0,1,.934,1.945h-1.9a1.17,1.17,0,0,0-.406-.91,1.557,1.557,0,0,0-1.078-.363,1.682,1.682,0,0,0-1.02.289.911.911,0,0,0-.395.773.769.769,0,0,0,.367.68,5.049,5.049,0,0,0,1.484.488,7.027,7.027,0,0,1,1.754.586,2.484,2.484,0,0,1,.945.816A2.082,2.082,0,0,1,36.6-2.4a2.2,2.2,0,0,1-.945,1.848,4.031,4.031,0,0,1-2.477.707,4.371,4.371,0,0,1-1.852-.375A3.047,3.047,0,0,1,30.059-1.25a2.441,2.441,0,0,1-.453-1.414h1.844a1.338,1.338,0,0,0,.508,1.035,1.973,1.973,0,0,0,1.242.363,1.92,1.92,0,0,0,1.141-.285A.883.883,0,0,0,34.73-2.3Zm-41.5,17.469,3.031-8.547h1.961L-6.1,18H-7.945l-.789-8.281L-12.172,18h-1.859L-14.8,6.625h1.867l.375,8.508,3.43-8.508h1.617Zm11.922-2.25H.625l-.609,3.5h5.3L5.039,18H-2.187L-.219,6.625h7.18L6.68,8.219H1.438L.891,11.359H5.43ZM6.664,18,8.641,6.625l3.492.008a4.193,4.193,0,0,1,2.77.8,2.468,2.468,0,0,1,.816,2.2A2.978,2.978,0,0,1,13.7,12.125a1.991,1.991,0,0,1,1.086.914,2.782,2.782,0,0,1,.328,1.586,3.293,3.293,0,0,1-1.254,2.469,4.724,4.724,0,0,1-3.02.906Zm2.82-5.133-.617,3.555,2.023.008a2.5,2.5,0,0,0,1.555-.484,1.926,1.926,0,0,0,.758-1.328,1.631,1.631,0,0,0-.242-1.258,1.46,1.46,0,0,0-1.164-.484Zm.25-1.453,1.773.008a2.515,2.515,0,0,0,1.555-.453,1.787,1.787,0,0,0,.711-1.227q.2-1.461-1.477-1.516l-2.008-.008Z" transform="translate(800 1700)" fill="#060606"/>
  </g>
</svg>
