<svg xmlns="http://www.w3.org/2000/svg" xmlns:xlink="http://www.w3.org/1999/xlink" width="405.119" height="363.832" viewBox="0 0 405.119 363.832">
  <defs>
    <linearGradient id="linear-gradient" x1="1" y1="0.5" x2="0" y2="0.5" gradientUnits="objectBoundingBox">
      <stop offset="0.091" stop-color="#fdf8e6"/>
      <stop offset="0.235" stop-color="#eeeade"/>
      <stop offset="0.694" stop-color="#c5c4c9"/>
      <stop offset="0.93" stop-color="#b6b6c2"/>
    </linearGradient>
    <linearGradient id="linear-gradient-2" x1="7.53" y1="0.5" x2="8.53" y2="0.5" gradientUnits="objectBoundingBox">
      <stop offset="0" stop-color="#ebebeb"/>
      <stop offset="1" stop-color="#d1d0cf"/>
    </linearGradient>
    <linearGradient id="linear-gradient-3" x1="7.725" y1="0.5" x2="8.725" y2="0.5" xlink:href="#linear-gradient-2"/>
    <linearGradient id="linear-gradient-4" x1="5.154" y1="0.5" x2="6.154" y2="0.5" xlink:href="#linear-gradient-2"/>
    <linearGradient id="linear-gradient-5" x1="0.411" y1="1.016" x2="0.547" y2="-0.051" gradientUnits="objectBoundingBox">
      <stop offset="0" stop-color="#c7c7c7"/>
      <stop offset="1" stop-color="#fbfafb"/>
    </linearGradient>
    <linearGradient id="linear-gradient-6" x1="4.364" y1="0.5" x2="5.364" y2="0.5" gradientUnits="objectBoundingBox">
      <stop offset="0" stop-color="#6ecebe"/>
      <stop offset="1" stop-color="#3f5baa"/>
    </linearGradient>
    <linearGradient id="linear-gradient-7" x1="-18.679" y1="0.084" x2="-18.339" y2="0.829" gradientUnits="objectBoundingBox">
      <stop offset="0" stop-color="#f8a16a"/>
      <stop offset="1" stop-color="#ea8b57"/>
    </linearGradient>
    <linearGradient id="linear-gradient-8" x1="-21.504" y1="0.282" x2="-21.504" y2="0.862" gradientUnits="objectBoundingBox">
      <stop offset="0" stop-color="#d1d2d7"/>
      <stop offset="1" stop-color="#b7b6b6"/>
    </linearGradient>
    <linearGradient id="linear-gradient-9" x1="-21.715" y1="0.793" x2="-21.288" y2="0.196" gradientUnits="objectBoundingBox">
      <stop offset="0" stop-color="#d1d2d7"/>
      <stop offset="1" stop-color="#f5f5f6"/>
    </linearGradient>
    <linearGradient id="linear-gradient-10" x1="25.554" y1="20.234" x2="25.554" y2="20.104" gradientUnits="objectBoundingBox">
      <stop offset="0" stop-color="#b8b8b8"/>
      <stop offset="1" stop-color="#fffeff"/>
    </linearGradient>
    <linearGradient id="linear-gradient-11" x1="18.224" y1="14.866" x2="18.224" y2="14.771" xlink:href="#linear-gradient-10"/>
    <linearGradient id="linear-gradient-14" x1="20.285" y1="16.399" x2="20.285" y2="16.294" xlink:href="#linear-gradient-10"/>
    <linearGradient id="linear-gradient-15" x1="-18.679" y1="0.084" x2="-18.339" y2="0.829" gradientUnits="objectBoundingBox">
      <stop offset="0" stop-color="#f38e1e"/>
      <stop offset="1" stop-color="#ea8b57"/>
    </linearGradient>
    <linearGradient id="linear-gradient-16" x1="-18.972" y1="0.5" x2="-19.972" y2="0.5" gradientUnits="objectBoundingBox">
      <stop offset="0" stop-color="#f3c035"/>
      <stop offset="1" stop-color="#ffc969"/>
    </linearGradient>
    <linearGradient id="linear-gradient-17" x1="-35.602" y1="0.5" x2="-36.602" y2="0.5" gradientUnits="objectBoundingBox">
      <stop offset="0" stop-color="#fff3dd"/>
      <stop offset="1" stop-color="#ffcf7b"/>
    </linearGradient>
    <linearGradient id="linear-gradient-18" x1="-53.608" y1="0.5" x2="-54.608" y2="0.5" xlink:href="#linear-gradient-17"/>
  </defs>
  <g id="Grupo_947571" data-name="Grupo 947571" transform="translate(-992 -154.152)">
    <g id="Grupo_947543" data-name="Grupo 947543">
      <g id="Grupo_947542" data-name="Grupo 947542">
        <g id="Grupo_881531" data-name="Grupo 881531" transform="translate(992 191.141)">
          <path id="Trazado_603480" data-name="Trazado 603480" d="M509.322,452.474a3.415,3.415,0,0,0,2.7,3.042l212.312,51.629a2,2,0,0,0,2.577-1.995l-3.056-141.578a3.408,3.408,0,0,0-2.7-3.041L508.621,315.976a2,2,0,0,0-2.577,1.995Z" transform="translate(-397.378 -315.922)" fill="#f1ebeb"/>
          <path id="Trazado_603481" data-name="Trazado 603481" d="M511.956,455.882a3.412,3.412,0,0,0,2.7,3.041l212.531,48.394a2,2,0,0,0,2.577-2l-3.277-138.34a3.408,3.408,0,0,0-2.7-3.042L511.255,319.384a2,2,0,0,0-2.577,2Z" transform="translate(-402.137 -316.864)" fill="#14235c"/>
          <path id="Trazado_603482" data-name="Trazado 603482" d="M832.792,565.751,620.261,517.358a5.833,5.833,0,0,0-5.3,1.023C612.414,520.4,508.931,584.5,508.931,584.5s-4.059,6,2.8,7.716,224.5,56.318,224.5,56.318,5.62,2.823,10.143-1.7,89-74.934,89-74.934S837.9,568.007,832.792,565.751Z" transform="translate(-507.685 -371.531)" fill="#4a63ab" opacity="0.8" style="mix-blend-mode: multiply;isolation: isolate"/>
          <path id="Trazado_603483" data-name="Trazado 603483" d="M832.866,560.547,620.335,512.153a5.835,5.835,0,0,0-5.3,1.024C612.488,515.192,509,579.291,509,579.291s-4.059,6,2.8,7.716,224.5,56.317,224.5,56.317,5.621,2.824,10.144-1.7,88.995-74.934,88.995-74.934S837.972,562.8,832.866,560.547Z" transform="translate(-507.812 -370.093)" fill="#f1ebeb"/>
          <path id="Trazado_603484" data-name="Trazado 603484" d="M793.029,617.687l-49.184-12.974a1.335,1.335,0,0,0-1.216.236c-.586.462-22.919,17.589-22.919,17.589s-.932,1.378.643,1.771,50.937,12.933,50.937,12.933a2.076,2.076,0,0,0,2.329-.391c1.038-1.04,20-17.753,20-17.753S794.2,618.206,793.029,617.687Z" transform="translate(-618.638 -395.729)" fill="#d7e1e5"/>
          <path id="Trazado_603485" data-name="Trazado 603485" d="M509.365,597.857a6.99,6.99,0,0,0,2.452,1.065c6.858,1.715,224.5,56.317,224.5,56.317s5.621,2.823,10.144-1.7c4.162-4.163,76.318-63.756,87.5-73.612a3.9,3.9,0,0,1,1.5,5.564s-84.471,70.41-88.995,74.934-10.144,1.7-10.144,1.7-217.642-54.6-224.5-56.317-2.8-7.716-2.8-7.716Z" transform="translate(-507.824 -388.893)" fill="#b5bfc2"/>
          <path id="Trazado_603486" data-name="Trazado 603486" d="M722.106,374.045l-130.96-27.668L520.08,331.363l3.2,116.829,201.386,45.784Z" transform="translate(-405.287 -320.19)" fill="#6aceae"/>
          <g id="Grupo_881529" data-name="Grupo 881529" transform="translate(58.154 149.102)">
            <path id="Trazado_603487" data-name="Trazado 603487" d="M695.409,591.311c.179.478.586.5.924.577q6.693,1.643,13.392,3.273,20.878,5.1,41.752,10.214c2.95.721,5.9,1.436,8.848,2.171a2.983,2.983,0,0,0,2.635-.507c2.457-1.784,4.938-3.535,7.409-5.3a3.114,3.114,0,0,0,.386-.288c.271-.266.242-.5-.1-.656a3.7,3.7,0,0,0-.669-.191q-10.525-2.55-21.047-5.1-18.015-4.366-36.031-8.737c-2.221-.539-4.451-1.051-6.664-1.608a2.81,2.81,0,0,0-2.354.414q-3.94,2.6-7.879,5.2A5.309,5.309,0,0,0,695.409,591.311Z" transform="translate(-636.579 -539.415)" fill="#14235c" fill-rule="evenodd"/>
            <path id="Trazado_603488" data-name="Trazado 603488" d="M839.565,569.112a6.2,6.2,0,0,0,1.292-.474c2.691-1.683,5.356-3.4,8.03-5.114a2.02,2.02,0,0,0,.322-.24c.247-.249.234-.46-.074-.607a3.876,3.876,0,0,0-.736-.223q-14.122-3.376-28.244-6.758a3.567,3.567,0,0,0-2.949.477c-2.563,1.631-5.168,3.2-7.754,4.791a2.017,2.017,0,0,0-.394.276c-.2.211-.209.432.075.546a5.383,5.383,0,0,0,.815.245q8.665,2.095,17.336,4.186,5.564,1.346,11.13,2.686C838.739,568.981,839.078,569.024,839.565,569.112Z" transform="translate(-797.153 -531.263)" fill="#14235c" fill-rule="evenodd"/>
            <path id="Trazado_603489" data-name="Trazado 603489" d="M609.557,624.055a2.922,2.922,0,0,0,1.594-.556q3.544-2.783,7.109-5.535c.231-.181.581-.365.449-.656a1.027,1.027,0,0,0-.653-.436c-1.81-.459-3.628-.891-5.447-1.326q-8.9-2.125-17.806-4.247c-.48-.114-.959-.234-1.439-.347a2.946,2.946,0,0,0-2.627.543c-2.3,1.768-4.632,3.489-6.946,5.237-.263.2-.721.378-.563.752.091.213.465.356.747.425q12.376,3.012,24.762,6C609.015,623.97,609.3,624.007,609.557,624.055Z" transform="translate(-403.182 -546.543)" fill="#14235c" fill-rule="evenodd"/>
            <path id="Trazado_603490" data-name="Trazado 603490" d="M682.071,620.952a2.74,2.74,0,0,0,1.721-.571c2.433-1.812,4.885-3.6,7.318-5.412.242-.18.554-.452.572-.685.033-.406-.437-.407-.755-.483q-7.827-1.9-15.657-3.8c-2.85-.69-5.7-1.368-8.55-2.066a2.836,2.836,0,0,0-2.486.482c-2.459,1.775-4.939,3.527-7.4,5.3-.239.174-.556.459-.562.683-.009.372.439.4.766.484q12.131,2.973,24.26,5.946C681.549,620.9,681.814,620.913,682.071,620.952Z" transform="translate(-529.004 -545.71)" fill="#14235c" fill-rule="evenodd"/>
            <path id="Trazado_603491" data-name="Trazado 603491" d="M593.1,613.4a2.676,2.676,0,0,0,1.762-.561q3.454-2.7,6.921-5.38c.224-.174.584-.363.435-.661a1.045,1.045,0,0,0-.653-.424c-2.369-.582-4.746-1.138-7.12-1.7-5-1.185-10.008-2.352-15-3.558a3.154,3.154,0,0,0-2.9.638c-2.159,1.681-4.367,3.3-6.545,4.96-.26.2-.624.484-.639.729-.028.43.494.43.828.51q9.085,2.181,18.178,4.342,2.121.5,4.245,1.005C592.812,613.347,593.016,613.383,593.1,613.4Z" transform="translate(-376.685 -543.822)" fill="#14235c" fill-rule="evenodd"/>
            <path id="Trazado_603492" data-name="Trazado 603492" d="M575.422,603.079a2.526,2.526,0,0,0,1.64-.571q3.39-2.65,6.79-5.287a2.891,2.891,0,0,0,.355-.32.3.3,0,0,0-.068-.514,2.447,2.447,0,0,0-.64-.248q-9.1-2.133-18.206-4.253a2.66,2.66,0,0,0-2.328.522c-2.213,1.7-4.446,3.374-6.665,5.066-.264.2-.682.36-.593.75.083.367.507.38.826.457q9.058,2.139,18.118,4.266C574.9,603.006,575.166,603.035,575.422,603.079Z" transform="translate(-348.866 -541.28)" fill="#14235c" fill-rule="evenodd"/>
            <path id="Trazado_603493" data-name="Trazado 603493" d="M805.6,549.266a5.709,5.709,0,0,0,.731.31c1.863.457,3.729.914,5.6,1.345a2.759,2.759,0,0,0,2.14-.413c3.143-1.968,6.3-3.918,9.444-5.892a1.435,1.435,0,0,1,1.326-.26c.512.171,1.058.258,1.586.39a3.165,3.165,0,0,0,2.593-.418c2.451-1.559,4.924-3.085,7.38-4.633a10.407,10.407,0,0,0,.838-.659,4.8,4.8,0,0,0-.786-.353q-4.471-1.069-8.948-2.108a2.963,2.963,0,0,0-2.3.4c-2.6,1.623-5.214,3.228-7.822,4.841q-3.945,2.437-7.892,4.878c-1.075.664-2.157,1.318-3.227,1.989A6.2,6.2,0,0,0,805.6,549.266Z" transform="translate(-782.61 -525.991)" fill="#14235c" fill-rule="evenodd"/>
            <path id="Trazado_603494" data-name="Trazado 603494" d="M808.3,531.5a6.957,6.957,0,0,0-.758-.27q-5.919-1.375-11.844-2.741c-1.417-.326-2.839-.64-4.252-.984a2.994,2.994,0,0,0-2.438.37c-2.507,1.572-5.031,3.112-7.545,4.674a7.409,7.409,0,0,0-.658.539,7.584,7.584,0,0,0,.941.368c2.5.6,5.005,1.176,7.51,1.759,2.8.654,5.625,1.276,8.415,1.973a3.411,3.411,0,0,0,2.873-.466c2.328-1.5,4.685-2.959,7.026-4.441.261-.166.5-.375.747-.564C808.312,531.649,808.307,531.575,808.3,531.5Z" transform="translate(-735.753 -523.477)" fill="#14235c" fill-rule="evenodd"/>
            <path id="Trazado_603495" data-name="Trazado 603495" d="M789.189,585.284c.182.5.558.509.875.588q4.269,1.049,8.541,2.093c1.737.425,3.481.835,5.216,1.276a2.9,2.9,0,0,0,2.431-.419q3.938-2.6,7.878-5.195a2.162,2.162,0,0,0,.265-.18c.407-.332.384-.62-.1-.768-.643-.194-1.305-.333-1.961-.491-4.035-.978-8.073-1.943-12.1-2.936a3.09,3.09,0,0,0-2.575.459c-2.564,1.677-5.144,3.331-7.714,5C789.676,584.884,789.441,585.091,789.189,585.284Z" transform="translate(-748.179 -537.781)" fill="#14235c" fill-rule="evenodd"/>
            <path id="Trazado_603496" data-name="Trazado 603496" d="M609.249,636.653a2.621,2.621,0,0,0,1.639-.583q3.608-2.825,7.229-5.635a2.372,2.372,0,0,0,.311-.252c.272-.295.235-.576-.129-.727a6.971,6.971,0,0,0-.97-.276c-3.177-.766-6.357-1.524-9.531-2.3a2.985,2.985,0,0,0-2.753.6c-2.274,1.792-4.6,3.525-6.888,5.3-.259.2-.606.5-.619.744-.023.415.467.436.816.523q5.061,1.244,10.122,2.484C608.729,636.591,608.991,636.613,609.249,636.653Z" transform="translate(-413.43 -550.943)" fill="#14235c" fill-rule="evenodd"/>
            <path id="Trazado_603497" data-name="Trazado 603497" d="M628.873,631.815a2.731,2.731,0,0,0,1.793-.625q3.542-2.72,7.1-5.418a.934.934,0,0,0,.184-.154c.153-.2.407-.4.42-.606.022-.326-.341-.381-.615-.447q-5.217-1.26-10.439-2.515a2.359,2.359,0,0,0-2.037.437q-3.767,2.821-7.525,5.656c-.64.484-.593.826.164,1.023,1.753.459,3.519.883,5.281,1.316q2.378.583,4.762,1.153C628.259,631.708,628.568,631.756,628.873,631.815Z" transform="translate(-447.493 -549.619)" fill="#14235c" fill-rule="evenodd"/>
            <path id="Trazado_603498" data-name="Trazado 603498" d="M636.89,623.985a4.559,4.559,0,0,0,.849.44q5.171,1.286,10.352,2.542a2.461,2.461,0,0,0,2.115-.464c2.512-1.885,5.028-3.764,7.528-5.66.185-.138.4-.446.36-.6s-.353-.325-.581-.381c-2.289-.573-4.584-1.127-6.879-1.681-1.134-.275-2.273-.54-3.407-.816a2.508,2.508,0,0,0-2.18.47q-3.721,2.758-7.444,5.509C637.394,623.494,637.217,623.687,636.89,623.985Z" transform="translate(-481.396 -548.321)" fill="#14235c" fill-rule="evenodd"/>
            <path id="Trazado_603499" data-name="Trazado 603499" d="M643.731,609.271a.942.942,0,0,0-.808-.595Q637.96,607.5,633,606.312a2.733,2.733,0,0,0-2.407.491c-2.388,1.778-4.794,3.538-7.181,5.32-.221.164-.505.419-.523.635-.027.364.4.4.689.465q5.03,1.229,10.066,2.437a2.719,2.719,0,0,0,2.405-.512c2.348-1.787,4.716-3.549,7.07-5.323A8.051,8.051,0,0,0,643.731,609.271Z" transform="translate(-456.899 -545.263)" fill="#14235c" fill-rule="evenodd"/>
            <path id="Trazado_603500" data-name="Trazado 603500" d="M651.818,601.646a2.669,2.669,0,0,0-1.726.561q-3.642,2.662-7.3,5.308c-.065.048-.133.093-.193.144-.475.407-.451.7.127.862.821.235,1.661.418,2.495.619,2.524.609,5.054,1.2,7.573,1.828a2.984,2.984,0,0,0,2.7-.562c2.292-1.728,4.619-3.414,6.925-5.129.264-.2.688-.348.609-.747-.075-.377-.494-.4-.811-.474q-4.808-1.16-9.622-2.3A7.364,7.364,0,0,0,651.818,601.646Z" transform="translate(-490.221 -543.998)" fill="#14235c" fill-rule="evenodd"/>
            <path id="Trazado_603501" data-name="Trazado 603501" d="M672.539,606.5a2.9,2.9,0,0,0,1.724-.577c2.209-1.616,4.428-3.215,6.643-4.823.327-.234.665-.457.968-.718.33-.285.3-.511-.077-.706a1.954,1.954,0,0,0-.438-.145c-3.228-.774-6.458-1.541-9.683-2.324a2.932,2.932,0,0,0-2.554.527c-2.391,1.729-4.8,3.436-7.2,5.153-.109.08-.223.152-.322.241-.384.349-.358.63.124.782.589.184,1.2.315,1.807.461q4.087.99,8.172,1.969C672,606.409,672.315,606.454,672.539,606.5Z" transform="translate(-523.085 -542.745)" fill="#14235c" fill-rule="evenodd"/>
            <path id="Trazado_603502" data-name="Trazado 603502" d="M615.087,596.449a2.573,2.573,0,0,0-1.671.478q-3.62,2.691-7.251,5.372a2.585,2.585,0,0,0-.31.255.341.341,0,0,0,.046.581,1.616,1.616,0,0,0,.5.185q5.074,1.218,10.154,2.427a2.512,2.512,0,0,0,2.185-.483q3.534-2.672,7.078-5.333a2.973,2.973,0,0,0,.308-.257c.251-.247.21-.47-.076-.611a3.442,3.442,0,0,0-.729-.247q-4.813-1.133-9.635-2.258C615.439,596.5,615.181,596.466,615.087,596.449Z" transform="translate(-427.034 -542.562)" fill="#14235c" fill-rule="evenodd"/>
            <path id="Trazado_603503" data-name="Trazado 603503" d="M691.66,601.973a5.464,5.464,0,0,0,1.28-.509c2.6-1.814,5.169-3.661,7.743-5.51.154-.111.368-.394.325-.465a.991.991,0,0,0-.54-.438c-1.406-.362-2.822-.685-4.236-1.023-1.866-.444-3.737-.882-5.6-1.334a2.816,2.816,0,0,0-2.41.493c-2.433,1.723-4.879,3.426-7.309,5.152-.241.172-.548.45-.562.682-.024.347.412.364.707.436q1.74.427,3.482.842,3.1.752,6.206,1.494C690.994,601.853,691.251,601.894,691.66,601.973Z" transform="translate(-555.756 -541.5)" fill="#14235c" fill-rule="evenodd"/>
            <path id="Trazado_603504" data-name="Trazado 603504" d="M636.174,601.247a2.69,2.69,0,0,0,1.648-.556q3.483-2.6,6.988-5.184a.786.786,0,0,0,.128-.1c.16-.195.316-.391.473-.588a2.568,2.568,0,0,0-.659-.427c-.875-.241-1.764-.435-2.649-.644-2.375-.562-4.753-1.114-7.127-1.685a2.89,2.89,0,0,0-2.556.515c-2.307,1.711-4.645,3.385-6.957,5.092-.24.174-.546.454-.557.682-.016.347.428.359.721.429q4.923,1.19,9.849,2.362C635.7,601.2,635.942,601.215,636.174,601.247Z" transform="translate(-460.038 -541.323)" fill="#14235c" fill-rule="evenodd"/>
            <path id="Trazado_603505" data-name="Trazado 603505" d="M710.415,597.4a4.964,4.964,0,0,0,1.255-.472c2.614-1.794,5.2-3.624,7.788-5.454.174-.125.394-.387.365-.53-.033-.162-.3-.325-.5-.376-1.331-.34-2.673-.648-4.01-.968-1.945-.464-3.889-.923-5.831-1.4a2.7,2.7,0,0,0-2.27.45q-3.71,2.57-7.421,5.136c-.271.188-.752.358-.6.722.092.224.51.361.817.439q4.683,1.155,9.382,2.281C709.661,597.3,709.95,597.329,710.415,597.4Z" transform="translate(-588.179 -540.262)" fill="#14235c" fill-rule="evenodd"/>
            <path id="Trazado_603506" data-name="Trazado 603506" d="M606.707,590.332a.981.981,0,0,0-.862-.61q-4.928-1.153-9.86-2.291a2.6,2.6,0,0,0-2.26.481q-3.477,2.6-6.965,5.2a2.768,2.768,0,0,0-.311.25.324.324,0,0,0,.053.57,1.615,1.615,0,0,0,.5.182c3.357.8,6.711,1.6,10.072,2.389a2.581,2.581,0,0,0,2.258-.5c2.258-1.727,4.528-3.436,6.792-5.156C606.327,590.686,606.511,590.5,606.707,590.332Z" transform="translate(-393.4 -540.048)" fill="#14235c" fill-rule="evenodd"/>
            <path id="Trazado_603507" data-name="Trazado 603507" d="M643.918,593.837a4.667,4.667,0,0,0,.81.4q5.025,1.222,10.064,2.409a2.484,2.484,0,0,0,2.113-.459q3.606-2.64,7.223-5.26a2.775,2.775,0,0,0,.258-.192c.319-.3.306-.538-.056-.715a3.122,3.122,0,0,0-.59-.183c-3.181-.748-6.366-1.486-9.544-2.245a2.777,2.777,0,0,0-2.41.477c-2.394,1.729-4.8,3.436-7.2,5.159A8.61,8.61,0,0,0,643.918,593.837Z" transform="translate(-492.995 -540.089)" fill="#14235c" fill-rule="evenodd"/>
            <path id="Trazado_603508" data-name="Trazado 603508" d="M729.046,592.918a5.832,5.832,0,0,0,1.267-.5c2.6-1.758,5.186-3.55,7.764-5.347.193-.134.441-.441.4-.581-.054-.176-.356-.326-.585-.383-2.544-.625-5.092-1.23-7.64-1.842-.606-.144-1.208-.3-1.814-.438a3.07,3.07,0,0,0-2.577.476c-2.451,1.7-4.923,3.362-7.389,5.041a1.056,1.056,0,0,0-.2.14c-.151.171-.287.352-.431.529a2.012,2.012,0,0,0,.588.4c2.239.562,4.485,1.1,6.728,1.642q1.439.351,2.879.691C728.313,592.8,728.6,592.839,729.046,592.918Z" transform="translate(-620.355 -539.045)" fill="#14235c" fill-rule="evenodd"/>
            <path id="Trazado_603509" data-name="Trazado 603509" d="M616.716,592.092a2.741,2.741,0,0,0,1.588-.529q3.487-2.6,6.984-5.191a2.337,2.337,0,0,0,.25-.2c.335-.323.3-.575-.124-.75a4.126,4.126,0,0,0-.671-.187c-3.112-.728-6.229-1.445-9.338-2.185a2.97,2.97,0,0,0-2.625.553c-2.238,1.673-4.507,3.3-6.759,4.958-.248.182-.661.35-.522.692.08.2.42.335.675.4q5,1.206,10.009,2.378A4.171,4.171,0,0,0,616.716,592.092Z" transform="translate(-426.328 -538.831)" fill="#14235c" fill-rule="evenodd"/>
            <path id="Trazado_603510" data-name="Trazado 603510" d="M683.228,586.016c-.155-.533-.57-.544-.9-.625-2.47-.595-4.949-1.171-7.425-1.753-.732-.173-1.468-.335-2.2-.512a2.524,2.524,0,0,0-2.122.414q-3.76,2.639-7.5,5.3c-.172.124-.4.445-.356.525a1.027,1.027,0,0,0,.589.39c3,.729,6.009,1.424,9,2.17,1.984.49,2.237.4,3.954-.851,2.085-1.514,4.189-3,6.282-4.507C682.781,586.394,683,586.2,683.228,586.016Z" transform="translate(-525.21 -538.858)" fill="#14235c" fill-rule="evenodd"/>
            <path id="Trazado_603511" data-name="Trazado 603511" d="M553.953,593.486a2.38,2.38,0,0,0,1.569-.523q3.357-2.622,6.726-5.23a2.108,2.108,0,0,0,.3-.263.332.332,0,0,0-.085-.569,1.95,1.95,0,0,0-.507-.177q-4.969-1.154-9.94-2.3a2.751,2.751,0,0,0-2.465.556c-2.13,1.669-4.3,3.3-6.444,4.947-.24.186-.668.365-.514.7.1.211.458.357.737.425,3.33.8,6.667,1.572,10,2.351C553.534,593.446,553.747,593.458,553.953,593.486Z" transform="translate(-317.715 -539.214)" fill="#14235c" fill-rule="evenodd"/>
            <path id="Trazado_603512" data-name="Trazado 603512" d="M756.9,582.064a6.009,6.009,0,0,0-.923-.418q-4.725-1.154-9.468-2.273a2.794,2.794,0,0,0-2.284.449c-2.517,1.7-5.045,3.389-7.567,5.085-.09.06-.18.119-.264.186-.511.4-.5.661.1.82,1.1.3,2.216.554,3.329.824,2.094.507,4.2.993,6.286,1.522a3.039,3.039,0,0,0,2.638-.5c2.431-1.683,4.887-3.332,7.329-5C756.324,582.584,756.541,582.366,756.9,582.064Z" transform="translate(-651.926 -537.821)" fill="#14235c" fill-rule="evenodd"/>
            <path id="Trazado_603513" data-name="Trazado 603513" d="M624.389,584.779a4.19,4.19,0,0,0,.795.4q5.032,1.21,10.076,2.389a2.485,2.485,0,0,0,2.109-.5q2.106-1.549,4.224-3.085,1.236-.9,2.472-1.805a5.745,5.745,0,0,0,.629-.5c.252-.246.226-.45-.072-.608a2.37,2.37,0,0,0-.584-.19q-4.775-1.127-9.554-2.239a2.888,2.888,0,0,0-2.486.529c-2.271,1.672-4.571,3.3-6.855,4.953C624.913,584.29,624.713,584.5,624.389,584.779Z" transform="translate(-459.115 -537.617)" fill="#14235c" fill-rule="evenodd"/>
            <path id="Trazado_603514" data-name="Trazado 603514" d="M573.02,589a2.49,2.49,0,0,0,1.655-.5c2.25-1.734,4.516-3.452,6.766-5.187.191-.148.439-.426.407-.583-.035-.174-.339-.342-.565-.4-1.588-.387-3.185-.747-4.779-1.112-1.747-.4-3.5-.792-5.24-1.2a2.619,2.619,0,0,0-2.321.509c-2.157,1.641-4.333,3.257-6.489,4.9-.257.2-.6.495-.617.74-.017.376.473.385.788.461q4.89,1.142,9.788,2.265C572.665,588.948,572.922,588.981,573.02,589Z" transform="translate(-350.839 -537.998)" fill="#14235c" fill-rule="evenodd"/>
            <path id="Trazado_603515" data-name="Trazado 603515" d="M681.53,584.928a4.721,4.721,0,0,0,.782.389q4.992,1.2,10,2.386a2.391,2.391,0,0,0,1.97-.419q3.763-2.637,7.509-5.292c.175-.124.427-.432.381-.51a.952.952,0,0,0-.568-.412c-1.18-.305-2.371-.57-3.558-.851-1.97-.465-3.946-.913-5.909-1.4a3.106,3.106,0,0,0-2.711.507c-2.387,1.692-4.8,3.347-7.206,5.021C682.024,584.483,681.857,584.648,681.53,584.928Z" transform="translate(-557.771 -537.659)" fill="#14235c" fill-rule="evenodd"/>
            <path id="Trazado_603516" data-name="Trazado 603516" d="M813.672,580.85c.127.541.555.535.886.62,2.337.584,4.683,1.153,7.028,1.724.7.174,1.415.334,2.118.509a2.813,2.813,0,0,0,2.287-.41q3.964-2.559,7.93-5.115c.261-.168.659-.3.609-.66s-.444-.352-.738-.423c-3.03-.732-6.059-1.449-9.081-2.2a3.026,3.026,0,0,0-2.5.44c-2.625,1.687-5.26,3.356-7.89,5.034C814.1,580.51,813.9,580.683,813.672,580.85Z" transform="translate(-785.751 -536.577)" fill="#14235c" fill-rule="evenodd"/>
            <path id="Trazado_603517" data-name="Trazado 603517" d="M775.2,577.7a4.442,4.442,0,0,0-.825-.405q-4.691-1.145-9.394-2.253a2.981,2.981,0,0,0-2.433.47c-2.5,1.681-5.026,3.325-7.532,5-.247.166-.582.429-.6.653-.033.359.422.362.708.433,3.08.748,6.164,1.481,9.242,2.235a3.106,3.106,0,0,0,2.642-.5c2.444-1.669,4.915-3.3,7.366-4.954C774.625,578.209,774.849,577.99,775.2,577.7Z" transform="translate(-683.532 -536.623)" fill="#14235c" fill-rule="evenodd"/>
            <path id="Trazado_603518" data-name="Trazado 603518" d="M663.408,576.941a7.233,7.233,0,0,0-.987-.427q-4.733-1.118-9.479-2.216a2.978,2.978,0,0,0-2.559.539c-2.26,1.637-4.552,3.236-6.826,4.856a8.75,8.75,0,0,0-.679.583c.179.521.623.509.987.6,2.827.675,5.666,1.31,8.484,2.011,2.4.6,2.545.3,4.107-.827q3.005-2.162,6.011-4.329C662.74,577.531,662.986,577.3,663.408,576.941Z" transform="translate(-491.038 -536.415)" fill="#14235c" fill-rule="evenodd"/>
            <path id="Trazado_603519" data-name="Trazado 603519" d="M592.1,584.579a2.519,2.519,0,0,0,1.565-.551c2.181-1.652,4.38-3.284,6.562-4.939.262-.2.7-.341.651-.728-.058-.439-.535-.4-.872-.475q-4.818-1.129-9.641-2.239a2.664,2.664,0,0,0-2.327.509c-2.213,1.657-4.446,3.288-6.663,4.943-.221.164-.512.413-.531.625-.031.372.408.39.7.457q4.926,1.166,9.86,2.308A6.9,6.9,0,0,0,592.1,584.579Z" transform="translate(-383.616 -536.79)" fill="#14235c" fill-rule="evenodd"/>
            <path id="Trazado_603520" data-name="Trazado 603520" d="M700.1,580.535a4.575,4.575,0,0,0,.747.357q4.955,1.206,9.918,2.386a2.357,2.357,0,0,0,1.909-.388q3.82-2.63,7.62-5.282c.18-.124.435-.435.391-.511a.986.986,0,0,0-.571-.408c-1.533-.389-3.075-.749-4.615-1.114-1.59-.379-3.193-.729-4.774-1.134a3.036,3.036,0,0,0-2.643.478c-2.431,1.685-4.877,3.346-7.312,5.022A7.448,7.448,0,0,0,700.1,580.535Z" transform="translate(-589.719 -536.448)" fill="#14235c" fill-rule="evenodd"/>
            <path id="Trazado_603521" data-name="Trazado 603521" d="M783.748,579.611a6,6,0,0,0,1.342-.5c2.64-1.7,5.254-3.447,7.878-5.18a2.016,2.016,0,0,0,.322-.24c.247-.242.228-.446-.069-.6a2.071,2.071,0,0,0-.512-.166c-3.026-.726-6.057-1.436-9.078-2.179a3.081,3.081,0,0,0-2.569.464c-2.51,1.658-5.043,3.282-7.559,4.935-.251.164-.606.427-.616.64-.021.4.457.376.77.451q4.572,1.119,9.148,2.225C783.058,579.511,783.32,579.539,783.748,579.611Z" transform="translate(-715.165 -535.427)" fill="#14235c" fill-rule="evenodd"/>
            <path id="Trazado_603522" data-name="Trazado 603522" d="M738.844,572.722a5.56,5.56,0,0,0-.878-.407q-4.736-1.133-9.478-2.244a2.7,2.7,0,0,0-2.213.4q-3.779,2.545-7.559,5.1a2.281,2.281,0,0,0-.381.294c-.222.224-.164.42.085.55a1.853,1.853,0,0,0,.437.149q4.775,1.141,9.552,2.274a2.743,2.743,0,0,0,2.28-.432c2.46-1.69,4.931-3.364,7.4-5.049C738.3,573.2,738.488,573.017,738.844,572.722Z" transform="translate(-620.973 -535.248)" fill="#14235c" fill-rule="evenodd"/>
            <path id="Trazado_603523" data-name="Trazado 603523" d="M619.688,574.182a1.137,1.137,0,0,0-1.016-.661q-4.363-1.019-8.734-2.014c-2.069-.475-2.083-.462-3.871.849-1.906,1.4-3.823,2.782-5.735,4.172a1.87,1.87,0,0,0-.258.188c-.192.2-.508.421-.523.63-.026.367.391.379.692.45q4.818,1.127,9.634,2.258a2.878,2.878,0,0,0,2.551-.538c2.16-1.638,4.356-3.233,6.538-4.843C619.2,574.5,619.447,574.344,619.688,574.182Z" transform="translate(-415.966 -535.589)" fill="#14235c" fill-rule="evenodd"/>
            <path id="Trazado_603524" data-name="Trazado 603524" d="M661.852,576.05a6.043,6.043,0,0,0,.843.374c3.231.77,6.464,1.541,9.7,2.29a2.677,2.677,0,0,0,2.272-.452c2.379-1.706,4.774-3.386,7.163-5.076.214-.153.551-.3.428-.578a.93.93,0,0,0-.582-.4c-1.762-.434-3.535-.839-5.3-1.25-1.417-.33-2.839-.64-4.25-.986a2.806,2.806,0,0,0-2.415.467c-2.35,1.651-4.715,3.285-7.068,4.935C662.406,575.536,662.207,575.742,661.852,576.05Z" transform="translate(-523.644 -535.218)" fill="#14235c" fill-rule="evenodd"/>
            <path id="Trazado_603525" data-name="Trazado 603525" d="M791,572.49a8.27,8.27,0,0,0,.931.376c3,.732,6.009,1.436,9,2.185a3.29,3.29,0,0,0,2.792-.512c2.466-1.635,4.957-3.229,7.432-4.847.26-.167.661-.287.62-.649-.041-.4-.474-.389-.791-.466q-4.54-1.094-9.083-2.178a2.777,2.777,0,0,0-2.222.365q-4.007,2.561-8.007,5.146A7.516,7.516,0,0,0,791,572.49Z" transform="translate(-746.594 -534.232)" fill="#14235c" fill-rule="evenodd"/>
            <path id="Trazado_603526" data-name="Trazado 603526" d="M629.752,575.863a5.363,5.363,0,0,0,1.266-.513c2.409-1.706,4.792-3.451,7.174-5.194.155-.114.368-.379.328-.467a.813.813,0,0,0-.5-.383c-1.106-.278-2.223-.525-3.337-.78-2.177-.5-4.358-.983-6.529-1.5a2.608,2.608,0,0,0-2.257.467q-3.465,2.492-6.94,4.972a2.76,2.76,0,0,0-.318.245c-.224.214-.2.423.044.562a2.268,2.268,0,0,0,.58.2q4.853,1.131,9.709,2.254C629.178,575.772,629.385,575.8,629.752,575.863Z" transform="translate(-448.507 -534.407)" fill="#14235c" fill-rule="evenodd"/>
            <path id="Trazado_603527" data-name="Trazado 603527" d="M757.046,568.4a7.277,7.277,0,0,0-.917-.391q-4.7-1.131-9.4-2.235a2.742,2.742,0,0,0-2.212.413q-3.762,2.505-7.533,4.995a.9.9,0,0,0-.2.135c-.13.156-.344.333-.334.481s.255.253.417.349a1.313,1.313,0,0,0,.371.108c3.081.736,6.166,1.465,9.246,2.211a2.81,2.81,0,0,0,2.347-.442q3.682-2.481,7.372-4.949C756.438,568.919,756.647,568.724,757.046,568.4Z" transform="translate(-652.384 -534.063)" fill="#14235c" fill-rule="evenodd"/>
            <path id="Trazado_603528" data-name="Trazado 603528" d="M700.46,568.278a7.176,7.176,0,0,0-.97-.4q-4.738-1.128-9.488-2.227a2.68,2.68,0,0,0-2.2.445q-3.619,2.5-7.249,4.981c-.067.046-.135.09-.2.138-.491.394-.461.656.142.828.672.191,1.361.336,2.046.5,2.578.6,5.161,1.2,7.738,1.822a2.683,2.683,0,0,0,2.267-.454q3.609-2.509,7.217-5.022C699.955,568.747,700.118,568.578,700.46,568.278Z" transform="translate(-554.96 -534.028)" fill="#14235c" fill-rule="evenodd"/>
            <path id="Trazado_603529" data-name="Trazado 603529" d="M775.214,564.1a5.772,5.772,0,0,0-.794-.348c-3.152-.758-6.305-1.517-9.466-2.249a2.614,2.614,0,0,0-2.068.385q-3.885,2.528-7.769,5.062a1.85,1.85,0,0,0-.259.189c-.312.29-.268.531.122.685a2.913,2.913,0,0,0,.38.088q4.618,1.107,9.237,2.211a2.921,2.921,0,0,0,2.426-.44c2.46-1.641,4.934-3.261,7.4-4.9A9.3,9.3,0,0,0,775.214,564.1Z" transform="translate(-683.724 -532.884)" fill="#14235c" fill-rule="evenodd"/>
            <path id="Trazado_603530" data-name="Trazado 603530" d="M648.172,571.527a5.418,5.418,0,0,0,1.331-.51c2.405-1.669,4.775-3.386,7.158-5.087a2.025,2.025,0,0,0,.253-.2c.276-.274.244-.47-.109-.635a1.939,1.939,0,0,0-.367-.119q-4.862-1.115-9.722-2.23a2.5,2.5,0,0,0-2.111.436q-3.49,2.464-6.983,4.92a3.214,3.214,0,0,0-.327.234c-.323.285-.306.554.083.69.412.141.85.228,1.28.328q4.322,1.012,8.647,2.011C647.532,571.418,647.765,571.452,648.172,571.527Z" transform="translate(-480.525 -533.227)" fill="#14235c" fill-rule="evenodd"/>
            <path id="Trazado_603531" data-name="Trazado 603531" d="M718.784,564.01a6.868,6.868,0,0,0-.931-.4c-3.135-.74-6.275-1.465-9.411-2.2a2.675,2.675,0,0,0-2.2.414q-3.681,2.484-7.357,4.968a2.647,2.647,0,0,0-.383.295c-.22.218-.187.429.066.554a3.106,3.106,0,0,0,.663.208q4.588,1.088,9.179,2.165a2.88,2.88,0,0,0,2.428-.454c2.317-1.614,4.66-3.192,6.987-4.789C718.1,564.58,718.352,564.353,718.784,564.01Z" transform="translate(-586.555 -532.855)" fill="#14235c" fill-rule="evenodd"/>
            <path id="Trazado_603532" data-name="Trazado 603532" d="M793.169,559.845a7.349,7.349,0,0,0-.855-.348q-4.7-1.124-9.4-2.229a2.544,2.544,0,0,0-1.993.373c-2.63,1.675-5.251,3.37-7.876,5.056a1.55,1.55,0,0,0-.32.245c-.2.221-.174.423.089.555a1.711,1.711,0,0,0,.364.123c3.108.74,6.219,1.467,9.32,2.219a2.872,2.872,0,0,0,2.356-.427q3.783-2.469,7.569-4.936A9.481,9.481,0,0,0,793.169,559.845Z" transform="translate(-714.663 -531.714)" fill="#14235c" fill-rule="evenodd"/>
            <path id="Trazado_603533" data-name="Trazado 603533" d="M727.536,565.859a2.766,2.766,0,0,0,1.593-.488q3.7-2.5,7.412-5c.066-.046.135-.089.2-.141.412-.333.394-.608-.092-.765s-1.007-.25-1.512-.369c-2.554-.6-5.112-1.167-7.655-1.793a3.552,3.552,0,0,0-3.082.564c-2.25,1.557-4.556,3.041-6.833,4.565-.276.183-.72.308-.685.7s.489.37.8.446q4.615,1.1,9.238,2.187C727.122,565.806,727.332,565.827,727.536,565.859Z" transform="translate(-618.207 -531.706)" fill="#14235c" fill-rule="evenodd"/>
            <path id="Trazado_603534" data-name="Trazado 603534" d="M666.429,567.19a2.628,2.628,0,0,0,1.51-.488q3.557-2.5,7.12-5a2.262,2.262,0,0,0,.316-.247c.209-.216.2-.423-.057-.56a2.264,2.264,0,0,0-.512-.167c-3.086-.716-6.177-1.418-9.256-2.148a3.1,3.1,0,0,0-2.7.554c-2.228,1.59-4.5,3.125-6.755,4.682a.7.7,0,0,0-.131.092c-.148.173-.292.35-.436.525.19.137.358.345.577.4,3.231.776,6.467,1.527,9.7,2.279C666.01,567.155,666.223,567.163,666.429,567.19Z" transform="translate(-512.309 -532.067)" fill="#14235c" fill-rule="evenodd"/>
            <path id="Trazado_603535" data-name="Trazado 603535" d="M734.741,558.905a5.645,5.645,0,0,0,.818.362q4.732,1.138,9.475,2.247a2.572,2.572,0,0,0,2.065-.385q3.792-2.527,7.592-5.046a6.387,6.387,0,0,0,.561-.5,3.573,3.573,0,0,0-.768-.41q-4.623-1.1-9.26-2.161a2.92,2.92,0,0,0-2.36.445c-2.463,1.638-4.944,3.25-7.414,4.876C735.253,558.466,735.083,558.63,734.741,558.905Z" transform="translate(-649.354 -530.535)" fill="#14235c" fill-rule="evenodd"/>
            <path id="Trazado_603536" data-name="Trazado 603536" d="M811.184,555.633a9.653,9.653,0,0,0-.964-.363q-4.5-1.078-9.01-2.137a2.94,2.94,0,0,0-2.362.417c-2.539,1.619-5.086,3.221-7.627,4.834-.237.153-.444.349-.787.625a4.157,4.157,0,0,0,.75.372q4.724,1.143,9.458,2.26a2.627,2.627,0,0,0,2.059-.418c1.065-.679,2.125-1.367,3.187-2.05,1.47-.943,2.944-1.881,4.408-2.831C810.552,556.173,810.778,555.959,811.184,555.633Z" transform="translate(-745.586 -530.565)" fill="#14235c" fill-rule="evenodd"/>
            <path id="Trazado_603537" data-name="Trazado 603537" d="M684.468,562.9a2.627,2.627,0,0,0,1.7-.452q3.577-2.481,7.162-4.952a2.524,2.524,0,0,0,.258-.189c.333-.3.311-.53-.076-.686a3.552,3.552,0,0,0-.524-.148q-4.591-1.059-9.188-2.119a2.874,2.874,0,0,0-2.42.47c-2.3,1.594-4.614,3.153-6.918,4.735-.249.171-.694.325-.567.66.077.206.461.342.739.409q4.7,1.12,9.4,2.208A3.661,3.661,0,0,0,684.468,562.9Z" transform="translate(-543.87 -530.903)" fill="#14235c" fill-rule="evenodd"/>
            <path id="Trazado_603538" data-name="Trazado 603538" d="M808.211,554.828a6.422,6.422,0,0,0,.844.356q4.61,1.122,9.233,2.221a2.711,2.711,0,0,0,2.133-.436q2.726-1.727,5.455-3.449c.748-.473,1.5-.943,2.246-1.427.234-.153.433-.35.771-.628a7.028,7.028,0,0,0-.945-.394q-4.507-1.08-9.019-2.131a2.666,2.666,0,0,0-2.073.341q-4.007,2.489-8.006,5A6.511,6.511,0,0,0,808.211,554.828Z" transform="translate(-776.159 -529.41)" fill="#14235c" fill-rule="evenodd"/>
            <path id="Trazado_603539" data-name="Trazado 603539" d="M773.1,551.369a6.459,6.459,0,0,0-.856-.358q-4.662-1.1-9.325-2.179a2.589,2.589,0,0,0-2.059.386q-3.8,2.441-7.583,4.894c-.213.143-.4.328-.713.595a5.876,5.876,0,0,0,.911.4c2.473.593,4.949,1.169,7.424,1.752.556.13,1.111.262,1.666.394a2.868,2.868,0,0,0,2.357-.41c2.464-1.629,4.944-3.239,7.413-4.86C772.555,551.838,772.743,551.661,773.1,551.369Z" transform="translate(-680.106 -529.382)" fill="#14235c" fill-rule="evenodd"/>
            <path id="Trazado_603540" data-name="Trazado 603540" d="M711.914,552.58a5.737,5.737,0,0,0-.694-.247q-4.748-1.1-9.5-2.2a2.44,2.44,0,0,0-1.979.389q-3.656,2.446-7.3,4.905a2.108,2.108,0,0,0-.2.142c-.423.344-.407.608.093.747.8.221,1.611.4,2.423.586,2.352.546,4.713,1.073,7.062,1.639a2.985,2.985,0,0,0,2.565-.472c2.253-1.562,4.534-3.09,6.8-4.637.274-.19.517-.422.776-.635C711.946,552.727,711.931,552.654,711.914,552.58Z" transform="translate(-575.101 -529.743)" fill="#14235c" fill-rule="evenodd"/>
            <path id="Trazado_603541" data-name="Trazado 603541" d="M770.671,550.54a6.275,6.275,0,0,0,.854.375q4.539,1.085,9.086,2.146a3.009,3.009,0,0,0,2.438-.439c2.426-1.59,4.872-3.151,7.308-4.725a3.45,3.45,0,0,0,.4-.269c.341-.289.318-.512-.088-.674a5.835,5.835,0,0,0-.821-.221q-4.282-1-8.566-1.994a2.852,2.852,0,0,0-2.286.394c-2.443,1.565-4.9,3.112-7.343,4.672C771.369,549.985,771.111,550.207,770.671,550.54Z" transform="translate(-711.098 -528.246)" fill="#14235c" fill-rule="evenodd"/>
            <path id="Trazado_603542" data-name="Trazado 603542" d="M709.83,551.867a6.984,6.984,0,0,0,.867.35q4.66,1.1,9.332,2.175a2.785,2.785,0,0,0,2.279-.442c2.356-1.6,4.73-3.177,7.093-4.767a9.346,9.346,0,0,0,.759-.637,5.96,5.96,0,0,0-.852-.372q-4.667-1.089-9.34-2.151a2.628,2.628,0,0,0-2.128.415c-2.413,1.614-4.842,3.2-7.261,4.81C710.365,551.39,710.18,551.574,709.83,551.867Z" transform="translate(-606.236 -528.605)" fill="#14235c" fill-rule="evenodd"/>
            <path id="Trazado_603543" data-name="Trazado 603543" d="M788.162,546.437a8.265,8.265,0,0,0,.868.336q4.589,1.092,9.178,2.17a2.534,2.534,0,0,0,1.993-.331c2.618-1.651,5.227-3.315,7.841-4.971a4.522,4.522,0,0,0,.538-.345.932.932,0,0,0-.816-.561c-2.96-.693-5.918-1.4-8.881-2.08a2.971,2.971,0,0,0-2.368.4c-2.544,1.615-5.107,3.2-7.658,4.806C788.664,545.986,788.5,546.156,788.162,546.437Z" transform="translate(-741.338 -527.116)" fill="#14235c" fill-rule="evenodd"/>
            <path id="Trazado_603544" data-name="Trazado 603544" d="M747.813,544.426a5.33,5.33,0,0,0-.781-.344q-4.627-1.085-9.269-2.145a2.851,2.851,0,0,0-2.283.438c-2.358,1.558-4.732,3.088-7.1,4.629a.934.934,0,0,0-.2.134c-.158.169-.3.345-.454.517a2.04,2.04,0,0,0,.584.385c2.828.679,5.69,1.268,8.486,2.026a4.241,4.241,0,0,0,3.871-.762c2.06-1.459,4.209-2.8,6.315-4.2C747.24,544.933,747.463,544.715,747.813,544.426Z" transform="translate(-636.84 -527.474)" fill="#14235c" fill-rule="evenodd"/>
            <path id="Trazado_603545" data-name="Trazado 603545" d="M745.772,543.62a8.939,8.939,0,0,0,.954.351q4.505,1.066,9.018,2.11a2.888,2.888,0,0,0,2.36-.425c2.378-1.565,4.776-3.106,7.158-4.667.251-.165.667-.276.6-.649s-.481-.321-.77-.388q-4.432-1.04-8.874-2.061a2.992,2.992,0,0,0-2.432.438c-2.409,1.571-4.842,3.1-7.26,4.661A8.573,8.573,0,0,0,745.772,543.62Z" transform="translate(-667.956 -526.352)" fill="#14235c" fill-rule="evenodd"/>
            <path id="Trazado_603546" data-name="Trazado 603546" d="M783.161,536.271a4.635,4.635,0,0,0-.716-.318c-3.059-.716-6.122-1.433-9.188-2.128a2.885,2.885,0,0,0-2.282.452c-2.4,1.546-4.819,3.052-7.224,4.583-.256.163-.713.289-.6.633.068.2.463.339.743.407,2.956.7,5.925,1.366,8.877,2.072a2.8,2.8,0,0,0,2.282-.379q3.7-2.375,7.407-4.75A8.032,8.032,0,0,0,783.161,536.271Z" transform="translate(-697.809 -525.233)" fill="#14235c" fill-rule="evenodd"/>
            <path id="Trazado_603547" data-name="Trazado 603547" d="M546.144,584.3a2.265,2.265,0,0,0,1.488-.521c.881-.7,1.777-1.378,2.651-2.085a3.728,3.728,0,0,0,.484-.579,2.285,2.285,0,0,0-.652-.429c-1.507-.375-3.027-.713-4.544-1.062-1.744-.4-3.492-.789-5.232-1.2a2.866,2.866,0,0,0-2.751.6c-.7.613-1.483,1.145-2.228,1.716a3.928,3.928,0,0,0-.434.353c-.273.282-.251.505.07.672a2.146,2.146,0,0,0,.512.165q4.928,1.144,9.858,2.28A6.677,6.677,0,0,0,546.144,584.3Z" transform="translate(-300.146 -537.55)" fill="#14235c" fill-rule="evenodd"/>
            <path id="Trazado_603548" data-name="Trazado 603548" d="M559.3,573.648a5.453,5.453,0,0,0-1.225.481c-1.018.7-1.986,1.468-2.974,2.208a1.575,1.575,0,0,0-.182.156c-.271.287-.262.506.069.666a3.6,3.6,0,0,0,.737.227q4.555,1.05,9.116,2.093a7.032,7.032,0,0,0,.84.174,2.373,2.373,0,0,0,1.746-.423c.963-.727,1.925-1.458,2.873-2.2.567-.446.527-.744-.156-.914-1.332-.334-2.679-.627-4.022-.933q-3.039-.7-6.078-1.389C559.848,573.745,559.643,573.713,559.3,573.648Z" transform="translate(-334.544 -536.26)" fill="#14235c" fill-rule="evenodd"/>
            <path id="Trazado_603549" data-name="Trazado 603549" d="M574.57,572.4a4.772,4.772,0,0,0,.819.378q4.892,1.147,9.794,2.265a2.681,2.681,0,0,0,2.4-.53c.839-.672,1.721-1.286,2.568-1.944a3.133,3.133,0,0,0,.467-.59,2.377,2.377,0,0,0-.669-.42c-2.527-.595-5.062-1.162-7.593-1.742-.784-.179-1.569-.363-2.355-.541a2.352,2.352,0,0,0-1.973.4c-1.024.737-2.036,1.492-3.047,2.245A3.589,3.589,0,0,0,574.57,572.4Z" transform="translate(-368.821 -535.033)" fill="#14235c" fill-rule="evenodd"/>
            <path id="Trazado_603550" data-name="Trazado 603550" d="M605.193,570.615a2.6,2.6,0,0,0,1.656-.49c.926-.685,1.863-1.358,2.779-2.058a2.881,2.881,0,0,0,.465-.588,2.436,2.436,0,0,0-.667-.415c-2.728-.642-5.462-1.257-8.195-1.881-.556-.127-1.111-.259-1.669-.381a2.247,2.247,0,0,0-1.831.318q-1.619,1.128-3.2,2.309c-.441.328-.377.641.18.794.9.246,1.814.445,2.725.653q3.566.816,7.136,1.627C604.829,570.561,605.088,570.6,605.193,570.615Z" transform="translate(-402.534 -533.796)" fill="#14235c" fill-rule="evenodd"/>
            <path id="Trazado_603551" data-name="Trazado 603551" d="M624.651,566.154a2.712,2.712,0,0,0,1.577-.467c.976-.713,1.963-1.412,2.932-2.135.173-.129.391-.38.367-.527s-.3-.32-.5-.37c-1.157-.292-2.326-.549-3.491-.818-2-.459-4.011-.892-6-1.383a3.047,3.047,0,0,0-2.83.621c-.708.574-1.486,1.065-2.231,1.595a4.583,4.583,0,0,0-.444.344c-.352.323-.313.557.116.737a1.744,1.744,0,0,0,.3.085q4.865,1.115,9.73,2.23C624.352,566.108,624.533,566.133,624.651,566.154Z" transform="translate(-436.113 -532.582)" fill="#14235c" fill-rule="evenodd"/>
            <path id="Trazado_603552" data-name="Trazado 603552" d="M633.059,559.024a8.507,8.507,0,0,0,1,.389q4.775,1.12,9.555,2.216a2.333,2.333,0,0,0,1.915-.313c1.107-.757,2.192-1.547,3.281-2.331a1.39,1.39,0,0,0,.242-.281c-.067-.449-.454-.462-.764-.536-2.1-.487-4.2-.958-6.3-1.437-1.012-.229-2.022-.465-3.033-.7a2.783,2.783,0,0,0-2.481.494c-.807.619-1.672,1.169-2.5,1.76C633.714,558.465,633.482,558.678,633.059,559.024Z" transform="translate(-469.574 -531.363)" fill="#14235c" fill-rule="evenodd"/>
            <path id="Trazado_603553" data-name="Trazado 603553" d="M667.858,554.192a5.682,5.682,0,0,0-.833-.368c-3.157-.734-6.321-1.449-9.476-2.18a2.722,2.722,0,0,0-2.334.479c-.915.656-1.861,1.271-2.776,1.925a2.751,2.751,0,0,0-.465.576,2.473,2.473,0,0,0,.619.367c1.891.454,3.788.885,5.684,1.323,1.238.284,2.478.564,3.716.852a2.824,2.824,0,0,0,2.483-.5c.854-.645,1.754-1.234,2.628-1.857C667.314,554.662,667.5,554.486,667.858,554.192Z" transform="translate(-502.07 -530.155)" fill="#14235c" fill-rule="evenodd"/>
            <path id="Trazado_603554" data-name="Trazado 603554" d="M686.969,549.836a6.14,6.14,0,0,0-.9-.4q-4.744-1.1-9.5-2.181a2.332,2.332,0,0,0-1.844.314c-1.124.738-2.229,1.5-3.337,2.267a2.645,2.645,0,0,0-.376.432,4.432,4.432,0,0,0,.766.358c3.138.733,6.282,1.452,9.421,2.177a2.67,2.67,0,0,0,2.267-.47c.894-.641,1.813-1.253,2.717-1.882C686.4,550.307,686.6,550.132,686.969,549.836Z" transform="translate(-534.959 -528.948)" fill="#14235c" fill-rule="evenodd"/>
            <path id="Trazado_603555" data-name="Trazado 603555" d="M690.195,545.96a6.99,6.99,0,0,0,.93.381q4.626,1.08,9.263,2.135a2.666,2.666,0,0,0,2.206-.424c.9-.635,1.826-1.234,2.74-1.849a4.048,4.048,0,0,0,.457-.331c.268-.245.257-.447-.038-.6a2.344,2.344,0,0,0-.515-.164c-3.038-.7-6.078-1.383-9.114-2.086a2.8,2.8,0,0,0-2.352.424c-.929.637-1.878,1.253-2.812,1.887C690.746,545.479,690.558,545.659,690.195,545.96Z" transform="translate(-567.85 -527.77)" fill="#14235c" fill-rule="evenodd"/>
            <path id="Trazado_603556" data-name="Trazado 603556" d="M708.957,541.645a4.7,4.7,0,0,0,.827.392q4.663,1.09,9.34,2.151a2.5,2.5,0,0,0,1.985-.367c1.012-.665,2.027-1.323,3.024-2.006a3.027,3.027,0,0,0,.493-.568,2.648,2.648,0,0,0-.678-.4c-2.425-.574-4.855-1.127-7.287-1.685-.606-.138-1.221-.259-1.823-.41a2.729,2.729,0,0,0-2.282.4c-.959.643-1.933,1.27-2.893,1.913C709.453,541.207,709.267,541.388,708.957,541.645Z" transform="translate(-600.072 -526.59)" fill="#14235c" fill-rule="evenodd"/>
            <path id="Trazado_603557" data-name="Trazado 603557" d="M737.847,539.979a3.076,3.076,0,0,0,1.7-.506c.985-.656,1.977-1.3,2.951-1.967a2.8,2.8,0,0,0,.457-.5,2.016,2.016,0,0,0-.585-.39c-2.072-.491-4.15-.959-6.226-1.431-1.014-.233-2.031-.449-3.04-.692a2.454,2.454,0,0,0-1.917.3c-1.121.694-2.221,1.42-3.316,2.15-.153.1-.347.344-.317.462.035.144.268.28.45.325,1.082.269,2.173.509,3.261.762,2,.457,4,.921,6,1.376C737.489,539.92,737.722,539.956,737.847,539.979Z" transform="translate(-631.851 -525.416)" fill="#14235c" fill-rule="evenodd"/>
            <path id="Trazado_603558" data-name="Trazado 603558" d="M761.288,532.752a5.73,5.73,0,0,0-.774-.323q-4.59-1.065-9.187-2.11a2.755,2.755,0,0,0-2.208.429c-.963.639-1.951,1.244-2.926,1.867a2.159,2.159,0,0,0-.391.278c-.181.184-.179.387.046.506a2.327,2.327,0,0,0,.585.193c2.936.68,5.876,1.34,8.806,2.035a2.943,2.943,0,0,0,2.43-.418c.964-.638,1.944-1.258,2.909-1.891C760.772,533.189,760.942,533.028,761.288,532.752Z" transform="translate(-663.299 -524.264)" fill="#14235c" fill-rule="evenodd"/>
            <path id="Trazado_603559" data-name="Trazado 603559" d="M779.7,528.536a5.61,5.61,0,0,0-.77-.318q-4.552-1.064-9.112-2.1a2.454,2.454,0,0,0-1.852.286c-1.132.677-2.246,1.381-3.36,2.086a4.816,4.816,0,0,0-.544.5,3.968,3.968,0,0,0,.718.349q4.591,1.078,9.193,2.123a2.484,2.484,0,0,0,1.92-.34c1.093-.69,2.185-1.378,3.271-2.077A4.578,4.578,0,0,0,779.7,528.536Z" transform="translate(-695.024 -523.105)" fill="#14235c" fill-rule="evenodd"/>
            <path id="Trazado_603560" data-name="Trazado 603560" d="M782.457,524.975a5.13,5.13,0,0,0,.69.266q4.4,1.024,8.806,2.027a2.937,2.937,0,0,0,2.361-.433c.943-.619,1.911-1.2,2.87-1.8a3.006,3.006,0,0,0,.4-.271c.268-.24.25-.459-.073-.577a8.115,8.115,0,0,0-1.051-.279c-2.656-.608-5.319-1.2-7.973-1.822a3.216,3.216,0,0,0-2.722.495c-.794.548-1.65,1.012-2.467,1.528-.3.19-.579.427-.869.643C782.436,524.825,782.447,524.9,782.457,524.975Z" transform="translate(-726.374 -521.979)" fill="#14235c" fill-rule="evenodd"/>
            <path id="Trazado_603561" data-name="Trazado 603561" d="M851.123,577.943a6.924,6.924,0,0,0-.92-.4c-2.014-.5-4.035-.973-6.049-1.473a2.667,2.667,0,0,0-2.07.323c-1.085.651-2.151,1.328-3.212,2.016a2.443,2.443,0,0,0-.438.518,2.073,2.073,0,0,0,.587.4c1.708.441,3.453.776,5.13,1.289a4.2,4.2,0,0,0,4.106-.708c.656-.5,1.4-.9,2.095-1.361C850.567,578.409,850.756,578.234,851.123,577.943Z" transform="translate(-820.257 -536.907)" fill="#14235c" fill-rule="evenodd"/>
            <path id="Trazado_603562" data-name="Trazado 603562" d="M858.521,577.8a3.057,3.057,0,0,0,1.848-.472c.946-.618,1.909-1.206,2.864-1.807a3.045,3.045,0,0,0,.341-.216c.407-.321.366-.588-.117-.767-.095-.033-.2-.043-.3-.067-1.988-.49-3.973-.986-5.967-1.463a2.821,2.821,0,0,0-2.219.373c-.981.611-1.962,1.219-2.944,1.832a2.979,2.979,0,0,0-.4.275c-.321.287-.3.549.111.681.489.159,1,.258,1.506.382q2.3.568,4.607,1.13C858.128,577.752,858.412,577.787,858.521,577.8Z" transform="translate(-842.374 -536.061)" fill="#14235c" fill-rule="evenodd"/>
            <path id="Trazado_603563" data-name="Trazado 603563" d="M876.282,571.785a8.909,8.909,0,0,0-.995-.392q-2.831-.706-5.67-1.38a3.158,3.158,0,0,0-2.593.442c-.829.548-1.688,1.048-2.535,1.572a2.224,2.224,0,0,0-.4.263c-.159.159-.41.372-.389.517s.292.321.493.376c.975.261,1.962.488,2.944.727,1.059.255,2.12.51,3.174.771a2.783,2.783,0,0,0,2.151-.345c1.057-.637,2.1-1.3,3.146-1.962A6.916,6.916,0,0,0,876.282,571.785Z" transform="translate(-863.695 -535.227)" fill="#14235c" fill-rule="evenodd"/>
            <path id="Trazado_603564" data-name="Trazado 603564" d="M844.264,571.162a5.229,5.229,0,0,0,.812.36c2.012.5,4.027.99,6.044,1.474a2.785,2.785,0,0,0,2.279-.412c.872-.577,1.772-1.116,2.644-1.693a2.281,2.281,0,0,0,.425-.511,1.985,1.985,0,0,0-.543-.338c-1.808-.457-3.621-.891-5.432-1.33-.253-.06-.51-.11-.758-.181a2.553,2.553,0,0,0-2.062.334c-.968.581-1.915,1.189-2.868,1.8A4.942,4.942,0,0,0,844.264,571.162Z" transform="translate(-829.82 -534.821)" fill="#14235c" fill-rule="evenodd"/>
          </g>
          <g id="Grupo_881530" data-name="Grupo 881530" transform="matrix(-0.966, -0.259, 0.259, -0.966, 260.416, 136.125)">
            <text id="_" data-name="* * * * * " transform="matrix(0.999, -0.038, -0.038, -0.999, 0.263, 10.852)" fill="#14235c" font-size="33" font-family="Lato-Bold, Lato" font-weight="700"><tspan x="0" y="0">* * * * * </tspan></text>
            <text id="_._._._._._._." data-name=". . . . . . ." transform="matrix(0.999, -0.038, -0.038, -0.999, 0.353, 13.29)" fill="#14235c" font-size="33" font-family="Lato-Bold, Lato" font-weight="700"><tspan x="0" y="0">. . . . . . .</tspan></text>
          </g>
          <path id="Trazado_603565" data-name="Trazado 603565" d="M520.08,331.363,724.668,493.976,523.282,448.192Z" transform="translate(-405.287 -320.19)" fill="#6aceae" opacity="0.4" style="mix-blend-mode: multiply;isolation: isolate"/>
        </g>
        <g id="Grupo_881705" data-name="Grupo 881705" transform="translate(1326.882 370.922)">
          <path id="Trazado_603726" data-name="Trazado 603726" d="M442.79,475.611a2.428,2.428,0,0,1,2.428,2.427c0,6.854.687,26.07,3.808,32.588,1.6,3.343,5.166,4.855,7.168,5.334a26.669,26.669,0,0,1-1.6-5.67,95.409,95.409,0,0,1-1.9-13.417l.358-73.033c0-1.34-.544-2.279.8-2.279a2.428,2.428,0,0,1,2.428,2.428v72.968c0,.034,0,.069,0,.1-.007.173-.466,13.215,5.612,20.639,2.112-3.114,5.452-9.906,5.452-21.729V462.39a2.429,2.429,0,0,1,2.428-2.428c1.341,0,.4.354.4,1.694l.316,33.79c0,13.51-2.292,21.816-4.9,25.457a13.123,13.123,0,0,0,4.572,1.625,2.428,2.428,0,0,1-.385,4.825,2.338,2.338,0,0,1-.391-.032,17.821,17.821,0,0,1-7.917-3.3,2.391,2.391,0,0,1-2-1.736,19.492,19.492,0,0,1-1.323-1.464c-.279.018-.586.031-.92.031a14.63,14.63,0,0,1-3.206-.355c-2.888-.652-5.334-3.363-7.844-8.6-4.236-8.843-3.935-32.168-3.935-33.219C442.235,477.328,441.45,475.611,442.79,475.611Z" transform="translate(-420.868 -408.656)" fill="#152219"/>
          <g id="Grupo_881700" data-name="Grupo 881700" transform="translate(7.26 0)">
            <path id="Trazado_603727" data-name="Trazado 603727" d="M470.435,406.428c5.916,9.961,4.912,24.557,4.912,24.557S468.806,417.9,470.435,406.428Z" transform="translate(-448.226 -402.593)" fill="#35519f"/>
            <path id="Trazado_603728" data-name="Trazado 603728" d="M471.37,414.591c12.288,7.676,21.672,23.558,21.672,23.558S478,427.475,471.37,414.591Z" transform="translate(-466.573 -405.864)" fill="#14235c"/>
            <path id="Trazado_603729" data-name="Trazado 603729" d="M457.507,416.115c-12.287,7.331-21.536,22.645-21.536,22.645S451,428.547,457.507,416.115Z" transform="translate(-409.822 -406.474)" fill="#14235c"/>
            <path id="Trazado_603730" data-name="Trazado 603730" d="M468.9,400.03c2.27,11.361-3.525,24.794-3.525,24.794S463.552,410.308,468.9,400.03Z" transform="translate(-439.186 -400.03)" fill="#14235c"/>
            <path id="Trazado_603731" data-name="Trazado 603731" d="M467.951,408.883c1.958,12.823-5.212,27.551-5.212,27.551S461.446,420.1,467.951,408.883Z" transform="translate(-436.586 -403.577)" fill="#35519f"/>
            <path id="Trazado_603732" data-name="Trazado 603732" d="M462.941,413.752c-2.062,12.806-13.4,24.633-13.4,24.633S453.312,422.442,462.941,413.752Z" transform="translate(-423.392 -405.528)" fill="#14235c"/>
            <path id="Trazado_603733" data-name="Trazado 603733" d="M454.732,436.049c-9.472,8.861-25.675,11.269-25.675,11.269S441.8,437.022,454.732,436.049Z" transform="translate(-402.903 -414.461)" fill="#14235c"/>
            <path id="Trazado_603734" data-name="Trazado 603734" d="M472.059,409.185c6.863,11.008,6.091,27.37,6.091,27.37S470.513,422.064,472.059,409.185Z" transform="translate(-451.997 -403.698)" fill="#14235c"/>
            <path id="Trazado_603735" data-name="Trazado 603735" d="M471.9,412.36c9.032,9.311,11.732,25.467,11.732,25.467S473.1,425.275,471.9,412.36Z" transform="translate(-457.474 -404.97)" fill="#14235c"/>
            <path id="Trazado_603736" data-name="Trazado 603736" d="M471.9,437.98c12.966.4,26.154,10.112,26.154,10.112S481.755,446.411,471.9,437.98Z" transform="translate(-471.896 -415.235)" fill="#14235c"/>
            <path id="Trazado_603737" data-name="Trazado 603737" d="M446.675,448.309a22.9,22.9,0,0,0,15.222-9.788S453.435,439.517,446.675,448.309Z" transform="translate(-420.627 -415.452)" fill="#35519f"/>
            <path id="Trazado_603738" data-name="Trazado 603738" d="M487.072,448.309a22.9,22.9,0,0,1-15.219-9.788S480.315,439.517,487.072,448.309Z" transform="translate(-460.893 -415.452)" fill="#35519f"/>
            <path id="Trazado_603739" data-name="Trazado 603739" d="M493.235,452.925a33.4,33.4,0,0,1-21.382-1.706S483.945,447.659,493.235,452.925Z" transform="translate(-467.056 -420.068)" fill="#14235c"/>
            <path id="Trazado_603740" data-name="Trazado 603740" d="M436.1,452.925a33.4,33.4,0,0,0,21.383-1.706S445.388,447.659,436.1,452.925Z" transform="translate(-409.872 -420.068)" fill="#14235c"/>
            <path id="Trazado_603741" data-name="Trazado 603741" d="M455.931,454.852s6.952.753,9.5,10.638C465.427,465.49,457,462.222,455.931,454.852Z" transform="translate(-429.705 -421.995)" fill="#14235c"/>
            <path id="Trazado_603742" data-name="Trazado 603742" d="M480.485,454.852s-6.951.753-9.5,10.638C470.99,465.49,479.411,462.222,480.485,454.852Z" transform="translate(-453.789 -421.995)" fill="#14235c"/>
          </g>
          <g id="Grupo_881701" data-name="Grupo 881701" transform="translate(26.873 39.056)">
            <path id="Trazado_603743" data-name="Trazado 603743" d="M445.077,467.1c4.95,8.334,4.11,20.547,4.11,20.547S443.714,476.7,445.077,467.1Z" transform="translate(-426.496 -465.958)" fill="#14235c"/>
            <path id="Trazado_603744" data-name="Trazado 603744" d="M445.86,477.377c10.281,6.422,18.132,19.711,18.132,19.711S451.4,488.157,445.86,477.377Z" transform="translate(-441.846 -470.075)" fill="#14235c"/>
            <path id="Trazado_603745" data-name="Trazado 603745" d="M434.261,478.651c-10.279,6.134-18.018,18.948-18.018,18.948S428.817,489.053,434.261,478.651Z" transform="translate(-394.365 -470.586)" fill="#35519f"/>
            <path id="Trazado_603746" data-name="Trazado 603746" d="M443.793,465.194c1.9,9.506-2.949,20.745-2.949,20.745S439.32,473.794,443.793,465.194Z" transform="translate(-418.932 -465.194)" fill="#35519f"/>
            <path id="Trazado_603747" data-name="Trazado 603747" d="M443,472.6c1.637,10.729-4.361,23.052-4.361,23.052S437.556,481.99,443,472.6Z" transform="translate(-416.756 -468.162)" fill="#14235c"/>
            <path id="Trazado_603748" data-name="Trazado 603748" d="M438.807,476.674c-1.725,10.716-11.208,20.611-11.208,20.611S430.75,483.946,438.807,476.674Z" transform="translate(-405.717 -469.793)" fill="#14235c"/>
            <path id="Trazado_603749" data-name="Trazado 603749" d="M431.939,495.33c-7.924,7.415-21.482,9.429-21.482,9.429S421.117,496.145,431.939,495.33Z" transform="translate(-388.575 -477.268)" fill="#14235c"/>
            <path id="Trazado_603750" data-name="Trazado 603750" d="M446.437,472.854c5.742,9.21,5.1,22.9,5.1,22.9S445.143,483.63,446.437,472.854Z" transform="translate(-429.651 -468.263)" fill="#14235c"/>
            <path id="Trazado_603751" data-name="Trazado 603751" d="M446.3,475.51c7.557,7.79,9.816,21.309,9.816,21.309S447.31,486.316,446.3,475.51Z" transform="translate(-434.234 -469.327)" fill="#35519f"/>
            <path id="Trazado_603752" data-name="Trazado 603752" d="M446.3,496.947c10.849.33,21.882,8.46,21.882,8.46S454.549,504,446.3,496.947Z" transform="translate(-446.3 -477.916)" fill="#14235c"/>
            <path id="Trazado_603753" data-name="Trazado 603753" d="M425.2,505.588a19.161,19.161,0,0,0,12.735-8.189S430.854,498.232,425.2,505.588Z" transform="translate(-403.405 -478.097)" fill="#14235c"/>
            <path id="Trazado_603754" data-name="Trazado 603754" d="M459,505.588a19.159,19.159,0,0,1-12.734-8.189S453.342,498.232,459,505.588Z" transform="translate(-437.093 -478.097)" fill="#35519f"/>
            <path id="Trazado_603755" data-name="Trazado 603755" d="M464.153,509.451a27.944,27.944,0,0,1-17.89-1.427S456.38,505.044,464.153,509.451Z" transform="translate(-442.249 -481.959)" fill="#35519f"/>
            <path id="Trazado_603756" data-name="Trazado 603756" d="M416.348,509.451a27.946,27.946,0,0,0,17.891-1.427S424.121,505.044,416.348,509.451Z" transform="translate(-394.405 -481.959)" fill="#35519f"/>
            <path id="Trazado_603757" data-name="Trazado 603757" d="M432.941,511.063s5.816.63,7.946,8.9C440.887,519.963,433.84,517.23,432.941,511.063Z" transform="translate(-410.998 -483.572)" fill="#14235c"/>
            <path id="Trazado_603758" data-name="Trazado 603758" d="M453.487,511.063s-5.817.63-7.946,8.9C445.541,519.963,452.588,517.23,453.487,511.063Z" transform="translate(-431.149 -483.572)" fill="#14235c"/>
          </g>
          <g id="Grupo_881702" data-name="Grupo 881702" transform="translate(0 44.934)">
            <path id="Trazado_603759" data-name="Trazado 603759" d="M489.915,476.908c4.949,8.334,4.11,20.547,4.11,20.547S488.552,486.505,489.915,476.908Z" transform="translate(-471.333 -475.766)" fill="#14235c"/>
            <path id="Trazado_603760" data-name="Trazado 603760" d="M490.7,487.186c10.282,6.421,18.133,19.711,18.133,19.711S496.241,497.966,490.7,487.186Z" transform="translate(-486.684 -479.884)" fill="#14235c"/>
            <path id="Trazado_603761" data-name="Trazado 603761" d="M479.1,488.46c-10.28,6.134-18.019,18.947-18.019,18.947S473.654,498.862,479.1,488.46Z" transform="translate(-439.202 -480.394)" fill="#35519f"/>
            <path id="Trazado_603762" data-name="Trazado 603762" d="M488.631,475c1.9,9.506-2.949,20.745-2.949,20.745S484.157,483.6,488.631,475Z" transform="translate(-463.77 -475.002)" fill="#35519f"/>
            <path id="Trazado_603763" data-name="Trazado 603763" d="M487.837,482.41c1.639,10.728-4.361,23.051-4.361,23.051S482.394,491.8,487.837,482.41Z" transform="translate(-461.595 -477.97)" fill="#14235c"/>
            <path id="Trazado_603764" data-name="Trazado 603764" d="M483.645,486.482c-1.726,10.716-11.208,20.611-11.208,20.611S475.589,493.754,483.645,486.482Z" transform="translate(-450.556 -479.602)" fill="#14235c"/>
            <path id="Trazado_603765" data-name="Trazado 603765" d="M476.777,505.139c-7.926,7.414-21.483,9.429-21.483,9.429S465.954,505.953,476.777,505.139Z" transform="translate(-433.412 -487.077)" fill="#14235c"/>
            <path id="Trazado_603766" data-name="Trazado 603766" d="M491.275,482.662c5.742,9.21,5.1,22.9,5.1,22.9S489.981,493.438,491.275,482.662Z" transform="translate(-474.489 -478.071)" fill="#14235c"/>
            <path id="Trazado_603767" data-name="Trazado 603767" d="M491.138,485.319c7.556,7.79,9.816,21.308,9.816,21.308S492.148,496.125,491.138,485.319Z" transform="translate(-479.073 -479.136)" fill="#35519f"/>
            <path id="Trazado_603768" data-name="Trazado 603768" d="M491.138,506.756c10.848.33,21.882,8.46,21.882,8.46S499.387,513.808,491.138,506.756Z" transform="translate(-491.138 -487.724)" fill="#14235c"/>
            <path id="Trazado_603769" data-name="Trazado 603769" d="M470.037,515.4a19.156,19.156,0,0,0,12.734-8.189S475.692,508.04,470.037,515.4Z" transform="translate(-448.243 -487.905)" fill="#14235c"/>
            <path id="Trazado_603770" data-name="Trazado 603770" d="M503.835,515.4a19.156,19.156,0,0,1-12.734-8.189S498.18,508.04,503.835,515.4Z" transform="translate(-481.932 -487.905)" fill="#35519f"/>
            <path id="Trazado_603771" data-name="Trazado 603771" d="M508.992,519.259a27.939,27.939,0,0,1-17.891-1.428S501.218,514.852,508.992,519.259Z" transform="translate(-487.088 -491.767)" fill="#35519f"/>
            <path id="Trazado_603772" data-name="Trazado 603772" d="M461.186,519.259a27.939,27.939,0,0,0,17.891-1.428S468.959,514.852,461.186,519.259Z" transform="translate(-439.244 -491.767)" fill="#35519f"/>
            <path id="Trazado_603773" data-name="Trazado 603773" d="M477.78,520.871s5.817.63,7.945,8.9C485.725,529.772,478.679,527.038,477.78,520.871Z" transform="translate(-455.838 -493.38)" fill="#14235c"/>
            <path id="Trazado_603774" data-name="Trazado 603774" d="M498.323,520.871s-5.817.63-7.945,8.9C490.378,529.772,497.424,527.038,498.323,520.871Z" transform="translate(-475.986 -493.38)" fill="#14235c"/>
          </g>
          <g id="Grupo_881703" data-name="Grupo 881703" transform="translate(19.191 107.303)">
            <path id="Trazado_603775" data-name="Trazado 603775" d="M470.918,579.064c-.549-.058-14.437,4.484-36.962,0,0,0,6.73,33.819,9.948,37.054s18.046,4.6,20.791-1.872S470.918,579.064,470.918,579.064Z" transform="translate(-433.956 -579.063)" fill="url(#linear-gradient)"/>
          </g>
          <g id="Grupo_881704" data-name="Grupo 881704" transform="translate(12.321 73.692)">
            <path id="Trazado_603776" data-name="Trazado 603776" d="M461.992,529.384c5.917,9.96,4.913,24.557,4.913,24.557S460.364,540.854,461.992,529.384Z" transform="translate(-439.784 -525.549)" fill="#35519f"/>
            <path id="Trazado_603777" data-name="Trazado 603777" d="M462.928,537.547C475.216,545.222,484.6,561.1,484.6,561.1S469.553,550.431,462.928,537.547Z" transform="translate(-458.131 -528.819)" fill="#14235c"/>
            <path id="Trazado_603778" data-name="Trazado 603778" d="M449.065,539.07c-12.287,7.331-21.536,22.645-21.536,22.645S442.558,551.5,449.065,539.07Z" transform="translate(-401.381 -529.429)" fill="#14235c"/>
            <path id="Trazado_603779" data-name="Trazado 603779" d="M460.459,522.985c2.27,11.361-3.526,24.794-3.526,24.794S455.111,533.264,460.459,522.985Z" transform="translate(-430.745 -522.985)" fill="#14235c"/>
            <path id="Trazado_603780" data-name="Trazado 603780" d="M459.51,531.838c1.957,12.823-5.213,27.552-5.213,27.552S453,543.06,459.51,531.838Z" transform="translate(-428.145 -526.532)" fill="#35519f"/>
            <path id="Trazado_603781" data-name="Trazado 603781" d="M454.5,536.708c-2.061,12.806-13.4,24.634-13.4,24.634S444.871,545.4,454.5,536.708Z" transform="translate(-414.952 -528.483)" fill="#14235c"/>
            <path id="Trazado_603782" data-name="Trazado 603782" d="M446.291,559c-9.471,8.862-25.675,11.271-25.675,11.271S433.357,559.977,446.291,559Z" transform="translate(-394.464 -537.416)" fill="#14235c"/>
            <path id="Trazado_603783" data-name="Trazado 603783" d="M463.618,532.141c6.863,11.008,6.091,27.371,6.091,27.371S462.072,545.02,463.618,532.141Z" transform="translate(-443.557 -526.653)" fill="#14235c"/>
            <path id="Trazado_603784" data-name="Trazado 603784" d="M463.455,535.315c9.032,9.312,11.732,25.469,11.732,25.469S464.663,548.23,463.455,535.315Z" transform="translate(-449.035 -527.925)" fill="#14235c"/>
            <path id="Trazado_603785" data-name="Trazado 603785" d="M463.455,560.936c12.966.4,26.152,10.113,26.152,10.113S473.314,569.366,463.455,560.936Z" transform="translate(-463.455 -538.19)" fill="#14235c"/>
            <path id="Trazado_603786" data-name="Trazado 603786" d="M438.234,571.266a22.906,22.906,0,0,0,15.22-9.788S444.992,562.473,438.234,571.266Z" transform="translate(-412.185 -538.407)" fill="#35519f"/>
            <path id="Trazado_603787" data-name="Trazado 603787" d="M478.63,571.266a22.9,22.9,0,0,1-15.219-9.788S471.873,562.473,478.63,571.266Z" transform="translate(-452.452 -538.407)" fill="#35519f"/>
            <path id="Trazado_603788" data-name="Trazado 603788" d="M484.794,575.882a33.4,33.4,0,0,1-21.382-1.706S475.5,570.615,484.794,575.882Z" transform="translate(-458.615 -543.023)" fill="#14235c"/>
            <path id="Trazado_603789" data-name="Trazado 603789" d="M427.657,575.882a33.4,33.4,0,0,0,21.382-1.706S436.947,570.615,427.657,575.882Z" transform="translate(-401.431 -543.023)" fill="#14235c"/>
            <path id="Trazado_603790" data-name="Trazado 603790" d="M447.49,577.809s6.951.753,9.495,10.637C456.985,588.445,448.563,585.178,447.49,577.809Z" transform="translate(-421.264 -544.95)" fill="#14235c"/>
            <path id="Trazado_603791" data-name="Trazado 603791" d="M472.044,577.809s-6.951.753-9.5,10.637C462.548,588.445,470.971,585.178,472.044,577.809Z" transform="translate(-445.348 -544.95)" fill="#14235c"/>
          </g>
        </g>
      </g>
      <g id="Grupo_881723" data-name="Grupo 881723" transform="translate(793.063 -41.597)">
        <path id="Trazado_603810" data-name="Trazado 603810" d="M272.351,270.973a18.931,18.931,0,1,0,18.931,18.93A18.93,18.93,0,0,0,272.351,270.973Zm0,30.308A11.377,11.377,0,1,1,283.729,289.9,11.377,11.377,0,0,1,272.351,301.281Z" transform="translate(-2.028 -1.94)" fill="#f3c035"/>
        <g id="Grupo_881719" data-name="Grupo 881719" transform="translate(266.358 265.707)">
          <rect id="Rectngulo_298990" data-name="Rectngulo 298990" width="7.931" height="5.5" transform="translate(0)" fill="#f3c035"/>
          <rect id="Rectngulo_298991" data-name="Rectngulo 298991" width="7.931" height="5.5" transform="translate(0 39.311)" fill="#f3c035"/>
        </g>
        <g id="Grupo_881720" data-name="Grupo 881720" transform="translate(247.918 284.147)">
          <rect id="Rectngulo_298992" data-name="Rectngulo 298992" width="7.931" height="5.501" transform="translate(44.812 0) rotate(90)" fill="#f3c035"/>
          <rect id="Rectngulo_298993" data-name="Rectngulo 298993" width="7.931" height="5.5" transform="translate(5.5 0) rotate(90)" fill="#f3c035"/>
        </g>
        <g id="Grupo_881721" data-name="Grupo 881721" transform="translate(251.677 269.465)">
          <rect id="Rectngulo_298994" data-name="Rectngulo 298994" width="7.931" height="5.5" transform="translate(31.686 0) rotate(45)" fill="#f3c035"/>
          <rect id="Rectngulo_298995" data-name="Rectngulo 298995" width="7.93" height="5.5" transform="translate(3.889 27.797) rotate(45.003)" fill="#f3c035"/>
        </g>
        <g id="Grupo_881722" data-name="Grupo 881722" transform="translate(251.677 269.465)">
          <rect id="Rectngulo_298996" data-name="Rectngulo 298996" width="7.931" height="5.5" transform="translate(37.294 31.686) rotate(135.003)" fill="#f3c035"/>
          <rect id="Rectngulo_298997" data-name="Rectngulo 298997" width="7.93" height="5.5" transform="translate(9.497 3.889) rotate(134.997)" fill="#f3c035"/>
        </g>
      </g>
    </g>
    <g id="Grupo_947570" data-name="Grupo 947570" transform="translate(-91.848 -58.259) rotate(-7)" style="isolation: isolate">
      <path id="Trazado_628906" data-name="Trazado 628906" d="M1344.368,417.288q.719-.292,1.376-.589l.2-.095c.44-.2.862-.407,1.26-.612l.128-.068c.414-.216.81-.431,1.18-.646l12.048-7c-.37.215-.765.43-1.178.646l-.13.068c-.4.2-.818.408-1.256.611l-.21.1q-.655.3-1.373.588l-.25.1q-.73.29-1.525.571l-.29.1q-.6.207-1.237.406l-.234.074c-.485.149-.989.293-1.507.434l-.369.1c-.483.128-.978.252-1.49.373l-.2.048c-.564.13-1.149.254-1.748.375l-.489.1q-.566.109-1.154.211c-.171.03-.34.06-.513.089-.559.093-1.128.182-1.715.266-.83.118-1.642.219-2.445.314l-.537.062c-.778.088-1.547.168-2.3.235l-.4.033q-.82.071-1.617.126l-.577.039q-.819.053-1.614.091l-.308.016c-.623.028-1.233.048-1.833.064l-.466.01q-.689.014-1.357.019l-.5,0q-.654,0-1.286-.008l-.29,0q-.77-.013-1.506-.038l-.4-.015q-.54-.021-1.063-.046l-.468-.025q-.492-.027-.966-.059l-.414-.028c-.347-.025-.685-.052-1.017-.08l-.221-.018q-.6-.052-1.168-.111l-.331-.036c-.265-.028-.528-.057-.781-.087l-.385-.047c-.227-.028-.45-.056-.667-.085l-.37-.05c-.208-.029-.41-.058-.609-.087l-.321-.048c-.233-.036-.458-.071-.678-.107l-.175-.028q-.411-.068-.787-.136l-.2-.038-.515-.1-.25-.049-.4-.08-.234-.049-.352-.076-.19-.042-.334-.077-.133-.031-.372-.09-.309-.079c-.257-.067-.417-.113-.476-.13l-12.048,7,.134.038.185.05c.12.032.265.07.448.116l.014,0,.375.091.147.034.315.073.208.046.336.073.241.05.395.08.174.035.077.014.515.1.2.037q.374.067.783.136l.2.032c.214.035.432.07.658.1l.328.048c.2.029.393.057.6.085l.173.025.205.026q.324.043.664.085l.385.047c.254.03.516.059.782.087l.331.036c.379.039.767.076,1.168.111l.221.018c.332.028.669.055,1.015.08l.139.011.281.017q.469.032.955.059l.48.025c.342.017.692.032,1.046.045l.411.016c.49.016.99.029,1.5.037l.29,0q.633.008,1.286.008h.208l.293,0q.666,0,1.353-.018l.474-.01c.6-.015,1.2-.036,1.826-.063l.323-.017q.788-.038,1.6-.09l.581-.039q.8-.056,1.616-.127c.1-.009.2-.015.309-.024l.087-.009c.752-.068,1.52-.147,2.3-.235l.537-.063c.8-.095,1.615-.2,2.446-.314.587-.083,1.156-.173,1.715-.266.173-.029.342-.059.513-.089q.587-.1,1.154-.211c.1-.018.2-.034.291-.053.068-.013.13-.029.2-.042.6-.12,1.186-.244,1.749-.375l.2-.048c.512-.12,1.007-.245,1.491-.373l.369-.1c.519-.141,1.023-.286,1.508-.434l.232-.074q.638-.2,1.238-.406c.062-.021.13-.041.191-.063l.1-.038c.531-.187,1.038-.378,1.525-.571Z" transform="translate(-0.113 -14.633)" fill="url(#linear-gradient-2)"/>
      <path id="Trazado_628907" data-name="Trazado 628907" d="M1644.3,663.119l-12.048,7-.041,14.229c-.069,1.322-.158,2.609-.259,3.879-.047.6-.1,1.184-.153,1.768-.034.369-.065.742-.1,1.106-.073.722-.154,1.431-.237,2.136-.03.256-.056.517-.087.771-.107.856-.222,1.695-.344,2.525-.017.119-.032.244-.05.362q-.211,1.415-.45,2.78c-.066.374-.138.734-.207,1.1-.1.545-.2,1.095-.308,1.629-.078.388-.164.764-.246,1.146-.106.5-.21,1-.322,1.482-.134.582-.277,1.147-.419,1.714-.076.3-.147.617-.226.917-.189.727-.388,1.436-.59,2.138-.037.128-.07.261-.108.388-.262.9-.536,1.767-.818,2.624-.089.27-.182.531-.273.8-.2.583-.4,1.16-.607,1.724-.1.271-.2.538-.3.805q-.411,1.082-.843,2.119c-.083.2-.165.406-.25.6q-.546,1.279-1.123,2.492c-.19.4-.384.789-.579,1.177-.1.2-.2.415-.306.617q-.429.834-.872,1.635c-.023.042-.044.085-.067.127q-.478.861-.971,1.684c-.106.178-.216.348-.323.524-.226.368-.451.735-.68,1.091-.122.189-.245.372-.368.557-.215.325-.43.649-.648.965-.138.2-.277.394-.416.589q-.312.44-.628.868-.217.293-.436.579-.316.415-.635.818c-.146.184-.292.368-.44.549-.22.27-.442.534-.664.8-.142.167-.283.336-.426.5-.24.275-.481.542-.723.808-.128.141-.256.285-.384.423-.31.333-.623.657-.936.975-.061.062-.122.128-.183.19q-.565.569-1.137,1.107c-.108.1-.218.2-.326.3-.273.253-.547.5-.822.747-.144.127-.288.249-.433.374-.242.209-.484.416-.728.618-.156.129-.312.255-.469.381-.234.188-.468.375-.7.557q-.24.186-.48.368-.352.266-.7.522c-.158.115-.316.23-.474.342-.242.171-.484.338-.727.5-.151.1-.3.207-.453.307-.265.176-.53.344-.794.512-.127.081-.255.165-.383.244q-.587.364-1.174.707h0l12.048-7q.587-.34,1.174-.707c.128-.079.256-.164.384-.245.264-.167.528-.336.791-.51.152-.1.3-.206.457-.31.241-.164.482-.329.722-.5.159-.113.319-.228.478-.344q.35-.255.7-.519.242-.183.484-.371c.233-.181.466-.366.7-.553.158-.127.316-.254.473-.384.241-.2.481-.405.721-.612.146-.126.293-.25.439-.38.271-.239.539-.486.808-.734.114-.1.227-.206.34-.312q.57-.537,1.134-1.1c.067-.068.133-.14.2-.208.308-.313.615-.631.919-.958.13-.14.259-.286.388-.428.24-.264.481-.53.719-.8.144-.165.286-.335.429-.5.221-.261.442-.524.661-.792.148-.182.3-.366.442-.552q.319-.4.634-.816.219-.287.436-.58c.211-.285.419-.575.627-.868.139-.2.278-.39.416-.589.218-.315.432-.638.646-.963.124-.187.248-.37.37-.56.032-.05.065-.1.1-.147.2-.309.39-.629.584-.946.107-.174.216-.344.322-.521q.493-.824.972-1.684c.023-.042.045-.086.068-.128q.442-.8.871-1.633c.1-.2.2-.413.307-.619.172-.343.345-.681.513-1.032.022-.047.043-.1.066-.146q.576-1.212,1.122-2.49c.085-.2.167-.4.25-.605q.432-1.036.842-2.117c.057-.15.118-.289.175-.44.045-.12.085-.248.13-.369.207-.562.407-1.137.6-1.717.092-.269.186-.532.276-.8.281-.856.555-1.726.817-2.621l0-.008c.042-.142.078-.287.118-.426.2-.688.392-1.382.578-2.093.079-.3.152-.622.229-.931.14-.562.281-1.121.414-1.7.01-.045.022-.087.032-.131.1-.447.2-.91.293-1.365.081-.378.166-.749.243-1.132.108-.534.207-1.085.308-1.631.068-.368.141-.727.206-1.1,0-.025.01-.048.014-.073q.232-1.331.437-2.709c.015-.1.028-.211.043-.314.118-.807.232-1.622.336-2.453.005-.039.009-.079.013-.117.031-.253.058-.515.088-.77.083-.705.164-1.414.237-2.137.037-.364.068-.737.1-1.105.042-.454.088-.9.126-1.363.011-.132.016-.273.027-.406.1-1.27.19-2.557.259-3.879Z" transform="translate(-223.755 -202.505)" fill="url(#linear-gradient-3)"/>
      <path id="Trazado_628908" data-name="Trazado 628908" d="M1560.913,467.325l.109.1.031.027.191.168,12.048-7-.155-.135-.074-.065-.093-.082-.114-.1-.125-.112-.126-.113-.337-.307-.059-.053-.485-.448-.108-.1q-.21-.2-.445-.417l-.207-.2-.443-.422-.242-.232-.465-.449-.246-.239q-.354-.345-.737-.724l-.04-.039c-.271-.268-.557-.552-.851-.847l-.271-.274c-.211-.212-.424-.428-.646-.653l-.373-.381-.579-.594-.4-.418q-.3-.308-.6-.63l-.45-.471c-.2-.214-.413-.435-.624-.659l-.472-.5c-.226-.24-.458-.489-.69-.739l-.47-.505c-.213-.23-.433-.47-.652-.708-.174-.19-.347-.377-.525-.572-.233-.255-.473-.52-.712-.784l-.514-.567c-.26-.288-.527-.587-.793-.885-.163-.183-.323-.36-.489-.546-.29-.326-.588-.664-.885-1-.152-.172-.3-.339-.454-.514-.339-.387-.687-.787-1.036-1.188l-.327-.375q-.7-.807-1.422-1.652l-.28-.329c-.39-.458-.783-.92-1.184-1.395-.182-.216-.37-.441-.554-.66-.318-.379-.635-.756-.959-1.145-.194-.232-.393-.475-.588-.711-.326-.393-.65-.784-.982-1.188-.216-.264-.439-.538-.658-.806-.319-.39-.637-.779-.961-1.179-.229-.283-.465-.576-.7-.864-.32-.4-.64-.793-.965-1.2-.242-.3-.489-.614-.734-.922-.324-.407-.647-.814-.976-1.23-.343-.434-.69-.878-1.038-1.322-.185-.236-.367-.468-.554-.707q-.817-1.048-1.651-2.131-.866-1.126-1.69-2.217c-.169-.223-.328-.439-.494-.66-.373-.5-.747-.994-1.106-1.479-.148-.2-.288-.393-.434-.591-.388-.526-.774-1.051-1.147-1.564-.193-.266-.378-.524-.566-.787-.313-.435-.627-.869-.929-1.295-.2-.281-.393-.556-.588-.833-.278-.394-.555-.787-.824-1.173-.2-.283-.39-.562-.582-.841-.254-.368-.507-.735-.752-1.1q-.33-.484-.65-.958c-.146-.215-.292-.432-.434-.644-.24-.358-.473-.71-.7-1.059-.123-.185-.248-.373-.368-.556-.275-.419-.542-.829-.8-1.236l-.208-.32q-.489-.76-.948-1.489c-.089-.141-.172-.276-.26-.415-.216-.345-.43-.687-.636-1.021-.109-.177-.214-.349-.321-.523-.177-.289-.352-.576-.522-.857l-.325-.54q-.236-.395-.464-.779l-.313-.531c-.141-.242-.279-.478-.415-.713-.109-.189-.219-.378-.324-.563-.134-.233-.262-.461-.39-.687-.1-.172-.2-.346-.29-.514-.126-.227-.248-.447-.369-.666-.087-.158-.177-.32-.261-.474-.122-.224-.238-.44-.354-.656l-.226-.419c-.057-.107-.109-.208-.165-.314-.159-.3-.314-.6-.462-.882l-.2-.392q-.191-.374-.369-.729l-.188-.375c-.088-.178-.172-.35-.255-.52l-.18-.371c-.08-.167-.156-.327-.231-.485-.054-.115-.11-.232-.162-.342-.06-.128-.115-.25-.172-.372l-.158-.343c-.053-.118-.1-.229-.153-.341l-.14-.314-.124-.285-.125-.291c-.039-.09-.074-.174-.109-.259l-.106-.254-.092-.224-.09-.222-.078-.2c-.024-.06-.048-.121-.069-.175l-.076-.2-.046-.122-.06-.163c-.01-.027-.021-.058-.03-.082-.021-.058-.038-.106-.053-.148l-.01-.028-.039-.114h0l-12.048,7c.007.021.019.057.035.1l.015.042c.014.04.029.084.05.139l.009.025.029.079.052.141.053.141.069.178c.008.022.014.038.023.061l.051.129.074.188.088.217.095.232.031.075.073.173c.036.086.072.171.111.263s.081.189.123.286.082.188.126.289l.036.084c.033.076.073.161.108.239.048.107.095.213.146.326l.166.362c.054.117.107.233.164.355l.047.1c.038.081.082.171.121.255.073.154.146.309.224.471.061.126.125.257.188.387.08.164.161.33.246.5.03.06.055.114.086.175s.074.146.109.216q.175.35.365.719c.066.129.131.257.2.389.148.287.3.583.464.886.044.083.083.159.127.243l.039.072c.068.129.142.264.213.4.121.225.241.449.368.682l.249.451c.125.227.251.454.382.689.09.162.184.328.278.493.133.235.266.47.4.712.1.176.205.356.309.536.086.148.167.291.255.442l.177.3c.1.167.2.336.3.507q.234.4.478.8c.1.173.208.347.314.523.172.285.35.577.53.87.105.172.209.341.316.516.208.337.424.682.642,1.03.085.136.167.268.253.405q.461.732.951,1.494l.2.3c.266.411.535.826.813,1.249.123.187.251.38.376.569.228.345.458.691.694,1.044.145.217.294.438.443.658.133.2.26.389.4.588l.244.355c.249.365.5.735.761,1.108.191.277.382.553.578.834.268.385.545.777.822,1.17.2.278.39.554.591.837.3.422.611.853.921,1.284.192.267.38.53.577.8.375.516.763,1.044,1.153,1.573.13.176.252.345.383.522l.04.053c.349.471.712.954,1.073,1.435.179.238.351.47.532.711q.823,1.09,1.687,2.214.838,1.088,1.656,2.138c.177.227.35.446.525.67.291.372.584.748.872,1.113l.194.245c.32.406.636.8.952,1.2.253.318.508.64.758.952.315.394.625.778.936,1.164.242.3.487.6.726.9.312.385.618.758.925,1.135.231.283.466.572.694.85.314.383.622.753.931,1.126.194.234.393.477.584.707l.055.066c.314.377.619.74.927,1.107.193.23.391.467.582.694.446.529.884,1.043,1.317,1.55l.144.169q.725.848,1.425,1.656l.347.4c.342.393.684.786,1.016,1.165l.022.026c.156.178.3.333.439.5.3.335.591.67.879.994l.488.545c.267.3.534.6.795.887.179.2.352.388.528.582.233.257.467.516.695.765l.538.586c.216.235.432.471.643.7l.13.142c.118.127.228.244.345.369.231.249.461.5.686.735l.467.495.635.67.445.466.6.623.418.432c.193.2.379.391.565.58l.253.259.127.129c.221.225.434.44.645.652l.271.274c.295.3.579.579.851.848l.039.039c.257.254.5.494.738.724l.246.238.464.449.1.094.144.136.448.427.2.192.443.415.111.1q.264.245.485.447l.058.053.338.307.035.032.09.081.125.112Z" transform="translate(-152.747)" fill="url(#linear-gradient-4)"/>
      <path id="Trazado_628909" data-name="Trazado 628909" d="M1354.328,415.07c.222.652,4.445,13.051,22.643,36.7,18.851,24.489,30.892,34.939,31.526,35.489l-.041,14.229c-3.611,69.469-52.015,66.7-54.562,66.557-2.54-2.792-50.81-55.84-54.016-129.244l.04-14.229c.635.182,12.7,3.649,31.616.967C1349.815,422.949,1354.1,415.464,1354.328,415.07Z" transform="translate(0 -19.641)" fill="url(#linear-gradient-5)"/>
      <path id="Trazado_628910" data-name="Trazado 628910" d="M1422.178,524.592l-.027,10.7c-2.781,52.187-32.138,58.669-43.549,59.194-10.252-12-47.07-59.275-49.869-121.83l.009-5.046a91.341,91.341,0,0,0,10.02.535,108.152,108.152,0,0,0,15.11-1.088c8.567-1.212,14.674-3.459,18.989-5.848,3.495,6.561,9.458,16.314,19.372,29.2C1406.7,509.2,1417.409,520.063,1422.178,524.592Z" transform="translate(-21.272 -53.655)" fill="url(#linear-gradient-6)"/>
      <path id="Trazado_628911" data-name="Trazado 628911" d="M1545.97,524.592l-.027,10.7c-2.781,52.187-32.138,58.669-43.549,59.194l-5.741-133.276c3.495,6.561,9.458,16.314,19.372,29.2C1530.494,509.2,1541.2,520.063,1545.97,524.592Z" transform="translate(-145.064 -53.655)" fill="#00c6a5"/>
    </g>
    <g id="Grupo_947568" data-name="Grupo 947568" transform="translate(1287.504 214.332)">
      <g id="Grupo_947563" data-name="Grupo 947563" transform="translate(5.919 15.327)">
        <path id="Trazado_628891" data-name="Trazado 628891" d="M1934.1,1492.554l-2.3-30.114c0-1.218,3-2.981,4.676-1.984l22.58,13.428c.551.328,1.688-.29,2.22-.648l2.688-1.511a2.118,2.118,0,0,1,2.228-.085l13.275,7.528a3.251,3.251,0,0,1,1.647,2.828v36.518c0,2.16-3.463,3.755-4.551,3.129l-40.942-26.465A3.027,3.027,0,0,1,1934.1,1492.554Z" transform="translate(-1931.415 -1460.163)" fill="url(#linear-gradient-7)"/>
        <path id="Trazado_628892" data-name="Trazado 628892" d="M1957.642,1507.688v-30.748a1.571,1.571,0,0,1,2.374-1.35l22.58,13.428a1.659,1.659,0,0,0,1.774-.049l3.134-2.11a2.118,2.118,0,0,1,2.228-.085l13.275,7.528a3.25,3.25,0,0,1,1.647,2.828v36.518a1.633,1.633,0,0,1-2.447,1.416l-43.046-24.752A3.027,3.027,0,0,1,1957.642,1507.688Z" transform="translate(-1957.642 -1473.786)" fill="#ffac73"/>
      </g>
      <path id="Trazado_628893" data-name="Trazado 628893" d="M1957.935,2019.139l-5.863,3.71v-3.161l5.863-3.71Z" transform="translate(-1904.425 -1942.822)" fill="#ea8b57"/>
      <path id="Trazado_628894" data-name="Trazado 628894" d="M1960.873,2005.805l-3.23-1.591v3.635Z" transform="translate(-1907.942 -1932.282)" fill="#ffcca9"/>
      <g id="Grupo_947565" data-name="Grupo 947565" transform="translate(7.836)">
        <path id="Trazado_628895" data-name="Trazado 628895" d="M2005.317,1385.355l-39.913-22.321v-48.811a1.371,1.371,0,0,1,2.04-1.2l38.539,21.552a4.089,4.089,0,0,1,2.093,3.568v45.59A1.854,1.854,0,0,1,2005.317,1385.355Z" transform="translate(-1963.788 -1312.85)" fill="url(#linear-gradient-8)"/>
        <path id="Trazado_628896" data-name="Trazado 628896" d="M2020.841,1393.3l-39.913-22.321v-48.811a1.371,1.371,0,0,1,2.04-1.2l38.539,21.552a4.088,4.088,0,0,1,2.093,3.568v45.59A1.854,1.854,0,0,1,2020.841,1393.3Z" transform="translate(-1980.928 -1319.966)" fill="url(#linear-gradient-9)"/>
        <g id="Grupo_947564" data-name="Grupo 947564" transform="translate(6.456 10.766)">
          <path id="Trazado_628897" data-name="Trazado 628897" d="M2142.987,1429.349l-19.63-11.022a1.909,1.909,0,0,1-.932-1.458h0c0-.512.419-.695.932-.406l19.63,11.022a1.91,1.91,0,0,1,.932,1.458h0C2143.918,1429.456,2143.5,1429.639,2142.987,1429.349Z" transform="translate(-2122.425 -1416.326)" fill="url(#linear-gradient-10)"/>
          <path id="Trazado_628898" data-name="Trazado 628898" d="M2070.527,1471.232l-28.044-15.774a1.909,1.909,0,0,1-.932-1.458h0c0-.512.419-.695.932-.406l28.044,15.774a1.909,1.909,0,0,1,.932,1.458h0C2071.459,1471.339,2071.04,1471.521,2070.527,1471.232Z" transform="translate(-2041.551 -1449.593)" fill="url(#linear-gradient-11)"/>
          <path id="Trazado_628899" data-name="Trazado 628899" d="M2070.527,1508.362l-28.044-15.774a1.909,1.909,0,0,1-.932-1.458h0c0-.513.419-.7.932-.406l28.044,15.774a1.909,1.909,0,0,1,.932,1.458h0C2071.459,1508.469,2071.04,1508.652,2070.527,1508.362Z" transform="translate(-2041.551 -1482.861)" fill="url(#linear-gradient-11)"/>
          <path id="Trazado_628900" data-name="Trazado 628900" d="M2070.527,1545.493l-28.044-15.774a1.909,1.909,0,0,1-.932-1.458h0c0-.512.419-.695.932-.406l28.044,15.774a1.91,1.91,0,0,1,.932,1.458h0C2071.459,1545.6,2071.04,1545.782,2070.527,1545.493Z" transform="translate(-2041.551 -1516.128)" fill="url(#linear-gradient-11)"/>
          <path id="Trazado_628901" data-name="Trazado 628901" d="M2096.064,1580.948l-25.079-14.1a1.91,1.91,0,0,1-.932-1.458h0c0-.512.419-.7.932-.406l25.079,14.1a1.909,1.909,0,0,1,.932,1.458h0C2097,1581.055,2096.577,1581.238,2096.064,1580.948Z" transform="translate(-2070.054 -1549.395)" fill="url(#linear-gradient-14)"/>
        </g>
      </g>
      <g id="Grupo_947567" data-name="Grupo 947567" transform="translate(0 18.961)">
        <path id="Trazado_628902" data-name="Trazado 628902" d="M1990.992,1527.486l-2.3-30.114c0-1.218,3-2.981,4.676-1.983l22.58,13.428c.551.328,1.688-.29,2.22-.648l2.689-1.511a2.118,2.118,0,0,1,2.227-.085l13.275,7.528a3.251,3.251,0,0,1,1.647,2.828v36.518c0,2.16-3.463,3.755-4.552,3.129l-40.942-26.465A3.026,3.026,0,0,1,1990.992,1527.486Z" transform="translate(-1988.304 -1495.095)" fill="url(#linear-gradient-15)"/>
        <path id="Trazado_628903" data-name="Trazado 628903" d="M2014.532,1542.621v-30.748a1.57,1.57,0,0,1,2.373-1.35l22.58,13.428a1.659,1.659,0,0,0,1.774-.05l3.134-2.11a2.118,2.118,0,0,1,2.227-.085l13.275,7.528a3.251,3.251,0,0,1,1.647,2.828v36.518A1.633,1.633,0,0,1,2059.1,1570l-43.047-24.751A3.027,3.027,0,0,1,2014.532,1542.621Z" transform="translate(-2014.532 -1508.718)" fill="url(#linear-gradient-16)"/>
        <g id="Grupo_947566" data-name="Grupo 947566" transform="translate(0.598 1.583)">
          <path id="Trazado_628904" data-name="Trazado 628904" d="M2239.614,1524.2a1.659,1.659,0,0,1-1.774.05l-22.58-13.428a1.546,1.546,0,0,0-1.19-.172,1.56,1.56,0,0,1,1.775-.119l22.58,13.428a1.657,1.657,0,0,0,1.3.168Z" transform="translate(-2214.069 -1510.305)" fill="url(#linear-gradient-17)"/>
          <path id="Trazado_628905" data-name="Trazado 628905" d="M2031.141,1664.726v-36.518a3.251,3.251,0,0,0-1.647-2.828l-13.275-7.528a2.119,2.119,0,0,0-1.687-.175l.044-.03a2.118,2.118,0,0,1,2.228-.085l13.275,7.528a3.251,3.251,0,0,1,1.647,2.828v36.518a1.628,1.628,0,0,1-1.215,1.578A1.612,1.612,0,0,0,2031.141,1664.726Z" transform="translate(-1985.313 -1606.156)" fill="url(#linear-gradient-18)"/>
        </g>
      </g>
    </g>
  </g>
</svg>
