<svg xmlns="http://www.w3.org/2000/svg" width="368" height="132" viewBox="0 0 368 132">
  <g id="Grupo_947624" data-name="Grupo 947624" transform="translate(6360 10874)">
    <path id="Trazado_628985" data-name="Trazado 628985" d="M0,0H155V49H0Z" transform="translate(-6360 -10874)" fill="#294ddc"/>
    <path id="Trazado_628986" data-name="Trazado 628986" d="M.939,0V-9.242H3.669A4.281,4.281,0,0,1,5.843-8.7,3.722,3.722,0,0,1,7.313-7.147a4.916,4.916,0,0,1,.521,2.3v.463a4.9,4.9,0,0,1-.524,2.311A3.677,3.677,0,0,1,5.818-.54,4.48,4.48,0,0,1,3.6,0ZM2.545-7.947v6.652H3.593a2.414,2.414,0,0,0,1.939-.789,3.431,3.431,0,0,0,.689-2.265v-.513a3.521,3.521,0,0,0-.654-2.293,2.32,2.32,0,0,0-1.9-.792ZM12.308.127A3.191,3.191,0,0,1,9.931-.8a3.35,3.35,0,0,1-.911-2.46v-.19a4.121,4.121,0,0,1,.4-1.838,3.02,3.02,0,0,1,1.114-1.26A2.945,2.945,0,0,1,12.13-7a2.7,2.7,0,0,1,2.168.9,3.785,3.785,0,0,1,.765,2.533v.622H10.575A2.063,2.063,0,0,0,11.143-1.6a1.706,1.706,0,0,0,1.254.5,2.089,2.089,0,0,0,1.727-.857l.832.793a2.777,2.777,0,0,1-1.1.955A3.448,3.448,0,0,1,12.308.127Zm-.184-5.884a1.3,1.3,0,0,0-1.025.444,2.3,2.3,0,0,0-.5,1.238H13.54v-.114a1.875,1.875,0,0,0-.413-1.171A1.289,1.289,0,0,0,12.124-5.757Zm6.068-2.78v1.669H19.4v1.143H18.192v3.834a.844.844,0,0,0,.156.568.721.721,0,0,0,.555.175,2.376,2.376,0,0,0,.54-.063V-.019a3.8,3.8,0,0,1-1.016.146q-1.777,0-1.777-1.961V-5.726H15.52V-6.868h1.13V-8.538ZM23.607.127A3.191,3.191,0,0,1,21.23-.8a3.35,3.35,0,0,1-.911-2.46v-.19a4.121,4.121,0,0,1,.4-1.838,3.02,3.02,0,0,1,1.114-1.26A2.945,2.945,0,0,1,23.429-7a2.7,2.7,0,0,1,2.168.9,3.785,3.785,0,0,1,.765,2.533v.622H21.874A2.063,2.063,0,0,0,22.442-1.6a1.706,1.706,0,0,0,1.254.5,2.089,2.089,0,0,0,1.727-.857l.832.793a2.777,2.777,0,0,1-1.1.955A3.448,3.448,0,0,1,23.607.127Zm-.184-5.884a1.3,1.3,0,0,0-1.025.444,2.3,2.3,0,0,0-.5,1.238h2.939v-.114a1.875,1.875,0,0,0-.413-1.171A1.289,1.289,0,0,0,23.423-5.757ZM30.38-1.1a1.4,1.4,0,0,0,.958-.336,1.149,1.149,0,0,0,.406-.832H33.2a2.266,2.266,0,0,1-.4,1.2A2.623,2.623,0,0,1,31.783-.2,3.027,3.027,0,0,1,30.4.127a2.928,2.928,0,0,1-2.285-.933,3.7,3.7,0,0,1-.844-2.577v-.159a3.639,3.639,0,0,1,.838-2.51A2.9,2.9,0,0,1,30.393-7a2.822,2.822,0,0,1,2,.714A2.558,2.558,0,0,1,33.2-4.405H31.745a1.412,1.412,0,0,0-.4-.971,1.3,1.3,0,0,0-.962-.381,1.357,1.357,0,0,0-1.155.543,2.769,2.769,0,0,0-.413,1.647v.248a2.815,2.815,0,0,0,.4,1.666A1.356,1.356,0,0,0,30.38-1.1Zm6.8,0a1.4,1.4,0,0,0,.958-.336,1.149,1.149,0,0,0,.406-.832H40a2.266,2.266,0,0,1-.4,1.2A2.623,2.623,0,0,1,38.587-.2,3.027,3.027,0,0,1,37.2.127a2.928,2.928,0,0,1-2.285-.933,3.7,3.7,0,0,1-.844-2.577v-.159a3.639,3.639,0,0,1,.838-2.51A2.9,2.9,0,0,1,37.2-7a2.822,2.822,0,0,1,2,.714A2.558,2.558,0,0,1,40-4.405H38.549a1.412,1.412,0,0,0-.4-.971,1.3,1.3,0,0,0-.962-.381,1.357,1.357,0,0,0-1.155.543,2.769,2.769,0,0,0-.413,1.647v.248a2.815,2.815,0,0,0,.4,1.666A1.356,1.356,0,0,0,37.185-1.1ZM42.809,0H41.266V-6.868h1.542ZM41.171-8.658a.828.828,0,0,1,.225-.595.847.847,0,0,1,.644-.237.858.858,0,0,1,.647.237.822.822,0,0,1,.229.595.8.8,0,0,1-.229.585.865.865,0,0,1-.647.233.854.854,0,0,1-.644-.233A.809.809,0,0,1,41.171-8.658ZM44.2-3.5a4.05,4.05,0,0,1,.4-1.819A2.921,2.921,0,0,1,45.722-6.56,3.166,3.166,0,0,1,47.385-7a3,3,0,0,1,2.257.9,3.52,3.52,0,0,1,.936,2.374l.006.362a4.086,4.086,0,0,1-.39,1.815A2.886,2.886,0,0,1,49.077-.311,3.189,3.189,0,0,1,47.4.127a2.979,2.979,0,0,1-2.326-.968,3.707,3.707,0,0,1-.873-2.58Zm1.542.133a2.767,2.767,0,0,0,.438,1.66,1.424,1.424,0,0,0,1.219.6,1.408,1.408,0,0,0,1.216-.609A3.057,3.057,0,0,0,49.048-3.5a2.732,2.732,0,0,0-.448-1.65,1.429,1.429,0,0,0-1.216-.609,1.416,1.416,0,0,0-1.2.6A3,3,0,0,0,45.741-3.364ZM47.811-9.75h1.758L47.811-7.827l-1.238,0Zm5.51,2.882.044.793a2.469,2.469,0,0,1,2-.92q2.146,0,2.184,2.457V0H56.005V-4.45a1.414,1.414,0,0,0-.282-.968,1.188,1.188,0,0,0-.924-.314,1.486,1.486,0,0,0-1.39.844V0H51.867V-6.868ZM64.759-2.209l1.4-4.659H67.8L65.07,1.041a2.218,2.218,0,0,1-2.133,1.733,2.75,2.75,0,0,1-.743-.115V1.46l.292.019a1.5,1.5,0,0,0,.879-.212,1.409,1.409,0,0,0,.467-.714l.222-.59L61.642-6.868h1.663ZM76.026,0a2.38,2.38,0,0,1-.178-.641,2.4,2.4,0,0,1-1.8.768,2.423,2.423,0,0,1-1.688-.59,1.889,1.889,0,0,1-.654-1.46,1.95,1.95,0,0,1,.816-1.685A3.953,3.953,0,0,1,74.852-4.2H75.8v-.451a1.2,1.2,0,0,0-.3-.854,1.183,1.183,0,0,0-.908-.321,1.359,1.359,0,0,0-.863.263.815.815,0,0,0-.336.67H71.849a1.712,1.712,0,0,1,.375-1.057,2.5,2.5,0,0,1,1.019-.771A3.579,3.579,0,0,1,74.68-7a2.882,2.882,0,0,1,1.923.606,2.162,2.162,0,0,1,.736,1.7v3.1A3.511,3.511,0,0,0,77.6-.108V0ZM74.331-1.111a1.755,1.755,0,0,0,.86-.222,1.484,1.484,0,0,0,.606-.6V-3.225h-.832a2.274,2.274,0,0,0-1.289.3.966.966,0,0,0-.432.844.9.9,0,0,0,.3.708A1.143,1.143,0,0,0,74.331-1.111Zm6.056-5.757.044.793a2.469,2.469,0,0,1,2-.92q2.146,0,2.184,2.457V0H83.072V-4.45a1.414,1.414,0,0,0-.282-.968,1.188,1.188,0,0,0-.924-.314,1.486,1.486,0,0,0-1.39.844V0H78.933V-6.868ZM90.289,0a2.38,2.38,0,0,1-.178-.641,2.4,2.4,0,0,1-1.8.768,2.423,2.423,0,0,1-1.688-.59,1.889,1.889,0,0,1-.654-1.46,1.95,1.95,0,0,1,.816-1.685A3.953,3.953,0,0,1,89.115-4.2h.946v-.451a1.2,1.2,0,0,0-.3-.854,1.183,1.183,0,0,0-.908-.321,1.359,1.359,0,0,0-.863.263.815.815,0,0,0-.336.67H86.112a1.712,1.712,0,0,1,.375-1.057,2.5,2.5,0,0,1,1.019-.771A3.579,3.579,0,0,1,88.943-7a2.882,2.882,0,0,1,1.923.606,2.162,2.162,0,0,1,.736,1.7v3.1a3.511,3.511,0,0,0,.26,1.479V0ZM88.594-1.111a1.755,1.755,0,0,0,.86-.222,1.484,1.484,0,0,0,.606-.6V-3.225h-.832a2.274,2.274,0,0,0-1.289.3.966.966,0,0,0-.432.844.9.9,0,0,0,.3.708A1.143,1.143,0,0,0,88.594-1.111Zm.857-8.639h1.758L89.451-7.827l-1.238,0ZM94.859,0H93.317V-9.75h1.542Zm3.32,0H96.637V-6.868h1.542ZM96.542-8.658a.828.828,0,0,1,.225-.595.847.847,0,0,1,.644-.237.858.858,0,0,1,.647.237.822.822,0,0,1,.229.595.8.8,0,0,1-.229.585.865.865,0,0,1-.647.233.854.854,0,0,1-.644-.233A.809.809,0,0,1,96.542-8.658Zm7.167,6.792a.7.7,0,0,0-.34-.628,3.612,3.612,0,0,0-1.127-.381,5.792,5.792,0,0,1-1.314-.419,1.754,1.754,0,0,1-1.155-1.619,1.828,1.828,0,0,1,.749-1.485,2.961,2.961,0,0,1,1.9-.6,3.081,3.081,0,0,1,1.99.609,1.934,1.934,0,0,1,.759,1.581h-1.542a.951.951,0,0,0-.33-.74,1.265,1.265,0,0,0-.876-.3,1.367,1.367,0,0,0-.828.235.74.74,0,0,0-.321.628.625.625,0,0,0,.3.552,4.1,4.1,0,0,0,1.206.4,5.709,5.709,0,0,1,1.425.476,2.018,2.018,0,0,1,.768.663,1.692,1.692,0,0,1,.251.939,1.789,1.789,0,0,1-.768,1.5,3.275,3.275,0,0,1-2.012.574,3.551,3.551,0,0,1-1.5-.3,2.476,2.476,0,0,1-1.028-.838,1.983,1.983,0,0,1-.368-1.149h1.5a1.087,1.087,0,0,0,.413.841,1.6,1.6,0,0,0,1.009.3,1.56,1.56,0,0,0,.927-.232A.717.717,0,0,0,103.708-1.866ZM108.208,0h-1.542V-6.868h1.542Zm-1.638-8.658a.828.828,0,0,1,.225-.595.847.847,0,0,1,.644-.237.858.858,0,0,1,.647.237.822.822,0,0,1,.229.595.8.8,0,0,1-.229.585.865.865,0,0,1-.647.233.854.854,0,0,1-.644-.233A.809.809,0,0,1,106.571-8.658Zm7.167,6.792a.7.7,0,0,0-.34-.628,3.612,3.612,0,0,0-1.127-.381,5.792,5.792,0,0,1-1.314-.419A1.754,1.754,0,0,1,109.8-4.913a1.828,1.828,0,0,1,.749-1.485,2.961,2.961,0,0,1,1.9-.6,3.081,3.081,0,0,1,1.99.609,1.934,1.934,0,0,1,.759,1.581h-1.542a.951.951,0,0,0-.33-.74,1.265,1.265,0,0,0-.876-.3,1.367,1.367,0,0,0-.828.235.74.74,0,0,0-.321.628.625.625,0,0,0,.3.552,4.1,4.1,0,0,0,1.206.4,5.709,5.709,0,0,1,1.425.476,2.018,2.018,0,0,1,.768.663,1.692,1.692,0,0,1,.251.939,1.789,1.789,0,0,1-.768,1.5,3.275,3.275,0,0,1-2.012.574,3.551,3.551,0,0,1-1.5-.3,2.476,2.476,0,0,1-1.028-.838,1.983,1.983,0,0,1-.368-1.149h1.5a1.087,1.087,0,0,0,.413.841,1.6,1.6,0,0,0,1.009.3,1.56,1.56,0,0,0,.927-.232A.717.717,0,0,0,113.737-1.866Z" transform="translate(-6342 -10846)" fill="#fff"/>
    <path id="Trazado_628987" data-name="Trazado 628987" d="M0,0H183V49H0Z" transform="translate(-6175 -10874)" fill="#294ddc"/>
    <path id="Trazado_628988" data-name="Trazado 628988" d="M7.992-3.009A3.337,3.337,0,0,1,6.9-.7,3.722,3.722,0,0,1,4.367.127,3.6,3.6,0,0,1,2.422-.4a3.437,3.437,0,0,1-1.3-1.489A5.372,5.372,0,0,1,.647-4.126v-.863a5.411,5.411,0,0,1,.463-2.3A3.492,3.492,0,0,1,2.441-8.83a3.71,3.71,0,0,1,2-.54,3.572,3.572,0,0,1,2.463.828A3.461,3.461,0,0,1,7.992-6.2h-1.6a2.283,2.283,0,0,0-.581-1.438,1.92,1.92,0,0,0-1.368-.441,1.875,1.875,0,0,0-1.609.766A3.826,3.826,0,0,0,2.26-5.063v.82A4.059,4.059,0,0,0,2.8-1.956a1.78,1.78,0,0,0,1.571.788,2.076,2.076,0,0,0,1.422-.425,2.218,2.218,0,0,0,.6-1.416Zm1-.489a4.05,4.05,0,0,1,.4-1.819A2.921,2.921,0,0,1,10.512-6.56,3.166,3.166,0,0,1,12.175-7a3,3,0,0,1,2.257.9,3.52,3.52,0,0,1,.936,2.374l.006.362a4.086,4.086,0,0,1-.39,1.815A2.886,2.886,0,0,1,13.866-.311a3.189,3.189,0,0,1-1.679.438A2.979,2.979,0,0,1,9.861-.841a3.707,3.707,0,0,1-.873-2.58Zm1.542.133a2.767,2.767,0,0,0,.438,1.66,1.424,1.424,0,0,0,1.219.6A1.408,1.408,0,0,0,13.4-1.714,3.057,3.057,0,0,0,13.838-3.5a2.732,2.732,0,0,0-.448-1.65,1.429,1.429,0,0,0-1.216-.609,1.416,1.416,0,0,0-1.2.6A3,3,0,0,0,10.531-3.364Zm7.579-3.5.044.793a2.469,2.469,0,0,1,2-.92Q22.3-7,22.337-4.539V0H20.795V-4.45a1.414,1.414,0,0,0-.282-.968,1.188,1.188,0,0,0-.924-.314,1.486,1.486,0,0,0-1.39.844V0H16.656V-6.868Zm7.731-1.669v1.669h1.212v1.143H25.841v3.834A.844.844,0,0,0,26-1.323a.721.721,0,0,0,.555.175,2.376,2.376,0,0,0,.54-.063V-.019a3.8,3.8,0,0,1-1.016.146Q24.3.127,24.3-1.834V-5.726h-1.13V-6.868H24.3V-8.538ZM31.256.127A3.191,3.191,0,0,1,28.879-.8a3.35,3.35,0,0,1-.911-2.46v-.19a4.121,4.121,0,0,1,.4-1.838,3.02,3.02,0,0,1,1.114-1.26A2.945,2.945,0,0,1,31.078-7a2.7,2.7,0,0,1,2.168.9,3.785,3.785,0,0,1,.765,2.533v.622H29.523A2.063,2.063,0,0,0,30.091-1.6a1.706,1.706,0,0,0,1.254.5,2.089,2.089,0,0,0,1.727-.857l.832.793a2.777,2.777,0,0,1-1.1.955A3.448,3.448,0,0,1,31.256.127Zm-.184-5.884a1.3,1.3,0,0,0-1.025.444,2.3,2.3,0,0,0-.5,1.238h2.939v-.114a1.875,1.875,0,0,0-.413-1.171A1.289,1.289,0,0,0,31.072-5.757Zm5.567-1.111.044.793a2.469,2.469,0,0,1,2-.92q2.146,0,2.184,2.457V0H39.324V-4.45a1.414,1.414,0,0,0-.282-.968,1.188,1.188,0,0,0-.924-.314,1.486,1.486,0,0,0-1.39.844V0H35.185V-6.868ZM45.259-1.1a1.4,1.4,0,0,0,.958-.336,1.149,1.149,0,0,0,.406-.832h1.454a2.266,2.266,0,0,1-.4,1.2A2.623,2.623,0,0,1,46.662-.2a3.027,3.027,0,0,1-1.384.324,2.928,2.928,0,0,1-2.285-.933,3.7,3.7,0,0,1-.844-2.577v-.159a3.639,3.639,0,0,1,.838-2.51A2.9,2.9,0,0,1,45.271-7a2.822,2.822,0,0,1,2,.714,2.558,2.558,0,0,1,.809,1.876H46.624a1.412,1.412,0,0,0-.4-.971,1.3,1.3,0,0,0-.962-.381,1.357,1.357,0,0,0-1.155.543,2.769,2.769,0,0,0-.413,1.647v.248a2.815,2.815,0,0,0,.4,1.666A1.356,1.356,0,0,0,45.259-1.1ZM50.883,0H49.34V-6.868h1.542ZM49.245-8.658a.828.828,0,0,1,.225-.595.847.847,0,0,1,.644-.237.858.858,0,0,1,.647.237.822.822,0,0,1,.229.595.8.8,0,0,1-.229.585.865.865,0,0,1-.647.233.854.854,0,0,1-.644-.233A.809.809,0,0,1,49.245-8.658ZM52.273-3.5a4.05,4.05,0,0,1,.4-1.819A2.921,2.921,0,0,1,53.8-6.56,3.166,3.166,0,0,1,55.459-7a3,3,0,0,1,2.257.9,3.52,3.52,0,0,1,.936,2.374l.006.362a4.086,4.086,0,0,1-.39,1.815A2.886,2.886,0,0,1,57.151-.311a3.189,3.189,0,0,1-1.679.438,2.979,2.979,0,0,1-2.326-.968,3.707,3.707,0,0,1-.873-2.58Zm1.542.133a2.767,2.767,0,0,0,.438,1.66,1.424,1.424,0,0,0,1.219.6,1.408,1.408,0,0,0,1.216-.609A3.057,3.057,0,0,0,57.123-3.5a2.732,2.732,0,0,0-.448-1.65,1.429,1.429,0,0,0-1.216-.609,1.416,1.416,0,0,0-1.2.6A3,3,0,0,0,53.815-3.364ZM55.885-9.75h1.758L55.885-7.827l-1.238,0Zm5.51,2.882.044.793a2.469,2.469,0,0,1,2-.92q2.146,0,2.184,2.457V0H64.08V-4.45a1.414,1.414,0,0,0-.282-.968,1.188,1.188,0,0,0-.924-.314,1.486,1.486,0,0,0-1.39.844V0H59.941V-6.868Zm6.018,8.95-.832-.5a4.485,4.485,0,0,0,.5-1.006,3,3,0,0,0,.143-.873v-1.2h1.39L68.612-.381a3.1,3.1,0,0,1-.34,1.349A3.351,3.351,0,0,1,67.412,2.082Zm8.9-1.955A3.191,3.191,0,0,1,73.934-.8a3.35,3.35,0,0,1-.911-2.46v-.19a4.121,4.121,0,0,1,.4-1.838,3.02,3.02,0,0,1,1.114-1.26A2.945,2.945,0,0,1,76.134-7a2.7,2.7,0,0,1,2.168.9,3.785,3.785,0,0,1,.765,2.533v.622H74.579A2.063,2.063,0,0,0,75.147-1.6a1.706,1.706,0,0,0,1.254.5,2.089,2.089,0,0,0,1.727-.857l.832.793a2.777,2.777,0,0,1-1.1.955A3.448,3.448,0,0,1,76.312.127Zm-.184-5.884a1.3,1.3,0,0,0-1.025.444,2.3,2.3,0,0,0-.5,1.238h2.939v-.114a1.875,1.875,0,0,0-.413-1.171A1.289,1.289,0,0,0,76.127-5.757Zm7.731.3a3.817,3.817,0,0,0-.628-.051A1.415,1.415,0,0,0,81.8-4.7V0H80.26V-6.868h1.473l.038.768A1.738,1.738,0,0,1,83.319-7a1.444,1.444,0,0,1,.546.089Zm4.57,0A3.817,3.817,0,0,0,87.8-5.51a1.415,1.415,0,0,0-1.428.813V0H84.83V-6.868H86.3l.038.768A1.738,1.738,0,0,1,87.89-7a1.444,1.444,0,0,1,.546.089ZM93.317,0a2.38,2.38,0,0,1-.178-.641,2.4,2.4,0,0,1-1.8.768,2.423,2.423,0,0,1-1.688-.59,1.889,1.889,0,0,1-.654-1.46,1.95,1.95,0,0,1,.816-1.685A3.953,3.953,0,0,1,92.143-4.2h.946v-.451a1.2,1.2,0,0,0-.3-.854,1.183,1.183,0,0,0-.908-.321,1.359,1.359,0,0,0-.863.263.815.815,0,0,0-.336.67H89.14a1.712,1.712,0,0,1,.375-1.057,2.5,2.5,0,0,1,1.019-.771A3.579,3.579,0,0,1,91.971-7a2.882,2.882,0,0,1,1.923.606,2.162,2.162,0,0,1,.736,1.7v3.1a3.511,3.511,0,0,0,.26,1.479V0ZM91.622-1.111a1.755,1.755,0,0,0,.86-.222,1.484,1.484,0,0,0,.606-.6V-3.225h-.832a2.274,2.274,0,0,0-1.289.3.966.966,0,0,0-.432.844.9.9,0,0,0,.3.708A1.143,1.143,0,0,0,91.622-1.111Zm4.335-2.374a4.083,4.083,0,0,1,.736-2.549A2.359,2.359,0,0,1,98.668-7a2.242,2.242,0,0,1,1.765.762V-9.75h1.542V0h-1.4L100.5-.711a2.274,2.274,0,0,1-1.847.838A2.346,2.346,0,0,1,96.7-.844,4.233,4.233,0,0,1,95.958-3.485Zm1.542.133a2.859,2.859,0,0,0,.4,1.635,1.308,1.308,0,0,0,1.146.587,1.457,1.457,0,0,0,1.384-.844V-4.907a1.435,1.435,0,0,0-1.371-.825,1.318,1.318,0,0,0-1.155.594A3.184,3.184,0,0,0,97.5-3.352ZM105.225,0h-1.542V-6.868h1.542Zm-1.638-8.658a.828.828,0,0,1,.225-.595.847.847,0,0,1,.644-.237.858.858,0,0,1,.647.237.822.822,0,0,1,.229.595.8.8,0,0,1-.229.585.865.865,0,0,1-.647.233.854.854,0,0,1-.644-.233A.809.809,0,0,1,103.587-8.658ZM109.726-1.1a1.4,1.4,0,0,0,.958-.336,1.149,1.149,0,0,0,.406-.832h1.454a2.266,2.266,0,0,1-.4,1.2,2.623,2.623,0,0,1-1.016.879,3.027,3.027,0,0,1-1.384.324,2.928,2.928,0,0,1-2.285-.933,3.7,3.7,0,0,1-.844-2.577v-.159a3.639,3.639,0,0,1,.838-2.51A2.9,2.9,0,0,1,109.738-7a2.822,2.822,0,0,1,2,.714,2.558,2.558,0,0,1,.809,1.876H111.09a1.412,1.412,0,0,0-.4-.971,1.3,1.3,0,0,0-.962-.381,1.357,1.357,0,0,0-1.155.543,2.769,2.769,0,0,0-.413,1.647v.248a2.815,2.815,0,0,0,.4,1.666A1.356,1.356,0,0,0,109.726-1.1ZM117.813,0a2.38,2.38,0,0,1-.178-.641,2.4,2.4,0,0,1-1.8.768,2.423,2.423,0,0,1-1.688-.59,1.889,1.889,0,0,1-.654-1.46,1.95,1.95,0,0,1,.816-1.685,3.953,3.953,0,0,1,2.333-.587h.946v-.451a1.2,1.2,0,0,0-.3-.854,1.183,1.183,0,0,0-.908-.321,1.359,1.359,0,0,0-.863.263.815.815,0,0,0-.336.67h-1.542a1.712,1.712,0,0,1,.375-1.057,2.5,2.5,0,0,1,1.019-.771A3.579,3.579,0,0,1,116.467-7a2.882,2.882,0,0,1,1.923.606,2.162,2.162,0,0,1,.736,1.7v3.1a3.511,3.511,0,0,0,.26,1.479V0Zm-1.695-1.111a1.755,1.755,0,0,0,.86-.222,1.484,1.484,0,0,0,.606-.6V-3.225h-.832a2.274,2.274,0,0,0-1.289.3.966.966,0,0,0-.432.844.9.9,0,0,0,.3.708A1.143,1.143,0,0,0,116.118-1.111Zm7.446.006a1.4,1.4,0,0,0,.958-.336,1.149,1.149,0,0,0,.406-.832h1.454a2.266,2.266,0,0,1-.4,1.2,2.623,2.623,0,0,1-1.016.879,3.027,3.027,0,0,1-1.384.324A2.928,2.928,0,0,1,121.3-.806a3.7,3.7,0,0,1-.844-2.577v-.159a3.639,3.639,0,0,1,.838-2.51A2.9,2.9,0,0,1,123.576-7a2.822,2.822,0,0,1,2,.714,2.558,2.558,0,0,1,.809,1.876h-1.454a1.412,1.412,0,0,0-.4-.971,1.3,1.3,0,0,0-.962-.381,1.357,1.357,0,0,0-1.155.543A2.769,2.769,0,0,0,122-3.567v.248a2.815,2.815,0,0,0,.4,1.666A1.356,1.356,0,0,0,123.563-1.1ZM129.188,0h-1.542V-6.868h1.542ZM127.55-8.658a.828.828,0,0,1,.225-.595.847.847,0,0,1,.644-.237.858.858,0,0,1,.647.237.822.822,0,0,1,.229.595.8.8,0,0,1-.229.585.865.865,0,0,1-.647.233.854.854,0,0,1-.644-.233A.809.809,0,0,1,127.55-8.658ZM130.578-3.5a4.05,4.05,0,0,1,.4-1.819A2.921,2.921,0,0,1,132.1-6.56,3.166,3.166,0,0,1,133.764-7a3,3,0,0,1,2.257.9,3.52,3.52,0,0,1,.936,2.374l.006.362a4.086,4.086,0,0,1-.39,1.815,2.886,2.886,0,0,1-1.117,1.238,3.189,3.189,0,0,1-1.679.438,2.979,2.979,0,0,1-2.326-.968,3.707,3.707,0,0,1-.873-2.58Zm1.542.133a2.767,2.767,0,0,0,.438,1.66,1.424,1.424,0,0,0,1.219.6,1.408,1.408,0,0,0,1.216-.609,3.057,3.057,0,0,0,.435-1.784,2.732,2.732,0,0,0-.448-1.65,1.429,1.429,0,0,0-1.216-.609,1.416,1.416,0,0,0-1.2.6A3,3,0,0,0,132.12-3.364Zm2.069-6.386h1.758l-1.758,1.923-1.238,0Zm5.51,2.882.044.793a2.469,2.469,0,0,1,2-.92q2.146,0,2.184,2.457V0h-1.542V-4.45a1.414,1.414,0,0,0-.282-.968,1.188,1.188,0,0,0-.924-.314,1.486,1.486,0,0,0-1.39.844V0h-1.542V-6.868Zm11.438,4.659,1.4-4.659h1.644l-2.729,7.909a2.218,2.218,0,0,1-2.133,1.733,2.75,2.75,0,0,1-.743-.115V1.46l.292.019a1.5,1.5,0,0,0,.879-.212,1.409,1.409,0,0,0,.467-.714l.222-.59-2.412-6.831h1.663ZM4.335,11.445H2.545V15H.939V5.758h3.25a3.781,3.781,0,0,1,2.469.718,2.54,2.54,0,0,1,.87,2.077,2.6,2.6,0,0,1-.448,1.553,2.848,2.848,0,0,1-1.247.962l2.076,3.849V15H6.189ZM2.545,10.15H4.2a1.836,1.836,0,0,0,1.27-.409,1.428,1.428,0,0,0,.457-1.12A1.52,1.52,0,0,0,5.5,7.472a1.793,1.793,0,0,0-1.26-.419H2.545Zm9.382,4.977A3.191,3.191,0,0,1,9.55,14.2a3.35,3.35,0,0,1-.911-2.46v-.19a4.121,4.121,0,0,1,.4-1.838,3.02,3.02,0,0,1,1.114-1.26A2.945,2.945,0,0,1,11.75,8a2.7,2.7,0,0,1,2.168.9,3.785,3.785,0,0,1,.765,2.533v.622H10.194a2.063,2.063,0,0,0,.568,1.346,1.706,1.706,0,0,0,1.254.5,2.089,2.089,0,0,0,1.727-.857l.832.793a2.777,2.777,0,0,1-1.1.955A3.448,3.448,0,0,1,11.927,15.127Zm-.184-5.884a1.3,1.3,0,0,0-1.025.444,2.3,2.3,0,0,0-.5,1.238h2.939v-.114a1.875,1.875,0,0,0-.413-1.171A1.289,1.289,0,0,0,11.743,9.243ZM18.7,13.9a1.4,1.4,0,0,0,.958-.336,1.149,1.149,0,0,0,.406-.832h1.454a2.266,2.266,0,0,1-.4,1.2A2.623,2.623,0,0,1,20.1,14.8a3.027,3.027,0,0,1-1.384.324,2.928,2.928,0,0,1-2.285-.933,3.7,3.7,0,0,1-.844-2.577v-.159a3.639,3.639,0,0,1,.838-2.51A2.9,2.9,0,0,1,18.713,8a2.822,2.822,0,0,1,2,.714,2.558,2.558,0,0,1,.809,1.876H20.065a1.412,1.412,0,0,0-.4-.971,1.3,1.3,0,0,0-.962-.381,1.357,1.357,0,0,0-1.155.543,2.769,2.769,0,0,0-.413,1.647v.248a2.815,2.815,0,0,0,.4,1.666A1.356,1.356,0,0,0,18.7,13.9Zm8.144.432a2.392,2.392,0,0,1-1.93.8,2.132,2.132,0,0,1-1.692-.654,2.781,2.781,0,0,1-.574-1.892V8.132h1.542v4.431q0,1.308,1.085,1.308a1.524,1.524,0,0,0,1.517-.806V8.132h1.542V15H26.882Zm9.077-2.691a4.089,4.089,0,0,1-.724,2.542,2.514,2.514,0,0,1-3.751.206v3.256H29.9V8.132h1.422l.063.7A2.266,2.266,0,0,1,33.236,8a2.341,2.341,0,0,1,1.971.936,4.2,4.2,0,0,1,.714,2.6ZM34.385,11.5a2.865,2.865,0,0,0-.409-1.631,1.331,1.331,0,0,0-1.171-.6,1.419,1.419,0,0,0-1.358.781V13.1a1.433,1.433,0,0,0,1.371.8,1.329,1.329,0,0,0,1.152-.594A3.153,3.153,0,0,0,34.385,11.5Zm5.865,3.625a3.191,3.191,0,0,1-2.377-.924,3.35,3.35,0,0,1-.911-2.46v-.19a4.121,4.121,0,0,1,.4-1.838,3.02,3.02,0,0,1,1.114-1.26A2.945,2.945,0,0,1,40.073,8a2.7,2.7,0,0,1,2.168.9,3.785,3.785,0,0,1,.765,2.533v.622H38.518a2.063,2.063,0,0,0,.568,1.346,1.706,1.706,0,0,0,1.254.5,2.089,2.089,0,0,0,1.727-.857l.832.793a2.777,2.777,0,0,1-1.1.955A3.448,3.448,0,0,1,40.25,15.127Zm-.184-5.884a1.3,1.3,0,0,0-1.025.444,2.3,2.3,0,0,0-.5,1.238h2.939v-.114a1.875,1.875,0,0,0-.413-1.171A1.289,1.289,0,0,0,40.066,9.243Zm7.731.3a3.817,3.817,0,0,0-.628-.051,1.415,1.415,0,0,0-1.428.813V15H44.2V8.132h1.473l.038.768A1.738,1.738,0,0,1,47.258,8a1.444,1.444,0,0,1,.546.089ZM52.686,15a2.381,2.381,0,0,1-.178-.641,2.595,2.595,0,0,1-3.491.178,1.889,1.889,0,0,1-.654-1.46,1.95,1.95,0,0,1,.816-1.685,3.953,3.953,0,0,1,2.333-.587h.946v-.451a1.2,1.2,0,0,0-.3-.854,1.183,1.183,0,0,0-.908-.321,1.359,1.359,0,0,0-.863.263.815.815,0,0,0-.336.67H48.509a1.712,1.712,0,0,1,.375-1.057A2.5,2.5,0,0,1,49.9,8.284,3.579,3.579,0,0,1,51.34,8a2.882,2.882,0,0,1,1.923.606,2.162,2.162,0,0,1,.736,1.7v3.1a3.511,3.511,0,0,0,.26,1.479V15Zm-1.695-1.111a1.755,1.755,0,0,0,.86-.222,1.484,1.484,0,0,0,.606-.6V11.775h-.832a2.274,2.274,0,0,0-1.289.3.966.966,0,0,0-.432.844.9.9,0,0,0,.3.708A1.143,1.143,0,0,0,50.991,13.889Zm7.446.006a1.4,1.4,0,0,0,.958-.336,1.149,1.149,0,0,0,.406-.832h1.454a2.266,2.266,0,0,1-.4,1.2,2.623,2.623,0,0,1-1.016.879,3.027,3.027,0,0,1-1.384.324,2.928,2.928,0,0,1-2.285-.933,3.7,3.7,0,0,1-.844-2.577v-.159a3.639,3.639,0,0,1,.838-2.51A2.9,2.9,0,0,1,58.449,8a2.822,2.822,0,0,1,2,.714,2.558,2.558,0,0,1,.809,1.876H59.8a1.412,1.412,0,0,0-.4-.971,1.3,1.3,0,0,0-.962-.381,1.357,1.357,0,0,0-1.155.543,2.769,2.769,0,0,0-.413,1.647v.248a2.815,2.815,0,0,0,.4,1.666A1.356,1.356,0,0,0,58.437,13.9ZM64.061,15H62.518V8.132h1.542ZM62.423,6.342a.828.828,0,0,1,.225-.595.847.847,0,0,1,.644-.237.858.858,0,0,1,.647.237.822.822,0,0,1,.229.595.8.8,0,0,1-.229.585.865.865,0,0,1-.647.233.854.854,0,0,1-.644-.233A.809.809,0,0,1,62.423,6.342ZM65.451,11.5a4.05,4.05,0,0,1,.4-1.819A2.921,2.921,0,0,1,66.974,8.44,3.166,3.166,0,0,1,68.637,8a3,3,0,0,1,2.257.9,3.52,3.52,0,0,1,.936,2.374l.006.362a4.086,4.086,0,0,1-.39,1.815,2.886,2.886,0,0,1-1.117,1.238,3.189,3.189,0,0,1-1.679.438,2.979,2.979,0,0,1-2.326-.968,3.707,3.707,0,0,1-.873-2.58Zm1.542.133a2.767,2.767,0,0,0,.438,1.66,1.424,1.424,0,0,0,1.219.6,1.408,1.408,0,0,0,1.216-.609A3.057,3.057,0,0,0,70.3,11.5a2.732,2.732,0,0,0-.448-1.65,1.508,1.508,0,0,0-2.415-.01A3,3,0,0,0,66.993,11.636ZM69.063,5.25h1.758L69.063,7.173l-1.238,0Zm5.51,2.882.044.793a2.469,2.469,0,0,1,2-.92q2.146,0,2.184,2.457V15H77.257V10.55a1.414,1.414,0,0,0-.282-.968,1.188,1.188,0,0,0-.924-.314,1.486,1.486,0,0,0-1.39.844V15H73.119V8.132Z" transform="translate(-6164 -10853)" fill="#fff"/>
    <path id="Trazado_628989" data-name="Trazado 628989" d="M0,0H141V49H0Z" transform="translate(-6182 -10808)" fill="#294ddc"/>
    <path id="Trazado_628970" data-name="Trazado 628970" d="M-7880.2-10701.725v20.62H-7954.5v-88.5" transform="translate(1612.115 -61.646)" fill="none" stroke="#0f1e52" stroke-linecap="round" stroke-width="1.5"/>
    <g id="Background" transform="translate(-6352.855 -10806.972) rotate(-90)">
      <path id="Trazado_603916" data-name="Trazado 603916" d="M28.156,9.963,17.553.443a1.733,1.733,0,0,0-2.383.064L12.893,2.785A1.732,1.732,0,0,0,12.957,5.3C14.611,6.789,17.2,9.112,17.2,9.112H1.185A1.185,1.185,0,0,0,0,10.3v4.6a1.185,1.185,0,0,0,1.185,1.185H17.223l-4.241,3.807a1.733,1.733,0,0,0-.068,2.514L15.2,24.682a1.732,1.732,0,0,0,2.383.064l10.575-9.494A3.554,3.554,0,0,0,28.156,9.963Z" transform="translate(0 0)" fill="#d1d3d4"/>
    </g>
    <g id="oject" transform="translate(-6355.421 -10808.639) rotate(-90)">
      <g id="Grupo_881865" data-name="Grupo 881865" transform="translate(0 0)">
        <path id="Trazado_603917" data-name="Trazado 603917" d="M15.171.507,12.893,2.785A1.732,1.732,0,0,0,12.957,5.3C14.611,6.789,17.2,9.112,17.2,9.112H1.185A1.185,1.185,0,0,0,0,10.3v4.6a1.185,1.185,0,0,0,1.185,1.185H17.223l-4.241,3.807a1.733,1.733,0,0,0-.068,2.514L15.2,24.682a1.732,1.732,0,0,0,2.383.064l10.575-9.494a3.554,3.554,0,0,0,0-5.29L17.553.443A1.733,1.733,0,0,0,15.171.507Z" transform="translate(0.449 0.449)" fill="#fcb913"/>
        <g id="Grupo_881864" data-name="Grupo 881864" transform="translate(1.357 9.571)">
          <path id="Trazado_603918" data-name="Trazado 603918" d="M0,1.155H0A1.229,1.229,0,0,0,1.292,2.31H2.986A1.229,1.229,0,0,0,4.278,1.155h0A1.229,1.229,0,0,0,2.986,0H1.292A1.229,1.229,0,0,0,0,1.155Z" transform="translate(11.612)" fill="#ffd95f"/>
          <path id="Trazado_603919" data-name="Trazado 603919" d="M0,1.155H0A1.229,1.229,0,0,0,1.292,2.31H8.359A1.229,1.229,0,0,0,9.651,1.155h0A1.229,1.229,0,0,0,8.359,0H1.292A1.229,1.229,0,0,0,0,1.155Z" fill="#ffd95f"/>
        </g>
        <path id="Trazado_603920" data-name="Trazado 603920" d="M13.637,9.963,3.034.443A1.733,1.733,0,0,0,.652.507L0,1.159l10.88,9.768a2.258,2.258,0,0,1,0,3.36L.028,24.031l.652.652a1.732,1.732,0,0,0,2.383.064l10.575-9.494A3.554,3.554,0,0,0,13.637,9.963Z" transform="translate(14.968 0.449)" fill="#f88f1f"/>
        <path id="Trazado_603921" data-name="Trazado 603921" d="M4.465,10.01a2.176,2.176,0,0,1-1.543-.639L.639,7.088A2.181,2.181,0,0,1,.724,3.922L4.965.115a.449.449,0,1,1,.6.668L1.324,4.59a1.283,1.283,0,0,0-.05,1.863L3.557,8.736a1.284,1.284,0,0,0,1.765.047.449.449,0,0,1,.6.668A2.175,2.175,0,0,1,4.465,10.01Z" transform="translate(12.408 16.078)" fill="#231f20"/>
        <path id="Trazado_603922" data-name="Trazado 603922" d="M13.68,7.863H1.634A1.636,1.636,0,0,1,0,6.229v-4.6A1.636,1.636,0,0,1,1.634,0H4.1a.449.449,0,0,1,0,.9H1.634A.737.737,0,0,0,.9,1.634v4.6a.737.737,0,0,0,.736.736H13.68a.449.449,0,0,1,0,.9Z" transform="translate(0 9.112)" fill="#231f20"/>
        <path id="Trazado_603923" data-name="Trazado 603923" d="M10.52.9H.449a.449.449,0,1,1,0-.9H10.52a.449.449,0,0,1,0,.9Z" transform="translate(7.124 9.112)" fill="#231f20"/>
        <path id="Trazado_603924" data-name="Trazado 603924" d="M3.051,8.023a.447.447,0,0,1-.3-.115L.72,6.079A2.181,2.181,0,0,1,.639,2.917L2.917.639a2.182,2.182,0,0,1,3-.081l2.4,2.152a.449.449,0,0,1-.6.668l-2.4-2.152a1.284,1.284,0,0,0-1.765.048L1.274,3.552a1.283,1.283,0,0,0,.048,1.86L3.351,7.241a.449.449,0,0,1-.3.783Z" transform="translate(12.385)" fill="#231f20"/>
        <path id="Trazado_603925" data-name="Trazado 603925" d="M.449,17.98a.449.449,0,0,1-.3-.783l7.664-6.88a3.105,3.105,0,0,0,0-4.622L2.342.783a.449.449,0,0,1,.6-.668L8.413,5.027a4,4,0,0,1,0,5.958L.749,17.866A.447.447,0,0,1,.449,17.98Z" transform="translate(20.492 5.05)" fill="#231f20"/>
      </g>
    </g>
    <g id="Background-2" data-name="Background" transform="translate(-6214.361 -10861.283)">
      <path id="Trazado_603916-2" data-name="Trazado 603916" d="M799.107,1007.926l-10.6-9.519a1.733,1.733,0,0,0-2.383.064l-2.278,2.278a1.732,1.732,0,0,0,.064,2.511c1.654,1.492,4.238,3.815,4.238,3.815h-16.01a1.185,1.185,0,0,0-1.185,1.185v4.6a1.185,1.185,0,0,0,1.185,1.185h16.039l-4.241,3.807a1.733,1.733,0,0,0-.068,2.514l2.284,2.283a1.732,1.732,0,0,0,2.383.064l10.575-9.494A3.554,3.554,0,0,0,799.107,1007.926Z" transform="translate(-770.951 -997.963)" fill="#d1d3d4"/>
    </g>
    <g id="oject-2" data-name="oject" transform="translate(-6212.694 -10863.849)">
      <g id="Grupo_881865-2" data-name="Grupo 881865" transform="translate(0 0)">
        <path id="Trazado_603917-2" data-name="Trazado 603917" d="M814.122,970.471l-2.278,2.278a1.732,1.732,0,0,0,.064,2.512c1.654,1.492,4.238,3.815,4.238,3.815h-16.01a1.185,1.185,0,0,0-1.185,1.185v4.6a1.185,1.185,0,0,0,1.185,1.185h16.038l-4.241,3.807a1.733,1.733,0,0,0-.068,2.514l2.283,2.283a1.732,1.732,0,0,0,2.383.064l10.575-9.494a3.554,3.554,0,0,0,0-5.29l-10.6-9.519A1.733,1.733,0,0,0,814.122,970.471Z" transform="translate(-798.502 -969.514)" fill="#fcb913"/>
        <g id="Grupo_881864-2" data-name="Grupo 881864" transform="translate(1.357 9.571)">
          <path id="Trazado_603918-2" data-name="Trazado 603918" d="M964.591,1091.811h0a1.229,1.229,0,0,0,1.292,1.155h1.694a1.229,1.229,0,0,0,1.292-1.155h0a1.229,1.229,0,0,0-1.292-1.155h-1.694A1.229,1.229,0,0,0,964.591,1091.811Z" transform="translate(-952.979 -1090.656)" fill="#ffd95f"/>
          <path id="Trazado_603919-2" data-name="Trazado 603919" d="M810.958,1091.811h0a1.229,1.229,0,0,0,1.292,1.155h7.067a1.229,1.229,0,0,0,1.292-1.155h0a1.229,1.229,0,0,0-1.292-1.155H812.25A1.229,1.229,0,0,0,810.958,1091.811Z" transform="translate(-810.958 -1090.656)" fill="#ffd95f"/>
        </g>
        <path id="Trazado_603920-2" data-name="Trazado 603920" d="M1004.675,979.926l-10.6-9.519a1.733,1.733,0,0,0-2.383.064l-.652.652,10.88,9.768a2.258,2.258,0,0,1,0,3.36l-10.852,9.743.652.652a1.732,1.732,0,0,0,2.383.064l10.575-9.494A3.554,3.554,0,0,0,1004.675,979.926Z" transform="translate(-976.07 -969.514)" fill="#f88f1f"/>
        <path id="Trazado_603921-2" data-name="Trazado 603921" d="M961.631,1186.743a2.176,2.176,0,0,1-1.543-.639l-2.283-2.283a2.181,2.181,0,0,1,.085-3.166l4.241-3.807a.449.449,0,1,1,.6.668l-4.241,3.807a1.283,1.283,0,0,0-.05,1.863l2.283,2.284a1.284,1.284,0,0,0,1.765.047.449.449,0,0,1,.6.668A2.175,2.175,0,0,1,961.631,1186.743Z" transform="translate(-944.758 -1160.655)" fill="#231f20"/>
        <path id="Trazado_603922-2" data-name="Trazado 603922" d="M806.69,1092.443H794.644a1.636,1.636,0,0,1-1.634-1.634v-4.6a1.636,1.636,0,0,1,1.634-1.634h2.467a.449.449,0,0,1,0,.9h-2.467a.737.737,0,0,0-.736.736v4.6a.737.737,0,0,0,.736.736H806.69a.449.449,0,0,1,0,.9Z" transform="translate(-793.01 -1075.468)" fill="#231f20"/>
        <path id="Trazado_603923-2" data-name="Trazado 603923" d="M897.788,1085.478H887.717a.449.449,0,1,1,0-.9h10.071a.449.449,0,0,1,0,.9Z" transform="translate(-880.144 -1075.468)" fill="#231f20"/>
        <path id="Trazado_603924-2" data-name="Trazado 603924" d="M959.916,972.047a.447.447,0,0,1-.3-.115l-2.03-1.829a2.181,2.181,0,0,1-.081-3.162l2.278-2.278a2.182,2.182,0,0,1,3-.081l2.4,2.152a.449.449,0,0,1-.6.668l-2.4-2.152a1.284,1.284,0,0,0-1.765.048l-2.278,2.278a1.283,1.283,0,0,0,.048,1.86l2.029,1.828a.449.449,0,0,1-.3.783Z" transform="translate(-944.48 -964.023)" fill="#231f20"/>
        <path id="Trazado_603925-2" data-name="Trazado 603925" d="M1064.575,1048.823a.449.449,0,0,1-.3-.783l7.664-6.881a3.106,3.106,0,0,0,0-4.621l-5.471-4.912a.449.449,0,0,1,.6-.668l5.471,4.912a4,4,0,0,1,0,5.958l-7.664,6.881A.447.447,0,0,1,1064.575,1048.823Z" transform="translate(-1043.634 -1025.792)" fill="#231f20"/>
      </g>
    </g>
    <path id="Trazado_628990" data-name="Trazado 628990" d="M6.113-2.152H2.533L1.784,0H.114L3.605-9.242H5.046L8.544,0H6.868ZM2.983-3.447H5.662L4.323-7.281ZM12.264-1.1a1.4,1.4,0,0,0,.958-.336,1.149,1.149,0,0,0,.406-.832h1.454a2.266,2.266,0,0,1-.4,1.2A2.623,2.623,0,0,1,13.667-.2a3.027,3.027,0,0,1-1.384.324A2.928,2.928,0,0,1,10-.806a3.7,3.7,0,0,1-.844-2.577v-.159a3.639,3.639,0,0,1,.838-2.51A2.9,2.9,0,0,1,12.276-7a2.822,2.822,0,0,1,2,.714,2.558,2.558,0,0,1,.809,1.876H13.628a1.412,1.412,0,0,0-.4-.971,1.3,1.3,0,0,0-.962-.381,1.357,1.357,0,0,0-1.155.543A2.769,2.769,0,0,0,10.7-3.567v.248a2.815,2.815,0,0,0,.4,1.666A1.356,1.356,0,0,0,12.264-1.1ZM18.18-8.538v1.669h1.212v1.143H18.18v3.834a.844.844,0,0,0,.156.568.721.721,0,0,0,.555.175,2.376,2.376,0,0,0,.54-.063V-.019a3.8,3.8,0,0,1-1.016.146q-1.777,0-1.777-1.961V-5.726h-1.13V-6.868h1.13V-8.538ZM22.21,0H20.668V-6.868H22.21ZM20.573-8.658a.828.828,0,0,1,.225-.595.847.847,0,0,1,.644-.237.858.858,0,0,1,.647.237.822.822,0,0,1,.229.595.8.8,0,0,1-.229.585.865.865,0,0,1-.647.233.854.854,0,0,1-.644-.233A.809.809,0,0,1,20.573-8.658Zm5.738,6.7,1.454-4.913h1.593L26.978,0H25.638l-2.4-6.868h1.6ZM31.96,0H30.418V-6.868H31.96ZM30.323-8.658a.828.828,0,0,1,.225-.595.847.847,0,0,1,.644-.237.858.858,0,0,1,.647.237.822.822,0,0,1,.229.595.8.8,0,0,1-.229.585.865.865,0,0,1-.647.233.854.854,0,0,1-.644-.233A.809.809,0,0,1,30.323-8.658Zm3.028,5.173a4.083,4.083,0,0,1,.736-2.549A2.359,2.359,0,0,1,36.061-7a2.242,2.242,0,0,1,1.765.762V-9.75h1.542V0h-1.4L37.9-.711a2.274,2.274,0,0,1-1.847.838A2.346,2.346,0,0,1,34.1-.844,4.233,4.233,0,0,1,33.351-3.485Zm1.542.133a2.859,2.859,0,0,0,.4,1.635,1.308,1.308,0,0,0,1.146.587,1.457,1.457,0,0,0,1.384-.844V-4.907a1.435,1.435,0,0,0-1.371-.825,1.318,1.318,0,0,0-1.155.594A3.184,3.184,0,0,0,34.893-3.352ZM45.081,0A2.381,2.381,0,0,1,44.9-.641a2.4,2.4,0,0,1-1.8.768,2.423,2.423,0,0,1-1.688-.59,1.889,1.889,0,0,1-.654-1.46,1.95,1.95,0,0,1,.816-1.685A3.953,3.953,0,0,1,43.907-4.2h.946v-.451a1.2,1.2,0,0,0-.3-.854,1.183,1.183,0,0,0-.908-.321,1.359,1.359,0,0,0-.863.263.815.815,0,0,0-.336.67H40.9a1.712,1.712,0,0,1,.375-1.057A2.5,2.5,0,0,1,42.3-6.716,3.579,3.579,0,0,1,43.735-7a2.882,2.882,0,0,1,1.923.606,2.162,2.162,0,0,1,.736,1.7v3.1a3.511,3.511,0,0,0,.26,1.479V0ZM43.386-1.111a1.755,1.755,0,0,0,.86-.222,1.484,1.484,0,0,0,.606-.6V-3.225h-.832a2.274,2.274,0,0,0-1.289.3.966.966,0,0,0-.432.844.9.9,0,0,0,.3.708A1.143,1.143,0,0,0,43.386-1.111Zm4.335-2.374a4.083,4.083,0,0,1,.736-2.549A2.359,2.359,0,0,1,50.432-7a2.242,2.242,0,0,1,1.765.762V-9.75h1.542V0h-1.4l-.076-.711a2.274,2.274,0,0,1-1.847.838,2.346,2.346,0,0,1-1.952-.971A4.233,4.233,0,0,1,47.722-3.485Zm1.542.133a2.859,2.859,0,0,0,.4,1.635,1.308,1.308,0,0,0,1.146.587A1.457,1.457,0,0,0,52.2-1.974V-4.907a1.435,1.435,0,0,0-1.371-.825,1.318,1.318,0,0,0-1.155.594A3.184,3.184,0,0,0,49.264-3.352ZM58.373.127A3.191,3.191,0,0,1,56-.8a3.35,3.35,0,0,1-.911-2.46v-.19a4.121,4.121,0,0,1,.4-1.838A3.02,3.02,0,0,1,56.6-6.544,2.945,2.945,0,0,1,58.2-7a2.7,2.7,0,0,1,2.168.9,3.785,3.785,0,0,1,.765,2.533v.622H56.64A2.063,2.063,0,0,0,57.208-1.6a1.706,1.706,0,0,0,1.254.5,2.089,2.089,0,0,0,1.727-.857l.832.793a2.777,2.777,0,0,1-1.1.955A3.448,3.448,0,0,1,58.373.127Zm-.184-5.884a1.3,1.3,0,0,0-1.025.444,2.3,2.3,0,0,0-.5,1.238H59.6v-.114a1.875,1.875,0,0,0-.413-1.171A1.289,1.289,0,0,0,58.189-5.757Zm7.985,3.891a.7.7,0,0,0-.34-.628,3.612,3.612,0,0,0-1.127-.381,5.792,5.792,0,0,1-1.314-.419,1.754,1.754,0,0,1-1.155-1.619A1.828,1.828,0,0,1,62.988-6.4a2.961,2.961,0,0,1,1.9-.6,3.081,3.081,0,0,1,1.99.609,1.934,1.934,0,0,1,.759,1.581H66.1a.951.951,0,0,0-.33-.74,1.265,1.265,0,0,0-.876-.3,1.367,1.367,0,0,0-.828.235.74.74,0,0,0-.321.628.625.625,0,0,0,.3.552,4.1,4.1,0,0,0,1.206.4,5.709,5.709,0,0,1,1.425.476,2.018,2.018,0,0,1,.768.663,1.692,1.692,0,0,1,.251.939,1.789,1.789,0,0,1-.768,1.5,3.275,3.275,0,0,1-2.012.574,3.551,3.551,0,0,1-1.5-.3,2.476,2.476,0,0,1-1.028-.838,1.983,1.983,0,0,1-.368-1.149h1.5a1.087,1.087,0,0,0,.413.841,1.6,1.6,0,0,0,1.009.3,1.56,1.56,0,0,0,.927-.232A.717.717,0,0,0,66.174-1.866Zm12.111-1.5a4.089,4.089,0,0,1-.724,2.542A2.318,2.318,0,0,1,75.62.127a2.333,2.333,0,0,1-1.809-.743V2.641H72.268V-6.868H73.69l.063.7A2.266,2.266,0,0,1,75.6-7a2.341,2.341,0,0,1,1.971.936,4.2,4.2,0,0,1,.714,2.6ZM76.75-3.5a2.865,2.865,0,0,0-.409-1.631,1.331,1.331,0,0,0-1.171-.6,1.419,1.419,0,0,0-1.358.781V-1.9a1.433,1.433,0,0,0,1.371.8A1.329,1.329,0,0,0,76.334-1.7,3.153,3.153,0,0,0,76.75-3.5Zm2.552,0a4.05,4.05,0,0,1,.4-1.819A2.921,2.921,0,0,1,80.825-6.56,3.166,3.166,0,0,1,82.488-7a3,3,0,0,1,2.257.9,3.52,3.52,0,0,1,.936,2.374l.006.362a4.086,4.086,0,0,1-.39,1.815A2.886,2.886,0,0,1,84.179-.311,3.189,3.189,0,0,1,82.5.127a2.979,2.979,0,0,1-2.326-.968,3.707,3.707,0,0,1-.873-2.58Zm1.542.133a2.767,2.767,0,0,0,.438,1.66,1.424,1.424,0,0,0,1.219.6,1.408,1.408,0,0,0,1.216-.609A3.057,3.057,0,0,0,84.151-3.5a2.732,2.732,0,0,0-.448-1.65,1.429,1.429,0,0,0-1.216-.609,1.416,1.416,0,0,0-1.2.6A3,3,0,0,0,80.844-3.364Zm10,1.5a.7.7,0,0,0-.34-.628,3.612,3.612,0,0,0-1.127-.381,5.792,5.792,0,0,1-1.314-.419,1.754,1.754,0,0,1-1.155-1.619A1.828,1.828,0,0,1,87.655-6.4a2.961,2.961,0,0,1,1.9-.6,3.081,3.081,0,0,1,1.99.609,1.934,1.934,0,0,1,.759,1.581H90.765a.951.951,0,0,0-.33-.74,1.265,1.265,0,0,0-.876-.3,1.367,1.367,0,0,0-.828.235.74.74,0,0,0-.321.628.625.625,0,0,0,.3.552,4.1,4.1,0,0,0,1.206.4,5.709,5.709,0,0,1,1.425.476,2.018,2.018,0,0,1,.768.663,1.692,1.692,0,0,1,.251.939,1.789,1.789,0,0,1-.768,1.5,3.275,3.275,0,0,1-2.012.574,3.551,3.551,0,0,1-1.5-.3,2.476,2.476,0,0,1-1.028-.838,1.983,1.983,0,0,1-.368-1.149h1.5a1.087,1.087,0,0,0,.413.841,1.6,1.6,0,0,0,1.009.3,1.56,1.56,0,0,0,.927-.232A.717.717,0,0,0,90.841-1.866Zm4.792-6.671v1.669h1.212v1.143H95.634v3.834a.844.844,0,0,0,.156.568.721.721,0,0,0,.555.175,2.376,2.376,0,0,0,.54-.063V-.019a3.8,3.8,0,0,1-1.016.146q-1.777,0-1.777-1.961V-5.726h-1.13V-6.868h1.13V-8.538Zm8.62,5.23h-3.333V-4.551h3.333ZM2.431,15H.889V8.132H2.431ZM.793,6.342a.828.828,0,0,1,.225-.595.847.847,0,0,1,.644-.237.858.858,0,0,1,.647.237.822.822,0,0,1,.229.595.8.8,0,0,1-.229.585.865.865,0,0,1-.647.233.854.854,0,0,1-.644-.233A.809.809,0,0,1,.793,6.342Zm4.748,1.79.044.793a2.469,2.469,0,0,1,2-.92q2.146,0,2.184,2.457V15H8.227V10.55a1.414,1.414,0,0,0-.282-.968,1.188,1.188,0,0,0-.924-.314,1.486,1.486,0,0,0-1.39.844V15H4.088V8.132Zm8.62,5.764a1.4,1.4,0,0,0,.958-.336,1.149,1.149,0,0,0,.406-.832H16.98a2.266,2.266,0,0,1-.4,1.2,2.623,2.623,0,0,1-1.016.879,3.027,3.027,0,0,1-1.384.324,2.928,2.928,0,0,1-2.285-.933,3.7,3.7,0,0,1-.844-2.577v-.159a3.639,3.639,0,0,1,.838-2.51A2.9,2.9,0,0,1,14.174,8a2.822,2.822,0,0,1,2,.714,2.558,2.558,0,0,1,.809,1.876H15.526a1.412,1.412,0,0,0-.4-.971,1.3,1.3,0,0,0-.962-.381,1.357,1.357,0,0,0-1.155.543,2.769,2.769,0,0,0-.413,1.647v.248a2.815,2.815,0,0,0,.4,1.666A1.356,1.356,0,0,0,14.162,13.9ZM19.786,15H18.243V8.132h1.542ZM18.148,6.342a.828.828,0,0,1,.225-.595.847.847,0,0,1,.644-.237.858.858,0,0,1,.647.237.822.822,0,0,1,.229.595.8.8,0,0,1-.229.585.865.865,0,0,1-.647.233.854.854,0,0,1-.644-.233A.809.809,0,0,1,18.148,6.342Zm3.028,5.173a4.083,4.083,0,0,1,.736-2.549A2.359,2.359,0,0,1,23.886,8a2.242,2.242,0,0,1,1.765.762V5.25h1.542V15H25.8l-.076-.711a2.274,2.274,0,0,1-1.847.838,2.346,2.346,0,0,1-1.952-.971A4.233,4.233,0,0,1,21.176,11.515Zm1.542.133a2.859,2.859,0,0,0,.4,1.635,1.308,1.308,0,0,0,1.146.587,1.457,1.457,0,0,0,1.384-.844V10.093a1.435,1.435,0,0,0-1.371-.825,1.318,1.318,0,0,0-1.155.594A3.184,3.184,0,0,0,22.718,11.648Zm9.109,3.479A3.191,3.191,0,0,1,29.45,14.2a3.35,3.35,0,0,1-.911-2.46v-.19a4.121,4.121,0,0,1,.4-1.838,3.02,3.02,0,0,1,1.114-1.26A2.945,2.945,0,0,1,31.649,8a2.7,2.7,0,0,1,2.168.9,3.785,3.785,0,0,1,.765,2.533v.622H30.094a2.063,2.063,0,0,0,.568,1.346,1.706,1.706,0,0,0,1.254.5,2.089,2.089,0,0,0,1.727-.857l.832.793a2.777,2.777,0,0,1-1.1.955A3.448,3.448,0,0,1,31.827,15.127Zm-.184-5.884a1.3,1.3,0,0,0-1.025.444,2.3,2.3,0,0,0-.5,1.238h2.939v-.114a1.875,1.875,0,0,0-.413-1.171A1.289,1.289,0,0,0,31.643,9.243ZM37.21,8.132l.044.793a2.469,2.469,0,0,1,2-.92q2.146,0,2.184,2.457V15H39.9V10.55a1.414,1.414,0,0,0-.282-.968,1.188,1.188,0,0,0-.924-.314,1.486,1.486,0,0,0-1.39.844V15H35.756V8.132Zm7.731-1.669V8.132h1.212V9.274H44.941v3.834a.844.844,0,0,0,.156.568.721.721,0,0,0,.555.175,2.376,2.376,0,0,0,.54-.063v1.193a3.8,3.8,0,0,1-1.016.146q-1.777,0-1.777-1.961V9.274h-1.13V8.132H43.4V6.462Zm5.415,8.665a3.191,3.191,0,0,1-2.377-.924,3.35,3.35,0,0,1-.911-2.46v-.19a4.121,4.121,0,0,1,.4-1.838,3.02,3.02,0,0,1,1.114-1.26A2.945,2.945,0,0,1,50.178,8a2.7,2.7,0,0,1,2.168.9,3.785,3.785,0,0,1,.765,2.533v.622H48.623a2.063,2.063,0,0,0,.568,1.346,1.706,1.706,0,0,0,1.254.5,2.089,2.089,0,0,0,1.727-.857l.832.793a2.777,2.777,0,0,1-1.1.955A3.448,3.448,0,0,1,50.356,15.127Zm-.184-5.884a1.3,1.3,0,0,0-1.025.444,2.3,2.3,0,0,0-.5,1.238h2.939v-.114a1.875,1.875,0,0,0-.413-1.171A1.289,1.289,0,0,0,50.172,9.243Zm7.985,3.891a.7.7,0,0,0-.34-.628,3.612,3.612,0,0,0-1.127-.381,5.792,5.792,0,0,1-1.314-.419,1.754,1.754,0,0,1-1.155-1.619A1.828,1.828,0,0,1,54.971,8.6a2.961,2.961,0,0,1,1.9-.6,3.081,3.081,0,0,1,1.99.609,1.934,1.934,0,0,1,.759,1.581H58.081a.951.951,0,0,0-.33-.74,1.265,1.265,0,0,0-.876-.3,1.367,1.367,0,0,0-.828.235.74.74,0,0,0-.321.628.625.625,0,0,0,.3.552,4.1,4.1,0,0,0,1.206.4,5.709,5.709,0,0,1,1.425.476,2.018,2.018,0,0,1,.768.663,1.692,1.692,0,0,1,.251.939,1.789,1.789,0,0,1-.768,1.5,3.275,3.275,0,0,1-2.012.574,3.551,3.551,0,0,1-1.5-.3,2.476,2.476,0,0,1-1.028-.838,1.983,1.983,0,0,1-.368-1.149h1.5a1.087,1.087,0,0,0,.413.841,1.6,1.6,0,0,0,1.009.3,1.56,1.56,0,0,0,.927-.232A.717.717,0,0,0,58.157,13.134Z" transform="translate(-6166 -10788)" fill="#fff"/>
    <g id="Background-3" data-name="Background" transform="translate(-6024.634 -10774.017) rotate(180)">
      <path id="Trazado_603916-3" data-name="Trazado 603916" d="M28.156,9.963,17.553.443a1.733,1.733,0,0,0-2.383.064L12.893,2.785A1.732,1.732,0,0,0,12.957,5.3C14.611,6.789,17.2,9.112,17.2,9.112H1.185A1.185,1.185,0,0,0,0,10.3v4.6a1.185,1.185,0,0,0,1.185,1.185H17.223l-4.241,3.807a1.733,1.733,0,0,0-.068,2.514L15.2,24.682a1.732,1.732,0,0,0,2.383.064l10.575-9.494A3.554,3.554,0,0,0,28.156,9.963Z" transform="translate(0 0)" fill="#d1d3d4"/>
    </g>
    <g id="oject-3" data-name="oject" transform="translate(-6026.301 -10771.451) rotate(180)">
      <g id="Grupo_881865-3" data-name="Grupo 881865" transform="translate(0 0)">
        <path id="Trazado_603917-3" data-name="Trazado 603917" d="M15.171.507,12.893,2.785A1.732,1.732,0,0,0,12.957,5.3C14.611,6.789,17.2,9.112,17.2,9.112H1.185A1.185,1.185,0,0,0,0,10.3v4.6a1.185,1.185,0,0,0,1.185,1.185H17.223l-4.241,3.807a1.733,1.733,0,0,0-.068,2.514L15.2,24.682a1.732,1.732,0,0,0,2.383.064l10.575-9.494a3.554,3.554,0,0,0,0-5.29L17.553.443A1.733,1.733,0,0,0,15.171.507Z" transform="translate(0.449 0.449)" fill="#fcb913"/>
        <g id="Grupo_881864-3" data-name="Grupo 881864" transform="translate(1.357 9.571)">
          <path id="Trazado_603918-3" data-name="Trazado 603918" d="M0,1.155H0A1.229,1.229,0,0,0,1.292,2.31H2.986A1.229,1.229,0,0,0,4.278,1.155h0A1.229,1.229,0,0,0,2.986,0H1.292A1.229,1.229,0,0,0,0,1.155Z" transform="translate(11.612)" fill="#ffd95f"/>
          <path id="Trazado_603919-3" data-name="Trazado 603919" d="M0,1.155H0A1.229,1.229,0,0,0,1.292,2.31H8.359A1.229,1.229,0,0,0,9.651,1.155h0A1.229,1.229,0,0,0,8.359,0H1.292A1.229,1.229,0,0,0,0,1.155Z" fill="#ffd95f"/>
        </g>
        <path id="Trazado_603920-3" data-name="Trazado 603920" d="M13.637,9.963,3.034.443A1.733,1.733,0,0,0,.652.507L0,1.159l10.88,9.768a2.258,2.258,0,0,1,0,3.36L.028,24.031l.652.652a1.732,1.732,0,0,0,2.383.064l10.575-9.494A3.554,3.554,0,0,0,13.637,9.963Z" transform="translate(14.968 0.449)" fill="#f88f1f"/>
        <path id="Trazado_603921-3" data-name="Trazado 603921" d="M4.465,10.01a2.176,2.176,0,0,1-1.543-.639L.639,7.088A2.181,2.181,0,0,1,.724,3.922L4.965.115a.449.449,0,1,1,.6.668L1.324,4.59a1.283,1.283,0,0,0-.05,1.863L3.557,8.736a1.284,1.284,0,0,0,1.765.047.449.449,0,0,1,.6.668A2.175,2.175,0,0,1,4.465,10.01Z" transform="translate(12.408 16.078)" fill="#231f20"/>
        <path id="Trazado_603922-3" data-name="Trazado 603922" d="M13.68,7.863H1.634A1.636,1.636,0,0,1,0,6.229v-4.6A1.636,1.636,0,0,1,1.634,0H4.1a.449.449,0,0,1,0,.9H1.634A.737.737,0,0,0,.9,1.634v4.6a.737.737,0,0,0,.736.736H13.68a.449.449,0,0,1,0,.9Z" transform="translate(0 9.112)" fill="#231f20"/>
        <path id="Trazado_603923-3" data-name="Trazado 603923" d="M10.52.9H.449a.449.449,0,1,1,0-.9H10.52a.449.449,0,0,1,0,.9Z" transform="translate(7.124 9.112)" fill="#231f20"/>
        <path id="Trazado_603924-3" data-name="Trazado 603924" d="M3.051,8.023a.447.447,0,0,1-.3-.115L.72,6.079A2.181,2.181,0,0,1,.639,2.917L2.917.639a2.182,2.182,0,0,1,3-.081l2.4,2.152a.449.449,0,0,1-.6.668l-2.4-2.152a1.284,1.284,0,0,0-1.765.048L1.274,3.552a1.283,1.283,0,0,0,.048,1.86L3.351,7.241a.449.449,0,0,1-.3.783Z" transform="translate(12.385)" fill="#231f20"/>
        <path id="Trazado_603925-3" data-name="Trazado 603925" d="M.449,17.98a.449.449,0,0,1-.3-.783l7.664-6.88a3.105,3.105,0,0,0,0-4.622L2.342.783a.449.449,0,0,1,.6-.668L8.413,5.027a4,4,0,0,1,0,5.958L.749,17.866A.447.447,0,0,1,.449,17.98Z" transform="translate(20.492 5.05)" fill="#231f20"/>
      </g>
    </g>
    <g id="Background-4" data-name="Background" transform="translate(-6013.322 -10836.093) rotate(90)">
      <path id="Trazado_603916-4" data-name="Trazado 603916" d="M28.156,9.963,17.553.443a1.733,1.733,0,0,0-2.383.064L12.893,2.785A1.732,1.732,0,0,0,12.957,5.3C14.611,6.789,17.2,9.112,17.2,9.112H1.185A1.185,1.185,0,0,0,0,10.3v4.6a1.185,1.185,0,0,0,1.185,1.185H17.223l-4.241,3.807a1.733,1.733,0,0,0-.068,2.514L15.2,24.682a1.732,1.732,0,0,0,2.383.064l10.575-9.494A3.554,3.554,0,0,0,28.156,9.963Z" transform="translate(0 0)" fill="#d1d3d4"/>
    </g>
    <g id="oject-4" data-name="oject" transform="translate(-6010.757 -10834.426) rotate(90)">
      <g id="Grupo_881865-4" data-name="Grupo 881865" transform="translate(0 0)">
        <path id="Trazado_603917-4" data-name="Trazado 603917" d="M15.171.507,12.893,2.785A1.732,1.732,0,0,0,12.957,5.3C14.611,6.789,17.2,9.112,17.2,9.112H1.185A1.185,1.185,0,0,0,0,10.3v4.6a1.185,1.185,0,0,0,1.185,1.185H17.223l-4.241,3.807a1.733,1.733,0,0,0-.068,2.514L15.2,24.682a1.732,1.732,0,0,0,2.383.064l10.575-9.494a3.554,3.554,0,0,0,0-5.29L17.553.443A1.733,1.733,0,0,0,15.171.507Z" transform="translate(0.449 0.449)" fill="#fcb913"/>
        <g id="Grupo_881864-4" data-name="Grupo 881864" transform="translate(1.357 9.571)">
          <path id="Trazado_603918-4" data-name="Trazado 603918" d="M0,1.155H0A1.229,1.229,0,0,0,1.292,2.31H2.986A1.229,1.229,0,0,0,4.278,1.155h0A1.229,1.229,0,0,0,2.986,0H1.292A1.229,1.229,0,0,0,0,1.155Z" transform="translate(11.612)" fill="#ffd95f"/>
          <path id="Trazado_603919-4" data-name="Trazado 603919" d="M0,1.155H0A1.229,1.229,0,0,0,1.292,2.31H8.359A1.229,1.229,0,0,0,9.651,1.155h0A1.229,1.229,0,0,0,8.359,0H1.292A1.229,1.229,0,0,0,0,1.155Z" fill="#ffd95f"/>
        </g>
        <path id="Trazado_603920-4" data-name="Trazado 603920" d="M13.637,9.963,3.034.443A1.733,1.733,0,0,0,.652.507L0,1.159l10.88,9.768a2.258,2.258,0,0,1,0,3.36L.028,24.031l.652.652a1.732,1.732,0,0,0,2.383.064l10.575-9.494A3.554,3.554,0,0,0,13.637,9.963Z" transform="translate(14.968 0.449)" fill="#f88f1f"/>
        <path id="Trazado_603921-4" data-name="Trazado 603921" d="M4.465,10.01a2.176,2.176,0,0,1-1.543-.639L.639,7.088A2.181,2.181,0,0,1,.724,3.922L4.965.115a.449.449,0,1,1,.6.668L1.324,4.59a1.283,1.283,0,0,0-.05,1.863L3.557,8.736a1.284,1.284,0,0,0,1.765.047.449.449,0,0,1,.6.668A2.175,2.175,0,0,1,4.465,10.01Z" transform="translate(12.408 16.078)" fill="#231f20"/>
        <path id="Trazado_603922-4" data-name="Trazado 603922" d="M13.68,7.863H1.634A1.636,1.636,0,0,1,0,6.229v-4.6A1.636,1.636,0,0,1,1.634,0H4.1a.449.449,0,0,1,0,.9H1.634A.737.737,0,0,0,.9,1.634v4.6a.737.737,0,0,0,.736.736H13.68a.449.449,0,0,1,0,.9Z" transform="translate(0 9.112)" fill="#231f20"/>
        <path id="Trazado_603923-4" data-name="Trazado 603923" d="M10.52.9H.449a.449.449,0,1,1,0-.9H10.52a.449.449,0,0,1,0,.9Z" transform="translate(7.124 9.112)" fill="#231f20"/>
        <path id="Trazado_603924-4" data-name="Trazado 603924" d="M3.051,8.023a.447.447,0,0,1-.3-.115L.72,6.079A2.181,2.181,0,0,1,.639,2.917L2.917.639a2.182,2.182,0,0,1,3-.081l2.4,2.152a.449.449,0,0,1-.6.668l-2.4-2.152a1.284,1.284,0,0,0-1.765.048L1.274,3.552a1.283,1.283,0,0,0,.048,1.86L3.351,7.241a.449.449,0,0,1-.3.783Z" transform="translate(12.385)" fill="#231f20"/>
        <path id="Trazado_603925-4" data-name="Trazado 603925" d="M.449,17.98a.449.449,0,0,1-.3-.783l7.664-6.88a3.105,3.105,0,0,0,0-4.622L2.342.783a.449.449,0,0,1,.6-.668L8.413,5.027a4,4,0,0,1,0,5.958L.749,17.866A.447.447,0,0,1,.449,17.98Z" transform="translate(20.492 5.05)" fill="#231f20"/>
      </g>
    </g>
    <path id="Trazado_628991" data-name="Trazado 628991" d="M0,0H108V49H0Z" transform="translate(-6322 -10808)" fill="#294ddc"/>
    <path id="Trazado_628992" data-name="Trazado 628992" d="M2.545-3.428V0H.939V-9.242H4.475a3.575,3.575,0,0,1,2.46.807A2.714,2.714,0,0,1,7.846-6.3a2.623,2.623,0,0,1-.892,2.116,3.748,3.748,0,0,1-2.5.756Zm0-1.295h1.93a1.9,1.9,0,0,0,1.308-.4,1.481,1.481,0,0,0,.451-1.165,1.6,1.6,0,0,0-.457-1.2,1.762,1.762,0,0,0-1.257-.46H2.545ZM12.7-5.459a3.817,3.817,0,0,0-.628-.051,1.415,1.415,0,0,0-1.428.813V0H9.1V-6.868h1.473l.038.768A1.738,1.738,0,0,1,12.156-7a1.444,1.444,0,0,1,.546.089ZM16.574.127A3.191,3.191,0,0,1,14.2-.8a3.35,3.35,0,0,1-.911-2.46v-.19a4.121,4.121,0,0,1,.4-1.838A3.02,3.02,0,0,1,14.8-6.544,2.945,2.945,0,0,1,16.4-7a2.7,2.7,0,0,1,2.168.9,3.785,3.785,0,0,1,.765,2.533v.622H14.841A2.063,2.063,0,0,0,15.409-1.6a1.706,1.706,0,0,0,1.254.5,2.089,2.089,0,0,0,1.727-.857l.832.793a2.777,2.777,0,0,1-1.1.955A3.448,3.448,0,0,1,16.574.127ZM16.39-5.757a1.3,1.3,0,0,0-1.025.444,2.3,2.3,0,0,0-.5,1.238h2.939v-.114a1.875,1.875,0,0,0-.413-1.171A1.289,1.289,0,0,0,16.39-5.757ZM26.54-3.364a4.089,4.089,0,0,1-.724,2.542,2.318,2.318,0,0,1-1.942.949,2.333,2.333,0,0,1-1.809-.743V2.641H20.522V-6.868h1.422l.063.7A2.266,2.266,0,0,1,23.854-7a2.341,2.341,0,0,1,1.971.936,4.2,4.2,0,0,1,.714,2.6ZM25-3.5a2.865,2.865,0,0,0-.409-1.631,1.331,1.331,0,0,0-1.171-.6,1.419,1.419,0,0,0-1.358.781V-1.9a1.433,1.433,0,0,0,1.371.8A1.329,1.329,0,0,0,24.588-1.7,3.153,3.153,0,0,0,25-3.5ZM31.948,0a2.38,2.38,0,0,1-.178-.641,2.4,2.4,0,0,1-1.8.768,2.423,2.423,0,0,1-1.688-.59,1.889,1.889,0,0,1-.654-1.46,1.95,1.95,0,0,1,.816-1.685A3.953,3.953,0,0,1,30.773-4.2h.946v-.451a1.2,1.2,0,0,0-.3-.854,1.183,1.183,0,0,0-.908-.321,1.359,1.359,0,0,0-.863.263.815.815,0,0,0-.336.67H27.771a1.712,1.712,0,0,1,.375-1.057,2.5,2.5,0,0,1,1.019-.771A3.579,3.579,0,0,1,30.6-7a2.882,2.882,0,0,1,1.923.606,2.162,2.162,0,0,1,.736,1.7v3.1a3.511,3.511,0,0,0,.26,1.479V0ZM30.253-1.111a1.755,1.755,0,0,0,.86-.222,1.484,1.484,0,0,0,.606-.6V-3.225h-.832a2.274,2.274,0,0,0-1.289.3.966.966,0,0,0-.432.844.9.9,0,0,0,.3.708A1.143,1.143,0,0,0,30.253-1.111Zm8.22-4.348a3.817,3.817,0,0,0-.628-.051,1.415,1.415,0,0,0-1.428.813V0H34.874V-6.868h1.473l.038.768A1.738,1.738,0,0,1,37.934-7a1.444,1.444,0,0,1,.546.089ZM43.361,0a2.381,2.381,0,0,1-.178-.641,2.4,2.4,0,0,1-1.8.768,2.423,2.423,0,0,1-1.688-.59,1.889,1.889,0,0,1-.654-1.46,1.95,1.95,0,0,1,.816-1.685A3.953,3.953,0,0,1,42.187-4.2h.946v-.451a1.2,1.2,0,0,0-.3-.854,1.183,1.183,0,0,0-.908-.321,1.359,1.359,0,0,0-.863.263.815.815,0,0,0-.336.67H39.184a1.712,1.712,0,0,1,.375-1.057,2.5,2.5,0,0,1,1.019-.771A3.579,3.579,0,0,1,42.015-7a2.882,2.882,0,0,1,1.923.606,2.162,2.162,0,0,1,.736,1.7v3.1a3.511,3.511,0,0,0,.26,1.479V0ZM41.666-1.111a1.755,1.755,0,0,0,.86-.222,1.484,1.484,0,0,0,.606-.6V-3.225H42.3a2.274,2.274,0,0,0-1.289.3.966.966,0,0,0-.432.844.9.9,0,0,0,.3.708A1.143,1.143,0,0,0,41.666-1.111Zm7.446.006a1.4,1.4,0,0,0,.958-.336,1.149,1.149,0,0,0,.406-.832H51.93a2.266,2.266,0,0,1-.4,1.2A2.623,2.623,0,0,1,50.515-.2a3.027,3.027,0,0,1-1.384.324,2.928,2.928,0,0,1-2.285-.933A3.7,3.7,0,0,1,46-3.383v-.159a3.639,3.639,0,0,1,.838-2.51A2.9,2.9,0,0,1,49.125-7a2.822,2.822,0,0,1,2,.714,2.558,2.558,0,0,1,.809,1.876H50.477a1.412,1.412,0,0,0-.4-.971,1.3,1.3,0,0,0-.962-.381,1.357,1.357,0,0,0-1.155.543,2.769,2.769,0,0,0-.413,1.647v.248a2.815,2.815,0,0,0,.4,1.666A1.356,1.356,0,0,0,49.112-1.1ZM54.736,0H53.193V-6.868h1.542ZM53.1-8.658a.828.828,0,0,1,.225-.595.847.847,0,0,1,.644-.237.858.858,0,0,1,.647.237.822.822,0,0,1,.229.595.8.8,0,0,1-.229.585.865.865,0,0,1-.647.233.854.854,0,0,1-.644-.233A.809.809,0,0,1,53.1-8.658ZM56.126-3.5a4.05,4.05,0,0,1,.4-1.819A2.921,2.921,0,0,1,57.649-6.56,3.166,3.166,0,0,1,59.313-7a3,3,0,0,1,2.257.9,3.52,3.52,0,0,1,.936,2.374l.006.362a4.086,4.086,0,0,1-.39,1.815A2.886,2.886,0,0,1,61-.311a3.189,3.189,0,0,1-1.679.438A2.979,2.979,0,0,1,57-.841a3.707,3.707,0,0,1-.873-2.58Zm1.542.133a2.767,2.767,0,0,0,.438,1.66,1.424,1.424,0,0,0,1.219.6,1.408,1.408,0,0,0,1.216-.609A3.057,3.057,0,0,0,60.976-3.5a2.732,2.732,0,0,0-.448-1.65,1.429,1.429,0,0,0-1.216-.609,1.416,1.416,0,0,0-1.2.6A3,3,0,0,0,57.668-3.364ZM59.738-9.75H61.5L59.738-7.827l-1.238,0Zm5.51,2.882.044.793a2.469,2.469,0,0,1,2-.92q2.146,0,2.184,2.457V0H67.933V-4.45a1.414,1.414,0,0,0-.282-.968,1.188,1.188,0,0,0-.924-.314,1.486,1.486,0,0,0-1.39.844V0H63.794V-6.868Z" transform="translate(-6305 -10779)" fill="#fff"/>
    <g id="Background-5" data-name="Background" transform="translate(-6218.511 -10794.962)">
      <path id="Trazado_603916-5" data-name="Trazado 603916" d="M772.131,1007.926l10.6-9.519a1.733,1.733,0,0,1,2.383.064l2.278,2.278a1.732,1.732,0,0,1-.064,2.511c-1.654,1.492-4.238,3.815-4.238,3.815H799.1a1.185,1.185,0,0,1,1.185,1.185v4.6a1.185,1.185,0,0,1-1.185,1.185H783.063l4.241,3.807a1.733,1.733,0,0,1,.068,2.514l-2.283,2.283a1.733,1.733,0,0,1-2.383.064l-10.575-9.494A3.555,3.555,0,0,1,772.131,1007.926Z" transform="translate(-770.951 -997.963)" fill="#d1d3d4"/>
    </g>
    <g id="oject-5" data-name="oject" transform="translate(-6221.077 -10797.527)">
      <g id="Grupo_881865-5" data-name="Grupo 881865" transform="translate(0)">
        <path id="Trazado_603917-5" data-name="Trazado 603917" d="M813.116,970.471l2.278,2.278a1.732,1.732,0,0,1-.064,2.511c-1.654,1.492-4.238,3.815-4.238,3.815H827.1a1.185,1.185,0,0,1,1.185,1.185v4.6a1.185,1.185,0,0,1-1.185,1.185H811.063l4.241,3.807a1.733,1.733,0,0,1,.068,2.514l-2.284,2.283a1.732,1.732,0,0,1-2.383.064l-10.575-9.494a3.554,3.554,0,0,1,0-5.29l10.6-9.519A1.733,1.733,0,0,1,813.116,970.471Z" transform="translate(-798.502 -969.514)" fill="#fcb913"/>
        <g id="Grupo_881864-5" data-name="Grupo 881864" transform="translate(12.987 9.571)">
          <path id="Trazado_603918-5" data-name="Trazado 603918" d="M968.869,1091.811h0a1.229,1.229,0,0,1-1.292,1.155h-1.694a1.229,1.229,0,0,1-1.292-1.155h0a1.229,1.229,0,0,1,1.292-1.155h1.694A1.229,1.229,0,0,1,968.869,1091.811Z" transform="translate(-964.591 -1090.656)" fill="#ffd95f"/>
          <path id="Trazado_603919-5" data-name="Trazado 603919" d="M820.609,1091.811h0a1.229,1.229,0,0,1-1.292,1.155H812.25a1.229,1.229,0,0,1-1.292-1.155h0a1.229,1.229,0,0,1,1.292-1.155h7.067A1.229,1.229,0,0,1,820.609,1091.811Z" transform="translate(-804.719 -1090.656)" fill="#ffd95f"/>
        </g>
        <path id="Trazado_603920-5" data-name="Trazado 603920" d="M992.218,979.926l10.6-9.519a1.733,1.733,0,0,1,2.383.064l.652.652-10.88,9.768a2.258,2.258,0,0,0,0,3.36l10.852,9.743-.652.652a1.732,1.732,0,0,1-2.383.064l-10.575-9.494A3.554,3.554,0,0,1,992.218,979.926Z" transform="translate(-990.589 -969.514)" fill="#f88f1f"/>
        <path id="Trazado_603921-5" data-name="Trazado 603921" d="M958.771,1186.743a2.176,2.176,0,0,0,1.543-.639l2.283-2.283a2.181,2.181,0,0,0-.085-3.166l-4.241-3.807a.449.449,0,1,0-.6.668l4.241,3.807a1.283,1.283,0,0,1,.05,1.863l-2.283,2.284a1.284,1.284,0,0,1-1.765.047.449.449,0,0,0-.6.668A2.175,2.175,0,0,0,958.771,1186.743Z" transform="translate(-945.411 -1160.655)" fill="#231f20"/>
        <path id="Trazado_603922-5" data-name="Trazado 603922" d="M793.459,1092.443h12.046a1.636,1.636,0,0,0,1.634-1.634v-4.6a1.636,1.636,0,0,0-1.634-1.634h-2.467a.449.449,0,0,0,0,.9h2.467a.737.737,0,0,1,.736.736v4.6a.737.737,0,0,1-.736.736H793.459a.449.449,0,1,0,0,.9Z" transform="translate(-776.905 -1075.468)" fill="#231f20"/>
        <path id="Trazado_603923-5" data-name="Trazado 603923" d="M887.717,1085.478h10.071a.449.449,0,1,0,0-.9H887.717a.449.449,0,0,0,0,.9Z" transform="translate(-875.128 -1075.468)" fill="#231f20"/>
        <path id="Trazado_603924-5" data-name="Trazado 603924" d="M962.278,972.047a.447.447,0,0,0,.3-.115l2.03-1.829a2.181,2.181,0,0,0,.081-3.162l-2.278-2.278a2.182,2.182,0,0,0-3-.081l-2.4,2.152a.449.449,0,1,0,.6.668l2.4-2.152a1.284,1.284,0,0,1,1.765.048l2.278,2.278a1.283,1.283,0,0,1-.047,1.86l-2.03,1.828a.449.449,0,0,0,.3.783Z" transform="translate(-947.48 -964.023)" fill="#231f20"/>
        <path id="Trazado_603925-5" data-name="Trazado 603925" d="M1073.418,1048.823a.449.449,0,0,0,.3-.783l-7.664-6.881a3.105,3.105,0,0,1,0-4.621l5.471-4.912a.449.449,0,0,0-.6-.668l-5.471,4.912a4,4,0,0,0,0,5.958l7.664,6.881A.447.447,0,0,0,1073.418,1048.823Z" transform="translate(-1064.125 -1025.792)" fill="#231f20"/>
      </g>
    </g>
  </g>
</svg>
