<svg xmlns="http://www.w3.org/2000/svg" width="143" height="143" viewBox="0 0 143 143">
  <g id="Grupo_947401" data-name="Grupo 947401" transform="translate(-1038 -486.354)">
    <rect id="Rectángulo_298570" data-name="Rectángulo 298570" width="143" height="143" transform="translate(1038 486.354)" fill="none"/>
    <g id="Grupo_947387" data-name="Grupo 947387" transform="translate(-353 394.497)">
      <path id="Trazado_628583" data-name="Trazado 628583" d="M1454.553,310.8l12.4,11.023a3.155,3.155,0,0,0,2.1.8h44.536v55.071a4.615,4.615,0,0,1-4.323,4.859h-74.939a4.615,4.615,0,0,1-4.323-4.859V314.731A4.5,4.5,0,0,1,1434.23,310h18.228A3.154,3.154,0,0,1,1454.553,310.8Z" transform="translate(-13.423 -174.498)" fill="#fdbf00"/>
      <rect id="Rectángulo_299096" data-name="Rectángulo 299096" width="66.524" height="85.837" transform="translate(1489.034 202.115) rotate(180)" fill="#d7e6ef"/>
      <path id="Trazado_628584" data-name="Trazado 628584" d="M2060,322.617h25.233v-9.463a3.154,3.154,0,0,0-3.154-3.154h-9.462Z" transform="translate(-577.184 -174.498)" fill="#fdbf00"/>
      <rect id="Rectángulo_299097" data-name="Rectángulo 299097" width="65.451" height="22.532" transform="translate(1434.313 125.935)" fill="#f7fcff"/>
      <path id="Trazado_628585" data-name="Trazado 628585" d="M1573.163,310.8l11.7,11.023a2.882,2.882,0,0,0,1.977.8h42.016v55.071c0,2.684-1.826,4.859-4.078,4.859h-70.7c-2.253,0-4.079-2.176-4.079-4.859V314.731c0-2.613,1.786-4.731,3.99-4.731h17.2A2.882,2.882,0,0,1,1573.163,310.8Z" transform="translate(-120.806 -174.498)" fill="#ffda2d"/>
      <ellipse id="Elipse_7612" data-name="Elipse 7612" cx="20.386" cy="20.923" rx="20.386" ry="20.923" transform="translate(1448.262 157.051)" fill="#f7fcff"/>
      <g id="Grupo_947386" data-name="Grupo 947386" transform="translate(1456.793 169.41)">
        <path id="Trazado_628586" data-name="Trazado 628586" d="M1821.4,649.848a3.609,3.609,0,0,1-2.518-1.017l-5.341-5.2a3.406,3.406,0,0,1,0-4.906,3.627,3.627,0,0,1,5.035,0l2.688,2.618,7.1-7.691a3.626,3.626,0,0,1,5.028-.258,3.406,3.406,0,0,1,.265,4.9l-9.616,10.409A3.6,3.6,0,0,1,1821.4,649.848Z" transform="translate(-1812.5 -632.5)" fill="#00c477"/>
      </g>
      <path id="Trazado_628587" data-name="Trazado 628587" d="M1715,527.079A22.079,22.079,0,1,0,1737.08,505,22.1,22.1,0,0,0,1715,527.079Zm22.079-18.925a18.925,18.925,0,1,1-18.925,18.925A18.947,18.947,0,0,1,1737.08,508.154Z" transform="translate(-268.458 -348.995)"/>
      <path id="Trazado_628588" data-name="Trazado 628588" d="M1799.105,631.38l5.34,5.2a5.221,5.221,0,0,0,3.617,1.465h.008a5.181,5.181,0,0,0,3.8-1.656l9.616-10.408a5.007,5.007,0,0,0-.382-7.156,5.217,5.217,0,0,0-7.227.372l-6.006,6.5-1.529-1.489a5.221,5.221,0,0,0-7.236,0A5.007,5.007,0,0,0,1799.105,631.38Zm2.2-4.907a2.044,2.044,0,0,1,2.835,0l2.688,2.618a1.555,1.555,0,0,0,1.142.447,1.574,1.574,0,0,0,1.117-.506l7.1-7.691a2.043,2.043,0,0,1,2.831-.142,1.838,1.838,0,0,1,.145,2.644l-9.617,10.409a2.017,2.017,0,0,1-1.484.642,2.124,2.124,0,0,1-1.42-.569l-5.341-5.2A1.836,1.836,0,0,1,1801.306,626.473Z" transform="translate(-342.369 -449.713)"/>
      <path id="Trazado_628589" data-name="Trazado 628589" d="M1504.895,133.925h-3.154V126.04a1.577,1.577,0,0,0-1.577-1.577H1490.7v-7.885a1.577,1.577,0,0,0-1.577-1.577h-66.238a1.577,1.577,0,0,0-1.577,1.577v17.348h-.5a6.08,6.08,0,0,0-5.806,6.308V203.19a6.193,6.193,0,0,0,5.9,6.436h83.07c3.119,0,5.656-2.887,5.656-6.436V138.656A4.736,4.736,0,0,0,1504.895,133.925Zm0,3.154a1.579,1.579,0,0,1,1.577,1.577v7.885h-4.731v-9.463Zm-6.309,9.463h-32.553a1.3,1.3,0,0,1-.9-.368l-11.7-11.022a4.447,4.447,0,0,0-3.059-1.227H1435.5v-6.308h63.084Zm-80.432,56.648V140.234a2.939,2.939,0,0,1,2.652-3.154h.5V201.74a1.577,1.577,0,0,0,1.577,1.577h4.743a7.021,7.021,0,0,0,.806,3.154H1420.9A3.054,3.054,0,0,1,1418.154,203.19Zm88.318,0c0,1.779-1.146,3.282-2.5,3.282h-70.7c-1.356,0-2.5-1.5-2.5-3.282V176.507a1.577,1.577,0,0,0-3.154,0v23.656h-3.154V118.154h63.084v6.308h-53.621a1.577,1.577,0,0,0-1.577,1.577v7.981a6.1,6.1,0,0,0-4.731,6.213V163.89a1.577,1.577,0,0,0,3.154,0V140.234c0-1.71,1.1-3.154,2.413-3.154h17.2a1.305,1.305,0,0,1,.9.368l11.7,11.022a4.447,4.447,0,0,0,3.059,1.227h40.439Z" transform="translate(0)"/>
      <path id="Trazado_628590" data-name="Trazado 628590" d="M1851.577,283.139l31.543,0a1.577,1.577,0,0,0,0-3.154l-31.543,0a1.577,1.577,0,0,0,0,3.154Z" transform="translate(-389.264 -147.639)"/>
      <path id="Trazado_628591" data-name="Trazado 628591" d="M1950.234,339.987l-23.657,0a1.577,1.577,0,0,0,0,3.154l23.657,0a1.577,1.577,0,0,0,0-3.154Z" transform="translate(-456.379 -201.33)"/>
      <circle id="Elipse_7613" data-name="Elipse 7613" cx="1.609" cy="1.609" r="1.609" transform="translate(1427.875 168.853)"/>
    </g>
  </g>
</svg>
