<svg xmlns="http://www.w3.org/2000/svg" width="143" height="143" viewBox="0 0 143 143">
  <g id="Grupo_947403" data-name="Grupo 947403" transform="translate(2760 11214)">
    <rect id="Rectángulo_298570" data-name="Rectángulo 298570" width="143" height="143" transform="translate(-2760 -11214)" fill="none"/>
    <g id="Grupo_947398" data-name="Grupo 947398" transform="translate(-9333.307 -12324.009)">
      <path id="Trazado_628604" data-name="Trazado 628604" d="M6692.549,1179.309a8.364,8.364,0,1,1,0,16.728h-89.878a8.364,8.364,0,1,1,0-16.728h2.449l12.8-41.45a13.954,13.954,0,0,1,21.257-7.347,14.906,14.906,0,0,0,16.82,0,13.986,13.986,0,0,1,21.3,7.347l12.8,41.45Zm5.591,8.364a5.581,5.581,0,0,0-5.591-5.591h-89.878a5.615,5.615,0,1,0,0,11.229h89.878A5.621,5.621,0,0,0,6698.141,1187.673Zm-10.952-8.364-12.523-40.619a11.211,11.211,0,0,0-17.1-5.915,17.691,17.691,0,0,1-19.962,0,11.2,11.2,0,0,0-10.027-1.386,11.08,11.08,0,0,0-7.024,7.3l-12.523,40.619Z"/>
      <path id="Trazado_628605" data-name="Trazado 628605" d="M6706.986,1468.408a5.615,5.615,0,0,1,0,11.229h-89.878a5.615,5.615,0,1,1,0-11.229h89.878ZM6693.863,1474a1.39,1.39,0,0,0-1.387-1.386H6621.5a1.39,1.39,0,0,0-1.386,1.386,1.362,1.362,0,0,0,1.386,1.386h70.978A1.362,1.362,0,0,0,6693.863,1474Z" transform="translate(-14.437 -286.326)" fill="#e5fdf3"/>
      <path id="Trazado_628606" data-name="Trazado 628606" d="M6747.339,1153.375l12.523,40.618H6680.7l12.522-40.618a11.082,11.082,0,0,1,7.024-7.3,11.205,11.205,0,0,1,10.027,1.386,17.691,17.691,0,0,0,19.962,0,11.211,11.211,0,0,1,17.1,5.915Zm-43.068,11.137a1.416,1.416,0,0,0-.878-1.756,1.431,1.431,0,0,0-1.756.832l-7.763,22.365a1.392,1.392,0,0,0,.832,1.756,2.049,2.049,0,0,0,.462.092,1.45,1.45,0,0,0,1.34-.924Z" transform="translate(-72.673 -14.684)" fill="#6aceae"/>
      <path id="Trazado_628607" data-name="Trazado 628607" d="M6739.515,1586.8a16.774,16.774,0,1,1-16.682,17.606,12.487,12.487,0,0,0-13.955-.046,16.764,16.764,0,1,1-.14-3.1,15.212,15.212,0,0,1,14.233-.046A16.737,16.737,0,0,1,6739.515,1586.8Zm14,16.774a14,14,0,1,0-14,14A14.022,14.022,0,0,0,6753.516,1603.578Zm-47.318,0a14,14,0,1,0-14,14A13.992,13.992,0,0,0,6706.2,1603.578Z" transform="translate(-68.268 -385.915)"/>
      <circle id="Elipse_7617" data-name="Elipse 7617" cx="14.002" cy="14.002" r="14.002" transform="translate(6657.245 1203.662)" fill="#cefff8"/>
      <path id="Trazado_628608" data-name="Trazado 628608" d="M6738.234,1494.88a1.39,1.39,0,0,1,1.386,1.386,1.362,1.362,0,0,1-1.386,1.386h-70.978a1.362,1.362,0,0,1-1.387-1.386,1.391,1.391,0,0,1,1.387-1.386Z" transform="translate(-60.194 -308.593)"/>
      <circle id="Elipse_7618" data-name="Elipse 7618" cx="14.002" cy="14.002" r="14.002" transform="translate(6609.926 1203.662)" fill="#cefff8"/>
      <path id="Trazado_628609" data-name="Trazado 628609" d="M6772.766,1253.942a1.415,1.415,0,0,1,.877,1.756l-7.763,22.365a1.45,1.45,0,0,1-1.34.924,2.039,2.039,0,0,1-.461-.092,1.392,1.392,0,0,1-.832-1.756l7.763-22.365A1.432,1.432,0,0,1,6772.766,1253.942Z" transform="translate(-142.045 -105.87)"/>
    </g>
  </g>
</svg>
