<svg xmlns="http://www.w3.org/2000/svg" width="143" height="143" viewBox="0 0 143 143">
  <g id="Grupo_947402" data-name="Grupo 947402" transform="translate(3082 11213.646)">
    <rect id="Rectángulo_299098" data-name="Rectángulo 299098" width="143" height="143" transform="translate(-3082 -11213.646)" fill="none"/>
    <g id="Grupo_947397" data-name="Grupo 947397" transform="translate(-4758.158 -12074.332)">
      <g id="Grupo_947391" data-name="Grupo 947391" transform="translate(1682.268 890.354)">
        <path id="Trazado_628592" data-name="Trazado 628592" d="M1771.844,940.089a42,42,0,1,1-42-42A42,42,0,0,1,1771.844,940.089Z" transform="translate(-1686.528 -896.768)" fill="#fff"/>
        <path id="Trazado_628593" data-name="Trazado 628593" d="M1725.58,979.151a43.321,43.321,0,1,1,43.321-43.321A43.366,43.366,0,0,1,1725.58,979.151Zm0-84.008a40.687,40.687,0,1,0,40.687,40.687A40.728,40.728,0,0,0,1725.58,895.143Z" transform="translate(-1682.268 -892.508)" fill="#0f1e52"/>
        <g id="Grupo_947389" data-name="Grupo 947389" transform="translate(25.83 25.837)">
          <circle id="Elipse_7614" data-name="Elipse 7614" cx="13.383" cy="13.383" r="13.383" transform="translate(0 10.243) rotate(-22.5)" fill="#fff"/>
          <path id="Trazado_628594" data-name="Trazado 628594" d="M1818.129,1043.1a14.7,14.7,0,1,1,14.7-14.7A14.717,14.717,0,0,1,1818.129,1043.1Zm0-26.766A12.066,12.066,0,1,0,1830.2,1028.4,12.079,12.079,0,0,0,1818.129,1016.33Z" transform="translate(-1800.643 -1010.909)" fill="#153175"/>
        </g>
        <circle id="Elipse_7615" data-name="Elipse 7615" cx="11.548" cy="11.548" r="11.548" transform="translate(33.605 33.611)" fill="#6aceae"/>
        <path id="Trazado_628595" data-name="Trazado 628595" d="M1818.129,1043.1a14.7,14.7,0,1,1,14.7-14.7A14.717,14.717,0,0,1,1818.129,1043.1Zm0-26.766A12.066,12.066,0,1,0,1830.2,1028.4,12.079,12.079,0,0,0,1818.129,1016.33Z" transform="translate(-1774.813 -985.073)" fill="#153175"/>
        <g id="Grupo_947390" data-name="Grupo 947390" transform="translate(34.982 34.988)">
          <circle id="Elipse_7616" data-name="Elipse 7616" cx="7.018" cy="7.018" r="7.018" transform="translate(1.317 1.317)" fill="#fff"/>
          <path id="Trazado_628596" data-name="Trazado 628596" d="M1838.715,1057.317a8.335,8.335,0,1,1,8.335-8.335A8.344,8.344,0,0,1,1838.715,1057.317Zm0-14.035a5.7,5.7,0,1,0,5.7,5.7A5.707,5.707,0,0,0,1838.715,1043.281Z" transform="translate(-1830.38 -1040.647)" fill="#153175"/>
        </g>
      </g>
      <g id="Grupo_947396" data-name="Grupo 947396" transform="translate(1772.199 889.688)">
        <g id="Grupo_947392" data-name="Grupo 947392" transform="translate(0 15.842)">
          <path id="Trazado_628597" data-name="Trazado 628597" d="M2080.978,1019.7l-4.421-1.184a10.7,10.7,0,0,1-7.565-13.1l11.159-41.649a1.91,1.91,0,0,1,2.34-1.351l21.4,5.733a1.91,1.91,0,0,1,1.351,2.34l-11.159,41.649A10.7,10.7,0,0,1,2080.978,1019.7Z" transform="translate(-2067.304 -961.025)" fill="#fff"/>
          <path id="Trazado_628598" data-name="Trazado 628598" d="M2079.476,1017.116a11.988,11.988,0,0,1-3.107-.411l-4.421-1.185a12.016,12.016,0,0,1-8.5-14.716l11.159-41.649a3.227,3.227,0,0,1,3.953-2.282l21.4,5.733a3.232,3.232,0,0,1,2.283,3.953l-11.159,41.649A12.038,12.038,0,0,1,2079.476,1017.116Zm-1.749-57.719a.6.6,0,0,0-.3.08.591.591,0,0,0-.276.36L2066,1001.486a9.392,9.392,0,0,0,6.634,11.49l4.421,1.184h0a9.393,9.393,0,0,0,11.49-6.634l11.159-41.649a.594.594,0,0,0-.42-.727l-21.4-5.733A.609.609,0,0,0,2077.727,959.4Z" transform="translate(-2063.036 -956.762)" fill="#153175"/>
        </g>
        <path id="Trazado_628599" data-name="Trazado 628599" d="M2104.439,1045.527l-.344-.092a9.115,9.115,0,0,1-6.446-11.163l10.031-37.44a1.628,1.628,0,0,1,1.993-1.151l14.808,3.968a1.628,1.628,0,0,1,1.151,1.994l-10.031,37.44A9.115,9.115,0,0,1,2104.439,1045.527Z" transform="translate(-2089.236 -970.604)" fill="#f38e1e"/>
        <path id="Trazado_628600" data-name="Trazado 628600" d="M2079.476,1017.116a11.988,11.988,0,0,1-3.107-.411l-4.421-1.185a12.016,12.016,0,0,1-8.5-14.716l11.159-41.649a3.227,3.227,0,0,1,3.953-2.282l21.4,5.733a3.232,3.232,0,0,1,2.283,3.953l-11.159,41.649A12.038,12.038,0,0,1,2079.476,1017.116Zm-1.749-57.719a.6.6,0,0,0-.3.08.591.591,0,0,0-.276.36L2066,1001.486a9.392,9.392,0,0,0,6.634,11.49l4.421,1.184h0a9.393,9.393,0,0,0,11.49-6.634l11.159-41.649a.594.594,0,0,0-.42-.727l-21.4-5.733A.609.609,0,0,0,2077.727,959.4Z" transform="translate(-2063.036 -940.92)" fill="#0f1e52"/>
        <g id="Grupo_947393" data-name="Grupo 947393" transform="translate(14.92)">
          <path id="Rectángulo_299099" data-name="Rectángulo 299099" d="M7.2,0h4.961a7.2,7.2,0,0,1,7.2,7.2V17.238a0,0,0,0,1,0,0H0a0,0,0,0,1,0,0V7.2A7.2,7.2,0,0,1,7.2,0Z" transform="matrix(0.966, 0.259, -0.259, 0.966, 6.074, 0.936)" fill="#fff"/>
          <path id="Trazado_628601" data-name="Trazado 628601" d="M2147.457,913.9l-21.248-5.693,4.362-16.28a3.018,3.018,0,0,1,3.7-2.134l15.418,4.131a3.021,3.021,0,0,1,2.134,3.7Zm-18.022-7.556,16.159,4.329,3.68-13.735a.384.384,0,0,0-.271-.47l-15.418-4.131a.384.384,0,0,0-.47.271Z" transform="translate(-2126.209 -889.688)" fill="#0f1e52"/>
        </g>
        <g id="Grupo_947394" data-name="Grupo 947394" transform="translate(20.679 6.192)">
          <rect id="Rectángulo_299100" data-name="Rectángulo 299100" width="4.014" height="4.014" transform="translate(2.33 1.318) rotate(14.602)" fill="#fff"/>
          <path id="Trazado_628602" data-name="Trazado 628602" d="M2155.793,923.438a1.315,1.315,0,0,1-.333-.043l-3.885-1.012a1.317,1.317,0,0,1-.943-1.607l1.012-3.884a1.316,1.316,0,0,1,1.606-.943l3.885,1.012a1.317,1.317,0,0,1,.942,1.607l-1.012,3.885A1.318,1.318,0,0,1,2155.793,923.438Zm-2.279-3.272,1.335.348.348-1.335-1.336-.348Z" transform="translate(-2150.59 -915.906)" fill="#153175"/>
        </g>
        <g id="Grupo_947395" data-name="Grupo 947395" transform="translate(28.098 8.346)">
          <rect id="Rectángulo_299101" data-name="Rectángulo 299101" width="4.014" height="4.014" transform="translate(2.329 1.317) rotate(14.602)" fill="#fff"/>
          <path id="Trazado_628603" data-name="Trazado 628603" d="M2187.207,932.554a1.311,1.311,0,0,1-.332-.042l-3.884-1.012a1.317,1.317,0,0,1-.943-1.607l1.012-3.885a1.317,1.317,0,0,1,1.606-.943l3.885,1.012a1.317,1.317,0,0,1,.942,1.607l-1.011,3.884a1.317,1.317,0,0,1-1.275.985Zm-2.278-3.271,1.335.348.348-1.335-1.335-.348Z" transform="translate(-2182.005 -925.023)" fill="#153175"/>
        </g>
      </g>
    </g>
  </g>
</svg>
