<svg xmlns="http://www.w3.org/2000/svg" width="143" height="143" viewBox="0 0 143 143">
  <g id="Grupo_947400" data-name="Grupo 947400" transform="translate(-728.5 -486.354)">
    <rect id="Rectángulo_299093" data-name="Rectángulo 299093" width="143" height="143" transform="translate(728.5 486.354)" fill="none"/>
    <g id="Grupo_947388" data-name="Grupo 947388">
      <g id="Grupo_947384" data-name="Grupo 947384" transform="translate(467.07 79.825)">
        <path id="Trazado_628567" data-name="Trazado 628567" d="M387.68,504.625h-109V425.1a.9.9,0,0,1,.9-.9h107.2a.9.9,0,0,1,.9.9Z" transform="translate(-2.35 -0.282)" fill="#6aceae"/>
        <path id="Trazado_628568" data-name="Trazado 628568" d="M278.4,486.738a1.248,1.248,0,0,1-1.248-1.248V424.822a2.148,2.148,0,0,1,2.146-2.146H386.5a2.148,2.148,0,0,1,2.146,2.146V439.6a1.248,1.248,0,1,1-2.5,0V425.172h-106.5V485.49A1.248,1.248,0,0,1,278.4,486.738Z" transform="translate(-2.068 0)" fill="#002537"/>
        <path id="Trazado_628569" data-name="Trazado 628569" d="M388.646,511.229h-111.5V501.39a1.248,1.248,0,1,1,2.5,0v7.343h106.5V454.516a1.248,1.248,0,1,1,2.5,0Z" transform="translate(-2.068 -5.638)" fill="#002537"/>
        <rect id="Rectángulo_299094" data-name="Rectángulo 299094" width="93.854" height="67.107" rx="0.539" transform="translate(283.904 430.58)" fill="#eaeff1"/>
        <path id="Trazado_628570" data-name="Trazado 628570" d="M381.1,500.439H288.123a1.69,1.69,0,0,1-1.688-1.689V432.524a1.689,1.689,0,0,1,1.688-1.688H381.1a1.689,1.689,0,0,1,1.688,1.688V498.75A1.69,1.69,0,0,1,381.1,500.439Zm-92.166-2.5h91.357v-64.61H288.931Z" transform="translate(-3.779 -1.504)" fill="#002537"/>
        <rect id="Rectángulo_299095" data-name="Rectángulo 299095" width="127.305" height="12.488" rx="1.279" transform="translate(267.178 504.343)" fill="#f3c035"/>
        <path id="Trazado_628571" data-name="Trazado 628571" d="M393.439,536.249H372.9a1.248,1.248,0,0,1,0-2.5h20.339v-9.991H268.426v9.991h95.41a1.248,1.248,0,0,1,0,2.5H268.221a2.294,2.294,0,0,1-2.291-2.291v-10.4a2.294,2.294,0,0,1,2.291-2.291H393.439a2.294,2.294,0,0,1,2.292,2.291v10.4A2.294,2.294,0,0,1,393.439,536.249Z" transform="translate(0 -18.17)" fill="#002537"/>
        <path id="Trazado_628572" data-name="Trazado 628572" d="M286.938,533.18H271.314v-6.972h15.624Zm-13.128-2.5h10.632V528.7H273.81Z" transform="translate(-0.992 -19.081)" fill="#002537"/>
        <path id="Trazado_628573" data-name="Trazado 628573" d="M312.1,533.18H296.475v-6.972H312.1Zm-13.128-2.5H309.6V528.7H298.971Z" transform="translate(-5.63 -19.081)" fill="#002537"/>
      </g>
      <g id="Grupo_947385" data-name="Grupo 947385" transform="translate(-146.319 138.409)">
        <path id="Trazado_628576" data-name="Trazado 628576" d="M1043.317,521.166h0a3.581,3.581,0,0,0,.833-5l-20.315-28.449-5.829,4.163,20.315,28.448A3.581,3.581,0,0,0,1043.317,521.166Z" transform="translate(-40.903 -43.953)" fill="#f3c035"/>
        <path id="Trazado_628577" data-name="Trazado 628577" d="M1040.159,521.522a4.353,4.353,0,0,0,3.538-6.885l-20.765-29.078-7.089,5.062,13.855,19.4a.774.774,0,1,0,1.26-.9L1018,490.982l4.569-3.263,19.865,27.819a2.808,2.808,0,1,1-4.57,3.263l-3.977-5.569a.774.774,0,1,0-1.26.9l3.977,5.569A4.354,4.354,0,0,0,1040.159,521.522Z" transform="translate(-39.82 -42.87)" fill="#002537"/>
        <circle id="Elipse_7609" data-name="Elipse 7609" cx="24.765" cy="24.765" r="24.765" transform="translate(936.319 434.967) rotate(-45)" fill="#f38e1e"/>
        <path id="Trazado_628578" data-name="Trazado 628578" d="M980.855,470.019a25.542,25.542,0,0,0,20.854-40.287.774.774,0,1,0-1.263.895A24.013,24.013,0,1,1,997.5,427.2a.774.774,0,1,0,1.074-1.114,25.539,25.539,0,1,0-17.718,43.933Z" transform="translate(-9.512 -9.512)" fill="#002537"/>
        <circle id="Elipse_7610" data-name="Elipse 7610" cx="19.218" cy="19.218" r="19.218" transform="translate(952.125 415.75)" fill="#eaeff1"/>
        <path id="Trazado_628579" data-name="Trazado 628579" d="M986.418,470.035a19.987,19.987,0,1,0-16.577-8.814.774.774,0,0,0,1.283-.867,18.451,18.451,0,1,1,3.563,3.921.774.774,0,1,0-.985,1.194A20.025,20.025,0,0,0,986.418,470.035Z" transform="translate(-15.075 -15.075)" fill="#002537"/>
        <path id="Trazado_628580" data-name="Trazado 628580" d="M1005.747,465.145h0a26.833,26.833,0,0,1-31,0h0a1.6,1.6,0,0,1,0-2.608h0a26.833,26.833,0,0,1,31,0h0A1.6,1.6,0,0,1,1005.747,465.145Z" transform="translate(-18.904 -28.874)" fill="#d4ddf0"/>
        <path id="Trazado_628581" data-name="Trazado 628581" d="M973.523,465.01a2.371,2.371,0,0,1,0-3.871,27.647,27.647,0,0,1,31.9,0,2.371,2.371,0,0,1,0,3.871h0a27.647,27.647,0,0,1-31.9,0Zm.894-2.607a.823.823,0,0,0,0,1.344,26.1,26.1,0,0,0,30.107,0h0a.823.823,0,0,0,0-1.344,26.1,26.1,0,0,0-30.107,0Z" transform="translate(-18.128 -28.107)" fill="#002537"/>
        <circle id="Elipse_7611" data-name="Elipse 7611" cx="5.132" cy="5.132" r="5.132" transform="matrix(0.615, -0.789, 0.789, 0.615, 964.14, 435.86)" fill="#809393"/>
        <path id="Trazado_628582" data-name="Trazado 628582" d="M994.64,464.171a5.906,5.906,0,1,1,5.906,5.906A5.912,5.912,0,0,1,994.64,464.171Zm1.548,0a4.358,4.358,0,1,0,4.358-4.358A4.363,4.363,0,0,0,996.188,464.171Z" transform="translate(-29.203 -29.203)" fill="#002537"/>
      </g>
    </g>
  </g>
</svg>
