<svg xmlns="http://www.w3.org/2000/svg" xmlns:xlink="http://www.w3.org/1999/xlink" width="505" height="506.767" viewBox="0 0 505 506.767">
  <defs>
    <linearGradient id="linear-gradient" x1="-0.194" y1="0.787" x2="1.092" y2="0.389" gradientUnits="objectBoundingBox">
      <stop offset="0" stop-color="#0049b2"/>
      <stop offset="1" stop-color="#006ae8"/>
    </linearGradient>
    <filter id="Trazado_628742" x="385.862" y="139" width="119.138" height="230.031" filterUnits="userSpaceOnUse">
      <feOffset dy="2" input="SourceAlpha"/>
      <feGaussianBlur result="blur"/>
      <feFlood flood-opacity="0.102"/>
      <feComposite operator="in" in2="blur"/>
      <feComposite in="SourceGraphic"/>
    </filter>
    <linearGradient id="linear-gradient-2" x1="0.007" y1="0.695" x2="2.895" y2="-0.11" xlink:href="#linear-gradient"/>
    <filter id="Trazado_628743" x="335.505" y="197.18" width="52.475" height="113.421" filterUnits="userSpaceOnUse">
      <feOffset dy="2" input="SourceAlpha"/>
      <feGaussianBlur result="blur-2"/>
      <feFlood flood-opacity="0.102"/>
      <feComposite operator="in" in2="blur-2"/>
      <feComposite in="SourceGraphic"/>
    </filter>
    <filter id="Trazado_628744" x="263.838" y="1" width="199.003" height="169.448" filterUnits="userSpaceOnUse">
      <feOffset dy="2" input="SourceAlpha"/>
      <feGaussianBlur result="blur-3"/>
      <feFlood flood-opacity="0.102"/>
      <feComposite operator="in" in2="blur-3"/>
      <feComposite in="SourceGraphic"/>
    </filter>
    <linearGradient id="linear-gradient-3" x1="0.308" y1="0.521" x2="1.715" y2="-0.445" gradientUnits="objectBoundingBox">
      <stop offset="0" stop-color="#3d0a9e"/>
      <stop offset="1" stop-color="#5e28e0"/>
    </linearGradient>
    <filter id="Trazado_628745" x="263.838" y="118.492" width="97.356" height="80.986" filterUnits="userSpaceOnUse">
      <feOffset dy="2" input="SourceAlpha"/>
      <feGaussianBlur result="blur-4"/>
      <feFlood flood-opacity="0.102"/>
      <feComposite operator="in" in2="blur-4"/>
      <feComposite in="SourceGraphic"/>
    </filter>
    <linearGradient id="linear-gradient-4" x1="0.142" y1="0.724" x2="0.642" y2="0.29" gradientUnits="objectBoundingBox">
      <stop offset="0" stop-color="#006cce"/>
      <stop offset="1" stop-color="#0690f7"/>
    </linearGradient>
    <filter id="Trazado_628746" x="263.838" y="337.677" width="198.53" height="169.022" filterUnits="userSpaceOnUse">
      <feOffset dy="2" input="SourceAlpha"/>
      <feGaussianBlur result="blur-5"/>
      <feFlood flood-opacity="0.102"/>
      <feComposite operator="in" in2="blur-5"/>
      <feComposite in="SourceGraphic"/>
    </filter>
    <linearGradient id="linear-gradient-5" x1="-0.189" y1="1.052" x2="0.809" y2="0.152" xlink:href="#linear-gradient-4"/>
    <filter id="Trazado_628747" x="263.838" y="308.621" width="96.792" height="80.499" filterUnits="userSpaceOnUse">
      <feOffset dy="2" input="SourceAlpha"/>
      <feGaussianBlur result="blur-6"/>
      <feFlood flood-opacity="0.102"/>
      <feComposite operator="in" in2="blur-6"/>
      <feComposite in="SourceGraphic"/>
    </filter>
    <filter id="Trazado_628748" x="0" y="139" width="119.075" height="229.849" filterUnits="userSpaceOnUse">
      <feOffset dy="2" input="SourceAlpha"/>
      <feGaussianBlur result="blur-7"/>
      <feFlood flood-opacity="0.102"/>
      <feComposite operator="in" in2="blur-7"/>
      <feComposite in="SourceGraphic"/>
    </filter>
    <filter id="Trazado_628749" x="117.017" y="197.422" width="52.344" height="112.939" filterUnits="userSpaceOnUse">
      <feOffset dy="2" input="SourceAlpha"/>
      <feGaussianBlur result="blur-8"/>
      <feFlood flood-opacity="0.102"/>
      <feComposite operator="in" in2="blur-8"/>
      <feComposite in="SourceGraphic"/>
    </filter>
    <filter id="Trazado_628750" x="42.308" y="1.025" width="198.852" height="169.314" filterUnits="userSpaceOnUse">
      <feOffset dy="2" input="SourceAlpha"/>
      <feGaussianBlur result="blur-9"/>
      <feFlood flood-opacity="0.102"/>
      <feComposite operator="in" in2="blur-9"/>
      <feComposite in="SourceGraphic"/>
    </filter>
    <filter id="Trazado_628751" x="143.537" y="118.419" width="97.623" height="81.221" filterUnits="userSpaceOnUse">
      <feOffset dy="2" input="SourceAlpha"/>
      <feGaussianBlur result="blur-10"/>
      <feFlood flood-opacity="0.102"/>
      <feComposite operator="in" in2="blur-10"/>
      <feComposite in="SourceGraphic"/>
    </filter>
    <filter id="Trazado_628752" x="42.235" y="337.387" width="198.925" height="169.38" filterUnits="userSpaceOnUse">
      <feOffset dy="2" input="SourceAlpha"/>
      <feGaussianBlur result="blur-11"/>
      <feFlood flood-opacity="0.102"/>
      <feComposite operator="in" in2="blur-11"/>
      <feComposite in="SourceGraphic"/>
    </filter>
    <filter id="Trazado_628753" x="143.974" y="308.404" width="97.186" height="80.836" filterUnits="userSpaceOnUse">
      <feOffset dy="2" input="SourceAlpha"/>
      <feGaussianBlur result="blur-12"/>
      <feFlood flood-opacity="0.102"/>
      <feComposite operator="in" in2="blur-12"/>
      <feComposite in="SourceGraphic"/>
    </filter>
  </defs>
  <g id="Grupo_947626" data-name="Grupo 947626" transform="translate(-548 -1081)">
    <path id="Trazado_628993" data-name="Trazado 628993" d="M252.5,0C391.952,0,505,113.048,505,252.5S391.952,505,252.5,505,0,391.952,0,252.5,113.048,0,252.5,0Z" transform="translate(548 1081)" fill="#fff"/>
    <g transform="matrix(1, 0, 0, 1, 548, 1081)" filter="url(#Trazado_628742)">
      <path id="Trazado_628742-2" data-name="Trazado 628742" d="M469.72,331.22a145.42,145.42,0,0,1-12.079,58.216,5.818,5.818,0,0,0,2.421,7.367L542.6,444.454a5.845,5.845,0,0,0,8.17-2.507,252.926,252.926,0,0,0,0-221.454,5.843,5.843,0,0,0-8.17-2.506l-82.535,47.651a5.818,5.818,0,0,0-2.421,7.367A145.413,145.413,0,0,1,469.72,331.22Z" transform="translate(-71.29 -78.21)" fill="url(#linear-gradient)"/>
    </g>
    <g transform="matrix(1, 0, 0, 1, 548, 1081)" filter="url(#Trazado_628743)">
      <path id="Trazado_628743-2" data-name="Trazado 628743" d="M431.865,308.774a88.466,88.466,0,0,1-5.393,30.506,4.693,4.693,0,0,0,2.065,5.683l32.714,18.888a4.724,4.724,0,0,0,6.71-2.241,135.813,135.813,0,0,0,0-105.67,4.724,4.724,0,0,0-6.709-2.242l-32.715,18.888a4.694,4.694,0,0,0-2.065,5.683A88.473,88.473,0,0,1,431.865,308.774Z" transform="translate(-90.68 -55.88)" fill="url(#linear-gradient-2)"/>
    </g>
    <g transform="matrix(1, 0, 0, 1, 548, 1081)" filter="url(#Trazado_628744)">
      <path id="Trazado_628744-2" data-name="Trazado 628744" d="M495.708,299.069l82.46-47.609a5.9,5.9,0,0,0,1.925-8.413A252.312,252.312,0,0,0,388.431,132.422a5.9,5.9,0,0,0-6.325,5.87v95.178a5.865,5.865,0,0,0,5.208,5.829,145.793,145.793,0,0,1,100.744,58.179A5.868,5.868,0,0,0,495.708,299.069Z" transform="translate(-118.27 -131.41)" fill="#3d0a9e"/>
    </g>
    <g transform="matrix(1, 0, 0, 1, 548, 1081)" filter="url(#Trazado_628745)">
      <path id="Trazado_628745-2" data-name="Trazado 628745" d="M445.336,282.92l31.358-18.1a5.512,5.512,0,0,0,1.644-8.11,135.351,135.351,0,0,0-90.053-51.992,5.507,5.507,0,0,0-6.179,5.479v36.219a5.506,5.506,0,0,0,4.54,5.413,88.564,88.564,0,0,1,51.734,29.87A5.506,5.506,0,0,0,445.336,282.92Z" transform="translate(-118.27 -86.18)" fill="url(#linear-gradient-3)"/>
    </g>
    <g transform="matrix(1, 0, 0, 1, 548, 1081)" filter="url(#Trazado_628746)">
      <path id="Trazado_628746-2" data-name="Trazado 628746" d="M382.106,406.5v93a7,7,0,0,0,7.515,6.98,252.305,252.305,0,0,0,189.8-109.556,7,7,0,0,0-2.288-10l-80.571-46.518a7,7,0,0,0-9.1,1.889,145.79,145.79,0,0,1-99.175,57.273A6.992,6.992,0,0,0,382.106,406.5Z" transform="translate(-118.27 -1.8)" fill="url(#linear-gradient-4)"/>
    </g>
    <g transform="matrix(1, 0, 0, 1, 548, 1081)" filter="url(#Trazado_628747)">
      <path id="Trazado_628747-2" data-name="Trazado 628747" d="M382.106,359.452v34.029a6.639,6.639,0,0,0,7.583,6.556,135.352,135.352,0,0,0,87.771-50.669,6.643,6.643,0,0,0-1.859-9.874l-29.463-17.01a6.655,6.655,0,0,0-8.362,1.463,88.565,88.565,0,0,1-50.221,29A6.647,6.647,0,0,0,382.106,359.452Z" transform="translate(-118.27 -12.98)" fill="url(#linear-gradient-5)"/>
    </g>
    <g transform="matrix(1, 0, 0, 1, 548, 1081)" filter="url(#Trazado_628748)">
      <path id="Trazado_628748-2" data-name="Trazado 628748" d="M326.409,331.185a145.431,145.431,0,0,1,12-58.029,6.046,6.046,0,0,0-2.515-7.653l-82.15-47.428a6.069,6.069,0,0,0-8.487,2.6,252.938,252.938,0,0,0,0,221.018,6.07,6.07,0,0,0,8.487,2.6l82.15-47.428a6.046,6.046,0,0,0,2.515-7.653A145.444,145.444,0,0,1,326.409,331.185Z" transform="translate(-219.84 -78.26)" fill="#029da8"/>
    </g>
    <g transform="matrix(1, 0, 0, 1, 548, 1081)" filter="url(#Trazado_628749)">
      <path id="Trazado_628749-2" data-name="Trazado 628749" d="M338.6,308.682a88.493,88.493,0,0,1,5.234-30.063,5.267,5.267,0,0,0-2.312-6.361l-31.758-18.334a5.276,5.276,0,0,0-7.505,2.507,135.817,135.817,0,0,0,0,104.5,5.278,5.278,0,0,0,7.505,2.509l31.758-18.335a5.265,5.265,0,0,0,2.312-6.359A88.5,88.5,0,0,1,338.6,308.682Z" transform="translate(-174.79 -55.79)" fill="#029da8"/>
    </g>
    <g transform="matrix(1, 0, 0, 1, 548, 1081)" filter="url(#Trazado_628750)">
      <path id="Trazado_628750-2" data-name="Trazado 628750" d="M444.709,233.148V138.662a6.251,6.251,0,0,0-6.7-6.224,252.3,252.3,0,0,0-191.07,110.286,6.247,6.247,0,0,0,2.039,8.917L330.837,298.9a6.224,6.224,0,0,0,8.108-1.688,145.785,145.785,0,0,1,100.246-57.891A6.22,6.22,0,0,0,444.709,233.148Z" transform="translate(-203.55 -131.4)" fill="#00c6a5"/>
    </g>
    <g transform="matrix(1, 0, 0, 1, 548, 1081)" filter="url(#Trazado_628751)">
      <path id="Trazado_628751-2" data-name="Trazado 628751" d="M405.739,246.912V209.583a4.952,4.952,0,0,0-5.544-4.92,135.341,135.341,0,0,0-91.074,52.581,4.956,4.956,0,0,0,1.476,7.281l32.322,18.661a4.93,4.93,0,0,0,6.243-1.1,88.56,88.56,0,0,1,52.5-30.314A4.928,4.928,0,0,0,405.739,246.912Z" transform="translate(-164.58 -86.21)" fill="#00c6a5"/>
    </g>
    <g transform="matrix(1, 0, 0, 1, 548, 1081)" filter="url(#Trazado_628752)">
      <path id="Trazado_628752-2" data-name="Trazado 628752" d="M331,340.108l-82.153,47.431a6.075,6.075,0,0,0-1.984,8.669A252.308,252.308,0,0,0,438.22,506.662a6.08,6.08,0,0,0,6.517-6.053V405.787a6.047,6.047,0,0,0-5.366-6.008,145.79,145.79,0,0,1-100.489-58.031A6.051,6.051,0,0,0,331,340.108Z" transform="translate(-203.58 -1.91)" fill="#018cd1"/>
    </g>
    <g transform="matrix(1, 0, 0, 1, 548, 1081)" filter="url(#Trazado_628753)">
      <path id="Trazado_628753-2" data-name="Trazado 628753" d="M342.084,322.253l-30.749,17.753a5.86,5.86,0,0,0-1.748,8.632A135.344,135.344,0,0,0,399,400.257a5.852,5.852,0,0,0,6.575-5.827v-35.52a5.87,5.87,0,0,0-4.832-5.764,88.563,88.563,0,0,1-51.246-29.59A5.875,5.875,0,0,0,342.084,322.253Z" transform="translate(-164.41 -13.07)" fill="#018cd1"/>
    </g>
    <path id="Trazado_628994" data-name="Trazado 628994" d="M25.059,11.391a4.185,4.185,0,0,1-1.332,2.785,4.365,4.365,0,0,1-2.98.98,4.008,4.008,0,0,1-3.23-1.445A5.815,5.815,0,0,1,16.3,9.844V8.75a6.481,6.481,0,0,1,.566-2.789,4.231,4.231,0,0,1,1.605-1.848,4.47,4.47,0,0,1,2.406-.645A4.11,4.11,0,0,1,23.786,4.48a4.235,4.235,0,0,1,1.273,2.8H23.551A3.268,3.268,0,0,0,22.7,5.307,2.565,2.565,0,0,0,20.879,4.7a2.684,2.684,0,0,0-2.254,1.063,4.882,4.882,0,0,0-.816,3.026v1.1a5.018,5.018,0,0,0,.773,2.948,2.5,2.5,0,0,0,2.164,1.095,2.886,2.886,0,0,0,1.918-.566,3.143,3.143,0,0,0,.887-1.973ZM28.45,15H27V6.547H28.45ZM26.887,4.3a.863.863,0,0,1,.215-.594.807.807,0,0,1,.637-.242.819.819,0,0,1,.641.242A.854.854,0,0,1,28.6,4.3a.826.826,0,0,1-.219.586.834.834,0,0,1-.641.234.821.821,0,0,1-.637-.234A.834.834,0,0,1,26.887,4.3Zm7.266,9.672a2.082,2.082,0,0,0,1.352-.469,1.649,1.649,0,0,0,.641-1.172h1.367a2.621,2.621,0,0,1-.5,1.383,3.293,3.293,0,0,1-1.23,1.047,3.55,3.55,0,0,1-1.629.391A3.482,3.482,0,0,1,31.407,14a4.59,4.59,0,0,1-1.02-3.152v-.242a5.089,5.089,0,0,1,.453-2.2,3.451,3.451,0,0,1,1.3-1.492,3.7,3.7,0,0,1,2-.531,3.39,3.39,0,0,1,2.363.852,3.043,3.043,0,0,1,1,2.211H36.145a1.992,1.992,0,0,0-.621-1.348,1.932,1.932,0,0,0-1.379-.527,2.023,2.023,0,0,0-1.707.793,3.724,3.724,0,0,0-.605,2.293v.273a3.65,3.65,0,0,0,.6,2.25A2.033,2.033,0,0,0,34.153,13.977ZM40.707,15H39.262V3h1.445Zm1.93-4.3a4.993,4.993,0,0,1,.488-2.234A3.643,3.643,0,0,1,44.485,6.93a3.7,3.7,0,0,1,1.988-.539,3.565,3.565,0,0,1,2.793,1.2,4.6,4.6,0,0,1,1.066,3.18v.1a5.036,5.036,0,0,1-.473,2.215,3.589,3.589,0,0,1-1.352,1.527,3.743,3.743,0,0,1-2.02.547,3.556,3.556,0,0,1-2.785-1.2A4.575,4.575,0,0,1,42.637,10.8Zm1.453.172a3.616,3.616,0,0,0,.652,2.258,2.211,2.211,0,0,0,3.5-.012,3.955,3.955,0,0,0,.648-2.418,3.61,3.61,0,0,0-.66-2.254,2.1,2.1,0,0,0-1.754-.863,2.075,2.075,0,0,0-1.727.852A3.925,3.925,0,0,0,44.09,10.867ZM55.754,10.7a4.952,4.952,0,0,1,.922-3.129,3.137,3.137,0,0,1,4.766-.168V3h1.445V15H61.559l-.07-.906a2.943,2.943,0,0,1-2.414,1.063,2.887,2.887,0,0,1-2.395-1.2,5.008,5.008,0,0,1-.926-3.141Zm1.445.164a3.749,3.749,0,0,0,.594,2.25,1.92,1.92,0,0,0,1.641.813A2.108,2.108,0,0,0,61.442,12.7V8.813a2.125,2.125,0,0,0-1.992-1.2,1.929,1.929,0,0,0-1.656.82A4.128,4.128,0,0,0,57.2,10.867Zm11.438,4.289a3.693,3.693,0,0,1-2.8-1.129,4.19,4.19,0,0,1-1.078-3.02v-.266a5.073,5.073,0,0,1,.48-2.246,3.748,3.748,0,0,1,1.344-1.547,3.378,3.378,0,0,1,1.871-.559A3.166,3.166,0,0,1,71.02,7.477a4.7,4.7,0,0,1,.914,3.109v.6H66.207a3,3,0,0,0,.73,2.02,2.3,2.3,0,0,0,1.777.77,2.517,2.517,0,0,0,1.3-.312,3.259,3.259,0,0,0,.93-.828l.883.688A3.55,3.55,0,0,1,68.637,15.156Zm-.18-7.578a1.928,1.928,0,0,0-1.469.637A3.1,3.1,0,0,0,66.254,10h4.234V9.891a2.753,2.753,0,0,0-.594-1.707A1.815,1.815,0,0,0,68.457,7.578ZM75.176,15H73.731V3h1.445Zm11.492,0a3.036,3.036,0,0,1-.2-.891,3.225,3.225,0,0,1-2.406,1.047,2.984,2.984,0,0,1-2.051-.707,2.288,2.288,0,0,1-.8-1.793,2.39,2.39,0,0,1,1-2.051,4.733,4.733,0,0,1,2.824-.73h1.406V9.211A1.623,1.623,0,0,0,85.989,8a1.821,1.821,0,0,0-1.336-.449,2.108,2.108,0,0,0-1.3.391,1.151,1.151,0,0,0-.523.945H81.379a2,2,0,0,1,.449-1.223,3.066,3.066,0,0,1,1.219-.934,4.1,4.1,0,0,1,1.691-.344,3.342,3.342,0,0,1,2.289.73,2.635,2.635,0,0,1,.859,2.012v3.891a4.757,4.757,0,0,0,.3,1.852V15Zm-2.4-1.1a2.54,2.54,0,0,0,1.289-.352,2.127,2.127,0,0,0,.883-.914V10.9H85.309q-2.656,0-2.656,1.555a1.316,1.316,0,0,0,.453,1.063A1.742,1.742,0,0,0,84.27,13.9Zm7.25-7.352.047,1.063A3.08,3.08,0,0,1,94.1,6.391q2.68,0,2.7,3.023V15H95.356V9.406a1.946,1.946,0,0,0-.418-1.352,1.675,1.675,0,0,0-1.277-.437,2.086,2.086,0,0,0-1.234.375,2.546,2.546,0,0,0-.828.984V15H90.153V6.547ZM104.2,15a3.036,3.036,0,0,1-.2-.891,3.225,3.225,0,0,1-2.406,1.047,2.984,2.984,0,0,1-2.051-.707,2.288,2.288,0,0,1-.8-1.793,2.39,2.39,0,0,1,1-2.051,4.733,4.733,0,0,1,2.824-.73h1.406V9.211A1.623,1.623,0,0,0,103.52,8a1.821,1.821,0,0,0-1.336-.449,2.108,2.108,0,0,0-1.3.391,1.151,1.151,0,0,0-.523.945H98.911a2,2,0,0,1,.449-1.223,3.066,3.066,0,0,1,1.219-.934,4.1,4.1,0,0,1,1.691-.344,3.342,3.342,0,0,1,2.289.73,2.635,2.635,0,0,1,.859,2.012v3.891a4.757,4.757,0,0,0,.3,1.852V15Zm-2.4-1.1a2.54,2.54,0,0,0,1.289-.352,2.127,2.127,0,0,0,.883-.914V10.9H102.84q-2.656,0-2.656,1.555a1.316,1.316,0,0,0,.453,1.063A1.742,1.742,0,0,0,101.8,13.9Zm1.336-10.883h1.75l-2.094,2.3-1.164,0ZM109.254,15h-1.445V3h1.445Zm3.883,0h-1.445V6.547h1.445ZM111.575,4.3a.863.863,0,0,1,.215-.594.807.807,0,0,1,.637-.242.819.819,0,0,1,.641.242.854.854,0,0,1,.219.594.826.826,0,0,1-.219.586.834.834,0,0,1-.641.234.821.821,0,0,1-.637-.234A.834.834,0,0,1,111.575,4.3Zm8.8,8.453a1.064,1.064,0,0,0-.441-.91,4.249,4.249,0,0,0-1.539-.559,7.277,7.277,0,0,1-1.742-.562,2.479,2.479,0,0,1-.953-.781,1.869,1.869,0,0,1-.309-1.078,2.193,2.193,0,0,1,.879-1.758,3.432,3.432,0,0,1,2.246-.719,3.532,3.532,0,0,1,2.332.742,2.357,2.357,0,0,1,.895,1.9h-1.453a1.3,1.3,0,0,0-.5-1.023,1.888,1.888,0,0,0-1.27-.43,1.976,1.976,0,0,0-1.234.344,1.082,1.082,0,0,0-.445.9.877.877,0,0,0,.414.789,5.1,5.1,0,0,0,1.5.508,7.8,7.8,0,0,1,1.754.578,2.558,2.558,0,0,1,1,.809,1.988,1.988,0,0,1,.324,1.152,2.163,2.163,0,0,1-.906,1.816,3.8,3.8,0,0,1-2.352.684,4.257,4.257,0,0,1-1.8-.359,2.922,2.922,0,0,1-1.223-1A2.42,2.42,0,0,1,115.1,12.4h1.445a1.5,1.5,0,0,0,.582,1.152,2.258,2.258,0,0,0,1.434.426,2.331,2.331,0,0,0,1.316-.332A1.02,1.02,0,0,0,120.372,12.758ZM125.27,15h-1.445V6.547h1.445ZM123.707,4.3a.863.863,0,0,1,.215-.594.807.807,0,0,1,.637-.242.819.819,0,0,1,.641.242.854.854,0,0,1,.219.594.826.826,0,0,1-.219.586.834.834,0,0,1-.641.234.821.821,0,0,1-.637-.234A.834.834,0,0,1,123.707,4.3Zm8.8,8.453a1.064,1.064,0,0,0-.441-.91,4.249,4.249,0,0,0-1.539-.559,7.277,7.277,0,0,1-1.742-.562,2.479,2.479,0,0,1-.953-.781,1.869,1.869,0,0,1-.309-1.078,2.193,2.193,0,0,1,.879-1.758,3.432,3.432,0,0,1,2.246-.719,3.532,3.532,0,0,1,2.332.742,2.357,2.357,0,0,1,.895,1.9h-1.453a1.3,1.3,0,0,0-.5-1.023,1.888,1.888,0,0,0-1.27-.43,1.976,1.976,0,0,0-1.234.344,1.082,1.082,0,0,0-.445.9.877.877,0,0,0,.414.789,5.1,5.1,0,0,0,1.5.508,7.8,7.8,0,0,1,1.754.578,2.558,2.558,0,0,1,1,.809,1.988,1.988,0,0,1,.324,1.152,2.163,2.163,0,0,1-.906,1.816,3.8,3.8,0,0,1-2.352.684,4.257,4.257,0,0,1-1.8-.359,2.923,2.923,0,0,1-1.223-1,2.42,2.42,0,0,1-.441-1.395h1.445a1.5,1.5,0,0,0,.582,1.152,2.258,2.258,0,0,0,1.434.426,2.331,2.331,0,0,0,1.316-.332A1.02,1.02,0,0,0,132.5,12.758ZM23.875,39V31.664H22.539V30.547h1.336V29.68a2.878,2.878,0,0,1,.727-2.1,2.745,2.745,0,0,1,2.055-.742,3.816,3.816,0,0,1,.992.132l-.078,1.165a4.151,4.151,0,0,0-.781-.07,1.41,1.41,0,0,0-1.086.411,1.669,1.669,0,0,0-.383,1.18v.893h1.8v1.117h-1.8V39Zm4.461-4.3a4.993,4.993,0,0,1,.488-2.234,3.643,3.643,0,0,1,1.359-1.531,3.7,3.7,0,0,1,1.988-.539,3.565,3.565,0,0,1,2.793,1.2,4.6,4.6,0,0,1,1.066,3.18v.1a5.036,5.036,0,0,1-.473,2.215,3.589,3.589,0,0,1-1.352,1.527,3.743,3.743,0,0,1-2.02.547,3.556,3.556,0,0,1-2.785-1.2A4.575,4.575,0,0,1,28.336,34.8Zm1.453.172a3.616,3.616,0,0,0,.652,2.258,2.211,2.211,0,0,0,3.5-.012,3.955,3.955,0,0,0,.648-2.418,3.61,3.61,0,0,0-.66-2.254,2.1,2.1,0,0,0-1.754-.863,2.075,2.075,0,0,0-1.727.852A3.925,3.925,0,0,0,29.789,34.867ZM41.93,31.844a4.331,4.331,0,0,0-.711-.055A1.9,1.9,0,0,0,39.289,33v6H37.844V30.547H39.25l.023.977a2.251,2.251,0,0,1,2.016-1.133,1.477,1.477,0,0,1,.641.109Zm4.688,7.313a3.693,3.693,0,0,1-2.8-1.129,4.19,4.19,0,0,1-1.078-3.02v-.266a5.073,5.073,0,0,1,.48-2.246,3.748,3.748,0,0,1,1.344-1.547,3.378,3.378,0,0,1,1.871-.559A3.166,3.166,0,0,1,49,31.477a4.7,4.7,0,0,1,.914,3.109v.6H44.188a3,3,0,0,0,.73,2.02,2.3,2.3,0,0,0,1.777.77,2.517,2.517,0,0,0,1.3-.312,3.258,3.258,0,0,0,.93-.828l.883.688A3.55,3.55,0,0,1,46.618,39.156Zm-.18-7.578a1.928,1.928,0,0,0-1.469.637A3.1,3.1,0,0,0,44.235,34h4.234v-.109a2.753,2.753,0,0,0-.594-1.707A1.815,1.815,0,0,0,46.438,31.578Zm6.516-1.031L53,31.609a3.08,3.08,0,0,1,2.531-1.219q2.68,0,2.7,3.023V39H56.789V33.406a1.946,1.946,0,0,0-.418-1.352,1.675,1.675,0,0,0-1.277-.437,2.086,2.086,0,0,0-1.234.375,2.546,2.546,0,0,0-.828.984V39H51.586V30.547Zm12.383,6.211a1.064,1.064,0,0,0-.441-.91,4.249,4.249,0,0,0-1.539-.559,7.277,7.277,0,0,1-1.742-.562,2.479,2.479,0,0,1-.953-.781,1.869,1.869,0,0,1-.309-1.078,2.193,2.193,0,0,1,.879-1.758,3.432,3.432,0,0,1,2.246-.719,3.532,3.532,0,0,1,2.332.742,2.357,2.357,0,0,1,.895,1.9H65.25a1.3,1.3,0,0,0-.5-1.023,1.888,1.888,0,0,0-1.27-.43,1.976,1.976,0,0,0-1.234.344,1.082,1.082,0,0,0-.445.9.877.877,0,0,0,.414.789,5.1,5.1,0,0,0,1.5.508,7.8,7.8,0,0,1,1.754.578,2.558,2.558,0,0,1,1,.809,1.988,1.988,0,0,1,.324,1.152,2.163,2.163,0,0,1-.906,1.816,3.8,3.8,0,0,1-2.352.684,4.257,4.257,0,0,1-1.8-.359,2.922,2.922,0,0,1-1.223-1,2.42,2.42,0,0,1-.441-1.395h1.445a1.5,1.5,0,0,0,.582,1.152,2.258,2.258,0,0,0,1.434.426,2.331,2.331,0,0,0,1.316-.332A1.02,1.02,0,0,0,65.336,36.758Zm6.836,2.4a3.693,3.693,0,0,1-2.8-1.129,4.19,4.19,0,0,1-1.078-3.02v-.266a5.073,5.073,0,0,1,.48-2.246,3.748,3.748,0,0,1,1.344-1.547,3.378,3.378,0,0,1,1.871-.559,3.166,3.166,0,0,1,2.563,1.086,4.7,4.7,0,0,1,.914,3.109v.6H69.743a3,3,0,0,0,.73,2.02,2.3,2.3,0,0,0,1.777.77,2.517,2.517,0,0,0,1.3-.312,3.259,3.259,0,0,0,.93-.828l.883.688A3.55,3.55,0,0,1,72.172,39.156Zm-.18-7.578a1.928,1.928,0,0,0-1.469.637A3.1,3.1,0,0,0,69.789,34h4.234v-.109a2.753,2.753,0,0,0-.594-1.707A1.815,1.815,0,0,0,71.993,31.578Zm16.25,3.289a5.062,5.062,0,0,1-.883,3.109,2.829,2.829,0,0,1-2.391,1.18,3.1,3.1,0,0,1-2.422-.977v4.07H81.1v-11.7h1.32l.07.938a2.977,2.977,0,0,1,2.453-1.094,2.882,2.882,0,0,1,2.41,1.148,5.117,5.117,0,0,1,.887,3.2ZM86.8,34.7a3.735,3.735,0,0,0-.609-2.258,1.963,1.963,0,0,0-1.672-.828,2.125,2.125,0,0,0-1.969,1.164V36.82a2.129,2.129,0,0,0,1.984,1.156,1.954,1.954,0,0,0,1.652-.824A4.077,4.077,0,0,0,86.8,34.7ZM95.3,39a3.036,3.036,0,0,1-.2-.891,3.225,3.225,0,0,1-2.406,1.047,2.984,2.984,0,0,1-2.051-.707,2.288,2.288,0,0,1-.8-1.793,2.39,2.39,0,0,1,1-2.051,4.733,4.733,0,0,1,2.824-.73h1.406v-.664A1.623,1.623,0,0,0,94.618,32a1.821,1.821,0,0,0-1.336-.449,2.108,2.108,0,0,0-1.3.391,1.151,1.151,0,0,0-.523.945H90.008a2,2,0,0,1,.449-1.223,3.066,3.066,0,0,1,1.219-.934,4.1,4.1,0,0,1,1.691-.344,3.342,3.342,0,0,1,2.289.73,2.635,2.635,0,0,1,.859,2.012v3.891a4.757,4.757,0,0,0,.3,1.852V39Zm-2.4-1.1a2.54,2.54,0,0,0,1.289-.352,2.127,2.127,0,0,0,.883-.914V34.9H93.938q-2.656,0-2.656,1.555a1.316,1.316,0,0,0,.453,1.063A1.742,1.742,0,0,0,92.9,37.9Zm9.969-6.055a4.331,4.331,0,0,0-.711-.055A1.9,1.9,0,0,0,100.227,33v6H98.782V30.547h1.406l.023.977a2.251,2.251,0,0,1,2.016-1.133,1.477,1.477,0,0,1,.641.109ZM109.1,39a3.036,3.036,0,0,1-.2-.891,3.225,3.225,0,0,1-2.406,1.047,2.984,2.984,0,0,1-2.051-.707,2.288,2.288,0,0,1-.8-1.793,2.39,2.39,0,0,1,1-2.051,4.733,4.733,0,0,1,2.824-.73h1.406v-.664A1.623,1.623,0,0,0,108.422,32a1.821,1.821,0,0,0-1.336-.449,2.108,2.108,0,0,0-1.3.391,1.151,1.151,0,0,0-.523.945h-1.453a2,2,0,0,1,.449-1.223,3.066,3.066,0,0,1,1.219-.934,4.1,4.1,0,0,1,1.691-.344,3.342,3.342,0,0,1,2.289.73,2.635,2.635,0,0,1,.859,2.012v3.891a4.757,4.757,0,0,0,.3,1.852V39Zm-2.4-1.1a2.54,2.54,0,0,0,1.289-.352,2.127,2.127,0,0,0,.883-.914V34.9h-1.133q-2.656,0-2.656,1.555a1.316,1.316,0,0,0,.453,1.063A1.742,1.742,0,0,0,106.7,37.9ZM118.118,39h-1.445V27h1.445Zm7.531,0a3.036,3.036,0,0,1-.2-.891,3.225,3.225,0,0,1-2.406,1.047,2.984,2.984,0,0,1-2.051-.707,2.288,2.288,0,0,1-.8-1.793,2.39,2.39,0,0,1,1-2.051,4.733,4.733,0,0,1,2.824-.73h1.406v-.664A1.623,1.623,0,0,0,124.969,32a1.821,1.821,0,0,0-1.336-.449,2.108,2.108,0,0,0-1.3.391,1.151,1.151,0,0,0-.523.945H120.36a2,2,0,0,1,.449-1.223,3.066,3.066,0,0,1,1.219-.934,4.1,4.1,0,0,1,1.691-.344,3.342,3.342,0,0,1,2.289.73,2.635,2.635,0,0,1,.859,2.012v3.891a4.757,4.757,0,0,0,.3,1.852V39Zm-2.4-1.1a2.54,2.54,0,0,0,1.289-.352,2.127,2.127,0,0,0,.883-.914V34.9h-1.133q-2.656,0-2.656,1.555a1.316,1.316,0,0,0,.453,1.063A1.742,1.742,0,0,0,123.25,37.9ZM28.411,55.844a4.331,4.331,0,0,0-.711-.055A1.9,1.9,0,0,0,25.77,57v6H24.325V54.547h1.406l.023.977a2.251,2.251,0,0,1,2.016-1.133,1.477,1.477,0,0,1,.641.109ZM33.1,63.156a3.693,3.693,0,0,1-2.8-1.129,4.19,4.19,0,0,1-1.078-3.02v-.266A5.073,5.073,0,0,1,29.7,56.5a3.748,3.748,0,0,1,1.344-1.547,3.378,3.378,0,0,1,1.871-.559,3.166,3.166,0,0,1,2.563,1.086,4.7,4.7,0,0,1,.914,3.109v.6H30.668a3,3,0,0,0,.73,2.02,2.3,2.3,0,0,0,1.777.77,2.517,2.517,0,0,0,1.3-.312,3.258,3.258,0,0,0,.93-.828l.883.688A3.55,3.55,0,0,1,33.1,63.156Zm-.18-7.578a1.928,1.928,0,0,0-1.469.637A3.1,3.1,0,0,0,30.715,58H34.95v-.109a2.753,2.753,0,0,0-.594-1.707A1.815,1.815,0,0,0,32.918,55.578Zm8.539,6.4a2.082,2.082,0,0,0,1.352-.469,1.649,1.649,0,0,0,.641-1.172h1.367a2.621,2.621,0,0,1-.5,1.383,3.293,3.293,0,0,1-1.23,1.047,3.55,3.55,0,0,1-1.629.391A3.482,3.482,0,0,1,38.711,62a4.59,4.59,0,0,1-1.02-3.152v-.242a5.089,5.089,0,0,1,.453-2.2,3.451,3.451,0,0,1,1.3-1.492,3.7,3.7,0,0,1,2-.531,3.39,3.39,0,0,1,2.363.852,3.043,3.043,0,0,1,1,2.211H43.45a1.992,1.992,0,0,0-.621-1.348,1.932,1.932,0,0,0-1.379-.527,2.023,2.023,0,0,0-1.707.793,3.724,3.724,0,0,0-.605,2.293v.273a3.65,3.65,0,0,0,.6,2.25A2.033,2.033,0,0,0,41.457,61.977Zm4.6-3.281a4.993,4.993,0,0,1,.488-2.234,3.643,3.643,0,0,1,1.359-1.531,3.7,3.7,0,0,1,1.988-.539,3.565,3.565,0,0,1,2.793,1.2,4.6,4.6,0,0,1,1.066,3.18v.1a5.036,5.036,0,0,1-.473,2.215,3.589,3.589,0,0,1-1.352,1.527,3.743,3.743,0,0,1-2.02.547,3.556,3.556,0,0,1-2.785-1.2A4.575,4.575,0,0,1,46.059,58.8Zm1.453.172a3.616,3.616,0,0,0,.652,2.258,2.211,2.211,0,0,0,3.5-.012,3.955,3.955,0,0,0,.648-2.418,3.61,3.61,0,0,0-.66-2.254,2.1,2.1,0,0,0-1.754-.863,2.075,2.075,0,0,0-1.727.852A3.925,3.925,0,0,0,47.512,58.867ZM57.137,63H55.692V51h1.445Zm5.82.156a3.693,3.693,0,0,1-2.8-1.129,4.19,4.19,0,0,1-1.078-3.02v-.266a5.073,5.073,0,0,1,.48-2.246,3.748,3.748,0,0,1,1.344-1.547,3.378,3.378,0,0,1,1.871-.559,3.166,3.166,0,0,1,2.563,1.086,4.7,4.7,0,0,1,.914,3.109v.6H60.528a3,3,0,0,0,.73,2.02,2.3,2.3,0,0,0,1.777.77,2.517,2.517,0,0,0,1.3-.312,3.259,3.259,0,0,0,.93-.828l.883.688A3.55,3.55,0,0,1,62.957,63.156Zm-.18-7.578a1.928,1.928,0,0,0-1.469.637A3.1,3.1,0,0,0,60.575,58h4.234v-.109a2.753,2.753,0,0,0-.594-1.707A1.815,1.815,0,0,0,62.778,55.578Zm8.539,6.4a2.082,2.082,0,0,0,1.352-.469,1.649,1.649,0,0,0,.641-1.172h1.367a2.621,2.621,0,0,1-.5,1.383,3.293,3.293,0,0,1-1.23,1.047,3.55,3.55,0,0,1-1.629.391A3.482,3.482,0,0,1,68.571,62a4.59,4.59,0,0,1-1.02-3.152v-.242a5.089,5.089,0,0,1,.453-2.2,3.451,3.451,0,0,1,1.3-1.492,3.7,3.7,0,0,1,2-.531,3.39,3.39,0,0,1,2.363.852,3.043,3.043,0,0,1,1,2.211H73.309a1.992,1.992,0,0,0-.621-1.348,1.932,1.932,0,0,0-1.379-.527,2.023,2.023,0,0,0-1.707.793A3.724,3.724,0,0,0,69,58.664v.273a3.65,3.65,0,0,0,.6,2.25A2.033,2.033,0,0,0,71.317,61.977Zm8.375,0a2.082,2.082,0,0,0,1.352-.469,1.649,1.649,0,0,0,.641-1.172h1.367a2.621,2.621,0,0,1-.5,1.383,3.293,3.293,0,0,1-1.23,1.047,3.55,3.55,0,0,1-1.629.391A3.482,3.482,0,0,1,76.946,62a4.59,4.59,0,0,1-1.02-3.152v-.242a5.089,5.089,0,0,1,.453-2.2,3.451,3.451,0,0,1,1.3-1.492,3.7,3.7,0,0,1,2-.531,3.39,3.39,0,0,1,2.363.852,3.043,3.043,0,0,1,1,2.211H81.684a1.992,1.992,0,0,0-.621-1.348,1.932,1.932,0,0,0-1.379-.527,2.023,2.023,0,0,0-1.707.793,3.724,3.724,0,0,0-.605,2.293v.273a3.65,3.65,0,0,0,.6,2.25A2.033,2.033,0,0,0,79.692,61.977ZM86.247,63H84.8V54.547h1.445ZM84.684,52.3a.863.863,0,0,1,.215-.594.807.807,0,0,1,.637-.242.819.819,0,0,1,.641.242.854.854,0,0,1,.219.594.826.826,0,0,1-.219.586.834.834,0,0,1-.641.234.821.821,0,0,1-.637-.234A.834.834,0,0,1,84.684,52.3ZM88.176,58.7a4.993,4.993,0,0,1,.488-2.234,3.643,3.643,0,0,1,1.359-1.531,3.7,3.7,0,0,1,1.988-.539,3.565,3.565,0,0,1,2.793,1.2,4.6,4.6,0,0,1,1.066,3.18v.1a5.036,5.036,0,0,1-.473,2.215,3.589,3.589,0,0,1-1.352,1.527,3.743,3.743,0,0,1-2.02.547,3.556,3.556,0,0,1-2.785-1.2A4.575,4.575,0,0,1,88.176,58.8Zm1.453.172a3.616,3.616,0,0,0,.652,2.258,2.211,2.211,0,0,0,3.5-.012,3.955,3.955,0,0,0,.648-2.418,3.61,3.61,0,0,0-.66-2.254,2.1,2.1,0,0,0-1.754-.863,2.075,2.075,0,0,0-1.727.852A3.925,3.925,0,0,0,89.629,58.867Zm3.039-7.852h1.75l-2.094,2.3-1.164,0Zm6.383,3.531.047,1.063a3.08,3.08,0,0,1,2.531-1.219q2.68,0,2.7,3.023V63h-1.445V57.406a1.946,1.946,0,0,0-.418-1.352,1.675,1.675,0,0,0-1.277-.437,2.086,2.086,0,0,0-1.234.375,2.546,2.546,0,0,0-.828.984V63H97.684V54.547Zm11.07,4.156a4.952,4.952,0,0,1,.922-3.129,3.137,3.137,0,0,1,4.766-.168V51h1.445V63h-1.328l-.07-.906a2.943,2.943,0,0,1-2.414,1.063,2.887,2.887,0,0,1-2.395-1.2,5.008,5.008,0,0,1-.926-3.141Zm1.445.164a3.749,3.749,0,0,0,.594,2.25,1.92,1.92,0,0,0,1.641.813,2.108,2.108,0,0,0,2.008-1.234V56.813a2.125,2.125,0,0,0-1.992-1.2,1.929,1.929,0,0,0-1.656.82A4.128,4.128,0,0,0,111.567,58.867ZM123,63.156a3.693,3.693,0,0,1-2.8-1.129,4.19,4.19,0,0,1-1.078-3.02v-.266a5.073,5.073,0,0,1,.48-2.246,3.748,3.748,0,0,1,1.344-1.547,3.378,3.378,0,0,1,1.871-.559,3.166,3.166,0,0,1,2.563,1.086,4.7,4.7,0,0,1,.914,3.109v.6h-5.727a3,3,0,0,0,.73,2.02,2.3,2.3,0,0,0,1.777.77,2.517,2.517,0,0,0,1.3-.312,3.259,3.259,0,0,0,.93-.828l.883.688A3.55,3.55,0,0,1,123,63.156Zm-.18-7.578a1.928,1.928,0,0,0-1.469.637A3.1,3.1,0,0,0,120.622,58h4.234v-.109a2.753,2.753,0,0,0-.594-1.707A1.815,1.815,0,0,0,122.825,55.578ZM22.239,87.156a3.693,3.693,0,0,1-2.8-1.129,4.19,4.19,0,0,1-1.078-3.02v-.266a5.073,5.073,0,0,1,.48-2.246,3.748,3.748,0,0,1,1.344-1.547,3.378,3.378,0,0,1,1.871-.559,3.166,3.166,0,0,1,2.563,1.086,4.7,4.7,0,0,1,.914,3.109v.6H19.809a3,3,0,0,0,.73,2.02,2.3,2.3,0,0,0,1.777.77,2.517,2.517,0,0,0,1.3-.312,3.259,3.259,0,0,0,.93-.828l.883.688A3.55,3.55,0,0,1,22.239,87.156Zm-.18-7.578a1.928,1.928,0,0,0-1.469.637A3.1,3.1,0,0,0,19.856,82H24.09v-.109a2.753,2.753,0,0,0-.594-1.707A1.815,1.815,0,0,0,22.059,79.578Zm7.836,5.461,2.094-6.492h1.477L30.434,87h-1.1L26.27,78.547h1.477ZM36.426,87H34.981V78.547h1.445ZM34.864,76.3a.863.863,0,0,1,.215-.594.807.807,0,0,1,.637-.242.819.819,0,0,1,.641.242.854.854,0,0,1,.219.594.826.826,0,0,1-.219.586.834.834,0,0,1-.641.234.821.821,0,0,1-.637-.234A.834.834,0,0,1,34.864,76.3Zm3.523,6.4a4.952,4.952,0,0,1,.922-3.129,3.137,3.137,0,0,1,4.766-.168V75H45.52V87H44.192l-.07-.906a2.943,2.943,0,0,1-2.414,1.063,2.887,2.887,0,0,1-2.395-1.2,5.008,5.008,0,0,1-.926-3.141Zm1.445.164a3.749,3.749,0,0,0,.594,2.25,1.92,1.92,0,0,0,1.641.813A2.109,2.109,0,0,0,44.075,84.7V80.813a2.125,2.125,0,0,0-1.992-1.2,1.929,1.929,0,0,0-1.656.82A4.128,4.128,0,0,0,39.832,82.867ZM51.27,87.156a3.693,3.693,0,0,1-2.8-1.129,4.19,4.19,0,0,1-1.078-3.02v-.266a5.073,5.073,0,0,1,.48-2.246,3.748,3.748,0,0,1,1.344-1.547,3.378,3.378,0,0,1,1.871-.559,3.166,3.166,0,0,1,2.563,1.086,4.7,4.7,0,0,1,.914,3.109v.6H48.84a3,3,0,0,0,.73,2.02,2.3,2.3,0,0,0,1.777.77,2.517,2.517,0,0,0,1.3-.312,3.259,3.259,0,0,0,.93-.828l.883.688A3.55,3.55,0,0,1,51.27,87.156Zm-.18-7.578a1.928,1.928,0,0,0-1.469.637A3.1,3.1,0,0,0,48.887,82h4.234v-.109a2.753,2.753,0,0,0-.594-1.707A1.815,1.815,0,0,0,51.09,79.578Zm6.516-1.031.047,1.063a3.08,3.08,0,0,1,2.531-1.219q2.68,0,2.7,3.023V87H61.442V81.406a1.946,1.946,0,0,0-.418-1.352,1.675,1.675,0,0,0-1.277-.437,2.086,2.086,0,0,0-1.234.375,2.546,2.546,0,0,0-.828.984V87H56.239V78.547Zm10.852,7.43a2.082,2.082,0,0,0,1.352-.469,1.649,1.649,0,0,0,.641-1.172h1.367a2.621,2.621,0,0,1-.5,1.383,3.293,3.293,0,0,1-1.23,1.047,3.55,3.55,0,0,1-1.629.391A3.482,3.482,0,0,1,65.711,86a4.59,4.59,0,0,1-1.02-3.152v-.242a5.089,5.089,0,0,1,.453-2.2,3.451,3.451,0,0,1,1.3-1.492,3.7,3.7,0,0,1,2-.531,3.39,3.39,0,0,1,2.363.852,3.043,3.043,0,0,1,1,2.211H70.45a1.992,1.992,0,0,0-.621-1.348,1.932,1.932,0,0,0-1.379-.527,2.023,2.023,0,0,0-1.707.793,3.724,3.724,0,0,0-.605,2.293v.273a3.65,3.65,0,0,0,.6,2.25A2.033,2.033,0,0,0,68.457,85.977ZM75.012,87H73.567V78.547h1.445ZM73.45,76.3a.863.863,0,0,1,.215-.594.807.807,0,0,1,.637-.242.819.819,0,0,1,.641.242.854.854,0,0,1,.219.594.826.826,0,0,1-.219.586.834.834,0,0,1-.641.234.821.821,0,0,1-.637-.234A.834.834,0,0,1,73.45,76.3ZM82.543,87a3.036,3.036,0,0,1-.2-.891,3.225,3.225,0,0,1-2.406,1.047,2.984,2.984,0,0,1-2.051-.707,2.287,2.287,0,0,1-.8-1.793,2.39,2.39,0,0,1,1-2.051,4.733,4.733,0,0,1,2.824-.73h1.406v-.664A1.623,1.623,0,0,0,81.864,80a1.821,1.821,0,0,0-1.336-.449,2.108,2.108,0,0,0-1.3.391,1.151,1.151,0,0,0-.523.945H77.254a2,2,0,0,1,.449-1.223,3.066,3.066,0,0,1,1.219-.934,4.1,4.1,0,0,1,1.691-.344,3.342,3.342,0,0,1,2.289.73,2.635,2.635,0,0,1,.859,2.012v3.891a4.757,4.757,0,0,0,.3,1.852V87Zm-2.4-1.1a2.54,2.54,0,0,0,1.289-.352,2.127,2.127,0,0,0,.883-.914V82.9H81.184q-2.656,0-2.656,1.555a1.316,1.316,0,0,0,.453,1.063A1.742,1.742,0,0,0,80.145,85.9Zm9.492-3.2a4.952,4.952,0,0,1,.922-3.129,3.137,3.137,0,0,1,4.766-.168V75H96.77V87H95.442l-.07-.906a2.943,2.943,0,0,1-2.414,1.063,2.887,2.887,0,0,1-2.395-1.2,5.008,5.008,0,0,1-.926-3.141Zm1.445.164a3.749,3.749,0,0,0,.594,2.25,1.92,1.92,0,0,0,1.641.813A2.109,2.109,0,0,0,95.325,84.7V80.813a2.125,2.125,0,0,0-1.992-1.2,1.929,1.929,0,0,0-1.656.82A4.128,4.128,0,0,0,91.082,82.867Zm9.5,4.133H99.137V78.547h1.445ZM99.02,76.3a.863.863,0,0,1,.215-.594.807.807,0,0,1,.637-.242.819.819,0,0,1,.641.242.854.854,0,0,1,.219.594.826.826,0,0,1-.219.586.834.834,0,0,1-.641.234.821.821,0,0,1-.637-.234A.834.834,0,0,1,99.02,76.3Zm3.531,6.4a4.968,4.968,0,0,1,.914-3.145,3.151,3.151,0,0,1,4.836-.074l.07-.937h1.32V86.8a3.439,3.439,0,0,1-.973,2.586,3.589,3.589,0,0,1-2.613.945,4.348,4.348,0,0,1-1.789-.391,3.08,3.08,0,0,1-1.336-1.07l.75-.867A2.826,2.826,0,0,0,106,89.148a2.214,2.214,0,0,0,1.645-.594,2.269,2.269,0,0,0,.59-1.672v-.727a2.971,2.971,0,0,1-2.367,1,2.887,2.887,0,0,1-2.4-1.2A5.224,5.224,0,0,1,102.551,82.7Zm1.453.164a3.79,3.79,0,0,0,.586,2.246,1.9,1.9,0,0,0,1.641.816,2.117,2.117,0,0,0,2.008-1.242V80.828a2.142,2.142,0,0,0-1.992-1.211,1.921,1.921,0,0,0-1.648.82A4.128,4.128,0,0,0,104,82.867ZM113.442,87H112V78.547h1.445Zm-1.562-10.7a.863.863,0,0,1,.215-.594.807.807,0,0,1,.637-.242.819.819,0,0,1,.641.242.854.854,0,0,1,.219.594.826.826,0,0,1-.219.586.834.834,0,0,1-.641.234.821.821,0,0,1-.637-.234A.834.834,0,0,1,111.879,76.3Zm5.836.2v2.047h1.578v1.117h-1.578v5.249a1.173,1.173,0,0,0,.211.763.888.888,0,0,0,.719.254,3.5,3.5,0,0,0,.688-.094V87a4.215,4.215,0,0,1-1.109.155,1.8,1.8,0,0,1-1.461-.586,2.517,2.517,0,0,1-.492-1.664V79.664h-1.539V78.547h1.539V76.5ZM126.2,87a3.036,3.036,0,0,1-.2-.891,3.225,3.225,0,0,1-2.406,1.047,2.984,2.984,0,0,1-2.051-.707,2.287,2.287,0,0,1-.8-1.793,2.39,2.39,0,0,1,1-2.051,4.733,4.733,0,0,1,2.824-.73h1.406v-.664A1.623,1.623,0,0,0,125.52,80a1.821,1.821,0,0,0-1.336-.449,2.108,2.108,0,0,0-1.3.391,1.151,1.151,0,0,0-.523.945h-1.453a2,2,0,0,1,.449-1.223,3.066,3.066,0,0,1,1.219-.934,4.1,4.1,0,0,1,1.691-.344,3.342,3.342,0,0,1,2.289.73,2.635,2.635,0,0,1,.859,2.012v3.891a4.757,4.757,0,0,0,.3,1.852V87Zm-2.4-1.1a2.54,2.54,0,0,0,1.289-.352,2.127,2.127,0,0,0,.883-.914V82.9H124.84q-2.656,0-2.656,1.555a1.316,1.316,0,0,0,.453,1.063A1.742,1.742,0,0,0,123.8,85.9Zm7.453,1.1h-1.445V75h1.445Z" transform="translate(724 1291.419)" fill="#12263f"/>
    <path id="Trazado_628995" data-name="Trazado 628995" d="M1.981,0H-.7V-10.349l-3.2.988v-2.162l5.594-2h.288Z" transform="translate(856 1244.339)" fill="#fff"/>
    <path id="Trazado_628996" data-name="Trazado 628996" d="M4.727,0H-4.532V-1.837l4.37-4.657A10.78,10.78,0,0,0,1.169-8.21,2.757,2.757,0,0,0,1.6-9.6a2.063,2.063,0,0,0-.455-1.415,1.641,1.641,0,0,0-1.3-.515,1.77,1.77,0,0,0-1.433.626,2.481,2.481,0,0,0-.524,1.647H-4.8a4.428,4.428,0,0,1,.589-2.254,4.152,4.152,0,0,1,1.665-1.6,5.062,5.062,0,0,1,2.44-.58,4.793,4.793,0,0,1,3.242,1,3.545,3.545,0,0,1,1.155,2.83,4.542,4.542,0,0,1-.52,2.041A11.342,11.342,0,0,1,1.99-5.4L-1.081-2.162H4.727Z" transform="translate(909 1339)" fill="#fff"/>
    <path id="Trazado_628997" data-name="Trazado 628997" d="M-1.8-7.941H-.376a2.013,2.013,0,0,0,1.512-.51,1.87,1.87,0,0,0,.492-1.354,1.653,1.653,0,0,0-.487-1.271A1.888,1.888,0,0,0-.2-11.532a1.979,1.979,0,0,0-1.29.422,1.35,1.35,0,0,0-.52,1.1H-4.69a3.3,3.3,0,0,1,.571-1.9,3.8,3.8,0,0,1,1.6-1.313,5.326,5.326,0,0,1,2.259-.473,5.051,5.051,0,0,1,3.358,1.025A3.5,3.5,0,0,1,4.309-9.843a2.842,2.842,0,0,1-.566,1.707,3.677,3.677,0,0,1-1.484,1.2,3.356,3.356,0,0,1,1.7,1.225,3.322,3.322,0,0,1,.561,1.93A3.556,3.556,0,0,1,3.21-.9,5.278,5.278,0,0,1-.264.186,5,5,0,0,1-3.572-.881,3.484,3.484,0,0,1-4.857-3.7h2.681A1.553,1.553,0,0,0-1.6-2.458,2.1,2.1,0,0,0-.2-1.976a2.112,2.112,0,0,0,1.5-.506,1.745,1.745,0,0,0,.543-1.341q0-2.022-2.227-2.022H-1.8Z" transform="translate(855.516 1436.677)" fill="#fff"/>
    <path id="Trazado_628998" data-name="Trazado 628998" d="M3.4-5.084H4.931v2.162H3.4V0H.719V-2.922H-4.82L-4.94-4.611l5.631-8.9H3.4Zm-5.668,0H.719V-9.853l-.176.306Z" transform="translate(741.974 1435.321)" fill="#fff"/>
    <path id="Trazado_628999" data-name="Trazado 628999" d="M-4.133-6.643l.779-6.865h7.57v2.236H-1.155l-.334,2.9a4.251,4.251,0,0,1,2.032-.51,3.893,3.893,0,0,1,3.024,1.2A4.78,4.78,0,0,1,4.662-4.333,4.9,4.9,0,0,1,4.11-1.99a3.9,3.9,0,0,1-1.582,1.6A4.938,4.938,0,0,1,.1.186a5.244,5.244,0,0,1-2.273-.5,4.032,4.032,0,0,1-1.656-1.4,3.805,3.805,0,0,1-.645-2.05h2.653a1.982,1.982,0,0,0,.589,1.313,1.868,1.868,0,0,0,1.322.469,1.648,1.648,0,0,0,1.4-.654,3.03,3.03,0,0,0,.492-1.851,2.505,2.505,0,0,0-.566-1.763,2.077,2.077,0,0,0-1.6-.612,2.321,2.321,0,0,0-1.549.5L-2-6.114Z" transform="translate(689 1343)" fill="#fff"/>
    <path id="Trazado_629000" data-name="Trazado 629000" d="M2.741-13.647v2.208h-.26a4.555,4.555,0,0,0-2.927.946A3.845,3.845,0,0,0-1.777-7.941,3.652,3.652,0,0,1,.942-9.036a3.441,3.441,0,0,1,2.8,1.262A5.058,5.058,0,0,1,4.782-4.453a4.975,4.975,0,0,1-.571,2.384A4.092,4.092,0,0,1,2.6-.408,4.69,4.69,0,0,1,.237.186,4.38,4.38,0,0,1-3.21-1.3,5.762,5.762,0,0,1-4.523-5.26v-.965a8.671,8.671,0,0,1,.83-3.883,6.088,6.088,0,0,1,2.384-2.607,6.987,6.987,0,0,1,3.6-.932ZM.125-6.875a2.142,2.142,0,0,0-1.178.338,2.036,2.036,0,0,0-.779.894v.815a3.61,3.61,0,0,0,.529,2.1,1.709,1.709,0,0,0,1.484.755,1.69,1.69,0,0,0,1.4-.681,2.776,2.776,0,0,0,.533-1.764A2.77,2.77,0,0,0,1.573-6.2,1.754,1.754,0,0,0,.125-6.875Z" transform="translate(740.348 1245.529)" fill="#fff"/>
    <path id="Trazado_629001" data-name="Trazado 629001" d="M-32.908-2.2H-36.76L-37.493,0h-2.336l3.97-10.664h2.036L-29.832,0h-2.336Zm-3.259-1.78H-33.5l-1.34-3.992Zm6.863-.044a4.776,4.776,0,0,1,.831-2.952,2.7,2.7,0,0,1,2.274-1.1,2.427,2.427,0,0,1,1.912.864V-11.25h2.124V0h-1.912l-.1-.842a2.491,2.491,0,0,1-2.036.989,2.69,2.69,0,0,1-2.245-1.1A4.93,4.93,0,0,1-29.3-4.021Zm2.117.151A3.146,3.146,0,0,0-26.8-2.156a1.263,1.263,0,0,0,1.128.6,1.416,1.416,0,0,0,1.384-.831V-5.533a1.4,1.4,0,0,0-1.37-.831Q-27.187-6.365-27.187-3.87Zm6.335-.165a4.737,4.737,0,0,1,.831-2.952,2.718,2.718,0,0,1,2.281-1.084A2.433,2.433,0,0,1-15.71-7.1l.139-.828h1.86V3.047h-2.124V-.681a2.44,2.44,0,0,1-1.919.828,2.7,2.7,0,0,1-2.256-1.1A4.969,4.969,0,0,1-20.852-4.036Zm2.117.15a3.107,3.107,0,0,0,.4,1.731,1.278,1.278,0,0,0,1.124.594,1.423,1.423,0,0,0,1.377-.778V-5.617A1.412,1.412,0,0,0-17.2-6.365a1.293,1.293,0,0,0-1.135.594A3.432,3.432,0,0,0-18.735-3.885ZM-7.3-.806A2.654,2.654,0,0,1-9.47.146a2.5,2.5,0,0,1-1.945-.732A3.127,3.127,0,0,1-12.1-2.732V-7.925h2.117V-2.8q0,1.239,1.128,1.239a1.528,1.528,0,0,0,1.479-.748V-7.925h2.124V0H-7.244ZM-1.421,0H-3.545V-7.925h2.124ZM-3.669-9.976a1.042,1.042,0,0,1,.319-.784,1.2,1.2,0,0,1,.868-.308,1.2,1.2,0,0,1,.864.308,1.036,1.036,0,0,1,.322.784,1.039,1.039,0,0,1-.326.791,1.2,1.2,0,0,1-.861.308,1.2,1.2,0,0,1-.861-.308A1.039,1.039,0,0,1-3.669-9.976ZM4.614-2.19A.682.682,0,0,0,4.23-2.8,4.368,4.368,0,0,0,3-3.2Q.168-3.794.168-5.6a2.178,2.178,0,0,1,.875-1.761,3.531,3.531,0,0,1,2.289-.707,3.8,3.8,0,0,1,2.413.71,2.239,2.239,0,0,1,.9,1.846H4.534a1.024,1.024,0,0,0-.293-.751,1.24,1.24,0,0,0-.916-.3,1.267,1.267,0,0,0-.828.242.763.763,0,0,0-.293.615.652.652,0,0,0,.333.568,3.428,3.428,0,0,0,1.124.374A9.183,9.183,0,0,1,5-4.409,2.19,2.19,0,0,1,6.672-2.278a2.067,2.067,0,0,1-.93,1.754,4.013,4.013,0,0,1-2.4.67A4.191,4.191,0,0,1,1.571-.209,2.968,2.968,0,0,1,.359-1.183,2.263,2.263,0,0,1-.081-2.52H1.926a1.105,1.105,0,0,0,.417.864,1.656,1.656,0,0,0,1.04.3A1.533,1.533,0,0,0,4.3-1.586.718.718,0,0,0,4.614-2.19ZM10.269,0H8.145V-7.925h2.124ZM8.02-9.976a1.042,1.042,0,0,1,.319-.784,1.2,1.2,0,0,1,.868-.308,1.2,1.2,0,0,1,.864.308,1.036,1.036,0,0,1,.322.784,1.039,1.039,0,0,1-.326.791,1.2,1.2,0,0,1-.861.308,1.2,1.2,0,0,1-.861-.308A1.039,1.039,0,0,1,8.02-9.976ZM15.308-1.56a1.388,1.388,0,0,0,.952-.322,1.129,1.129,0,0,0,.381-.857h1.985a2.715,2.715,0,0,1-.439,1.476A2.9,2.9,0,0,1,17-.223a3.7,3.7,0,0,1-1.659.37,3.44,3.44,0,0,1-2.681-1.08,4.275,4.275,0,0,1-.981-2.985v-.139a4.226,4.226,0,0,1,.974-2.922A3.4,3.4,0,0,1,15.33-8.071a3.333,3.333,0,0,1,2.384.846,3,3,0,0,1,.912,2.252H16.641a1.455,1.455,0,0,0-.381-1.005,1.27,1.27,0,0,0-.967-.387,1.275,1.275,0,0,0-1.117.539A3.125,3.125,0,0,0,13.8-4.076v.22A3.164,3.164,0,0,0,14.172-2.1,1.291,1.291,0,0,0,15.308-1.56ZM22.068,0H19.944V-7.925h2.124ZM19.819-9.976a1.042,1.042,0,0,1,.319-.784,1.2,1.2,0,0,1,.868-.308,1.2,1.2,0,0,1,.864.308,1.036,1.036,0,0,1,.322.784,1.039,1.039,0,0,1-.326.791,1.2,1.2,0,0,1-.861.308,1.2,1.2,0,0,1-.861-.308A1.039,1.039,0,0,1,19.819-9.976Zm3.662,5.94a4.7,4.7,0,0,1,.454-2.1,3.324,3.324,0,0,1,1.307-1.428,3.814,3.814,0,0,1,1.981-.505,3.609,3.609,0,0,1,2.618.981,3.939,3.939,0,0,1,1.132,2.666l.015.542A4.142,4.142,0,0,1,29.971-.956a3.539,3.539,0,0,1-2.732,1.1A3.556,3.556,0,0,1,24.5-.952,4.215,4.215,0,0,1,23.481-3.94Zm2.117.15a2.962,2.962,0,0,0,.425,1.727,1.4,1.4,0,0,0,1.216.6,1.4,1.4,0,0,0,1.2-.591,3.241,3.241,0,0,0,.432-1.889,2.933,2.933,0,0,0-.432-1.716,1.4,1.4,0,0,0-1.216-.609,1.382,1.382,0,0,0-1.2.605A3.3,3.3,0,0,0,25.6-3.885Zm2.043-7.365h2.307L27.92-8.979H26.2Zm6.6,3.325.066.916a2.767,2.767,0,0,1,2.278-1.062,2.3,2.3,0,0,1,1.875.74,3.451,3.451,0,0,1,.63,2.212V0H36.973V-5.08a1.379,1.379,0,0,0-.293-.98,1.31,1.31,0,0,0-.974-.3,1.456,1.456,0,0,0-1.34.763V0H32.249V-7.925Z" transform="translate(902 1168.786)" fill="#fff"/>
    <path id="Trazado_629002" data-name="Trazado 629002" d="M-41.217-3.757V0h-2.2V-10.664h4.16a4.813,4.813,0,0,1,2.113.439,3.238,3.238,0,0,1,1.4,1.249,3.482,3.482,0,0,1,.491,1.842,3.062,3.062,0,0,1-1.073,2.472,4.469,4.469,0,0,1-2.97.9Zm0-1.78h1.963a1.93,1.93,0,0,0,1.329-.41,1.492,1.492,0,0,0,.458-1.172,1.759,1.759,0,0,0-.461-1.267,1.724,1.724,0,0,0-1.274-.5h-2.014Zm11.792-.4A5.751,5.751,0,0,0-30.187-6a1.55,1.55,0,0,0-1.575.813V0h-2.117V-7.925h2l.059.945a1.961,1.961,0,0,1,1.765-1.091,2.218,2.218,0,0,1,.659.1ZM-24.9.146A3.89,3.89,0,0,1-27.737-.923a3.8,3.8,0,0,1-1.095-2.849v-.205a4.787,4.787,0,0,1,.461-2.135,3.386,3.386,0,0,1,1.307-1.45,3.669,3.669,0,0,1,1.93-.509,3.289,3.289,0,0,1,2.56,1.025,4.167,4.167,0,0,1,.934,2.908v.864h-5.046a1.966,1.966,0,0,0,.619,1.245,1.871,1.871,0,0,0,1.307.469,2.285,2.285,0,0,0,1.912-.886l1.04,1.165A3.178,3.178,0,0,1-23.1-.231,4.229,4.229,0,0,1-24.9.146Zm-.242-6.511a1.323,1.323,0,0,0-1.022.427,2.209,2.209,0,0,0-.5,1.221h2.944v-.169A1.576,1.576,0,0,0-24.1-5.979,1.365,1.365,0,0,0-25.14-6.365Zm8.994,4.175a.682.682,0,0,0-.385-.612,4.368,4.368,0,0,0-1.234-.4q-2.827-.593-2.827-2.4a2.178,2.178,0,0,1,.875-1.761,3.531,3.531,0,0,1,2.289-.707,3.8,3.8,0,0,1,2.413.71,2.239,2.239,0,0,1,.9,1.846h-2.117a1.024,1.024,0,0,0-.293-.751,1.24,1.24,0,0,0-.916-.3,1.267,1.267,0,0,0-.828.242.763.763,0,0,0-.293.615.652.652,0,0,0,.333.568,3.428,3.428,0,0,0,1.124.374,9.183,9.183,0,0,1,1.333.355,2.19,2.19,0,0,1,1.677,2.131,2.067,2.067,0,0,1-.93,1.754,4.013,4.013,0,0,1-2.4.67,4.191,4.191,0,0,1-1.769-.355A2.968,2.968,0,0,1-20.4-1.183a2.263,2.263,0,0,1-.439-1.337h2.007a1.105,1.105,0,0,0,.417.864,1.656,1.656,0,0,0,1.04.3,1.533,1.533,0,0,0,.919-.231A.718.718,0,0,0-16.146-2.19ZM-9.078.146A3.89,3.89,0,0,1-11.917-.923a3.8,3.8,0,0,1-1.095-2.849v-.205a4.787,4.787,0,0,1,.461-2.135,3.386,3.386,0,0,1,1.307-1.45,3.669,3.669,0,0,1,1.93-.509,3.289,3.289,0,0,1,2.56,1.025,4.167,4.167,0,0,1,.934,2.908v.864h-5.046a1.966,1.966,0,0,0,.619,1.245,1.871,1.871,0,0,0,1.307.469,2.285,2.285,0,0,0,1.912-.886l1.04,1.165A3.178,3.178,0,0,1-7.277-.231,4.229,4.229,0,0,1-9.078.146ZM-9.32-6.365a1.323,1.323,0,0,0-1.022.427,2.209,2.209,0,0,0-.5,1.221H-7.9v-.169A1.576,1.576,0,0,0-8.28-5.979,1.365,1.365,0,0,0-9.32-6.365Zm9.155.425A5.751,5.751,0,0,0-.927-6,1.55,1.55,0,0,0-2.5-5.186V0H-4.618V-7.925h2l.059.945A1.961,1.961,0,0,1-.795-8.071a2.218,2.218,0,0,1,.659.1ZM3.951-2.585,5.424-7.925H7.635L4.962,0H2.941L.267-7.925H2.479ZM13.048,0a2.351,2.351,0,0,1-.212-.71,2.561,2.561,0,0,1-2,.857,2.814,2.814,0,0,1-1.93-.674,2.167,2.167,0,0,1-.765-1.7A2.24,2.24,0,0,1,9.075-4.16a4.608,4.608,0,0,1,2.7-.681h.974V-5.3a1.306,1.306,0,0,0-.282-.879,1.109,1.109,0,0,0-.89-.33,1.261,1.261,0,0,0-.839.256.871.871,0,0,0-.3.7H8.317a2.126,2.126,0,0,1,.425-1.274,2.808,2.808,0,0,1,1.2-.919,4.378,4.378,0,0,1,1.743-.333,3.459,3.459,0,0,1,2.325.736,2.575,2.575,0,0,1,.861,2.069v3.435a3.789,3.789,0,0,0,.315,1.707V0ZM11.3-1.472a1.823,1.823,0,0,0,.864-.209,1.371,1.371,0,0,0,.586-.56V-3.6h-.791q-1.589,0-1.692,1.1l-.007.125a.847.847,0,0,0,.278.652A1.081,1.081,0,0,0,11.3-1.472Zm8.5-.088a1.388,1.388,0,0,0,.952-.322,1.129,1.129,0,0,0,.381-.857h1.985a2.715,2.715,0,0,1-.439,1.476,2.9,2.9,0,0,1-1.183,1.04,3.7,3.7,0,0,1-1.659.37A3.44,3.44,0,0,1,17.15-.934a4.275,4.275,0,0,1-.981-2.985v-.139a4.226,4.226,0,0,1,.974-2.922,3.4,3.4,0,0,1,2.673-1.091,3.333,3.333,0,0,1,2.384.846,3,3,0,0,1,.912,2.252H21.127a1.455,1.455,0,0,0-.381-1.005,1.27,1.27,0,0,0-.967-.387,1.275,1.275,0,0,0-1.117.539,3.125,3.125,0,0,0-.377,1.749v.22A3.164,3.164,0,0,0,18.658-2.1,1.291,1.291,0,0,0,19.794-1.56ZM26.554,0H24.43V-7.925h2.124ZM24.305-9.976a1.042,1.042,0,0,1,.319-.784,1.2,1.2,0,0,1,.868-.308,1.2,1.2,0,0,1,.864.308,1.036,1.036,0,0,1,.322.784,1.039,1.039,0,0,1-.326.791,1.2,1.2,0,0,1-.861.308,1.2,1.2,0,0,1-.861-.308A1.039,1.039,0,0,1,24.305-9.976Zm3.662,5.94a4.7,4.7,0,0,1,.454-2.1,3.324,3.324,0,0,1,1.307-1.428,3.814,3.814,0,0,1,1.981-.505,3.609,3.609,0,0,1,2.618.981A3.939,3.939,0,0,1,35.46-4.424l.015.542A4.142,4.142,0,0,1,34.457-.956a3.539,3.539,0,0,1-2.732,1.1,3.556,3.556,0,0,1-2.736-1.1A4.215,4.215,0,0,1,27.968-3.94Zm2.117.15a2.962,2.962,0,0,0,.425,1.727,1.4,1.4,0,0,0,1.216.6,1.4,1.4,0,0,0,1.2-.591,3.241,3.241,0,0,0,.432-1.889,2.933,2.933,0,0,0-.432-1.716,1.4,1.4,0,0,0-1.216-.609,1.382,1.382,0,0,0-1.2.605A3.3,3.3,0,0,0,30.084-3.885Zm2.043-7.365h2.307L32.406-8.979H30.685Zm6.6,3.325.066.916a2.767,2.767,0,0,1,2.278-1.062,2.3,2.3,0,0,1,1.875.74,3.451,3.451,0,0,1,.63,2.212V0H41.459V-5.08a1.379,1.379,0,0,0-.293-.98,1.31,1.31,0,0,0-.974-.3,1.456,1.456,0,0,0-1.34.763V0H36.735V-7.925Z" transform="translate(999 1339)" fill="#fff"/>
    <path id="Trazado_629003" data-name="Trazado 629003" d="M-19.8-2.2H-23.65L-24.382,0h-2.336l3.97-10.664h2.036L-16.721,0h-2.336Zm-3.259-1.78h2.666l-1.34-3.992Zm8.789-3.948.066.916a2.767,2.767,0,0,1,2.278-1.062,2.3,2.3,0,0,1,1.875.74,3.451,3.451,0,0,1,.63,2.212V0h-2.117V-5.08a1.379,1.379,0,0,0-.293-.98,1.31,1.31,0,0,0-.974-.3,1.456,1.456,0,0,0-1.34.763V0H-16.26V-7.925ZM-3.223,0a2.351,2.351,0,0,1-.212-.71,2.561,2.561,0,0,1-2,.857,2.814,2.814,0,0,1-1.93-.674,2.167,2.167,0,0,1-.765-1.7A2.24,2.24,0,0,1-7.2-4.16a4.608,4.608,0,0,1,2.7-.681h.974V-5.3A1.306,1.306,0,0,0-3.8-6.174a1.109,1.109,0,0,0-.89-.33,1.261,1.261,0,0,0-.839.256.871.871,0,0,0-.3.7H-7.954a2.126,2.126,0,0,1,.425-1.274,2.808,2.808,0,0,1,1.2-.919,4.378,4.378,0,0,1,1.743-.333,3.459,3.459,0,0,1,2.325.736A2.575,2.575,0,0,1-1.4-5.266v3.435A3.789,3.789,0,0,0-1.084-.125V0Zm-1.75-1.472a1.823,1.823,0,0,0,.864-.209,1.371,1.371,0,0,0,.586-.56V-3.6h-.791Q-5.9-3.6-6.006-2.5l-.007.125a.847.847,0,0,0,.278.652A1.081,1.081,0,0,0-4.973-1.472Zm.806-9.778H-1.86L-3.889-8.979H-5.61ZM2.461,0H.337V-11.25H2.461ZM6.438,0H4.314V-7.925H6.438ZM4.189-9.976a1.042,1.042,0,0,1,.319-.784,1.2,1.2,0,0,1,.868-.308,1.2,1.2,0,0,1,.864.308,1.036,1.036,0,0,1,.322.784,1.039,1.039,0,0,1-.326.791,1.2,1.2,0,0,1-.861.308,1.2,1.2,0,0,1-.861-.308A1.039,1.039,0,0,1,4.189-9.976ZM12.473-2.19a.682.682,0,0,0-.385-.612,4.368,4.368,0,0,0-1.234-.4Q8.027-3.794,8.027-5.6A2.178,2.178,0,0,1,8.9-7.365a3.531,3.531,0,0,1,2.289-.707,3.8,3.8,0,0,1,2.413.71,2.239,2.239,0,0,1,.9,1.846H12.393a1.024,1.024,0,0,0-.293-.751,1.24,1.24,0,0,0-.916-.3,1.267,1.267,0,0,0-.828.242.763.763,0,0,0-.293.615.652.652,0,0,0,.333.568,3.428,3.428,0,0,0,1.124.374,9.183,9.183,0,0,1,1.333.355,2.19,2.19,0,0,1,1.677,2.131A2.067,2.067,0,0,1,13.6-.524a4.013,4.013,0,0,1-2.4.67A4.191,4.191,0,0,1,9.43-.209a2.968,2.968,0,0,1-1.212-.974A2.263,2.263,0,0,1,7.778-2.52H9.785a1.105,1.105,0,0,0,.417.864,1.656,1.656,0,0,0,1.04.3,1.533,1.533,0,0,0,.919-.231A.718.718,0,0,0,12.473-2.19ZM18.127,0H16V-7.925h2.124ZM15.879-9.976a1.042,1.042,0,0,1,.319-.784,1.2,1.2,0,0,1,.868-.308,1.2,1.2,0,0,1,.864.308,1.036,1.036,0,0,1,.322.784,1.039,1.039,0,0,1-.326.791,1.2,1.2,0,0,1-.861.308,1.2,1.2,0,0,1-.861-.308A1.039,1.039,0,0,1,15.879-9.976ZM24.163-2.19a.682.682,0,0,0-.385-.612,4.368,4.368,0,0,0-1.234-.4q-2.827-.593-2.827-2.4a2.178,2.178,0,0,1,.875-1.761,3.531,3.531,0,0,1,2.289-.707,3.8,3.8,0,0,1,2.413.71,2.239,2.239,0,0,1,.9,1.846H24.082a1.024,1.024,0,0,0-.293-.751,1.24,1.24,0,0,0-.916-.3,1.267,1.267,0,0,0-.828.242.763.763,0,0,0-.293.615.652.652,0,0,0,.333.568,3.428,3.428,0,0,0,1.124.374,9.183,9.183,0,0,1,1.333.355,2.19,2.19,0,0,1,1.677,2.131,2.067,2.067,0,0,1-.93,1.754,4.013,4.013,0,0,1-2.4.67,4.191,4.191,0,0,1-1.769-.355,2.968,2.968,0,0,1-1.212-.974,2.263,2.263,0,0,1-.439-1.337h2.007a1.105,1.105,0,0,0,.417.864,1.656,1.656,0,0,0,1.04.3,1.533,1.533,0,0,0,.919-.231A.718.718,0,0,0,24.163-2.19Z" transform="translate(901 1508.825)" fill="#fff"/>
    <path id="Trazado_629004" data-name="Trazado 629004" d="M-51.914,0V-10.664h3.281a4.983,4.983,0,0,1,2.516.634,4.418,4.418,0,0,1,1.732,1.8,5.557,5.557,0,0,1,.623,2.655v.491a5.573,5.573,0,0,1-.612,2.644A4.38,4.38,0,0,1-46.1-.645,5.021,5.021,0,0,1-48.611,0Zm2.2-8.884v7.119h1.062a2.386,2.386,0,0,0,1.97-.842,3.806,3.806,0,0,0,.7-2.41v-.564a3.867,3.867,0,0,0-.674-2.465,2.378,2.378,0,0,0-1.97-.839Zm7.083,4.849a4.7,4.7,0,0,1,.454-2.1,3.324,3.324,0,0,1,1.307-1.428,3.814,3.814,0,0,1,1.981-.505,3.609,3.609,0,0,1,2.618.981,3.939,3.939,0,0,1,1.132,2.666l.015.542A4.142,4.142,0,0,1-36.145-.956a3.539,3.539,0,0,1-2.732,1.1,3.556,3.556,0,0,1-2.736-1.1A4.215,4.215,0,0,1-42.634-3.94Zm2.117.15a2.962,2.962,0,0,0,.425,1.727,1.4,1.4,0,0,0,1.216.6,1.4,1.4,0,0,0,1.2-.591,3.241,3.241,0,0,0,.432-1.889,2.933,2.933,0,0,0-.432-1.716,1.4,1.4,0,0,0-1.216-.609,1.382,1.382,0,0,0-1.2.605A3.3,3.3,0,0,0-40.518-3.885Zm9.99,2.325a1.388,1.388,0,0,0,.952-.322,1.129,1.129,0,0,0,.381-.857h1.985a2.715,2.715,0,0,1-.439,1.476,2.9,2.9,0,0,1-1.183,1.04,3.7,3.7,0,0,1-1.659.37,3.44,3.44,0,0,1-2.681-1.08,4.275,4.275,0,0,1-.981-2.985v-.139a4.226,4.226,0,0,1,.974-2.922,3.4,3.4,0,0,1,2.673-1.091,3.333,3.333,0,0,1,2.384.846,3,3,0,0,1,.912,2.252h-1.985a1.455,1.455,0,0,0-.381-1.005,1.27,1.27,0,0,0-.967-.387,1.275,1.275,0,0,0-1.117.539,3.125,3.125,0,0,0-.377,1.749v.22A3.164,3.164,0,0,0-31.663-2.1,1.291,1.291,0,0,0-30.527-1.56Zm9.272.754a2.654,2.654,0,0,1-2.168.952,2.5,2.5,0,0,1-1.945-.732,3.127,3.127,0,0,1-.685-2.146V-7.925h2.117V-2.8q0,1.239,1.128,1.239a1.528,1.528,0,0,0,1.479-.748V-7.925H-19.2V0H-21.2Zm5.632-7.119.066.886a2.785,2.785,0,0,1,2.278-1.033,2.114,2.114,0,0,1,2.1,1.208A2.721,2.721,0,0,1-8.8-8.071a2.364,2.364,0,0,1,1.919.751,3.451,3.451,0,0,1,.63,2.26V0H-8.372V-5.065a1.515,1.515,0,0,0-.264-.987,1.167,1.167,0,0,0-.93-.312,1.321,1.321,0,0,0-1.318.91L-10.876,0h-2.117V-5.058a1.5,1.5,0,0,0-.271-1,1.178,1.178,0,0,0-.923-.308,1.371,1.371,0,0,0-1.3.749V0h-2.117V-7.925ZM-.974.146A3.89,3.89,0,0,1-3.812-.923,3.8,3.8,0,0,1-4.907-3.772v-.205a4.787,4.787,0,0,1,.461-2.135,3.386,3.386,0,0,1,1.307-1.45,3.669,3.669,0,0,1,1.93-.509,3.289,3.289,0,0,1,2.56,1.025,4.167,4.167,0,0,1,.934,2.908v.864H-2.761a1.966,1.966,0,0,0,.619,1.245A1.871,1.871,0,0,0-.835-1.56a2.285,2.285,0,0,0,1.912-.886l1.04,1.165A3.178,3.178,0,0,1,.828-.231,4.229,4.229,0,0,1-.974.146Zm-.242-6.511a1.323,1.323,0,0,0-1.022.427,2.209,2.209,0,0,0-.5,1.221H.205v-.169A1.576,1.576,0,0,0-.176-5.979,1.365,1.365,0,0,0-1.216-6.365Zm6.65-1.56.066.916A2.767,2.767,0,0,1,7.778-8.071a2.3,2.3,0,0,1,1.875.74,3.451,3.451,0,0,1,.63,2.212V0H8.167V-5.08a1.379,1.379,0,0,0-.293-.98,1.31,1.31,0,0,0-.974-.3,1.456,1.456,0,0,0-1.34.763V0H3.442V-7.925Zm8.987-1.948v1.948h1.355v1.553H14.421v3.955a.944.944,0,0,0,.168.63.846.846,0,0,0,.645.19,3.376,3.376,0,0,0,.623-.051v1.6a4.358,4.358,0,0,1-1.282.19A2.021,2.021,0,0,1,12.3-2.1v-4.27H11.147V-7.925H12.3V-9.873ZM21.548,0a2.351,2.351,0,0,1-.212-.71,2.561,2.561,0,0,1-2,.857,2.814,2.814,0,0,1-1.93-.674,2.167,2.167,0,0,1-.765-1.7,2.24,2.24,0,0,1,.934-1.934,4.608,4.608,0,0,1,2.7-.681h.974V-5.3a1.306,1.306,0,0,0-.282-.879,1.109,1.109,0,0,0-.89-.33,1.261,1.261,0,0,0-.839.256.871.871,0,0,0-.3.7H16.816a2.126,2.126,0,0,1,.425-1.274,2.808,2.808,0,0,1,1.2-.919,4.378,4.378,0,0,1,1.743-.333,3.459,3.459,0,0,1,2.325.736,2.575,2.575,0,0,1,.861,2.069v3.435a3.789,3.789,0,0,0,.315,1.707V0ZM19.8-1.472a1.823,1.823,0,0,0,.864-.209,1.371,1.371,0,0,0,.586-.56V-3.6h-.791q-1.589,0-1.692,1.1l-.007.125a.847.847,0,0,0,.278.652A1.081,1.081,0,0,0,19.8-1.472Zm8.5-.088a1.388,1.388,0,0,0,.952-.322,1.129,1.129,0,0,0,.381-.857h1.985a2.715,2.715,0,0,1-.439,1.476,2.9,2.9,0,0,1-1.183,1.04,3.7,3.7,0,0,1-1.659.37,3.44,3.44,0,0,1-2.681-1.08,4.275,4.275,0,0,1-.981-2.985v-.139a4.226,4.226,0,0,1,.974-2.922,3.4,3.4,0,0,1,2.673-1.091,3.333,3.333,0,0,1,2.384.846,3,3,0,0,1,.912,2.252H29.626a1.455,1.455,0,0,0-.381-1.005,1.27,1.27,0,0,0-.967-.387,1.275,1.275,0,0,0-1.117.539,3.125,3.125,0,0,0-.377,1.749v.22A3.164,3.164,0,0,0,27.158-2.1,1.291,1.291,0,0,0,28.293-1.56ZM35.054,0H32.93V-7.925h2.124ZM32.805-9.976a1.042,1.042,0,0,1,.319-.784,1.2,1.2,0,0,1,.868-.308,1.2,1.2,0,0,1,.864.308,1.036,1.036,0,0,1,.322.784,1.039,1.039,0,0,1-.326.791,1.2,1.2,0,0,1-.861.308,1.2,1.2,0,0,1-.861-.308A1.039,1.039,0,0,1,32.805-9.976Zm3.662,5.94a4.7,4.7,0,0,1,.454-2.1,3.324,3.324,0,0,1,1.307-1.428,3.814,3.814,0,0,1,1.981-.505,3.609,3.609,0,0,1,2.618.981A3.939,3.939,0,0,1,43.96-4.424l.015.542A4.142,4.142,0,0,1,42.957-.956a3.539,3.539,0,0,1-2.732,1.1,3.556,3.556,0,0,1-2.736-1.1A4.215,4.215,0,0,1,36.467-3.94Zm2.117.15a2.962,2.962,0,0,0,.425,1.727,1.4,1.4,0,0,0,1.216.6,1.4,1.4,0,0,0,1.2-.591,3.241,3.241,0,0,0,.432-1.889,2.933,2.933,0,0,0-.432-1.716,1.4,1.4,0,0,0-1.216-.609,1.382,1.382,0,0,0-1.2.605A3.3,3.3,0,0,0,38.584-3.885Zm2.043-7.365h2.307L40.906-8.979H39.185Zm6.6,3.325.066.916A2.767,2.767,0,0,1,49.57-8.071a2.3,2.3,0,0,1,1.875.74,3.451,3.451,0,0,1,.63,2.212V0H49.958V-5.08a1.379,1.379,0,0,0-.293-.98,1.31,1.31,0,0,0-.974-.3,1.456,1.456,0,0,0-1.34.763V0H45.234V-7.925Z" transform="translate(705 1507.188)" fill="#fff"/>
    <path id="Trazado_629005" data-name="Trazado 629005" d="M-41.415-3.757V0h-2.2V-10.664h4.16a4.813,4.813,0,0,1,2.113.439,3.238,3.238,0,0,1,1.4,1.249,3.482,3.482,0,0,1,.491,1.842,3.062,3.062,0,0,1-1.073,2.472,4.469,4.469,0,0,1-2.97.9Zm0-1.78h1.963a1.93,1.93,0,0,0,1.329-.41,1.492,1.492,0,0,0,.458-1.172,1.759,1.759,0,0,0-.461-1.267,1.724,1.724,0,0,0-1.274-.5h-2.014Zm11.792-.4A5.751,5.751,0,0,0-30.385-6a1.55,1.55,0,0,0-1.575.813V0h-2.117V-7.925h2l.059.945a1.961,1.961,0,0,1,1.765-1.091,2.218,2.218,0,0,1,.659.1ZM-25.1.146A3.89,3.89,0,0,1-27.935-.923,3.8,3.8,0,0,1-29.03-3.772v-.205a4.787,4.787,0,0,1,.461-2.135,3.386,3.386,0,0,1,1.307-1.45,3.669,3.669,0,0,1,1.93-.509,3.289,3.289,0,0,1,2.56,1.025,4.167,4.167,0,0,1,.934,2.908v.864h-5.046a1.966,1.966,0,0,0,.619,1.245,1.871,1.871,0,0,0,1.307.469,2.285,2.285,0,0,0,1.912-.886l1.04,1.165A3.178,3.178,0,0,1-23.295-.231,4.229,4.229,0,0,1-25.1.146Zm-.242-6.511a1.323,1.323,0,0,0-1.022.427,2.209,2.209,0,0,0-.5,1.221h2.944v-.169A1.576,1.576,0,0,0-24.3-5.979,1.365,1.365,0,0,0-25.338-6.365Zm8.994,4.175a.682.682,0,0,0-.385-.612,4.368,4.368,0,0,0-1.234-.4q-2.827-.593-2.827-2.4a2.178,2.178,0,0,1,.875-1.761,3.531,3.531,0,0,1,2.289-.707,3.8,3.8,0,0,1,2.413.71,2.239,2.239,0,0,1,.9,1.846h-2.117a1.024,1.024,0,0,0-.293-.751,1.24,1.24,0,0,0-.916-.3,1.267,1.267,0,0,0-.828.242.763.763,0,0,0-.293.615.652.652,0,0,0,.333.568,3.428,3.428,0,0,0,1.124.374,9.183,9.183,0,0,1,1.333.355,2.19,2.19,0,0,1,1.677,2.131,2.067,2.067,0,0,1-.93,1.754,4.013,4.013,0,0,1-2.4.67,4.191,4.191,0,0,1-1.769-.355A2.968,2.968,0,0,1-20.6-1.183a2.263,2.263,0,0,1-.439-1.337h2.007a1.105,1.105,0,0,0,.417.864,1.656,1.656,0,0,0,1.04.3,1.533,1.533,0,0,0,.919-.231A.718.718,0,0,0-16.344-2.19ZM-9.276.146A3.89,3.89,0,0,1-12.114-.923a3.8,3.8,0,0,1-1.095-2.849v-.205a4.787,4.787,0,0,1,.461-2.135,3.386,3.386,0,0,1,1.307-1.45,3.669,3.669,0,0,1,1.93-.509,3.289,3.289,0,0,1,2.56,1.025,4.167,4.167,0,0,1,.934,2.908v.864h-5.046a1.966,1.966,0,0,0,.619,1.245,1.871,1.871,0,0,0,1.307.469,2.285,2.285,0,0,0,1.912-.886l1.04,1.165A3.178,3.178,0,0,1-7.474-.231,4.229,4.229,0,0,1-9.276.146Zm-.242-6.511a1.323,1.323,0,0,0-1.022.427,2.209,2.209,0,0,0-.5,1.221H-8.1v-.169a1.576,1.576,0,0,0-.381-1.092A1.365,1.365,0,0,0-9.518-6.365Zm6.65-1.56.066.916A2.767,2.767,0,0,1-.524-8.071a2.3,2.3,0,0,1,1.875.74,3.451,3.451,0,0,1,.63,2.212V0H-.135V-5.08a1.379,1.379,0,0,0-.293-.98,1.31,1.31,0,0,0-.974-.3,1.456,1.456,0,0,0-1.34.763V0H-4.86V-7.925ZM6.119-9.873v1.948H7.474v1.553H6.119v3.955a.944.944,0,0,0,.168.63.846.846,0,0,0,.645.19,3.376,3.376,0,0,0,.623-.051v1.6a4.358,4.358,0,0,1-1.282.19A2.021,2.021,0,0,1,4-2.1v-4.27H2.845V-7.925H4V-9.873ZM13.246,0a2.351,2.351,0,0,1-.212-.71,2.561,2.561,0,0,1-2,.857A2.814,2.814,0,0,1,9.1-.527a2.167,2.167,0,0,1-.765-1.7A2.24,2.24,0,0,1,9.272-4.16a4.608,4.608,0,0,1,2.7-.681h.974V-5.3a1.306,1.306,0,0,0-.282-.879,1.109,1.109,0,0,0-.89-.33,1.261,1.261,0,0,0-.839.256.871.871,0,0,0-.3.7H8.514a2.126,2.126,0,0,1,.425-1.274,2.808,2.808,0,0,1,1.2-.919,4.378,4.378,0,0,1,1.743-.333,3.459,3.459,0,0,1,2.325.736,2.575,2.575,0,0,1,.861,2.069v3.435a3.789,3.789,0,0,0,.315,1.707V0ZM11.5-1.472a1.823,1.823,0,0,0,.864-.209,1.371,1.371,0,0,0,.586-.56V-3.6h-.791q-1.589,0-1.692,1.1l-.007.125a.847.847,0,0,0,.278.652A1.081,1.081,0,0,0,11.5-1.472Zm8.5-.088a1.388,1.388,0,0,0,.952-.322,1.129,1.129,0,0,0,.381-.857h1.985a2.715,2.715,0,0,1-.439,1.476,2.9,2.9,0,0,1-1.183,1.04,3.7,3.7,0,0,1-1.659.37,3.44,3.44,0,0,1-2.681-1.08,4.275,4.275,0,0,1-.981-2.985v-.139A4.226,4.226,0,0,1,17.34-6.98a3.4,3.4,0,0,1,2.673-1.091,3.333,3.333,0,0,1,2.384.846,3,3,0,0,1,.912,2.252H21.324a1.455,1.455,0,0,0-.381-1.005,1.27,1.27,0,0,0-.967-.387,1.275,1.275,0,0,0-1.117.539,3.125,3.125,0,0,0-.377,1.749v.22A3.164,3.164,0,0,0,18.856-2.1,1.291,1.291,0,0,0,19.991-1.56ZM26.752,0H24.628V-7.925h2.124ZM24.5-9.976a1.042,1.042,0,0,1,.319-.784,1.2,1.2,0,0,1,.868-.308,1.2,1.2,0,0,1,.864.308,1.036,1.036,0,0,1,.322.784,1.039,1.039,0,0,1-.326.791,1.2,1.2,0,0,1-.861.308,1.2,1.2,0,0,1-.861-.308A1.039,1.039,0,0,1,24.5-9.976Zm3.662,5.94a4.7,4.7,0,0,1,.454-2.1,3.324,3.324,0,0,1,1.307-1.428,3.814,3.814,0,0,1,1.981-.505,3.609,3.609,0,0,1,2.618.981,3.939,3.939,0,0,1,1.132,2.666l.015.542A4.142,4.142,0,0,1,34.655-.956a3.539,3.539,0,0,1-2.732,1.1,3.556,3.556,0,0,1-2.736-1.1A4.215,4.215,0,0,1,28.165-3.94Zm2.117.15a2.962,2.962,0,0,0,.425,1.727,1.4,1.4,0,0,0,1.216.6,1.4,1.4,0,0,0,1.2-.591,3.241,3.241,0,0,0,.432-1.889,2.933,2.933,0,0,0-.432-1.716,1.4,1.4,0,0,0-1.216-.609,1.382,1.382,0,0,0-1.2.605A3.3,3.3,0,0,0,30.282-3.885Zm2.043-7.365h2.307L32.6-8.979H30.883Zm6.6,3.325.066.916a2.767,2.767,0,0,1,2.278-1.062,2.3,2.3,0,0,1,1.875.74,3.451,3.451,0,0,1,.63,2.212V0H41.656V-5.08a1.379,1.379,0,0,0-.293-.98,1.31,1.31,0,0,0-.974-.3,1.456,1.456,0,0,0-1.34.763V0H36.932V-7.925Z" transform="translate(601 1339)" fill="#fff"/>
    <path id="Trazado_629006" data-name="Trazado 629006" d="M-36.317-3.552a3.774,3.774,0,0,1-1.271,2.71,4.463,4.463,0,0,1-3.021.989,4.013,4.013,0,0,1-3.226-1.381,5.661,5.661,0,0,1-1.176-3.79v-.652a6.393,6.393,0,0,1,.542-2.71,4.062,4.062,0,0,1,1.549-1.8,4.339,4.339,0,0,1,2.34-.626,4.348,4.348,0,0,1,2.974.989,4.055,4.055,0,0,1,1.3,2.776h-2.2a2.227,2.227,0,0,0-.575-1.5,2.129,2.129,0,0,0-1.505-.465,1.867,1.867,0,0,0-1.644.787,4.413,4.413,0,0,0-.56,2.443v.806a4.723,4.723,0,0,0,.524,2.527,1.832,1.832,0,0,0,1.652.8,2.169,2.169,0,0,0,1.52-.465,2.1,2.1,0,0,0,.575-1.439Zm.974-.483a4.7,4.7,0,0,1,.454-2.1,3.324,3.324,0,0,1,1.307-1.428A3.814,3.814,0,0,1-31.6-8.071a3.609,3.609,0,0,1,2.618.981A3.939,3.939,0,0,1-27.85-4.424l.015.542A4.142,4.142,0,0,1-28.854-.956a3.539,3.539,0,0,1-2.732,1.1,3.556,3.556,0,0,1-2.736-1.1A4.215,4.215,0,0,1-35.343-3.94Zm2.117.15A2.962,2.962,0,0,0-32.8-2.158a1.4,1.4,0,0,0,1.216.6,1.4,1.4,0,0,0,1.2-.591,3.241,3.241,0,0,0,.432-1.889,2.933,2.933,0,0,0-.432-1.716A1.4,1.4,0,0,0-31.6-6.365a1.382,1.382,0,0,0-1.2.605A3.3,3.3,0,0,0-33.226-3.885Zm8.643-4.039.066.916A2.767,2.767,0,0,1-22.24-8.071a2.3,2.3,0,0,1,1.875.74,3.451,3.451,0,0,1,.63,2.212V0h-2.117V-5.08a1.379,1.379,0,0,0-.293-.98,1.31,1.31,0,0,0-.974-.3,1.456,1.456,0,0,0-1.34.763V0h-2.117V-7.925Zm9.749,6.365a1.388,1.388,0,0,0,.952-.322,1.129,1.129,0,0,0,.381-.857h1.985a2.715,2.715,0,0,1-.439,1.476A2.9,2.9,0,0,1-13.14-.223,3.7,3.7,0,0,1-14.8.146a3.44,3.44,0,0,1-2.681-1.08,4.275,4.275,0,0,1-.981-2.985v-.139a4.226,4.226,0,0,1,.974-2.922,3.4,3.4,0,0,1,2.673-1.091,3.333,3.333,0,0,1,2.384.846,3,3,0,0,1,.912,2.252H-13.5a1.455,1.455,0,0,0-.381-1.005,1.27,1.27,0,0,0-.967-.387,1.275,1.275,0,0,0-1.117.539,3.125,3.125,0,0,0-.377,1.749v.22A3.164,3.164,0,0,0-15.97-2.1,1.291,1.291,0,0,0-14.835-1.56ZM-8.075,0H-10.2V-11.25h2.124Zm6.489-.806A2.654,2.654,0,0,1-3.754.146,2.5,2.5,0,0,1-5.7-.586a3.127,3.127,0,0,1-.685-2.146V-7.925h2.117V-2.8q0,1.239,1.128,1.239a1.528,1.528,0,0,0,1.479-.748V-7.925H.465V0H-1.527ZM6.354-2.19A.682.682,0,0,0,5.969-2.8a4.368,4.368,0,0,0-1.234-.4Q1.908-3.794,1.908-5.6a2.178,2.178,0,0,1,.875-1.761,3.531,3.531,0,0,1,2.289-.707,3.8,3.8,0,0,1,2.413.71,2.239,2.239,0,0,1,.9,1.846H6.273a1.024,1.024,0,0,0-.293-.751,1.24,1.24,0,0,0-.916-.3,1.267,1.267,0,0,0-.828.242.763.763,0,0,0-.293.615.652.652,0,0,0,.333.568A3.428,3.428,0,0,0,5.4-4.764a9.183,9.183,0,0,1,1.333.355A2.19,2.19,0,0,1,8.412-2.278a2.067,2.067,0,0,1-.93,1.754,4.013,4.013,0,0,1-2.4.67A4.191,4.191,0,0,1,3.311-.209,2.968,2.968,0,0,1,2.1-1.183,2.263,2.263,0,0,1,1.659-2.52H3.666a1.105,1.105,0,0,0,.417.864,1.656,1.656,0,0,0,1.04.3,1.533,1.533,0,0,0,.919-.231A.718.718,0,0,0,6.354-2.19ZM12.008,0H9.884V-7.925h2.124ZM9.76-9.976a1.042,1.042,0,0,1,.319-.784,1.2,1.2,0,0,1,.868-.308,1.2,1.2,0,0,1,.864.308,1.036,1.036,0,0,1,.322.784,1.039,1.039,0,0,1-.326.791,1.2,1.2,0,0,1-.861.308,1.2,1.2,0,0,1-.861-.308A1.039,1.039,0,0,1,9.76-9.976Zm3.662,5.94a4.7,4.7,0,0,1,.454-2.1,3.324,3.324,0,0,1,1.307-1.428,3.814,3.814,0,0,1,1.981-.505,3.609,3.609,0,0,1,2.618.981,3.939,3.939,0,0,1,1.132,2.666l.015.542A4.142,4.142,0,0,1,19.911-.956a3.539,3.539,0,0,1-2.732,1.1,3.556,3.556,0,0,1-2.736-1.1A4.215,4.215,0,0,1,13.422-3.94Zm2.117.15a2.962,2.962,0,0,0,.425,1.727,1.4,1.4,0,0,0,1.216.6,1.4,1.4,0,0,0,1.2-.591,3.241,3.241,0,0,0,.432-1.889,2.933,2.933,0,0,0-.432-1.716,1.4,1.4,0,0,0-1.216-.609,1.382,1.382,0,0,0-1.2.605A3.3,3.3,0,0,0,15.538-3.885Zm8.643-4.039.066.916a2.767,2.767,0,0,1,2.278-1.062,2.3,2.3,0,0,1,1.875.74,3.451,3.451,0,0,1,.63,2.212V0H26.913V-5.08a1.379,1.379,0,0,0-.293-.98,1.31,1.31,0,0,0-.974-.3,1.456,1.456,0,0,0-1.34.763V0H22.189V-7.925ZM34.281.146A3.89,3.89,0,0,1,31.443-.923a3.8,3.8,0,0,1-1.095-2.849v-.205a4.787,4.787,0,0,1,.461-2.135,3.386,3.386,0,0,1,1.307-1.45,3.669,3.669,0,0,1,1.93-.509,3.289,3.289,0,0,1,2.56,1.025,4.167,4.167,0,0,1,.934,2.908v.864H32.494a1.966,1.966,0,0,0,.619,1.245,1.871,1.871,0,0,0,1.307.469,2.285,2.285,0,0,0,1.912-.886l1.04,1.165A3.178,3.178,0,0,1,36.083-.231,4.229,4.229,0,0,1,34.281.146Zm-.242-6.511a1.323,1.323,0,0,0-1.022.427,2.209,2.209,0,0,0-.5,1.221H35.46v-.169a1.576,1.576,0,0,0-.381-1.092A1.365,1.365,0,0,0,34.039-6.365ZM43.033-2.19a.682.682,0,0,0-.385-.612,4.368,4.368,0,0,0-1.234-.4q-2.827-.593-2.827-2.4a2.178,2.178,0,0,1,.875-1.761,3.531,3.531,0,0,1,2.289-.707,3.8,3.8,0,0,1,2.413.71,2.239,2.239,0,0,1,.9,1.846H42.953a1.024,1.024,0,0,0-.293-.751,1.24,1.24,0,0,0-.916-.3,1.267,1.267,0,0,0-.828.242.763.763,0,0,0-.293.615.652.652,0,0,0,.333.568,3.428,3.428,0,0,0,1.124.374,9.183,9.183,0,0,1,1.333.355,2.19,2.19,0,0,1,1.677,2.131,2.067,2.067,0,0,1-.93,1.754,4.013,4.013,0,0,1-2.4.67A4.191,4.191,0,0,1,39.99-.209a2.968,2.968,0,0,1-1.212-.974,2.263,2.263,0,0,1-.439-1.337h2.007a1.105,1.105,0,0,0,.417.864,1.656,1.656,0,0,0,1.04.3,1.533,1.533,0,0,0,.919-.231A.718.718,0,0,0,43.033-2.19Z" transform="translate(691.974 1174)" fill="#fff"/>
  </g>
</svg>
