<svg xmlns="http://www.w3.org/2000/svg" width="880" height="120.591" viewBox="0 0 880 120.591">
  <g id="Grupo_947590" data-name="Grupo 947590" transform="translate(-360 -867.58)">
    <path id="Trazado_628952" data-name="Trazado 628952" d="M0,0H184V58H0Z" transform="translate(360 867.58)" fill="#294ddc"/>
    <path id="Trazado_628953" data-name="Trazado 628953" d="M1.156,0V-11.375H4.516a5.269,5.269,0,0,1,2.676.672A4.581,4.581,0,0,1,9-8.8a6.051,6.051,0,0,1,.641,2.828v.57A6.026,6.026,0,0,1,9-2.555,4.526,4.526,0,0,1,7.16-.664,5.513,5.513,0,0,1,4.43,0ZM3.133-9.781v8.2H4.422a2.968,2.968,0,0,0,2.387-.973,4.237,4.237,0,0,0,.848-2.793v-.633a4.347,4.347,0,0,0-.8-2.828,2.853,2.853,0,0,0-2.336-.977ZM15.148.156A3.928,3.928,0,0,1,12.223-.98,4.124,4.124,0,0,1,11.1-4.008v-.234A5.072,5.072,0,0,1,11.59-6.5a3.716,3.716,0,0,1,1.371-1.551,3.625,3.625,0,0,1,1.969-.555,3.318,3.318,0,0,1,2.668,1.1,4.658,4.658,0,0,1,.941,3.117v.766H13.016a2.539,2.539,0,0,0,.7,1.656,2.1,2.1,0,0,0,1.543.609,2.571,2.571,0,0,0,2.125-1.055l1.023.977A3.418,3.418,0,0,1,17.051-.262,4.244,4.244,0,0,1,15.148.156Zm-.227-7.242a1.6,1.6,0,0,0-1.262.547,2.835,2.835,0,0,0-.613,1.523h3.617v-.141A2.307,2.307,0,0,0,16.156-6.6,1.586,1.586,0,0,0,14.922-7.086Zm7.469-3.422v2.055h1.492v1.406H22.391v4.719a1.039,1.039,0,0,0,.191.7.888.888,0,0,0,.684.215,2.924,2.924,0,0,0,.664-.078V-.023a4.676,4.676,0,0,1-1.25.18q-2.188,0-2.187-2.414V-7.047H19.1V-8.453h1.391v-2.055ZM29.055.156A3.928,3.928,0,0,1,26.129-.98a4.124,4.124,0,0,1-1.121-3.027v-.234A5.072,5.072,0,0,1,25.5-6.5a3.716,3.716,0,0,1,1.371-1.551,3.625,3.625,0,0,1,1.969-.555,3.318,3.318,0,0,1,2.668,1.1,4.658,4.658,0,0,1,.941,3.117v.766H26.922a2.539,2.539,0,0,0,.7,1.656,2.1,2.1,0,0,0,1.543.609,2.571,2.571,0,0,0,2.125-1.055l1.023.977A3.418,3.418,0,0,1,30.957-.262,4.244,4.244,0,0,1,29.055.156Zm-.227-7.242a1.6,1.6,0,0,0-1.262.547,2.835,2.835,0,0,0-.613,1.523H30.57v-.141A2.307,2.307,0,0,0,30.063-6.6,1.586,1.586,0,0,0,28.828-7.086Zm8.563,5.727a1.716,1.716,0,0,0,1.18-.414,1.415,1.415,0,0,0,.5-1.023h1.789a2.789,2.789,0,0,1-.492,1.473,3.228,3.228,0,0,1-1.25,1.082,3.725,3.725,0,0,1-1.7.4A3.6,3.6,0,0,1,34.6-.992a4.555,4.555,0,0,1-1.039-3.172v-.2a4.479,4.479,0,0,1,1.031-3.09,3.571,3.571,0,0,1,2.813-1.16,3.473,3.473,0,0,1,2.457.879,3.148,3.148,0,0,1,1,2.309H39.07a1.738,1.738,0,0,0-.5-1.2,1.6,1.6,0,0,0-1.184-.469,1.671,1.671,0,0,0-1.422.668,3.408,3.408,0,0,0-.508,2.027v.3a3.465,3.465,0,0,0,.5,2.051A1.669,1.669,0,0,0,37.391-1.359Zm8.375,0a1.716,1.716,0,0,0,1.18-.414,1.415,1.415,0,0,0,.5-1.023h1.789a2.789,2.789,0,0,1-.492,1.473,3.228,3.228,0,0,1-1.25,1.082,3.725,3.725,0,0,1-1.7.4A3.6,3.6,0,0,1,42.977-.992a4.555,4.555,0,0,1-1.039-3.172v-.2a4.479,4.479,0,0,1,1.031-3.09,3.571,3.571,0,0,1,2.813-1.16,3.473,3.473,0,0,1,2.457.879,3.148,3.148,0,0,1,1,2.309H47.445a1.738,1.738,0,0,0-.5-1.2,1.6,1.6,0,0,0-1.184-.469,1.671,1.671,0,0,0-1.422.668,3.408,3.408,0,0,0-.508,2.027v.3a3.465,3.465,0,0,0,.5,2.051A1.669,1.669,0,0,0,45.766-1.359ZM52.688,0h-1.9V-8.453h1.9ZM50.672-10.648a1.008,1.008,0,0,1,.277-.727,1.048,1.048,0,0,1,.793-.289,1.061,1.061,0,0,1,.8.289,1,1,0,0,1,.281.727.977.977,0,0,1-.281.715,1.069,1.069,0,0,1-.8.285,1.056,1.056,0,0,1-.793-.285A.984.984,0,0,1,50.672-10.648ZM54.4-4.3a4.984,4.984,0,0,1,.492-2.238,3.6,3.6,0,0,1,1.383-1.531,3.9,3.9,0,0,1,2.047-.535,3.692,3.692,0,0,1,2.777,1.1A4.333,4.333,0,0,1,62.25-4.586l.008.445a5.029,5.029,0,0,1-.48,2.234A3.551,3.551,0,0,1,60.4-.383a3.925,3.925,0,0,1-2.066.539,3.667,3.667,0,0,1-2.863-1.191A4.563,4.563,0,0,1,54.4-4.211Zm1.9.164A3.406,3.406,0,0,0,56.836-2.1a1.752,1.752,0,0,0,1.5.738,1.733,1.733,0,0,0,1.5-.75,3.762,3.762,0,0,0,.535-2.2,3.362,3.362,0,0,0-.551-2.031,1.759,1.759,0,0,0-1.5-.75,1.743,1.743,0,0,0-1.477.738A3.691,3.691,0,0,0,56.3-4.141ZM58.844-12h2.164L58.844-9.633l-1.523,0Zm6.781,3.547.055.977a3.039,3.039,0,0,1,2.461-1.133q2.641,0,2.688,3.023V0h-1.9V-5.477a1.741,1.741,0,0,0-.348-1.191,1.462,1.462,0,0,0-1.137-.387,1.829,1.829,0,0,0-1.711,1.039V0h-1.9V-8.453ZM79.7-2.719l1.719-5.734h2.023L80.086,1.281a2.73,2.73,0,0,1-2.625,2.133,3.384,3.384,0,0,1-.914-.141V1.8l.359.023a1.848,1.848,0,0,0,1.082-.262,1.734,1.734,0,0,0,.574-.878l.273-.726L75.867-8.453h2.047ZM93.57,0a2.93,2.93,0,0,1-.219-.789,2.955,2.955,0,0,1-2.219.945A2.982,2.982,0,0,1,89.055-.57a2.325,2.325,0,0,1-.8-1.8,2.4,2.4,0,0,1,1-2.074,4.865,4.865,0,0,1,2.871-.723h1.164v-.555a1.481,1.481,0,0,0-.367-1.051A1.456,1.456,0,0,0,91.8-7.164a1.672,1.672,0,0,0-1.062.324,1,1,0,0,0-.414.824h-1.9a2.107,2.107,0,0,1,.461-1.3,3.071,3.071,0,0,1,1.254-.949,4.4,4.4,0,0,1,1.77-.344,3.547,3.547,0,0,1,2.367.746,2.661,2.661,0,0,1,.906,2.1v3.813a4.321,4.321,0,0,0,.32,1.82V0ZM91.484-1.367a2.159,2.159,0,0,0,1.059-.273,1.827,1.827,0,0,0,.746-.734V-3.969H92.266A2.8,2.8,0,0,0,90.68-3.6a1.189,1.189,0,0,0-.531,1.039,1.109,1.109,0,0,0,.363.871A1.407,1.407,0,0,0,91.484-1.367Zm7.453-7.086.055.977a3.039,3.039,0,0,1,2.461-1.133q2.641,0,2.688,3.023V0h-1.9V-5.477a1.741,1.741,0,0,0-.348-1.191,1.462,1.462,0,0,0-1.137-.387,1.829,1.829,0,0,0-1.711,1.039V0h-1.9V-8.453ZM111.125,0a2.93,2.93,0,0,1-.219-.789,2.955,2.955,0,0,1-2.219.945,2.982,2.982,0,0,1-2.078-.727,2.325,2.325,0,0,1-.8-1.8,2.4,2.4,0,0,1,1-2.074,4.865,4.865,0,0,1,2.871-.723h1.164v-.555a1.481,1.481,0,0,0-.367-1.051,1.456,1.456,0,0,0-1.117-.395,1.672,1.672,0,0,0-1.062.324,1,1,0,0,0-.414.824h-1.9a2.107,2.107,0,0,1,.461-1.3,3.071,3.071,0,0,1,1.254-.949,4.4,4.4,0,0,1,1.77-.344,3.547,3.547,0,0,1,2.367.746,2.661,2.661,0,0,1,.906,2.1v3.813a4.321,4.321,0,0,0,.32,1.82V0Zm-2.086-1.367a2.159,2.159,0,0,0,1.059-.273,1.827,1.827,0,0,0,.746-.734V-3.969H109.82a2.8,2.8,0,0,0-1.586.367,1.189,1.189,0,0,0-.531,1.039,1.109,1.109,0,0,0,.363.871A1.407,1.407,0,0,0,109.039-1.367ZM110.094-12h2.164l-2.164,2.367-1.523,0ZM116.75,0h-1.9V-12h1.9Zm4.086,0h-1.9V-8.453h1.9ZM118.82-10.648a1.008,1.008,0,0,1,.277-.727,1.048,1.048,0,0,1,.793-.289,1.061,1.061,0,0,1,.8.289,1,1,0,0,1,.281.727.977.977,0,0,1-.281.715,1.069,1.069,0,0,1-.8.285,1.056,1.056,0,0,1-.793-.285A.984.984,0,0,1,118.82-10.648Zm8.82,8.352a.861.861,0,0,0-.418-.773,4.445,4.445,0,0,0-1.387-.469,7.129,7.129,0,0,1-1.617-.516A2.158,2.158,0,0,1,122.8-6.047a2.25,2.25,0,0,1,.922-1.828,3.644,3.644,0,0,1,2.344-.734,3.792,3.792,0,0,1,2.449.75,2.38,2.38,0,0,1,.934,1.945h-1.9a1.17,1.17,0,0,0-.406-.91,1.557,1.557,0,0,0-1.078-.363,1.682,1.682,0,0,0-1.02.289.911.911,0,0,0-.395.773.769.769,0,0,0,.367.68,5.049,5.049,0,0,0,1.484.488,7.027,7.027,0,0,1,1.754.586,2.484,2.484,0,0,1,.945.816,2.082,2.082,0,0,1,.309,1.156,2.2,2.2,0,0,1-.945,1.848,4.031,4.031,0,0,1-2.477.707,4.371,4.371,0,0,1-1.852-.375,3.047,3.047,0,0,1-1.266-1.031,2.441,2.441,0,0,1-.453-1.414h1.844a1.338,1.338,0,0,0,.508,1.035,1.973,1.973,0,0,0,1.242.363,1.92,1.92,0,0,0,1.141-.285A.883.883,0,0,0,127.641-2.3ZM133.18,0h-1.9V-8.453h1.9Zm-2.016-10.648a1.008,1.008,0,0,1,.277-.727,1.048,1.048,0,0,1,.793-.289,1.061,1.061,0,0,1,.8.289,1,1,0,0,1,.281.727.977.977,0,0,1-.281.715,1.069,1.069,0,0,1-.8.285,1.056,1.056,0,0,1-.793-.285A.984.984,0,0,1,131.164-10.648Zm8.82,8.352a.861.861,0,0,0-.418-.773,4.445,4.445,0,0,0-1.387-.469,7.129,7.129,0,0,1-1.617-.516,2.158,2.158,0,0,1-1.422-1.992,2.25,2.25,0,0,1,.922-1.828,3.644,3.644,0,0,1,2.344-.734,3.792,3.792,0,0,1,2.449.75,2.38,2.38,0,0,1,.934,1.945h-1.9a1.17,1.17,0,0,0-.406-.91,1.557,1.557,0,0,0-1.078-.363,1.682,1.682,0,0,0-1.02.289.911.911,0,0,0-.395.773.769.769,0,0,0,.367.68,5.049,5.049,0,0,0,1.484.488,7.027,7.027,0,0,1,1.754.586,2.484,2.484,0,0,1,.945.816,2.082,2.082,0,0,1,.309,1.156,2.2,2.2,0,0,1-.945,1.848,4.031,4.031,0,0,1-2.477.707,4.371,4.371,0,0,1-1.852-.375,3.047,3.047,0,0,1-1.266-1.031,2.441,2.441,0,0,1-.453-1.414H136.7a1.338,1.338,0,0,0,.508,1.035,1.973,1.973,0,0,0,1.242.363,1.92,1.92,0,0,0,1.141-.285A.883.883,0,0,0,139.984-2.3Z" transform="translate(381 901.58)" fill="#fff"/>
    <path id="Trazado_628954" data-name="Trazado 628954" d="M0,0H249V58H0Z" transform="translate(580 867.58)" fill="#294ddc"/>
    <path id="Trazado_628955" data-name="Trazado 628955" d="M9.836-3.7A4.107,4.107,0,0,1,8.492-.863,4.581,4.581,0,0,1,5.375.156,4.436,4.436,0,0,1,2.98-.488a4.231,4.231,0,0,1-1.6-1.832A6.611,6.611,0,0,1,.8-5.078V-6.141a6.659,6.659,0,0,1,.57-2.836A4.3,4.3,0,0,1,3-10.867a4.566,4.566,0,0,1,2.465-.664A4.4,4.4,0,0,1,8.5-10.512,4.26,4.26,0,0,1,9.836-7.625H7.867a2.81,2.81,0,0,0-.715-1.77,2.363,2.363,0,0,0-1.684-.543A2.308,2.308,0,0,0,3.488-9a4.709,4.709,0,0,0-.707,2.764v1.009a5,5,0,0,0,.66,2.815,2.191,2.191,0,0,0,1.934.97,2.555,2.555,0,0,0,1.75-.523A2.729,2.729,0,0,0,7.867-3.7Zm1.227-.6a4.984,4.984,0,0,1,.492-2.238,3.6,3.6,0,0,1,1.383-1.531,3.9,3.9,0,0,1,2.047-.535,3.692,3.692,0,0,1,2.777,1.1,4.333,4.333,0,0,1,1.152,2.922l.008.445a5.029,5.029,0,0,1-.48,2.234A3.551,3.551,0,0,1,17.066-.383,3.925,3.925,0,0,1,15,.156a3.667,3.667,0,0,1-2.863-1.191,4.563,4.563,0,0,1-1.074-3.176Zm1.9.164A3.406,3.406,0,0,0,13.5-2.1a1.752,1.752,0,0,0,1.5.738,1.733,1.733,0,0,0,1.5-.75,3.762,3.762,0,0,0,.535-2.2,3.362,3.362,0,0,0-.551-2.031,1.759,1.759,0,0,0-1.5-.75,1.743,1.743,0,0,0-1.477.738A3.691,3.691,0,0,0,12.961-4.141Zm9.328-4.312.055.977A3.039,3.039,0,0,1,24.8-8.609q2.641,0,2.688,3.023V0h-1.9V-5.477a1.741,1.741,0,0,0-.348-1.191,1.462,1.462,0,0,0-1.137-.387A1.829,1.829,0,0,0,22.4-6.016V0H20.5V-8.453ZM31.8-10.508v2.055H33.3v1.406H31.8v4.719a1.039,1.039,0,0,0,.191.7.888.888,0,0,0,.684.215,2.924,2.924,0,0,0,.664-.078V-.023a4.676,4.676,0,0,1-1.25.18q-2.188,0-2.187-2.414V-7.047H28.516V-8.453h1.391v-2.055ZM38.469.156A3.928,3.928,0,0,1,35.543-.98a4.124,4.124,0,0,1-1.121-3.027v-.234A5.072,5.072,0,0,1,34.91-6.5a3.716,3.716,0,0,1,1.371-1.551,3.625,3.625,0,0,1,1.969-.555,3.318,3.318,0,0,1,2.668,1.1,4.658,4.658,0,0,1,.941,3.117v.766H36.336a2.539,2.539,0,0,0,.7,1.656,2.1,2.1,0,0,0,1.543.609A2.571,2.571,0,0,0,40.7-2.414l1.023.977A3.418,3.418,0,0,1,40.371-.262,4.244,4.244,0,0,1,38.469.156Zm-.227-7.242a1.6,1.6,0,0,0-1.262.547,2.835,2.835,0,0,0-.613,1.523h3.617v-.141A2.307,2.307,0,0,0,39.477-6.6,1.586,1.586,0,0,0,38.242-7.086Zm6.852-1.367.055.977a3.039,3.039,0,0,1,2.461-1.133q2.641,0,2.688,3.023V0H48.4V-5.477a1.741,1.741,0,0,0-.348-1.191,1.462,1.462,0,0,0-1.137-.387A1.829,1.829,0,0,0,45.2-6.016V0H43.3V-8.453ZM55.7-1.359a1.716,1.716,0,0,0,1.18-.414,1.415,1.415,0,0,0,.5-1.023h1.789a2.789,2.789,0,0,1-.492,1.473A3.228,3.228,0,0,1,57.43-.242a3.725,3.725,0,0,1-1.7.4A3.6,3.6,0,0,1,52.914-.992a4.555,4.555,0,0,1-1.039-3.172v-.2a4.479,4.479,0,0,1,1.031-3.09,3.571,3.571,0,0,1,2.813-1.16,3.473,3.473,0,0,1,2.457.879,3.148,3.148,0,0,1,1,2.309H57.383a1.738,1.738,0,0,0-.5-1.2A1.6,1.6,0,0,0,55.7-7.086a1.671,1.671,0,0,0-1.422.668,3.408,3.408,0,0,0-.508,2.027v.3a3.465,3.465,0,0,0,.5,2.051A1.669,1.669,0,0,0,55.7-1.359ZM62.625,0h-1.9V-8.453h1.9ZM60.609-10.648a1.008,1.008,0,0,1,.277-.727,1.048,1.048,0,0,1,.793-.289,1.061,1.061,0,0,1,.8.289,1,1,0,0,1,.281.727.977.977,0,0,1-.281.715,1.069,1.069,0,0,1-.8.285,1.056,1.056,0,0,1-.793-.285A.984.984,0,0,1,60.609-10.648ZM64.336-4.3a4.984,4.984,0,0,1,.492-2.238,3.6,3.6,0,0,1,1.383-1.531,3.9,3.9,0,0,1,2.047-.535,3.692,3.692,0,0,1,2.777,1.1,4.333,4.333,0,0,1,1.152,2.922l.008.445a5.029,5.029,0,0,1-.48,2.234A3.551,3.551,0,0,1,70.34-.383a3.925,3.925,0,0,1-2.066.539A3.667,3.667,0,0,1,65.41-1.035a4.563,4.563,0,0,1-1.074-3.176Zm1.9.164A3.406,3.406,0,0,0,66.773-2.1a1.752,1.752,0,0,0,1.5.738,1.733,1.733,0,0,0,1.5-.75A3.762,3.762,0,0,0,70.3-4.3a3.362,3.362,0,0,0-.551-2.031,1.759,1.759,0,0,0-1.5-.75,1.743,1.743,0,0,0-1.477.738A3.691,3.691,0,0,0,66.234-4.141ZM68.781-12h2.164L68.781-9.633l-1.523,0Zm6.781,3.547.055.977a3.039,3.039,0,0,1,2.461-1.133q2.641,0,2.688,3.023V0h-1.9V-5.477a1.741,1.741,0,0,0-.348-1.191,1.462,1.462,0,0,0-1.137-.387,1.829,1.829,0,0,0-1.711,1.039V0h-1.9V-8.453ZM82.969,2.563l-1.023-.609A5.52,5.52,0,0,0,82.566.715a3.7,3.7,0,0,0,.176-1.074V-1.836h1.711L84.445-.469a3.81,3.81,0,0,1-.418,1.66A4.124,4.124,0,0,1,82.969,2.563ZM93.922.156A3.928,3.928,0,0,1,91-.98a4.124,4.124,0,0,1-1.121-3.027v-.234A5.072,5.072,0,0,1,90.363-6.5a3.716,3.716,0,0,1,1.371-1.551A3.625,3.625,0,0,1,93.7-8.609a3.318,3.318,0,0,1,2.668,1.1,4.658,4.658,0,0,1,.941,3.117v.766H91.789a2.539,2.539,0,0,0,.7,1.656,2.1,2.1,0,0,0,1.543.609,2.571,2.571,0,0,0,2.125-1.055l1.023.977A3.418,3.418,0,0,1,95.824-.262,4.244,4.244,0,0,1,93.922.156ZM93.7-7.086a1.6,1.6,0,0,0-1.262.547,2.835,2.835,0,0,0-.613,1.523h3.617v-.141A2.307,2.307,0,0,0,94.93-6.6,1.586,1.586,0,0,0,93.7-7.086Zm9.516.367a4.7,4.7,0,0,0-.773-.062,1.741,1.741,0,0,0-1.758,1V0h-1.9V-8.453h1.813l.047.945a2.139,2.139,0,0,1,1.906-1.1,1.777,1.777,0,0,1,.672.109Zm5.625,0a4.7,4.7,0,0,0-.773-.062,1.741,1.741,0,0,0-1.758,1V0h-1.9V-8.453h1.813l.047.945a2.139,2.139,0,0,1,1.906-1.1,1.777,1.777,0,0,1,.672.109ZM114.852,0a2.93,2.93,0,0,1-.219-.789,2.955,2.955,0,0,1-2.219.945,2.982,2.982,0,0,1-2.078-.727,2.325,2.325,0,0,1-.8-1.8,2.4,2.4,0,0,1,1-2.074,4.865,4.865,0,0,1,2.871-.723h1.164v-.555A1.481,1.481,0,0,0,114.2-6.77a1.456,1.456,0,0,0-1.117-.395,1.672,1.672,0,0,0-1.062.324,1,1,0,0,0-.414.824h-1.9a2.107,2.107,0,0,1,.461-1.3,3.071,3.071,0,0,1,1.254-.949,4.4,4.4,0,0,1,1.77-.344,3.547,3.547,0,0,1,2.367.746,2.661,2.661,0,0,1,.906,2.1v3.813a4.321,4.321,0,0,0,.32,1.82V0Zm-2.086-1.367a2.159,2.159,0,0,0,1.059-.273,1.827,1.827,0,0,0,.746-.734V-3.969h-1.023a2.8,2.8,0,0,0-1.586.367,1.189,1.189,0,0,0-.531,1.039,1.109,1.109,0,0,0,.363.871A1.407,1.407,0,0,0,112.766-1.367ZM118.1-4.289a5.026,5.026,0,0,1,.906-3.137,2.9,2.9,0,0,1,2.43-1.184,2.759,2.759,0,0,1,2.172.938V-12h1.9V0h-1.719L123.7-.875A2.8,2.8,0,0,1,121.422.156a2.887,2.887,0,0,1-2.4-1.2A5.21,5.21,0,0,1,118.1-4.289Zm1.9.164a3.519,3.519,0,0,0,.5,2.012,1.61,1.61,0,0,0,1.41.723,1.793,1.793,0,0,0,1.7-1.039V-6.039a1.766,1.766,0,0,0-1.687-1.016,1.622,1.622,0,0,0-1.422.73A3.918,3.918,0,0,0,120-4.125ZM129.508,0h-1.9V-8.453h1.9Zm-2.016-10.648a1.008,1.008,0,0,1,.277-.727,1.048,1.048,0,0,1,.793-.289,1.061,1.061,0,0,1,.8.289,1,1,0,0,1,.281.727.977.977,0,0,1-.281.715,1.069,1.069,0,0,1-.8.285,1.056,1.056,0,0,1-.793-.285A.984.984,0,0,1,127.492-10.648Zm7.555,9.289a1.716,1.716,0,0,0,1.18-.414,1.415,1.415,0,0,0,.5-1.023h1.789a2.788,2.788,0,0,1-.492,1.473,3.228,3.228,0,0,1-1.25,1.082,3.725,3.725,0,0,1-1.7.4,3.6,3.6,0,0,1-2.812-1.148,4.555,4.555,0,0,1-1.039-3.172v-.2a4.479,4.479,0,0,1,1.031-3.09,3.571,3.571,0,0,1,2.813-1.16,3.473,3.473,0,0,1,2.457.879,3.148,3.148,0,0,1,1,2.309h-1.789a1.738,1.738,0,0,0-.5-1.2,1.6,1.6,0,0,0-1.184-.469,1.671,1.671,0,0,0-1.422.668,3.408,3.408,0,0,0-.508,2.027v.3a3.465,3.465,0,0,0,.5,2.051A1.669,1.669,0,0,0,135.047-1.359ZM145,0a2.93,2.93,0,0,1-.219-.789,2.955,2.955,0,0,1-2.219.945,2.982,2.982,0,0,1-2.078-.727,2.325,2.325,0,0,1-.8-1.8,2.4,2.4,0,0,1,1-2.074,4.865,4.865,0,0,1,2.871-.723h1.164v-.555a1.481,1.481,0,0,0-.367-1.051,1.456,1.456,0,0,0-1.117-.395,1.672,1.672,0,0,0-1.062.324,1,1,0,0,0-.414.824h-1.9a2.107,2.107,0,0,1,.461-1.3,3.071,3.071,0,0,1,1.254-.949,4.4,4.4,0,0,1,1.77-.344,3.547,3.547,0,0,1,2.367.746,2.661,2.661,0,0,1,.906,2.1v3.813a4.321,4.321,0,0,0,.32,1.82V0Zm-2.086-1.367a2.16,2.16,0,0,0,1.059-.273,1.827,1.827,0,0,0,.746-.734V-3.969H143.7a2.8,2.8,0,0,0-1.586.367,1.189,1.189,0,0,0-.531,1.039,1.109,1.109,0,0,0,.363.871A1.407,1.407,0,0,0,142.914-1.367Zm9.164.008a1.716,1.716,0,0,0,1.18-.414,1.415,1.415,0,0,0,.5-1.023h1.789a2.788,2.788,0,0,1-.492,1.473A3.228,3.228,0,0,1,153.8-.242a3.725,3.725,0,0,1-1.7.4,3.6,3.6,0,0,1-2.812-1.148,4.555,4.555,0,0,1-1.039-3.172v-.2a4.479,4.479,0,0,1,1.031-3.09,3.571,3.571,0,0,1,2.813-1.16,3.473,3.473,0,0,1,2.457.879,3.148,3.148,0,0,1,1,2.309h-1.789a1.738,1.738,0,0,0-.5-1.2,1.6,1.6,0,0,0-1.184-.469,1.671,1.671,0,0,0-1.422.668,3.408,3.408,0,0,0-.508,2.027v.3a3.465,3.465,0,0,0,.5,2.051A1.669,1.669,0,0,0,152.078-1.359ZM159,0h-1.9V-8.453H159Zm-2.016-10.648a1.008,1.008,0,0,1,.277-.727,1.048,1.048,0,0,1,.793-.289,1.061,1.061,0,0,1,.8.289,1,1,0,0,1,.281.727.977.977,0,0,1-.281.715,1.069,1.069,0,0,1-.8.285,1.056,1.056,0,0,1-.793-.285A.984.984,0,0,1,156.984-10.648ZM160.711-4.3a4.984,4.984,0,0,1,.492-2.238,3.6,3.6,0,0,1,1.383-1.531,3.9,3.9,0,0,1,2.047-.535,3.692,3.692,0,0,1,2.777,1.1,4.333,4.333,0,0,1,1.152,2.922l.008.445a5.029,5.029,0,0,1-.48,2.234,3.551,3.551,0,0,1-1.375,1.523,3.925,3.925,0,0,1-2.066.539,3.667,3.667,0,0,1-2.863-1.191,4.563,4.563,0,0,1-1.074-3.176Zm1.9.164a3.406,3.406,0,0,0,.539,2.043,1.752,1.752,0,0,0,1.5.738,1.733,1.733,0,0,0,1.5-.75,3.762,3.762,0,0,0,.535-2.2,3.362,3.362,0,0,0-.551-2.031,1.759,1.759,0,0,0-1.5-.75,1.743,1.743,0,0,0-1.477.738A3.691,3.691,0,0,0,162.609-4.141ZM165.156-12h2.164l-2.164,2.367-1.523,0Zm6.781,3.547.055.977a3.039,3.039,0,0,1,2.461-1.133q2.641,0,2.688,3.023V0h-1.9V-5.477a1.741,1.741,0,0,0-.348-1.191,1.462,1.462,0,0,0-1.137-.387,1.829,1.829,0,0,0-1.711,1.039V0h-1.9V-8.453Zm14.078,5.734,1.719-5.734h2.023L186.4,1.281a2.73,2.73,0,0,1-2.625,2.133,3.384,3.384,0,0,1-.914-.141V1.8l.359.023a1.848,1.848,0,0,0,1.082-.262,1.734,1.734,0,0,0,.574-.878l.273-.726L182.18-8.453h2.047ZM5.4,11.281a4.7,4.7,0,0,0-.773-.062,1.741,1.741,0,0,0-1.758,1V18H.969V9.547H2.781l.047.945a2.139,2.139,0,0,1,1.906-1.1,1.777,1.777,0,0,1,.672.109Zm4.922,6.875A3.928,3.928,0,0,1,7.395,17.02a4.124,4.124,0,0,1-1.121-3.027v-.234A5.072,5.072,0,0,1,6.762,11.5,3.716,3.716,0,0,1,8.133,9.945,3.625,3.625,0,0,1,10.1,9.391a3.318,3.318,0,0,1,2.668,1.1,4.658,4.658,0,0,1,.941,3.117v.766H8.188a2.539,2.539,0,0,0,.7,1.656,2.1,2.1,0,0,0,1.543.609,2.571,2.571,0,0,0,2.125-1.055l1.023.977a3.418,3.418,0,0,1-1.355,1.176A4.244,4.244,0,0,1,10.32,18.156Zm-.227-7.242a1.6,1.6,0,0,0-1.262.547,2.835,2.835,0,0,0-.613,1.523h3.617v-.141a2.307,2.307,0,0,0-.508-1.441A1.586,1.586,0,0,0,10.094,10.914Zm8.563,5.727a1.716,1.716,0,0,0,1.18-.414,1.415,1.415,0,0,0,.5-1.023h1.789a2.789,2.789,0,0,1-.492,1.473,3.228,3.228,0,0,1-1.25,1.082,3.725,3.725,0,0,1-1.7.4,3.6,3.6,0,0,1-2.812-1.148,4.555,4.555,0,0,1-1.039-3.172v-.2a4.479,4.479,0,0,1,1.031-3.09,3.571,3.571,0,0,1,2.813-1.16,3.473,3.473,0,0,1,2.457.879,3.148,3.148,0,0,1,1,2.309H20.336a1.738,1.738,0,0,0-.5-1.2,1.6,1.6,0,0,0-1.184-.469,1.671,1.671,0,0,0-1.422.668,3.408,3.408,0,0,0-.508,2.027v.3a3.465,3.465,0,0,0,.5,2.051A1.669,1.669,0,0,0,18.656,16.641Zm10.023.531a2.944,2.944,0,0,1-2.375.984,2.624,2.624,0,0,1-2.082-.8,3.423,3.423,0,0,1-.707-2.328V9.547h1.9V15q0,1.609,1.336,1.609a1.876,1.876,0,0,0,1.867-.992V9.547h1.9V18H28.727Zm11.172-3.312a5.033,5.033,0,0,1-.891,3.129,3.094,3.094,0,0,1-4.617.254V21.25h-1.9V9.547H34.2l.078.859a2.788,2.788,0,0,1,2.273-1.016,2.881,2.881,0,0,1,2.426,1.152,5.167,5.167,0,0,1,.879,3.2ZM37.961,13.7a3.526,3.526,0,0,0-.5-2.008,1.638,1.638,0,0,0-1.441-.742,1.747,1.747,0,0,0-1.672.961v3.75a1.763,1.763,0,0,0,1.688.984,1.636,1.636,0,0,0,1.418-.73A3.881,3.881,0,0,0,37.961,13.7Zm7.219,4.461a3.928,3.928,0,0,1-2.926-1.137,4.124,4.124,0,0,1-1.121-3.027v-.234a5.072,5.072,0,0,1,.488-2.262,3.716,3.716,0,0,1,1.371-1.551,3.625,3.625,0,0,1,1.969-.555,3.318,3.318,0,0,1,2.668,1.1,4.658,4.658,0,0,1,.941,3.117v.766H43.047a2.539,2.539,0,0,0,.7,1.656,2.1,2.1,0,0,0,1.543.609,2.571,2.571,0,0,0,2.125-1.055l1.023.977a3.418,3.418,0,0,1-1.355,1.176A4.244,4.244,0,0,1,45.18,18.156Zm-.227-7.242a1.6,1.6,0,0,0-1.262.547,2.835,2.835,0,0,0-.613,1.523H46.7v-.141a2.307,2.307,0,0,0-.508-1.441A1.586,1.586,0,0,0,44.953,10.914Zm9.516.367a4.7,4.7,0,0,0-.773-.062,1.741,1.741,0,0,0-1.758,1V18h-1.9V9.547h1.813l.047.945a2.139,2.139,0,0,1,1.906-1.1,1.777,1.777,0,0,1,.672.109ZM60.484,18a2.93,2.93,0,0,1-.219-.789,3.193,3.193,0,0,1-4.3.219,2.325,2.325,0,0,1-.8-1.8,2.4,2.4,0,0,1,1-2.074,4.865,4.865,0,0,1,2.871-.723H60.2v-.555a1.481,1.481,0,0,0-.367-1.051,1.456,1.456,0,0,0-1.117-.395,1.672,1.672,0,0,0-1.062.324,1,1,0,0,0-.414.824h-1.9a2.107,2.107,0,0,1,.461-1.3,3.071,3.071,0,0,1,1.254-.949,4.4,4.4,0,0,1,1.77-.344,3.547,3.547,0,0,1,2.367.746,2.661,2.661,0,0,1,.906,2.1v3.813a4.321,4.321,0,0,0,.32,1.82V18ZM58.4,16.633a2.16,2.16,0,0,0,1.059-.273,1.827,1.827,0,0,0,.746-.734V14.031H59.18a2.8,2.8,0,0,0-1.586.367,1.189,1.189,0,0,0-.531,1.039,1.109,1.109,0,0,0,.363.871A1.407,1.407,0,0,0,58.4,16.633Zm9.164.008a1.716,1.716,0,0,0,1.18-.414,1.415,1.415,0,0,0,.5-1.023h1.789a2.789,2.789,0,0,1-.492,1.473,3.228,3.228,0,0,1-1.25,1.082,3.725,3.725,0,0,1-1.7.4,3.6,3.6,0,0,1-2.812-1.148,4.555,4.555,0,0,1-1.039-3.172v-.2a4.479,4.479,0,0,1,1.031-3.09,3.571,3.571,0,0,1,2.813-1.16,3.473,3.473,0,0,1,2.457.879,3.148,3.148,0,0,1,1,2.309H69.242a1.738,1.738,0,0,0-.5-1.2,1.6,1.6,0,0,0-1.184-.469,1.671,1.671,0,0,0-1.422.668,3.408,3.408,0,0,0-.508,2.027v.3a3.465,3.465,0,0,0,.5,2.051A1.669,1.669,0,0,0,67.563,16.641ZM74.484,18h-1.9V9.547h1.9ZM72.469,7.352a1.008,1.008,0,0,1,.277-.727,1.048,1.048,0,0,1,.793-.289,1.061,1.061,0,0,1,.8.289,1,1,0,0,1,.281.727.977.977,0,0,1-.281.715,1.069,1.069,0,0,1-.8.285,1.056,1.056,0,0,1-.793-.285A.984.984,0,0,1,72.469,7.352ZM76.2,13.7a4.984,4.984,0,0,1,.492-2.238A3.6,3.6,0,0,1,78.07,9.926a3.9,3.9,0,0,1,2.047-.535,3.692,3.692,0,0,1,2.777,1.1,4.333,4.333,0,0,1,1.152,2.922l.008.445a5.029,5.029,0,0,1-.48,2.234A3.551,3.551,0,0,1,82.2,17.617a3.925,3.925,0,0,1-2.066.539,3.667,3.667,0,0,1-2.863-1.191A4.563,4.563,0,0,1,76.2,13.789Zm1.9.164a3.406,3.406,0,0,0,.539,2.043,1.752,1.752,0,0,0,1.5.738,1.733,1.733,0,0,0,1.5-.75,3.762,3.762,0,0,0,.535-2.2,3.362,3.362,0,0,0-.551-2.031,1.856,1.856,0,0,0-2.973-.012A3.691,3.691,0,0,0,78.094,13.859ZM80.641,6H82.8L80.641,8.367l-1.523,0Zm6.781,3.547.055.977a3.039,3.039,0,0,1,2.461-1.133q2.641,0,2.688,3.023V18h-1.9V12.523a1.741,1.741,0,0,0-.348-1.191,1.462,1.462,0,0,0-1.137-.387,1.829,1.829,0,0,0-1.711,1.039V18h-1.9V9.547Z" transform="translate(610 892.58)" fill="#fff"/>
    <path id="Trazado_628956" data-name="Trazado 628956" d="M0,0H183V58H0Z" transform="translate(866 867.58)" fill="#294ddc"/>
    <path id="Trazado_628957" data-name="Trazado 628957" d="M7.523-2.648H3.117L2.2,0H.141l4.3-11.375H6.211L10.516,0H8.453ZM3.672-4.242h3.3L5.32-8.961ZM15.094-1.359a1.716,1.716,0,0,0,1.18-.414,1.415,1.415,0,0,0,.5-1.023h1.789a2.789,2.789,0,0,1-.492,1.473A3.228,3.228,0,0,1,16.82-.242a3.725,3.725,0,0,1-1.7.4A3.6,3.6,0,0,1,12.3-.992a4.555,4.555,0,0,1-1.039-3.172v-.2A4.479,4.479,0,0,1,12.3-7.449a3.571,3.571,0,0,1,2.813-1.16,3.473,3.473,0,0,1,2.457.879,3.148,3.148,0,0,1,1,2.309H16.773a1.738,1.738,0,0,0-.5-1.2,1.6,1.6,0,0,0-1.184-.469,1.671,1.671,0,0,0-1.422.668,3.408,3.408,0,0,0-.508,2.027v.3a3.465,3.465,0,0,0,.5,2.051A1.669,1.669,0,0,0,15.094-1.359Zm7.281-9.148v2.055h1.492v1.406H22.375v4.719a1.039,1.039,0,0,0,.191.7.888.888,0,0,0,.684.215,2.924,2.924,0,0,0,.664-.078V-.023a4.676,4.676,0,0,1-1.25.18q-2.188,0-2.187-2.414V-7.047H19.086V-8.453h1.391v-2.055ZM27.336,0h-1.9V-8.453h1.9ZM25.32-10.648a1.008,1.008,0,0,1,.277-.727,1.048,1.048,0,0,1,.793-.289,1.061,1.061,0,0,1,.8.289,1,1,0,0,1,.281.727.977.977,0,0,1-.281.715,1.069,1.069,0,0,1-.8.285,1.056,1.056,0,0,1-.793-.285A.984.984,0,0,1,25.32-10.648Zm7.063,8.242,1.789-6.047h1.961L33.2,0H31.555L28.6-8.453H30.57ZM39.336,0h-1.9V-8.453h1.9ZM37.32-10.648a1.008,1.008,0,0,1,.277-.727,1.048,1.048,0,0,1,.793-.289,1.061,1.061,0,0,1,.8.289,1,1,0,0,1,.281.727.977.977,0,0,1-.281.715,1.069,1.069,0,0,1-.8.285,1.056,1.056,0,0,1-.793-.285A.984.984,0,0,1,37.32-10.648Zm3.727,6.359a5.026,5.026,0,0,1,.906-3.137,2.9,2.9,0,0,1,2.43-1.184,2.759,2.759,0,0,1,2.172.938V-12h1.9V0H46.734l-.094-.875A2.8,2.8,0,0,1,44.367.156a2.887,2.887,0,0,1-2.4-1.2A5.21,5.21,0,0,1,41.047-4.289Zm1.9.164a3.519,3.519,0,0,0,.5,2.012,1.61,1.61,0,0,0,1.41.723,1.793,1.793,0,0,0,1.7-1.039V-6.039a1.766,1.766,0,0,0-1.687-1.016,1.622,1.622,0,0,0-1.422.73A3.919,3.919,0,0,0,42.945-4.125ZM55.484,0a2.93,2.93,0,0,1-.219-.789,2.955,2.955,0,0,1-2.219.945A2.982,2.982,0,0,1,50.969-.57a2.325,2.325,0,0,1-.8-1.8,2.4,2.4,0,0,1,1-2.074,4.865,4.865,0,0,1,2.871-.723H55.2v-.555a1.481,1.481,0,0,0-.367-1.051,1.456,1.456,0,0,0-1.117-.395,1.672,1.672,0,0,0-1.062.324,1,1,0,0,0-.414.824h-1.9a2.107,2.107,0,0,1,.461-1.3,3.071,3.071,0,0,1,1.254-.949,4.4,4.4,0,0,1,1.77-.344,3.547,3.547,0,0,1,2.367.746,2.661,2.661,0,0,1,.906,2.1v3.813a4.321,4.321,0,0,0,.32,1.82V0ZM53.4-1.367a2.16,2.16,0,0,0,1.059-.273,1.827,1.827,0,0,0,.746-.734V-3.969H54.18a2.8,2.8,0,0,0-1.586.367,1.189,1.189,0,0,0-.531,1.039,1.109,1.109,0,0,0,.363.871A1.407,1.407,0,0,0,53.4-1.367Zm5.336-2.922a5.026,5.026,0,0,1,.906-3.137,2.9,2.9,0,0,1,2.43-1.184,2.759,2.759,0,0,1,2.172.938V-12h1.9V0H64.422l-.094-.875A2.8,2.8,0,0,1,62.055.156a2.887,2.887,0,0,1-2.4-1.2A5.21,5.21,0,0,1,58.734-4.289Zm1.9.164a3.519,3.519,0,0,0,.5,2.012,1.61,1.61,0,0,0,1.41.723,1.793,1.793,0,0,0,1.7-1.039V-6.039a1.766,1.766,0,0,0-1.687-1.016,1.622,1.622,0,0,0-1.422.73A3.919,3.919,0,0,0,60.633-4.125ZM71.844.156A3.928,3.928,0,0,1,68.918-.98,4.124,4.124,0,0,1,67.8-4.008v-.234A5.072,5.072,0,0,1,68.285-6.5a3.716,3.716,0,0,1,1.371-1.551,3.625,3.625,0,0,1,1.969-.555,3.318,3.318,0,0,1,2.668,1.1,4.658,4.658,0,0,1,.941,3.117v.766H69.711a2.539,2.539,0,0,0,.7,1.656,2.1,2.1,0,0,0,1.543.609,2.571,2.571,0,0,0,2.125-1.055l1.023.977A3.418,3.418,0,0,1,73.746-.262,4.244,4.244,0,0,1,71.844.156Zm-.227-7.242a1.6,1.6,0,0,0-1.262.547,2.835,2.835,0,0,0-.613,1.523h3.617v-.141A2.307,2.307,0,0,0,72.852-6.6,1.586,1.586,0,0,0,71.617-7.086ZM81.445-2.3a.861.861,0,0,0-.418-.773,4.445,4.445,0,0,0-1.387-.469,7.129,7.129,0,0,1-1.617-.516A2.158,2.158,0,0,1,76.6-6.047a2.25,2.25,0,0,1,.922-1.828,3.644,3.644,0,0,1,2.344-.734,3.792,3.792,0,0,1,2.449.75,2.38,2.38,0,0,1,.934,1.945h-1.9a1.17,1.17,0,0,0-.406-.91,1.557,1.557,0,0,0-1.078-.363,1.682,1.682,0,0,0-1.02.289.911.911,0,0,0-.395.773.769.769,0,0,0,.367.68,5.049,5.049,0,0,0,1.484.488,7.027,7.027,0,0,1,1.754.586A2.484,2.484,0,0,1,83-3.555,2.082,2.082,0,0,1,83.313-2.4a2.2,2.2,0,0,1-.945,1.848,4.031,4.031,0,0,1-2.477.707,4.371,4.371,0,0,1-1.852-.375A3.047,3.047,0,0,1,76.773-1.25a2.441,2.441,0,0,1-.453-1.414h1.844a1.338,1.338,0,0,0,.508,1.035,1.973,1.973,0,0,0,1.242.363,1.92,1.92,0,0,0,1.141-.285A.883.883,0,0,0,81.445-2.3ZM96.352-4.141a5.033,5.033,0,0,1-.891,3.129A2.852,2.852,0,0,1,93.07.156a2.871,2.871,0,0,1-2.227-.914V3.25h-1.9v-11.7H90.7l.078.859a2.788,2.788,0,0,1,2.273-1.016,2.881,2.881,0,0,1,2.426,1.152,5.167,5.167,0,0,1,.879,3.2ZM94.461-4.3a3.526,3.526,0,0,0-.5-2.008,1.638,1.638,0,0,0-1.441-.742,1.747,1.747,0,0,0-1.672.961v3.75a1.763,1.763,0,0,0,1.688.984,1.636,1.636,0,0,0,1.418-.73A3.881,3.881,0,0,0,94.461-4.3Zm3.141,0a4.984,4.984,0,0,1,.492-2.238,3.6,3.6,0,0,1,1.383-1.531,3.9,3.9,0,0,1,2.047-.535,3.692,3.692,0,0,1,2.777,1.1,4.333,4.333,0,0,1,1.152,2.922l.008.445a5.029,5.029,0,0,1-.48,2.234,3.551,3.551,0,0,1-1.375,1.523,3.925,3.925,0,0,1-2.066.539,3.667,3.667,0,0,1-2.863-1.191A4.563,4.563,0,0,1,97.6-4.211Zm1.9.164a3.406,3.406,0,0,0,.539,2.043,1.752,1.752,0,0,0,1.5.738,1.733,1.733,0,0,0,1.5-.75,3.762,3.762,0,0,0,.535-2.2,3.362,3.362,0,0,0-.551-2.031,1.759,1.759,0,0,0-1.5-.75,1.743,1.743,0,0,0-1.477.738A3.691,3.691,0,0,0,99.5-4.141ZM111.8-2.3a.861.861,0,0,0-.418-.773A4.445,4.445,0,0,0,110-3.539a7.129,7.129,0,0,1-1.617-.516,2.158,2.158,0,0,1-1.422-1.992,2.25,2.25,0,0,1,.922-1.828,3.644,3.644,0,0,1,2.344-.734,3.792,3.792,0,0,1,2.449.75,2.38,2.38,0,0,1,.934,1.945h-1.9a1.17,1.17,0,0,0-.406-.91,1.557,1.557,0,0,0-1.078-.363,1.682,1.682,0,0,0-1.02.289.911.911,0,0,0-.395.773.769.769,0,0,0,.367.68,5.049,5.049,0,0,0,1.484.488,7.027,7.027,0,0,1,1.754.586,2.484,2.484,0,0,1,.945.816,2.082,2.082,0,0,1,.309,1.156,2.2,2.2,0,0,1-.945,1.848,4.031,4.031,0,0,1-2.477.707A4.371,4.371,0,0,1,108.4-.219a3.047,3.047,0,0,1-1.266-1.031,2.441,2.441,0,0,1-.453-1.414h1.844a1.338,1.338,0,0,0,.508,1.035,1.973,1.973,0,0,0,1.242.363,1.92,1.92,0,0,0,1.141-.285A.883.883,0,0,0,111.8-2.3Zm5.9-8.211v2.055H119.2v1.406H117.7v4.719a1.039,1.039,0,0,0,.191.7.888.888,0,0,0,.684.215,2.924,2.924,0,0,0,.664-.078V-.023a4.676,4.676,0,0,1-1.25.18q-2.188,0-2.187-2.414V-7.047h-1.391V-8.453H115.8v-2.055ZM128.313-4.07h-4.1V-5.6h4.1ZM2.992,18h-1.9V9.547h1.9ZM.977,7.352a1.008,1.008,0,0,1,.277-.727,1.048,1.048,0,0,1,.793-.289,1.061,1.061,0,0,1,.8.289,1,1,0,0,1,.281.727.977.977,0,0,1-.281.715,1.069,1.069,0,0,1-.8.285,1.056,1.056,0,0,1-.793-.285A.984.984,0,0,1,.977,7.352Zm5.844,2.2.055.977A3.039,3.039,0,0,1,9.336,9.391q2.641,0,2.688,3.023V18h-1.9V12.523a1.741,1.741,0,0,0-.348-1.191,1.462,1.462,0,0,0-1.137-.387A1.829,1.829,0,0,0,6.93,11.984V18h-1.9V9.547ZM17.43,16.641a1.716,1.716,0,0,0,1.18-.414,1.415,1.415,0,0,0,.5-1.023H20.9a2.789,2.789,0,0,1-.492,1.473,3.228,3.228,0,0,1-1.25,1.082,3.725,3.725,0,0,1-1.7.4,3.6,3.6,0,0,1-2.812-1.148A4.555,4.555,0,0,1,13.6,13.836v-.2a4.479,4.479,0,0,1,1.031-3.09,3.571,3.571,0,0,1,2.813-1.16,3.473,3.473,0,0,1,2.457.879,3.148,3.148,0,0,1,1,2.309H19.109a1.738,1.738,0,0,0-.5-1.2,1.6,1.6,0,0,0-1.184-.469,1.671,1.671,0,0,0-1.422.668,3.408,3.408,0,0,0-.508,2.027v.3a3.465,3.465,0,0,0,.5,2.051A1.669,1.669,0,0,0,17.43,16.641ZM24.352,18h-1.9V9.547h1.9ZM22.336,7.352a1.008,1.008,0,0,1,.277-.727,1.048,1.048,0,0,1,.793-.289,1.061,1.061,0,0,1,.8.289,1,1,0,0,1,.281.727.977.977,0,0,1-.281.715,1.069,1.069,0,0,1-.8.285,1.056,1.056,0,0,1-.793-.285A.984.984,0,0,1,22.336,7.352Zm3.727,6.359a5.026,5.026,0,0,1,.906-3.137A2.9,2.9,0,0,1,29.4,9.391a2.759,2.759,0,0,1,2.172.938V6h1.9V18H31.75l-.094-.875a2.8,2.8,0,0,1-2.273,1.031,2.887,2.887,0,0,1-2.4-1.2A5.21,5.21,0,0,1,26.063,13.711Zm1.9.164a3.519,3.519,0,0,0,.5,2.012,1.61,1.61,0,0,0,1.41.723,1.793,1.793,0,0,0,1.7-1.039V11.961a1.766,1.766,0,0,0-1.687-1.016,1.622,1.622,0,0,0-1.422.73A3.918,3.918,0,0,0,27.961,13.875Zm11.211,4.281a3.928,3.928,0,0,1-2.926-1.137,4.124,4.124,0,0,1-1.121-3.027v-.234a5.072,5.072,0,0,1,.488-2.262,3.716,3.716,0,0,1,1.371-1.551,3.625,3.625,0,0,1,1.969-.555,3.318,3.318,0,0,1,2.668,1.1,4.658,4.658,0,0,1,.941,3.117v.766H37.039a2.539,2.539,0,0,0,.7,1.656,2.1,2.1,0,0,0,1.543.609,2.571,2.571,0,0,0,2.125-1.055l1.023.977a3.418,3.418,0,0,1-1.355,1.176A4.244,4.244,0,0,1,39.172,18.156Zm-.227-7.242a1.6,1.6,0,0,0-1.262.547,2.835,2.835,0,0,0-.613,1.523h3.617v-.141A2.307,2.307,0,0,0,40.18,11.4,1.586,1.586,0,0,0,38.945,10.914ZM45.8,9.547l.055.977a3.039,3.039,0,0,1,2.461-1.133q2.641,0,2.688,3.023V18H49.1V12.523a1.741,1.741,0,0,0-.348-1.191,1.462,1.462,0,0,0-1.137-.387,1.829,1.829,0,0,0-1.711,1.039V18h-1.9V9.547Zm9.516-2.055V9.547H56.8v1.406H55.313v4.719a1.039,1.039,0,0,0,.191.7.888.888,0,0,0,.684.215,2.924,2.924,0,0,0,.664-.078v1.469a4.676,4.676,0,0,1-1.25.18q-2.187,0-2.187-2.414V10.953H52.023V9.547h1.391V7.492Zm6.664,10.664a3.928,3.928,0,0,1-2.926-1.137,4.124,4.124,0,0,1-1.121-3.027v-.234a5.072,5.072,0,0,1,.488-2.262,3.716,3.716,0,0,1,1.371-1.551,3.625,3.625,0,0,1,1.969-.555,3.318,3.318,0,0,1,2.668,1.1,4.658,4.658,0,0,1,.941,3.117v.766H59.844a2.539,2.539,0,0,0,.7,1.656,2.1,2.1,0,0,0,1.543.609,2.571,2.571,0,0,0,2.125-1.055l1.023.977a3.418,3.418,0,0,1-1.355,1.176A4.244,4.244,0,0,1,61.977,18.156Zm-.227-7.242a1.6,1.6,0,0,0-1.262.547,2.835,2.835,0,0,0-.613,1.523h3.617v-.141a2.307,2.307,0,0,0-.508-1.441A1.586,1.586,0,0,0,61.75,10.914ZM71.578,15.7a.861.861,0,0,0-.418-.773,4.445,4.445,0,0,0-1.387-.469,7.129,7.129,0,0,1-1.617-.516,2.158,2.158,0,0,1-1.422-1.992,2.25,2.25,0,0,1,.922-1.828A3.644,3.644,0,0,1,70,9.391a3.792,3.792,0,0,1,2.449.75,2.38,2.38,0,0,1,.934,1.945h-1.9a1.17,1.17,0,0,0-.406-.91A1.557,1.557,0,0,0,70,10.813a1.682,1.682,0,0,0-1.02.289.911.911,0,0,0-.395.773.769.769,0,0,0,.367.68,5.049,5.049,0,0,0,1.484.488,7.027,7.027,0,0,1,1.754.586,2.484,2.484,0,0,1,.945.816,2.082,2.082,0,0,1,.309,1.156,2.2,2.2,0,0,1-.945,1.848,4.031,4.031,0,0,1-2.477.707,4.371,4.371,0,0,1-1.852-.375,3.047,3.047,0,0,1-1.266-1.031,2.441,2.441,0,0,1-.453-1.414H68.3a1.338,1.338,0,0,0,.508,1.035,1.973,1.973,0,0,0,1.242.363,1.92,1.92,0,0,0,1.141-.285A.883.883,0,0,0,71.578,15.7Z" transform="translate(893 891.08)" fill="#fff"/>
    <g id="Background" transform="translate(818.938 881.104)">
      <path id="Trazado_603916" data-name="Trazado 603916" d="M804.49,1009.831l-12.63-11.339a2.064,2.064,0,0,0-2.838.076l-2.713,2.714a2.063,2.063,0,0,0,.077,2.992c1.97,1.777,5.049,4.545,5.049,4.545H772.362a1.411,1.411,0,0,0-1.411,1.411v5.474a1.411,1.411,0,0,0,1.411,1.411h19.1l-5.051,4.535a2.064,2.064,0,0,0-.081,3l2.72,2.72a2.064,2.064,0,0,0,2.838.076l12.6-11.309A4.234,4.234,0,0,0,804.49,1009.831Z" transform="translate(-770.951 -997.963)" fill="#d1d3d4"/>
    </g>
    <g id="oject" transform="translate(820.923 878.048)">
      <g id="Grupo_881865" data-name="Grupo 881865" transform="translate(0 0)">
        <path id="Trazado_603917" data-name="Trazado 603917" d="M817.022,970.568l-2.713,2.713a2.063,2.063,0,0,0,.077,2.992c1.97,1.777,5.049,4.545,5.049,4.545H800.362a1.411,1.411,0,0,0-1.411,1.411V987.7a1.411,1.411,0,0,0,1.411,1.411h19.1l-5.051,4.535a2.064,2.064,0,0,0-.081,3l2.72,2.72a2.064,2.064,0,0,0,2.838.076l12.6-11.309a4.234,4.234,0,0,0,0-6.3l-12.63-11.339A2.064,2.064,0,0,0,817.022,970.568Z" transform="translate(-798.416 -969.429)" fill="#fcb913"/>
        <g id="Grupo_881864" data-name="Grupo 881864" transform="translate(1.616 11.401)">
          <path id="Trazado_603918" data-name="Trazado 603918" d="M964.591,1092.032h0a1.464,1.464,0,0,0,1.539,1.376h2.018a1.464,1.464,0,0,0,1.539-1.376h0a1.464,1.464,0,0,0-1.539-1.376H966.13A1.464,1.464,0,0,0,964.591,1092.032Z" transform="translate(-950.759 -1090.656)" fill="#ffd95f"/>
          <path id="Trazado_603919" data-name="Trazado 603919" d="M810.958,1092.032h0a1.464,1.464,0,0,0,1.539,1.376h8.418a1.464,1.464,0,0,0,1.539-1.376h0a1.464,1.464,0,0,0-1.539-1.376H812.5A1.464,1.464,0,0,0,810.958,1092.032Z" transform="translate(-810.958 -1090.656)" fill="#ffd95f"/>
        </g>
        <path id="Trazado_603920" data-name="Trazado 603920" d="M1007.282,981.831l-12.63-11.339a2.064,2.064,0,0,0-2.838.076l-.776.776L1004,982.98a2.689,2.689,0,0,1,0,4l-12.927,11.606.776.776a2.064,2.064,0,0,0,2.838.076l12.6-11.309A4.234,4.234,0,0,0,1007.282,981.831Z" transform="translate(-973.208 -969.429)" fill="#f88f1f"/>
        <path id="Trazado_603921" data-name="Trazado 603921" d="M962.484,1188.657a2.592,2.592,0,0,1-1.838-.761l-2.72-2.72a2.6,2.6,0,0,1,.1-3.771l5.051-4.535a.535.535,0,1,1,.715.8l-5.051,4.535a1.529,1.529,0,0,0-.06,2.219l2.72,2.72a1.529,1.529,0,0,0,2.1.057.535.535,0,1,1,.715.8A2.591,2.591,0,0,1,962.484,1188.657Z" transform="translate(-942.385 -1157.581)" fill="#231f20"/>
        <path id="Trazado_603922" data-name="Trazado 603922" d="M809.305,1093.947H794.956A1.949,1.949,0,0,1,793.01,1092v-5.474a1.949,1.949,0,0,1,1.946-1.946H797.9a.535.535,0,0,1,0,1.07h-2.939a.878.878,0,0,0-.877.877V1092a.878.878,0,0,0,.877.877h14.349a.535.535,0,1,1,0,1.07Z" transform="translate(-793.01 -1073.726)" fill="#231f20"/>
        <path id="Trazado_603923" data-name="Trazado 603923" d="M899.8,1085.65h-12a.535.535,0,1,1,0-1.07h12a.535.535,0,0,1,0,1.07Z" transform="translate(-878.781 -1073.726)" fill="#231f20"/>
        <path id="Trazado_603924" data-name="Trazado 603924" d="M960.5,973.581a.532.532,0,0,1-.358-.137l-2.418-2.178a2.6,2.6,0,0,1-.1-3.767l2.714-2.713a2.6,2.6,0,0,1,3.574-.1l2.855,2.563a.535.535,0,0,1-.715.8l-2.855-2.563a1.529,1.529,0,0,0-2.1.057l-2.714,2.713a1.529,1.529,0,0,0,.057,2.216l2.417,2.178a.535.535,0,0,1-.358.932Z" transform="translate(-942.112 -964.023)" fill="#231f20"/>
        <path id="Trazado_603925" data-name="Trazado 603925" d="M1064.661,1052.261a.535.535,0,0,1-.357-.933l9.129-8.2a3.7,3.7,0,0,0,0-5.505l-6.517-5.851a.535.535,0,0,1,.715-.8l6.517,5.851a4.769,4.769,0,0,1,0,7.1l-9.129,8.2A.533.533,0,0,1,1064.661,1052.261Z" transform="translate(-1039.716 -1024.827)" fill="#231f20"/>
      </g>
    </g>
    <path id="Trazado_628958" data-name="Trazado 628958" d="M0,0H152V58H0Z" transform="translate(1088 867.58)" fill="#294ddc"/>
    <path id="Trazado_628959" data-name="Trazado 628959" d="M3.133-4.219V0H1.156V-11.375H5.508a4.4,4.4,0,0,1,3.027.993A3.34,3.34,0,0,1,9.656-7.754a3.229,3.229,0,0,1-1.1,2.6,4.613,4.613,0,0,1-3.074.931Zm0-1.594H5.508a2.339,2.339,0,0,0,1.609-.5,1.823,1.823,0,0,0,.555-1.434,1.967,1.967,0,0,0-.562-1.473,2.168,2.168,0,0,0-1.547-.566H3.133Zm12.492-.906a4.7,4.7,0,0,0-.773-.062,1.741,1.741,0,0,0-1.758,1V0H11.2V-8.453h1.813l.047.945a2.139,2.139,0,0,1,1.906-1.1,1.777,1.777,0,0,1,.672.109ZM20.547.156A3.928,3.928,0,0,1,17.621-.98,4.124,4.124,0,0,1,16.5-4.008v-.234A5.072,5.072,0,0,1,16.988-6.5a3.716,3.716,0,0,1,1.371-1.551,3.625,3.625,0,0,1,1.969-.555A3.318,3.318,0,0,1,23-7.508a4.658,4.658,0,0,1,.941,3.117v.766H18.414a2.539,2.539,0,0,0,.7,1.656,2.1,2.1,0,0,0,1.543.609,2.571,2.571,0,0,0,2.125-1.055l1.023.977A3.418,3.418,0,0,1,22.449-.262,4.244,4.244,0,0,1,20.547.156ZM20.32-7.086a1.6,1.6,0,0,0-1.262.547,2.835,2.835,0,0,0-.613,1.523h3.617v-.141A2.307,2.307,0,0,0,21.555-6.6,1.586,1.586,0,0,0,20.32-7.086ZM32.813-4.141a5.033,5.033,0,0,1-.891,3.129A2.852,2.852,0,0,1,29.531.156,2.871,2.871,0,0,1,27.3-.758V3.25h-1.9v-11.7h1.75l.078.859a2.788,2.788,0,0,1,2.273-1.016,2.881,2.881,0,0,1,2.426,1.152,5.167,5.167,0,0,1,.879,3.2ZM30.922-4.3a3.526,3.526,0,0,0-.5-2.008,1.638,1.638,0,0,0-1.441-.742,1.747,1.747,0,0,0-1.672.961v3.75a1.763,1.763,0,0,0,1.688.984,1.636,1.636,0,0,0,1.418-.73A3.881,3.881,0,0,0,30.922-4.3ZM39.469,0a2.93,2.93,0,0,1-.219-.789,2.955,2.955,0,0,1-2.219.945A2.982,2.982,0,0,1,34.953-.57a2.325,2.325,0,0,1-.8-1.8,2.4,2.4,0,0,1,1-2.074,4.865,4.865,0,0,1,2.871-.723h1.164v-.555A1.481,1.481,0,0,0,38.82-6.77,1.456,1.456,0,0,0,37.7-7.164a1.672,1.672,0,0,0-1.062.324,1,1,0,0,0-.414.824h-1.9a2.107,2.107,0,0,1,.461-1.3,3.071,3.071,0,0,1,1.254-.949,4.4,4.4,0,0,1,1.77-.344,3.547,3.547,0,0,1,2.367.746,2.661,2.661,0,0,1,.906,2.1v3.813a4.321,4.321,0,0,0,.32,1.82V0ZM37.383-1.367a2.16,2.16,0,0,0,1.059-.273,1.827,1.827,0,0,0,.746-.734V-3.969H38.164a2.8,2.8,0,0,0-1.586.367,1.189,1.189,0,0,0-.531,1.039,1.109,1.109,0,0,0,.363.871A1.407,1.407,0,0,0,37.383-1.367ZM47.5-6.719a4.7,4.7,0,0,0-.773-.062,1.741,1.741,0,0,0-1.758,1V0h-1.9V-8.453h1.813l.047.945a2.139,2.139,0,0,1,1.906-1.1,1.777,1.777,0,0,1,.672.109ZM53.516,0A2.93,2.93,0,0,1,53.3-.789a2.955,2.955,0,0,1-2.219.945A2.982,2.982,0,0,1,49-.57a2.325,2.325,0,0,1-.8-1.8,2.4,2.4,0,0,1,1-2.074,4.865,4.865,0,0,1,2.871-.723h1.164v-.555a1.481,1.481,0,0,0-.367-1.051,1.456,1.456,0,0,0-1.117-.395,1.672,1.672,0,0,0-1.062.324,1,1,0,0,0-.414.824h-1.9a2.107,2.107,0,0,1,.461-1.3,3.071,3.071,0,0,1,1.254-.949,4.4,4.4,0,0,1,1.77-.344,3.547,3.547,0,0,1,2.367.746,2.661,2.661,0,0,1,.906,2.1v3.813a4.321,4.321,0,0,0,.32,1.82V0ZM51.43-1.367a2.16,2.16,0,0,0,1.059-.273,1.827,1.827,0,0,0,.746-.734V-3.969H52.211a2.8,2.8,0,0,0-1.586.367,1.189,1.189,0,0,0-.531,1.039,1.109,1.109,0,0,0,.363.871A1.407,1.407,0,0,0,51.43-1.367Zm9.164.008a1.716,1.716,0,0,0,1.18-.414,1.415,1.415,0,0,0,.5-1.023h1.789a2.789,2.789,0,0,1-.492,1.473A3.228,3.228,0,0,1,62.32-.242a3.725,3.725,0,0,1-1.7.4A3.6,3.6,0,0,1,57.8-.992a4.555,4.555,0,0,1-1.039-3.172v-.2A4.479,4.479,0,0,1,57.8-7.449a3.571,3.571,0,0,1,2.813-1.16,3.473,3.473,0,0,1,2.457.879,3.148,3.148,0,0,1,1,2.309H62.273a1.738,1.738,0,0,0-.5-1.2,1.6,1.6,0,0,0-1.184-.469,1.671,1.671,0,0,0-1.422.668,3.408,3.408,0,0,0-.508,2.027v.3a3.465,3.465,0,0,0,.5,2.051A1.669,1.669,0,0,0,60.594-1.359ZM67.516,0h-1.9V-8.453h1.9ZM65.5-10.648a1.008,1.008,0,0,1,.277-.727,1.048,1.048,0,0,1,.793-.289,1.061,1.061,0,0,1,.8.289,1,1,0,0,1,.281.727.977.977,0,0,1-.281.715,1.069,1.069,0,0,1-.8.285,1.056,1.056,0,0,1-.793-.285A.984.984,0,0,1,65.5-10.648ZM69.227-4.3a4.984,4.984,0,0,1,.492-2.238A3.6,3.6,0,0,1,71.1-8.074a3.9,3.9,0,0,1,2.047-.535,3.692,3.692,0,0,1,2.777,1.1,4.333,4.333,0,0,1,1.152,2.922l.008.445a5.029,5.029,0,0,1-.48,2.234A3.551,3.551,0,0,1,75.23-.383a3.925,3.925,0,0,1-2.066.539A3.667,3.667,0,0,1,70.3-1.035a4.563,4.563,0,0,1-1.074-3.176Zm1.9.164A3.406,3.406,0,0,0,71.664-2.1a1.752,1.752,0,0,0,1.5.738,1.733,1.733,0,0,0,1.5-.75A3.762,3.762,0,0,0,75.2-4.3a3.362,3.362,0,0,0-.551-2.031,1.759,1.759,0,0,0-1.5-.75,1.743,1.743,0,0,0-1.477.738A3.691,3.691,0,0,0,71.125-4.141ZM73.672-12h2.164L73.672-9.633l-1.523,0Zm6.781,3.547.055.977a3.039,3.039,0,0,1,2.461-1.133q2.641,0,2.688,3.023V0h-1.9V-5.477a1.741,1.741,0,0,0-.348-1.191,1.462,1.462,0,0,0-1.137-.387,1.829,1.829,0,0,0-1.711,1.039V0h-1.9V-8.453Z" transform="translate(1121 899.58)" fill="#fff"/>
    <g id="Background-2" data-name="Background" transform="translate(1040.938 881.104)">
      <path id="Trazado_603916-2" data-name="Trazado 603916" d="M804.49,1009.831l-12.63-11.339a2.064,2.064,0,0,0-2.838.076l-2.713,2.714a2.063,2.063,0,0,0,.077,2.992c1.97,1.777,5.049,4.545,5.049,4.545H772.362a1.411,1.411,0,0,0-1.411,1.411v5.474a1.411,1.411,0,0,0,1.411,1.411h19.1l-5.051,4.535a2.064,2.064,0,0,0-.081,3l2.72,2.72a2.064,2.064,0,0,0,2.838.076l12.6-11.309A4.234,4.234,0,0,0,804.49,1009.831Z" transform="translate(-770.951 -997.963)" fill="#d1d3d4"/>
    </g>
    <g id="oject-2" data-name="oject" transform="translate(1042.923 878.048)">
      <g id="Grupo_881865-2" data-name="Grupo 881865" transform="translate(0 0)">
        <path id="Trazado_603917-2" data-name="Trazado 603917" d="M817.022,970.568l-2.713,2.713a2.063,2.063,0,0,0,.077,2.992c1.97,1.777,5.049,4.545,5.049,4.545H800.362a1.411,1.411,0,0,0-1.411,1.411V987.7a1.411,1.411,0,0,0,1.411,1.411h19.1l-5.051,4.535a2.064,2.064,0,0,0-.081,3l2.72,2.72a2.064,2.064,0,0,0,2.838.076l12.6-11.309a4.234,4.234,0,0,0,0-6.3l-12.63-11.339A2.064,2.064,0,0,0,817.022,970.568Z" transform="translate(-798.416 -969.429)" fill="#fcb913"/>
        <g id="Grupo_881864-2" data-name="Grupo 881864" transform="translate(1.616 11.401)">
          <path id="Trazado_603918-2" data-name="Trazado 603918" d="M964.591,1092.032h0a1.464,1.464,0,0,0,1.539,1.376h2.018a1.464,1.464,0,0,0,1.539-1.376h0a1.464,1.464,0,0,0-1.539-1.376H966.13A1.464,1.464,0,0,0,964.591,1092.032Z" transform="translate(-950.759 -1090.656)" fill="#ffd95f"/>
          <path id="Trazado_603919-2" data-name="Trazado 603919" d="M810.958,1092.032h0a1.464,1.464,0,0,0,1.539,1.376h8.418a1.464,1.464,0,0,0,1.539-1.376h0a1.464,1.464,0,0,0-1.539-1.376H812.5A1.464,1.464,0,0,0,810.958,1092.032Z" transform="translate(-810.958 -1090.656)" fill="#ffd95f"/>
        </g>
        <path id="Trazado_603920-2" data-name="Trazado 603920" d="M1007.282,981.831l-12.63-11.339a2.064,2.064,0,0,0-2.838.076l-.776.776L1004,982.98a2.689,2.689,0,0,1,0,4l-12.927,11.606.776.776a2.064,2.064,0,0,0,2.838.076l12.6-11.309A4.234,4.234,0,0,0,1007.282,981.831Z" transform="translate(-973.208 -969.429)" fill="#f88f1f"/>
        <path id="Trazado_603921-2" data-name="Trazado 603921" d="M962.484,1188.657a2.592,2.592,0,0,1-1.838-.761l-2.72-2.72a2.6,2.6,0,0,1,.1-3.771l5.051-4.535a.535.535,0,1,1,.715.8l-5.051,4.535a1.529,1.529,0,0,0-.06,2.219l2.72,2.72a1.529,1.529,0,0,0,2.1.057.535.535,0,1,1,.715.8A2.591,2.591,0,0,1,962.484,1188.657Z" transform="translate(-942.385 -1157.581)" fill="#231f20"/>
        <path id="Trazado_603922-2" data-name="Trazado 603922" d="M809.305,1093.947H794.956A1.949,1.949,0,0,1,793.01,1092v-5.474a1.949,1.949,0,0,1,1.946-1.946H797.9a.535.535,0,0,1,0,1.07h-2.939a.878.878,0,0,0-.877.877V1092a.878.878,0,0,0,.877.877h14.349a.535.535,0,1,1,0,1.07Z" transform="translate(-793.01 -1073.726)" fill="#231f20"/>
        <path id="Trazado_603923-2" data-name="Trazado 603923" d="M899.8,1085.65h-12a.535.535,0,1,1,0-1.07h12a.535.535,0,0,1,0,1.07Z" transform="translate(-878.781 -1073.726)" fill="#231f20"/>
        <path id="Trazado_603924-2" data-name="Trazado 603924" d="M960.5,973.581a.532.532,0,0,1-.358-.137l-2.418-2.178a2.6,2.6,0,0,1-.1-3.767l2.714-2.713a2.6,2.6,0,0,1,3.574-.1l2.855,2.563a.535.535,0,0,1-.715.8l-2.855-2.563a1.529,1.529,0,0,0-2.1.057l-2.714,2.713a1.529,1.529,0,0,0,.057,2.216l2.417,2.178a.535.535,0,0,1-.358.932Z" transform="translate(-942.112 -964.023)" fill="#231f20"/>
        <path id="Trazado_603925-2" data-name="Trazado 603925" d="M1064.661,1052.261a.535.535,0,0,1-.357-.933l9.129-8.2a3.7,3.7,0,0,0,0-5.505l-6.517-5.851a.535.535,0,0,1,.715-.8l6.517,5.851a4.769,4.769,0,0,1,0,7.1l-9.129,8.2A.533.533,0,0,1,1064.661,1052.261Z" transform="translate(-1039.716 -1024.827)" fill="#231f20"/>
      </g>
    </g>
    <path id="Trazado_603926" data-name="Trazado 603926" d="M-7954.5-10731.68v11.521H-7244v-49.442" transform="translate(8408 11707.58)" fill="none" stroke="#0f1e52" stroke-linecap="round" stroke-width="1.5"/>
    <g id="Background-3" data-name="Background" transform="translate(441.027 973.08) rotate(-90)">
      <path id="Trazado_603916-3" data-name="Trazado 603916" d="M804.49,1009.831l-12.63-11.339a2.064,2.064,0,0,0-2.838.076l-2.713,2.714a2.063,2.063,0,0,0,.077,2.992c1.97,1.777,5.049,4.545,5.049,4.545H772.362a1.411,1.411,0,0,0-1.411,1.411v5.474a1.411,1.411,0,0,0,1.411,1.411h19.1l-5.051,4.535a2.064,2.064,0,0,0-.081,3l2.72,2.72a2.064,2.064,0,0,0,2.838.076l12.6-11.309A4.234,4.234,0,0,0,804.49,1009.831Z" transform="translate(-770.951 -997.963)" fill="#d1d3d4"/>
    </g>
    <g id="oject-3" data-name="oject" transform="translate(437.971 971.094) rotate(-90)">
      <g id="Grupo_881865-3" data-name="Grupo 881865" transform="translate(0 0)">
        <path id="Trazado_603917-3" data-name="Trazado 603917" d="M817.022,970.568l-2.713,2.713a2.063,2.063,0,0,0,.077,2.992c1.97,1.777,5.049,4.545,5.049,4.545H800.362a1.411,1.411,0,0,0-1.411,1.411V987.7a1.411,1.411,0,0,0,1.411,1.411h19.1l-5.051,4.535a2.064,2.064,0,0,0-.081,3l2.72,2.72a2.064,2.064,0,0,0,2.838.076l12.6-11.309a4.234,4.234,0,0,0,0-6.3l-12.63-11.339A2.064,2.064,0,0,0,817.022,970.568Z" transform="translate(-798.416 -969.429)" fill="#fcb913"/>
        <g id="Grupo_881864-3" data-name="Grupo 881864" transform="translate(1.616 11.401)">
          <path id="Trazado_603918-3" data-name="Trazado 603918" d="M964.591,1092.032h0a1.464,1.464,0,0,0,1.539,1.376h2.018a1.464,1.464,0,0,0,1.539-1.376h0a1.464,1.464,0,0,0-1.539-1.376H966.13A1.464,1.464,0,0,0,964.591,1092.032Z" transform="translate(-950.759 -1090.656)" fill="#ffd95f"/>
          <path id="Trazado_603919-3" data-name="Trazado 603919" d="M810.958,1092.032h0a1.464,1.464,0,0,0,1.539,1.376h8.418a1.464,1.464,0,0,0,1.539-1.376h0a1.464,1.464,0,0,0-1.539-1.376H812.5A1.464,1.464,0,0,0,810.958,1092.032Z" transform="translate(-810.958 -1090.656)" fill="#ffd95f"/>
        </g>
        <path id="Trazado_603920-3" data-name="Trazado 603920" d="M1007.282,981.831l-12.63-11.339a2.064,2.064,0,0,0-2.838.076l-.776.776L1004,982.98a2.689,2.689,0,0,1,0,4l-12.927,11.606.776.776a2.064,2.064,0,0,0,2.838.076l12.6-11.309A4.234,4.234,0,0,0,1007.282,981.831Z" transform="translate(-973.208 -969.429)" fill="#f88f1f"/>
        <path id="Trazado_603921-3" data-name="Trazado 603921" d="M962.484,1188.657a2.592,2.592,0,0,1-1.838-.761l-2.72-2.72a2.6,2.6,0,0,1,.1-3.771l5.051-4.535a.535.535,0,1,1,.715.8l-5.051,4.535a1.529,1.529,0,0,0-.06,2.219l2.72,2.72a1.529,1.529,0,0,0,2.1.057.535.535,0,1,1,.715.8A2.591,2.591,0,0,1,962.484,1188.657Z" transform="translate(-942.385 -1157.581)" fill="#231f20"/>
        <path id="Trazado_603922-3" data-name="Trazado 603922" d="M809.305,1093.947H794.956A1.949,1.949,0,0,1,793.01,1092v-5.474a1.949,1.949,0,0,1,1.946-1.946H797.9a.535.535,0,0,1,0,1.07h-2.939a.878.878,0,0,0-.877.877V1092a.878.878,0,0,0,.877.877h14.349a.535.535,0,1,1,0,1.07Z" transform="translate(-793.01 -1073.726)" fill="#231f20"/>
        <path id="Trazado_603923-3" data-name="Trazado 603923" d="M899.8,1085.65h-12a.535.535,0,1,1,0-1.07h12a.535.535,0,0,1,0,1.07Z" transform="translate(-878.781 -1073.726)" fill="#231f20"/>
        <path id="Trazado_603924-3" data-name="Trazado 603924" d="M960.5,973.581a.532.532,0,0,1-.358-.137l-2.418-2.178a2.6,2.6,0,0,1-.1-3.767l2.714-2.713a2.6,2.6,0,0,1,3.574-.1l2.855,2.563a.535.535,0,0,1-.715.8l-2.855-2.563a1.529,1.529,0,0,0-2.1.057l-2.714,2.713a1.529,1.529,0,0,0,.057,2.216l2.417,2.178a.535.535,0,0,1-.358.932Z" transform="translate(-942.112 -964.023)" fill="#231f20"/>
        <path id="Trazado_603925-3" data-name="Trazado 603925" d="M1064.661,1052.261a.535.535,0,0,1-.357-.933l9.129-8.2a3.7,3.7,0,0,0,0-5.505l-6.517-5.851a.535.535,0,0,1,.715-.8l6.517,5.851a4.769,4.769,0,0,1,0,7.1l-9.129,8.2A.533.533,0,0,1,1064.661,1052.261Z" transform="translate(-1039.716 -1024.827)" fill="#231f20"/>
      </g>
    </g>
    <g id="Background-4" data-name="Background" transform="translate(533 881.104)">
      <path id="Trazado_603916-4" data-name="Trazado 603916" d="M804.49,1009.831l-12.63-11.339a2.064,2.064,0,0,0-2.838.076l-2.713,2.714a2.063,2.063,0,0,0,.077,2.992c1.97,1.777,5.049,4.545,5.049,4.545H772.362a1.411,1.411,0,0,0-1.411,1.411v5.474a1.411,1.411,0,0,0,1.411,1.411h19.1l-5.051,4.535a2.064,2.064,0,0,0-.081,3l2.72,2.72a2.064,2.064,0,0,0,2.838.076l12.6-11.309A4.234,4.234,0,0,0,804.49,1009.831Z" transform="translate(-770.951 -997.963)" fill="#d1d3d4"/>
    </g>
    <g id="oject-4" data-name="oject" transform="translate(534.986 878.049)">
      <g id="Grupo_881865-4" data-name="Grupo 881865" transform="translate(0 0)">
        <path id="Trazado_603917-4" data-name="Trazado 603917" d="M817.022,970.568l-2.713,2.713a2.063,2.063,0,0,0,.077,2.992c1.97,1.777,5.049,4.545,5.049,4.545H800.362a1.411,1.411,0,0,0-1.411,1.411V987.7a1.411,1.411,0,0,0,1.411,1.411h19.1l-5.051,4.535a2.064,2.064,0,0,0-.081,3l2.72,2.72a2.064,2.064,0,0,0,2.838.076l12.6-11.309a4.234,4.234,0,0,0,0-6.3l-12.63-11.339A2.064,2.064,0,0,0,817.022,970.568Z" transform="translate(-798.416 -969.429)" fill="#fcb913"/>
        <g id="Grupo_881864-4" data-name="Grupo 881864" transform="translate(1.616 11.401)">
          <path id="Trazado_603918-4" data-name="Trazado 603918" d="M964.591,1092.032h0a1.464,1.464,0,0,0,1.539,1.376h2.018a1.464,1.464,0,0,0,1.539-1.376h0a1.464,1.464,0,0,0-1.539-1.376H966.13A1.464,1.464,0,0,0,964.591,1092.032Z" transform="translate(-950.759 -1090.656)" fill="#ffd95f"/>
          <path id="Trazado_603919-4" data-name="Trazado 603919" d="M810.958,1092.032h0a1.464,1.464,0,0,0,1.539,1.376h8.418a1.464,1.464,0,0,0,1.539-1.376h0a1.464,1.464,0,0,0-1.539-1.376H812.5A1.464,1.464,0,0,0,810.958,1092.032Z" transform="translate(-810.958 -1090.656)" fill="#ffd95f"/>
        </g>
        <path id="Trazado_603920-4" data-name="Trazado 603920" d="M1007.282,981.831l-12.63-11.339a2.064,2.064,0,0,0-2.838.076l-.776.776L1004,982.98a2.689,2.689,0,0,1,0,4l-12.927,11.606.776.776a2.064,2.064,0,0,0,2.838.076l12.6-11.309A4.234,4.234,0,0,0,1007.282,981.831Z" transform="translate(-973.208 -969.429)" fill="#f88f1f"/>
        <path id="Trazado_603921-4" data-name="Trazado 603921" d="M962.484,1188.657a2.592,2.592,0,0,1-1.838-.761l-2.72-2.72a2.6,2.6,0,0,1,.1-3.771l5.051-4.535a.535.535,0,1,1,.715.8l-5.051,4.535a1.529,1.529,0,0,0-.06,2.219l2.72,2.72a1.529,1.529,0,0,0,2.1.057.535.535,0,1,1,.715.8A2.591,2.591,0,0,1,962.484,1188.657Z" transform="translate(-942.385 -1157.581)" fill="#231f20"/>
        <path id="Trazado_603922-4" data-name="Trazado 603922" d="M809.305,1093.947H794.956A1.949,1.949,0,0,1,793.01,1092v-5.474a1.949,1.949,0,0,1,1.946-1.946H797.9a.535.535,0,0,1,0,1.07h-2.939a.878.878,0,0,0-.877.877V1092a.878.878,0,0,0,.877.877h14.349a.535.535,0,1,1,0,1.07Z" transform="translate(-793.01 -1073.726)" fill="#231f20"/>
        <path id="Trazado_603923-4" data-name="Trazado 603923" d="M899.8,1085.65h-12a.535.535,0,1,1,0-1.07h12a.535.535,0,0,1,0,1.07Z" transform="translate(-878.781 -1073.726)" fill="#231f20"/>
        <path id="Trazado_603924-4" data-name="Trazado 603924" d="M960.5,973.581a.532.532,0,0,1-.358-.137l-2.418-2.178a2.6,2.6,0,0,1-.1-3.767l2.714-2.713a2.6,2.6,0,0,1,3.574-.1l2.855,2.563a.535.535,0,0,1-.715.8l-2.855-2.563a1.529,1.529,0,0,0-2.1.057l-2.714,2.713a1.529,1.529,0,0,0,.057,2.216l2.417,2.178a.535.535,0,0,1-.358.932Z" transform="translate(-942.112 -964.023)" fill="#231f20"/>
        <path id="Trazado_603925-4" data-name="Trazado 603925" d="M1064.661,1052.261a.535.535,0,0,1-.357-.933l9.129-8.2a3.7,3.7,0,0,0,0-5.505l-6.517-5.851a.535.535,0,0,1,.715-.8l6.517,5.851a4.769,4.769,0,0,1,0,7.1l-9.129,8.2A.533.533,0,0,1,1064.661,1052.261Z" transform="translate(-1039.716 -1024.827)" fill="#231f20"/>
      </g>
    </g>
  </g>
</svg>
