<svg xmlns="http://www.w3.org/2000/svg" width="56" height="49" viewBox="0 0 56 49">
  <g id="Grupo_947592" data-name="Grupo 947592" transform="translate(-390 -2940)">
    <path id="Trazado_628956" data-name="Trazado 628956" d="M0,0H56V49H0Z" transform="translate(390 2940)" fill="#6aceae"/>
    <path id="Trazado_628957" data-name="Trazado 628957" d="M13.7-7.4l6.768-22.456h6.85L16.919,0H10.5L.144-29.859H6.973ZM30.023-2.912a2.984,2.984,0,0,1,.954-2.3,3.384,3.384,0,0,1,2.389-.882,3.411,3.411,0,0,1,2.41.882,2.984,2.984,0,0,1,.954,2.3,2.943,2.943,0,0,1-.943,2.266,3.426,3.426,0,0,1-2.42.872,3.4,3.4,0,0,1-2.4-.872A2.943,2.943,0,0,1,30.023-2.912Zm0-16.8a2.984,2.984,0,0,1,.954-2.3,3.384,3.384,0,0,1,2.389-.882,3.411,3.411,0,0,1,2.41.882,2.984,2.984,0,0,1,.954,2.3,2.943,2.943,0,0,1-.943,2.266,3.426,3.426,0,0,1-2.42.872,3.4,3.4,0,0,1-2.4-.872A2.943,2.943,0,0,1,30.023-19.708Z" transform="translate(399 2973)" fill="#12263f"/>
  </g>
</svg>
