<svg xmlns="http://www.w3.org/2000/svg" xmlns:xlink="http://www.w3.org/1999/xlink" width="400" height="503.516" viewBox="0 0 400 503.516">
  <defs>
    <clipPath id="clip-path">
      <rect id="Rectángulo_297811" data-name="Rectángulo 297811" width="338.439" height="171.02" fill="#fff4d6"/>
    </clipPath>
    <clipPath id="clip-path-2">
      <rect id="Rectángulo_297811-2" data-name="Rectángulo 297811" width="112.228" height="56.711" fill="#f3c035"/>
    </clipPath>
    <clipPath id="clip-path-3">
      <rect id="Rectángulo_297811-3" data-name="Rectángulo 297811" width="198.004" height="100.055" fill="#6aceae"/>
    </clipPath>
  </defs>
  <g id="Grupo_880481" data-name="Grupo 880481" transform="translate(13.052)">
    <g id="Grupo_878004" data-name="Grupo 878004" transform="translate(48.509 0.001)">
      <g id="Grupo_877996" data-name="Grupo 877996" transform="translate(0 -0.001)" clip-path="url(#clip-path)">
        <path id="Trazado_599836" data-name="Trazado 599836" d="M169.22,171.02A169.219,169.219,0,0,1,0,1.8C0,1.2.017.6.023,0H338.416c.007.6.023,1.2.023,1.8A169.219,169.219,0,0,1,169.22,171.02" transform="translate(0 0)" fill="#fff4d6"/>
      </g>
    </g>
    <g id="Grupo_947610" data-name="Grupo 947610" transform="translate(59.948 279.991) rotate(-90)">
      <g id="Grupo_877996-2" data-name="Grupo 877996" transform="translate(0 -0.001)" clip-path="url(#clip-path-2)">
        <path id="Trazado_599836-2" data-name="Trazado 599836" d="M56.114,56.711A56.114,56.114,0,0,1,0,.6C0,.4.006.2.008,0H112.22c0,.2.008.4.008.6A56.114,56.114,0,0,1,56.114,56.711" transform="translate(0 0)" fill="#f3c035"/>
      </g>
    </g>
    <g id="Grupo_947609" data-name="Grupo 947609" transform="translate(-13.052 403.46)">
      <g id="Grupo_877996-3" data-name="Grupo 877996" transform="translate(0 0)" clip-path="url(#clip-path-3)">
        <path id="Trazado_599836-3" data-name="Trazado 599836" d="M99,0A99,99,0,0,0,0,99c0,.352.01.7.014,1.053H197.991c0-.352.014-.7.014-1.053A99,99,0,0,0,99,0" transform="translate(0 0)" fill="#6aceae"/>
      </g>
    </g>
    <g id="Grupo_880013" data-name="Grupo 880013" transform="translate(39.64 0)">
      <path id="Trazado_600059" data-name="Trazado 600059" d="M75.81,187.906c-.948,1.7-6.284,16.027.159,30.477s22.422,4.4,22.422,4.4V196.115Z" transform="translate(-20.478 -166.641)" fill="#f48462"/>
      <path id="Trazado_600060" data-name="Trazado 600060" d="M114.779,288.587s-22.3,4.523-40.485-7.059-13.268-82.3-13.268-82.3H89.046l16.469,38.813Z" transform="translate(-3.44 -147.484)" fill="#f48462"/>
      <path id="Trazado_600061" data-name="Trazado 600061" d="M102.786,341.175v22.618l-42.574-1.6V341.175Z" transform="translate(9.115 92.74)" fill="#f48462"/>
      <path id="Trazado_600062" data-name="Trazado 600062" d="M63.11,340.228v22.618l-39.41-1.6V340.228Z" transform="translate(147.095 91.139)" fill="#f48462"/>
      <path id="Trazado_600063" data-name="Trazado 600063" d="M85.741,249.537S55.021,298.193,36.813,376.1C20.2,447.154,16.626,505.925,16.626,505.925H88.46s7.994-57.939,10.121-80.862,9.213-53.61,9.213-53.61S117.65,503.685,120,505.925s71.118.493,70.38-2.544-14.493-211.537-16.356-225.995c-5.724-44.445-88.284-27.849-88.284-27.849" transform="translate(38.863 -67.474)" fill="#a76fa8"/>
      <path id="Trazado_600064" data-name="Trazado 600064" d="M15.03,391.048c0,3.99,1.341,8.556,4.087,9.706s24.969,3.546,44.416,1.852c18.615-1.629,22.478-3,23.851-4.693.67-.861-.638-4.854-2.14-8.718-.094-.191-.159-.414-.253-.606-.767-1.949-1.564-3.831-2.14-5.172a21.889,21.889,0,0,0-2.108-3.672c-2.011-2.778-6-8.527-7.024-11.5-1.341-3.96-3.384-12.517-4.757-16.539a7.353,7.353,0,0,0-4.725-4.79S25.95,344.3,23.2,346.6c-2.714,2.267-4.087,21.105-4.087,23.948v2.843c0,2.649-1.82,7.886-3,12.229-.318,1.085-.573,2.108-.765,3.034a12.2,12.2,0,0,0-.32,2.393" transform="translate(145.982 100.322)" fill="#5d2866"/>
      <path id="Trazado_600065" data-name="Trazado 600065" d="M58.851,398.141c2.555,1.053,111.212,4.022,113.735,0,.767-1.214,1.311-5.333,1.661-10.506.894-12.2.894-30.334.894-30.334a71.743,71.743,0,0,0,.638-9.068c-.127-2.84-52.4-1.755-52.4-1.755L89.409,373.267a65.2,65.2,0,0,0-19.511,0c-5.4.864-8.877,7.471-10.6,13.7-1.532,5.525-1.661,10.664-.447,11.176" transform="translate(-58.033 101.371)" fill="#5d2866"/>
      <path id="Trazado_600066" data-name="Trazado 600066" d="M59.428,372.564c2.555,1.053,111.212,4.022,113.735,0,.767-1.214,1.311-5.333,1.661-10.506-20.658,1.47-71.492,4.249-114.949-.67-1.532,5.525-1.661,10.664-.447,11.176" transform="translate(-58.61 126.948)" fill="#fff"/>
      <path id="Trazado_600067" data-name="Trazado 600067" d="M15.03,365.927c0,3.99,1.341,8.556,4.087,9.706s24.969,3.546,44.416,1.852c18.615-1.629,22.478-3,23.851-4.693.67-.862-.638-4.854-2.14-8.718-17.274,1.309-48.47,2.49-69.128-3.575-.318,1.085-.573,2.108-.765,3.034a12.2,12.2,0,0,0-.32,2.393" transform="translate(145.982 125.444)" fill="#fff"/>
      <path id="Trazado_600068" data-name="Trazado 600068" d="M74.666,338.517a.813.813,0,0,0,.8-.861c-.022-.285-2.262-28.754-2.913-41.373-.646-12.6-.676-18.628-.676-18.69a.792.792,0,0,0-.471-.724l-23.273-10.36a.8.8,0,1,0-.649,1.457l22.8,10.15c.019,1.712.127,7.687.673,18.254.649,12.635,2.889,41.125,2.913,41.414a.8.8,0,0,0,.794.735" transform="translate(71.988 -33.738)" fill="#ffba57"/>
      <path id="Trazado_600069" data-name="Trazado 600069" d="M55.231,360.938a.8.8,0,0,0,.207-1.57c-.625-.17-15.414-4.111-23.256-2.752l-4.609.792c4.195-3.072,12.727-8.478,18.023-6.225a.8.8,0,1,0,.627-1.467c-8.1-3.47-21.606,7.918-22.177,8.408a.8.8,0,0,0-.2.948.79.79,0,0,0,.859.447l7.754-1.33c7.5-1.29,22.422,2.679,22.57,2.719a.8.8,0,0,0,.207.03" transform="translate(153.998 106.084)" fill="#ffba57"/>
      <path id="Trazado_600070" data-name="Trazado 600070" d="M80.406,361.466c.083-.005,19.444-2,19.444-2a.8.8,0,0,0,.528-1.314L93.623,350.2a.8.8,0,0,0-1.217,1.037l5.772,6.8-17.853,1.836a.8.8,0,0,0,.081,1.594" transform="translate(-40.886 107.547)" fill="#ffba57"/>
      <path id="Trazado_600071" data-name="Trazado 600071" d="M83.026,207.431s21.194-.073,32.631,11.071S117.48,338.7,117.48,338.7s-39.526,4.636-61.159,0S21.3,324.61,21.3,324.61,28.28,223.456,34.228,212.724s48.8-5.293,48.8-5.293" transform="translate(95.408 -135.93)" fill="#ffba57"/>
      <path id="Trazado_600072" data-name="Trazado 600072" d="M57.877,206.775l-.121,13.707s-5.229,4.321-11.844,4.324c-8.933,0-11.967-6.909-11.967-6.909l.339-16.065Z" transform="translate(124.744 -143.074)" fill="#f48462"/>
      <path id="Trazado_600073" data-name="Trazado 600073" d="M57.53,205.711s-5.4,11.087-15.513,9.4c-8.152-1.357-8.072-12.861-8.072-12.861Z" transform="translate(125.092 -142.365)"/>
      <path id="Trazado_600074" data-name="Trazado 600074" d="M28.641,195.554S23.5,220,31.274,231.866s18.192,8.6,22.9,5.107A20.957,20.957,0,0,0,61.91,225.6s8.583,1.86,11.572-5.113c3.139-7.326-2.122-13.367-6.424-13.793s-4.817.353-4.817.353l1.4-7.856s-25.7-29.543-35-3.637" transform="translate(126.957 -171.705)" fill="#f48462"/>
      <path id="Trazado_600075" data-name="Trazado 600075" d="M56.751,194.2s-12.958-5.789-14.143,4.3c-1.376,11.687,12.616,12.035,12.616,12.035Z" transform="translate(102.802 -158.789)" fill="#f48462"/>
      <path id="Trazado_600076" data-name="Trazado 600076" d="M49.723,202.79a.821.821,0,0,0,.39-.1.8.8,0,0,0,.3-1.088l-4.23-7.541a.8.8,0,0,0-1.395.784l4.232,7.541a.8.8,0,0,0,.7.407" transform="translate(103.166 -156.917)"/>
      <path id="Trazado_600077" data-name="Trazado 600077" d="M29.041,201.89a.774.774,0,0,0,.509-.183l6.742-5.589a.8.8,0,0,0,.105-1.123.8.8,0,0,0-1.123-.108l-6.742,5.589a.8.8,0,0,0,.509,1.413" transform="translate(161.393 -155.132)"/>
      <path id="Trazado_600078" data-name="Trazado 600078" d="M33.144,200.7a.807.807,0,0,0,.63-.307.8.8,0,0,0-.14-1.123l-3.872-3.015a.8.8,0,0,0-.983,1.26l3.874,3.018a.811.811,0,0,0,.49.167" transform="translate(163.41 -152.791)"/>
      <path id="Trazado_600079" data-name="Trazado 600079" d="M45.973,197.188H49.7a.8.8,0,1,0,0-1.6H45.973a.8.8,0,0,0,0,1.6" transform="translate(101.888 -153.639)"/>
      <path id="Trazado_600080" data-name="Trazado 600080" d="M36.589,198.663a.8.8,0,0,0,.794-.716l.447-4.2a.8.8,0,0,0-1.588-.17l-.444,4.205a.8.8,0,0,0,.708.878c.027,0,.057.005.083.005" transform="translate(139.81 -158.254)"/>
      <path id="Trazado_600081" data-name="Trazado 600081" d="M42.571,198.05a.8.8,0,0,0,.792-.716l.447-4.2a.8.8,0,0,0-.708-.878.807.807,0,0,0-.878.708l-.447,4.205a.8.8,0,0,0,.708.878c.03,0,.057.005.086.005" transform="translate(117.733 -159.288)"/>
      <path id="Trazado_600082" data-name="Trazado 600082" d="M39.894,207.049a.823.823,0,0,0,.792-.918,22.384,22.384,0,0,1,1.354-11.348.8.8,0,0,0-1.451-.662,23.539,23.539,0,0,0-1.483,12.247.8.8,0,0,0,.789.681" transform="translate(127.273 -156.92)"/>
      <path id="Trazado_600083" data-name="Trazado 600083" d="M41.3,192.9a.777.777,0,0,0,.366-.092,6.985,6.985,0,0,1,4.1-.224.8.8,0,0,0,.393-1.545c-.124-.035-3.075-.77-5.223.353a.8.8,0,0,0-.342,1.077.809.809,0,0,0,.711.431" transform="translate(118.226 -161.797)"/>
      <path id="Trazado_600084" data-name="Trazado 600084" d="M39.821,194.384a.8.8,0,0,0,.571-1.357c-1.693-1.734-4.728-1.955-4.857-1.963a.831.831,0,0,0-.848.74.8.8,0,0,0,.743.851,6.96,6.96,0,0,1,3.82,1.486.791.791,0,0,0,.571.242" transform="translate(140.008 -161.298)"/>
      <path id="Trazado_600085" data-name="Trazado 600085" d="M55.7,217.542s-6.241-4.222-5.867-10.627,1.78-8.039,1.78-8.039a20.409,20.409,0,0,1-14.4,1.007c-9.033-2.722-14.014-15.136-9.087-18.521,5.492-3.775,18.838,1.537,18.838,1.537s13.984-.767,23.1,10.336-1.1,24.183-1.1,24.183-2.7-5.724-13.265.124" transform="translate(129.66 -180.008)" fill="#431949"/>
      <path id="Trazado_600086" data-name="Trazado 600086" d="M39.085,203.927c3.549,0,6.405-2.91,6.545-3.056a.8.8,0,1,0-1.147-1.109c-.035.035-3.36,3.4-6.766,2.367a.8.8,0,1,0-.466,1.524,6.147,6.147,0,0,0,1.833.275" transform="translate(129.384 -146.99)"/>
      <path id="Trazado_600087" data-name="Trazado 600087" d="M48.7,183.44s-6.007,5.49-7.415,12.18a30.543,30.543,0,0,0,0,12.355l1.352-.016s3.239-16.224,8.473-17.713-2.41-6.806-2.41-6.806" transform="translate(111.606 -174.2)" fill="#431949"/>
      <path id="Trazado_600088" data-name="Trazado 600088" d="M4.755,207.353s35.848,2.951,51.4,27.909,16.752,47.382,16.752,47.382l-55.863-7.81Z" transform="translate(188.302 -133.73)" fill="#ffba57"/>
      <path id="Trazado_600089" data-name="Trazado 600089" d="M78.734,276.473l-29.206,1.241-1.944-51.79S76.265,207.8,87.88,206.4s-9.146,70.068-9.146,70.068" transform="translate(54.491 -135.37)" fill="#ffba57"/>
      <path id="Trazado_600090" data-name="Trazado 600090" d="M111.654,288.543s3.277,41.335-27.263,37.046C49.714,320.722,31.7,249.143,31.7,249.143l-10.344-6.362s1.984,8.166-6.305,3.772a12.029,12.029,0,0,1-6.634-12.63l9.7-16.6S3.8,204.031,8.029,203.36c6.534-1.034,26.888,12.554,26.888,12.554s-1.117-8.19,3.616-6.833c5.11,1.462,6.914,16.566,6.914,16.566l54.38,60.08Z" transform="translate(142.745 -140.584)" fill="#f48462"/>
      <path id="Trazado_600091" data-name="Trazado 600091" d="M47.019,222.626a.8.8,0,0,0,.652-1.263l-3.794-5.342a.8.8,0,1,0-1.3.926l2.038,2.867-2.945-1.384a.8.8,0,1,0-.678,1.449l5.692,2.671a.849.849,0,0,0,.339.075" transform="translate(117.079 -119.629)"/>
      <path id="Trazado_600092" data-name="Trazado 600092" d="M43.353,216.805a.8.8,0,0,0,.506-1.416L33.9,207.212a.8.8,0,0,0-1.012,1.236l9.956,8.177a.8.8,0,0,0,.506.18" transform="translate(142.094 -134.277)"/>
      <path id="Trazado_600093" data-name="Trazado 600093" d="M44.85,212.3a.8.8,0,0,0,.45-1.462l-3.694-2.49a.8.8,0,0,0-.894,1.325l3.691,2.491a.814.814,0,0,0,.447.137" transform="translate(119.694 -132.274)"/>
      <path id="Trazado_600094" data-name="Trazado 600094" d="M39.988,281.129a.8.8,0,0,0,.458-1.454,39.591,39.591,0,0,1-15.107-20.586.8.8,0,0,0-1.551.385,40.467,40.467,0,0,0,15.745,21.509.794.794,0,0,0,.455.145" transform="translate(169.24 -47.199)" fill="#ffba57"/>
      <path id="Trazado_600095" data-name="Trazado 600095" d="M79.283,222.669l50.64-1.338a5.386,5.386,0,0,0,5.242-5.525l-.678-25.728a5.391,5.391,0,0,0-5.527-5.239l-50.637,1.335A5.387,5.387,0,0,0,73.08,191.7l.681,25.725a5.384,5.384,0,0,0,5.522,5.242" transform="translate(-57.907 -171.834)" fill="#5d2866"/>
      <path id="Trazado_600096" data-name="Trazado 600096" d="M79.3,217.638l40.907-1.08A4.442,4.442,0,0,0,124.536,212l-.573-21.727a4.444,4.444,0,0,0-4.558-4.321L78.5,187.032a4.443,4.443,0,0,0-4.324,4.558l.576,21.727a4.44,4.44,0,0,0,4.555,4.321" transform="translate(-50.219 -169.952)" fill="#fff"/>
      <path id="Trazado_600097" data-name="Trazado 600097" d="M93.484,193.623a2.292,2.292,0,1,0,2.232-2.353,2.294,2.294,0,0,0-2.232,2.353" transform="translate(-75.744 -160.95)" fill="#a76fa8"/>
      <path id="Trazado_600098" data-name="Trazado 600098" d="M86.914,219.292s4.461-15.979,1.373-21.178S77.65,187.6,71.132,189.057s4.461,10.438,4.461,10.438-6.863,15.131-2.4,22.287,13.723-2.49,13.723-2.49" transform="translate(-1.309 -165.108)" fill="#f48462"/>
      <path id="Trazado_600099" data-name="Trazado 600099" d="M78.44,212.526a.8.8,0,0,0,.275-1.548c-4.187-1.537-3.39-10.581-2.727-13.933a.8.8,0,1,0-1.567-.31c-.108.547-2.574,13.421,3.745,15.739a.762.762,0,0,0,.275.051" transform="translate(-4.075 -152.791)"/>
    </g>
    <g id="Grupo_879158" data-name="Grupo 879158" transform="translate(337.49 367.795)">
      <path id="Trazado_597847" data-name="Trazado 597847" d="M7.428,3.714A3.714,3.714,0,1,1,3.714,0,3.714,3.714,0,0,1,7.428,3.714" transform="translate(0)" fill="#0f1e52"/>
      <path id="Trazado_599892" data-name="Trazado 599892" d="M7.428,3.714A3.714,3.714,0,1,1,3.714,0,3.714,3.714,0,0,1,7.428,3.714" transform="translate(8.503 15.061)" fill="#0f1e52"/>
      <path id="Trazado_597848" data-name="Trazado 597848" d="M38.231,3.714A3.714,3.714,0,1,1,34.517,0a3.714,3.714,0,0,1,3.714,3.714" transform="translate(-14.04)" fill="#0f1e52"/>
      <path id="Trazado_599891" data-name="Trazado 599891" d="M38.231,3.714A3.714,3.714,0,1,1,34.517,0a3.714,3.714,0,0,1,3.714,3.714" transform="translate(-5.536 15.061)" fill="#0f1e52"/>
      <path id="Trazado_599886" data-name="Trazado 599886" d="M53.838,28.1a3.714,3.714,0,1,1-3.714-3.714A3.714,3.714,0,0,1,53.838,28.1" transform="translate(-12.884 -24.386)" fill="#0f1e52"/>
      <path id="Trazado_599890" data-name="Trazado 599890" d="M53.838,28.1a3.714,3.714,0,1,1-3.714-3.714A3.714,3.714,0,0,1,53.838,28.1" transform="translate(-4.38 -9.325)" fill="#0f1e52"/>
    </g>
  </g>
</svg>
