<svg xmlns="http://www.w3.org/2000/svg" width="54.778" height="68.245" viewBox="0 0 54.778 68.245">
  <g id="Grupo_947625" data-name="Grupo 947625" transform="translate(-630.222 -2473)">
    <g id="Grupo_882008" data-name="Grupo 882008" transform="translate(630.222 2473)">
      <g id="Grupo_882004" data-name="Grupo 882004" transform="translate(0 45.52)">
        <circle id="Elipse_7608" data-name="Elipse 7608" cx="4.08" cy="4.08" r="4.08" transform="translate(0 5.77) rotate(-45)" fill="#f27a00"/>
        <path id="Trazado_604387" data-name="Trazado 604387" d="M3326.861,2128.728a4.859,4.859,0,1,1,4.859-4.859A4.865,4.865,0,0,1,3326.861,2128.728Zm0-8.16a3.3,3.3,0,1,0,3.3,3.3A3.3,3.3,0,0,0,3326.861,2120.567Z" transform="translate(-3321.091 -2118.098)" fill="#161615"/>
      </g>
      <g id="Grupo_882005" data-name="Grupo 882005" transform="translate(5.272 0)">
        <path id="Trazado_604388" data-name="Trazado 604388" d="M3394.553,1738.137H3374.7a9.811,9.811,0,0,0-9.811,9.811v47.065a9.811,9.811,0,0,0,9.811,9.811h28.323a9.811,9.811,0,0,0,9.811-9.811v-38.595Z" transform="translate(-3364.11 -1737.358)" fill="#fff"/>
        <path id="Trazado_604389" data-name="Trazado 604389" d="M3397.3,1799.882h-28.323a10.6,10.6,0,0,1-10.59-10.59v-47.065a10.6,10.6,0,0,1,10.59-10.59h19.853a.78.78,0,0,1,.551.228l18.28,18.281a.778.778,0,0,1,.229.551v38.595A10.6,10.6,0,0,1,3397.3,1799.882Zm-28.323-66.687a9.042,9.042,0,0,0-9.032,9.032v47.065a9.042,9.042,0,0,0,9.032,9.032H3397.3a9.042,9.042,0,0,0,9.032-9.032V1751.02l-17.824-17.824Z" transform="translate(-3358.389 -1731.637)" fill="#161615"/>
      </g>
      <g id="Grupo_882006" data-name="Grupo 882006" transform="translate(34.936 0)">
        <path id="Trazado_604390" data-name="Trazado 604390" d="M3612.373,1738.137l18.281,18.281h-14.382a3.9,3.9,0,0,1-3.9-3.9Z" transform="translate(-3611.594 -1737.358)" fill="#dddddc"/>
        <path id="Trazado_604391" data-name="Trazado 604391" d="M3624.935,1751.476h-14.385a4.683,4.683,0,0,1-4.678-4.678v-14.382a.779.779,0,0,1,1.33-.551l18.245,18.245a.779.779,0,0,1-.513,1.365Zm-17.5-17.179v12.5a3.123,3.123,0,0,0,3.119,3.12h12.5Z" transform="translate(-3605.873 -1731.637)" fill="#161615"/>
      </g>
      <g id="Grupo_882007" data-name="Grupo 882007" transform="translate(0.974 26.983)">
        <path id="Trazado_604392" data-name="Trazado 604392" d="M3333.416,1963.255a4.388,4.388,0,0,0-4.388,4.388v18.375h.081a4.389,4.389,0,0,1,4.308-3.553h44.19v-19.211Z" transform="translate(-3328.249 -1962.476)" fill="#f38e1e"/>
        <path id="Trazado_604393" data-name="Trazado 604393" d="M3323.387,1981.077h-.08a.779.779,0,0,1-.779-.779v-18.376a5.173,5.173,0,0,1,5.167-5.167h44.19a.779.779,0,0,1,.779.779v19.211a.779.779,0,0,1-.779.779h-44.19a3.611,3.611,0,0,0-3.543,2.921A.779.779,0,0,1,3323.387,1981.077Zm4.308-22.764a3.613,3.613,0,0,0-3.609,3.609v15.515a5.165,5.165,0,0,1,3.609-1.471h43.411v-17.653Z" transform="translate(-3322.527 -1956.755)" fill="#161615"/>
      </g>
    </g>
    <g id="Grupo_882009" data-name="Grupo 882009" transform="translate(643.727 2505.064)">
      <path id="Trazado_604394" data-name="Trazado 604394" d="M3427.069,1999.734a.589.589,0,0,1,.575-.59h3.29c2.331,0,3.866,1.239,3.866,3.276v.029c0,2.228-1.859,3.379-4.058,3.379h-2.508v3.128a.583.583,0,1,1-1.166,0Zm3.718,5.031c1.711,0,2.833-.915,2.833-2.272v-.029c0-1.476-1.106-2.243-2.774-2.243h-2.611v4.544Z" transform="translate(-3427.069 -1999.144)" fill="#fff"/>
      <path id="Trazado_604395" data-name="Trazado 604395" d="M3509.3,1999.734a.589.589,0,0,1,.576-.59h3.01a5.148,5.148,0,0,1,5.489,5.134v.03a5.171,5.171,0,0,1-5.489,5.164h-3.01a.589.589,0,0,1-.576-.59Zm3.585,8.661a4,4,0,0,0,4.279-4.057v-.03a4.02,4.02,0,0,0-4.279-4.087h-2.42v8.174Z" transform="translate(-3499.444 -1999.144)" fill="#fff"/>
      <path id="Trazado_604396" data-name="Trazado 604396" d="M3605.564,1999.734a.589.589,0,0,1,.575-.59h6.389a.529.529,0,0,1,.531.531.542.542,0,0,1-.531.546h-5.8v3.688h5.134a.531.531,0,0,1,0,1.063h-5.134v3.983a.583.583,0,1,1-1.166,0Z" transform="translate(-3584.169 -1999.144)" fill="#fff"/>
    </g>
  </g>
</svg>
